%TF.GenerationSoftware,KiCad,Pcbnew,(5.1.9)-1*%
%TF.CreationDate,2021-06-26T09:10:03-04:00*%
%TF.ProjectId,AtariWiiWifi,41746172-6957-4696-9957-6966692e6b69,rev?*%
%TF.SameCoordinates,Original*%
%TF.FileFunction,Soldermask,Top*%
%TF.FilePolarity,Negative*%
%FSLAX46Y46*%
G04 Gerber Fmt 4.6, Leading zero omitted, Abs format (unit mm)*
G04 Created by KiCad (PCBNEW (5.1.9)-1) date 2021-06-26 09:10:03*
%MOMM*%
%LPD*%
G01*
G04 APERTURE LIST*
%ADD10O,2.000000X1.200000*%
%ADD11R,2.000000X1.200000*%
%ADD12R,1.700000X1.700000*%
%ADD13O,1.700000X1.700000*%
%ADD14C,3.200000*%
%ADD15R,1.250000X1.500000*%
%ADD16R,1.300000X1.500000*%
%ADD17R,1.500000X1.300000*%
%ADD18R,0.400000X1.100000*%
%ADD19R,0.450000X1.500000*%
%ADD20R,1.500000X1.250000*%
%ADD21R,1.060000X0.650000*%
%ADD22R,0.450000X1.450000*%
G04 APERTURE END LIST*
D10*
%TO.C,U4*%
X151130000Y-115570000D03*
D11*
X173990000Y-115570000D03*
D10*
X151130000Y-113030000D03*
X173990000Y-113030000D03*
X151130000Y-110490000D03*
X173990000Y-110490000D03*
X151130000Y-107950000D03*
X173990000Y-107950000D03*
X151130000Y-105410000D03*
X173990000Y-105410000D03*
X151130000Y-102870000D03*
X173990000Y-102870000D03*
X151130000Y-100330000D03*
X173990000Y-100330000D03*
X151130000Y-97790000D03*
X173990000Y-97790000D03*
X151130000Y-95250000D03*
X173990000Y-95250000D03*
X151130000Y-92710000D03*
X173990000Y-92710000D03*
X151130000Y-90170000D03*
X173990000Y-90170000D03*
X151130000Y-87630000D03*
X173990000Y-87630000D03*
X151130000Y-85090000D03*
X173990000Y-85090000D03*
X151130000Y-82550000D03*
X173990000Y-82550000D03*
X151130000Y-80010000D03*
X173990000Y-80010000D03*
X151130000Y-77470000D03*
X173990000Y-77470000D03*
X151130000Y-74930000D03*
X173990000Y-74930000D03*
X151130000Y-72390000D03*
X173990000Y-72390000D03*
X151130000Y-69850000D03*
X173990000Y-69850000D03*
%TD*%
D12*
%TO.C,J2A1*%
X127635000Y-91440000D03*
D13*
X127635000Y-88900000D03*
X127635000Y-86360000D03*
X127635000Y-83820000D03*
X127635000Y-81280000D03*
X127635000Y-78740000D03*
X127635000Y-76200000D03*
X127635000Y-73660000D03*
X127635000Y-71120000D03*
%TD*%
D14*
%TO.C,REF\u002A\u002A*%
X135255000Y-71120000D03*
%TD*%
%TO.C,REF\u002A\u002A*%
X168275000Y-71120000D03*
%TD*%
%TO.C,REF\u002A\u002A*%
X135255000Y-120650000D03*
%TD*%
%TO.C,REF\u002A\u002A*%
X168275000Y-120650000D03*
%TD*%
D15*
%TO.C,C1*%
X137642600Y-84627400D03*
X137642600Y-87127400D03*
%TD*%
D13*
%TO.C,J1A1*%
X127635000Y-120650000D03*
X127635000Y-118110000D03*
X127635000Y-115570000D03*
X127635000Y-113030000D03*
X127635000Y-110490000D03*
X127635000Y-107950000D03*
X127635000Y-105410000D03*
X127635000Y-102870000D03*
D12*
X127635000Y-100330000D03*
%TD*%
D16*
%TO.C,R1*%
X146050000Y-85170000D03*
X146050000Y-82470000D03*
%TD*%
D17*
%TO.C,R2*%
X156130000Y-76200000D03*
X158830000Y-76200000D03*
%TD*%
%TO.C,R3*%
X158830000Y-101600000D03*
X156130000Y-101600000D03*
%TD*%
%TO.C,R4*%
X156130000Y-104140000D03*
X158830000Y-104140000D03*
%TD*%
D18*
%TO.C,U1*%
X138030000Y-89860000D03*
X138680000Y-89860000D03*
X139330000Y-89860000D03*
X139980000Y-89860000D03*
X140630000Y-89860000D03*
X141280000Y-89860000D03*
X141930000Y-89860000D03*
X142580000Y-89860000D03*
X143230000Y-89860000D03*
X143880000Y-89860000D03*
X144530000Y-89860000D03*
X145180000Y-89860000D03*
X145180000Y-95560000D03*
X144530000Y-95560000D03*
X143880000Y-95560000D03*
X143230000Y-95560000D03*
X142580000Y-95560000D03*
X141930000Y-95560000D03*
X141280000Y-95560000D03*
X140630000Y-95560000D03*
X139980000Y-95560000D03*
X139330000Y-95560000D03*
X138680000Y-95560000D03*
X138030000Y-95560000D03*
%TD*%
D19*
%TO.C,U2*%
X138695000Y-81690000D03*
X139345000Y-81690000D03*
X139995000Y-81690000D03*
X140645000Y-81690000D03*
X141295000Y-81690000D03*
X141945000Y-81690000D03*
X142595000Y-81690000D03*
X143245000Y-81690000D03*
X143245000Y-75790000D03*
X142595000Y-75790000D03*
X141945000Y-75790000D03*
X141295000Y-75790000D03*
X140645000Y-75790000D03*
X139995000Y-75790000D03*
X139345000Y-75790000D03*
X138695000Y-75790000D03*
%TD*%
%TO.C,U3*%
X138060000Y-108810000D03*
X138710000Y-108810000D03*
X139360000Y-108810000D03*
X140010000Y-108810000D03*
X140660000Y-108810000D03*
X141310000Y-108810000D03*
X141960000Y-108810000D03*
X142610000Y-108810000D03*
X142610000Y-114710000D03*
X141960000Y-114710000D03*
X141310000Y-114710000D03*
X140660000Y-114710000D03*
X140010000Y-114710000D03*
X139360000Y-114710000D03*
X138710000Y-114710000D03*
X138060000Y-114710000D03*
%TD*%
D20*
%TO.C,C2*%
X140863000Y-117983000D03*
X143363000Y-117983000D03*
%TD*%
%TO.C,C3*%
X135605200Y-98729800D03*
X138105200Y-98729800D03*
%TD*%
%TO.C,C4*%
X140355000Y-85090000D03*
X142855000Y-85090000D03*
%TD*%
%TO.C,C5*%
X156230000Y-99060000D03*
X158730000Y-99060000D03*
%TD*%
%TO.C,C6*%
X169545000Y-108585000D03*
X167045000Y-108585000D03*
%TD*%
D13*
%TO.C,J4*%
X142875000Y-70485000D03*
D12*
X145415000Y-70485000D03*
%TD*%
D17*
%TO.C,R5*%
X156130000Y-78740000D03*
X158830000Y-78740000D03*
%TD*%
%TO.C,R6*%
X156130000Y-81280000D03*
X158830000Y-81280000D03*
%TD*%
%TO.C,R7*%
X158830000Y-106680000D03*
X156130000Y-106680000D03*
%TD*%
D16*
%TO.C,R8*%
X162560000Y-91360000D03*
X162560000Y-94060000D03*
%TD*%
D21*
%TO.C,U5*%
X167640000Y-113030000D03*
X167640000Y-111130000D03*
X169840000Y-111130000D03*
X169840000Y-112080000D03*
X169840000Y-113030000D03*
%TD*%
D22*
%TO.C,U6*%
X155530000Y-89760000D03*
X156180000Y-89760000D03*
X156830000Y-89760000D03*
X157480000Y-89760000D03*
X158130000Y-89760000D03*
X158780000Y-89760000D03*
X159430000Y-89760000D03*
X159430000Y-95660000D03*
X158780000Y-95660000D03*
X158130000Y-95660000D03*
X157480000Y-95660000D03*
X156830000Y-95660000D03*
X156180000Y-95660000D03*
X155530000Y-95660000D03*
%TD*%
D15*
%TO.C,C7*%
X154457400Y-85084600D03*
X154457400Y-87584600D03*
%TD*%
M02*
