%TF.GenerationSoftware,KiCad,Pcbnew,(5.1.9)-1*%
%TF.CreationDate,2021-06-26T09:10:02-04:00*%
%TF.ProjectId,AtariWiiWifi,41746172-6957-4696-9957-6966692e6b69,rev?*%
%TF.SameCoordinates,Original*%
%TF.FileFunction,Legend,Top*%
%TF.FilePolarity,Positive*%
%FSLAX46Y46*%
G04 Gerber Fmt 4.6, Leading zero omitted, Abs format (unit mm)*
G04 Created by KiCad (PCBNEW (5.1.9)-1) date 2021-06-26 09:10:02*
%MOMM*%
%LPD*%
G01*
G04 APERTURE LIST*
%ADD10C,0.150000*%
%ADD11C,0.177800*%
%ADD12C,0.120000*%
G04 APERTURE END LIST*
D10*
X159700595Y-69302380D02*
X159700595Y-70111904D01*
X159748214Y-70207142D01*
X159795833Y-70254761D01*
X159891071Y-70302380D01*
X160081547Y-70302380D01*
X160176785Y-70254761D01*
X160224404Y-70207142D01*
X160272023Y-70111904D01*
X160272023Y-69302380D01*
X160700595Y-70254761D02*
X160843452Y-70302380D01*
X161081547Y-70302380D01*
X161176785Y-70254761D01*
X161224404Y-70207142D01*
X161272023Y-70111904D01*
X161272023Y-70016666D01*
X161224404Y-69921428D01*
X161176785Y-69873809D01*
X161081547Y-69826190D01*
X160891071Y-69778571D01*
X160795833Y-69730952D01*
X160748214Y-69683333D01*
X160700595Y-69588095D01*
X160700595Y-69492857D01*
X160748214Y-69397619D01*
X160795833Y-69350000D01*
X160891071Y-69302380D01*
X161129166Y-69302380D01*
X161272023Y-69350000D01*
X162033928Y-69778571D02*
X162176785Y-69826190D01*
X162224404Y-69873809D01*
X162272023Y-69969047D01*
X162272023Y-70111904D01*
X162224404Y-70207142D01*
X162176785Y-70254761D01*
X162081547Y-70302380D01*
X161700595Y-70302380D01*
X161700595Y-69302380D01*
X162033928Y-69302380D01*
X162129166Y-69350000D01*
X162176785Y-69397619D01*
X162224404Y-69492857D01*
X162224404Y-69588095D01*
X162176785Y-69683333D01*
X162129166Y-69730952D01*
X162033928Y-69778571D01*
X161700595Y-69778571D01*
X146508452Y-103274761D02*
X146651309Y-103322380D01*
X146889404Y-103322380D01*
X146984642Y-103274761D01*
X147032261Y-103227142D01*
X147079880Y-103131904D01*
X147079880Y-103036666D01*
X147032261Y-102941428D01*
X146984642Y-102893809D01*
X146889404Y-102846190D01*
X146698928Y-102798571D01*
X146603690Y-102750952D01*
X146556071Y-102703333D01*
X146508452Y-102608095D01*
X146508452Y-102512857D01*
X146556071Y-102417619D01*
X146603690Y-102370000D01*
X146698928Y-102322380D01*
X146937023Y-102322380D01*
X147079880Y-102370000D01*
X147508452Y-103322380D02*
X147508452Y-102322380D01*
X147746547Y-102322380D01*
X147889404Y-102370000D01*
X147984642Y-102465238D01*
X148032261Y-102560476D01*
X148079880Y-102750952D01*
X148079880Y-102893809D01*
X148032261Y-103084285D01*
X147984642Y-103179523D01*
X147889404Y-103274761D01*
X147746547Y-103322380D01*
X147508452Y-103322380D01*
X148460833Y-103036666D02*
X148937023Y-103036666D01*
X148365595Y-103322380D02*
X148698928Y-102322380D01*
X149032261Y-103322380D01*
X146556071Y-110894761D02*
X146698928Y-110942380D01*
X146937023Y-110942380D01*
X147032261Y-110894761D01*
X147079880Y-110847142D01*
X147127500Y-110751904D01*
X147127500Y-110656666D01*
X147079880Y-110561428D01*
X147032261Y-110513809D01*
X146937023Y-110466190D01*
X146746547Y-110418571D01*
X146651309Y-110370952D01*
X146603690Y-110323333D01*
X146556071Y-110228095D01*
X146556071Y-110132857D01*
X146603690Y-110037619D01*
X146651309Y-109990000D01*
X146746547Y-109942380D01*
X146984642Y-109942380D01*
X147127500Y-109990000D01*
X148127500Y-110847142D02*
X148079880Y-110894761D01*
X147937023Y-110942380D01*
X147841785Y-110942380D01*
X147698928Y-110894761D01*
X147603690Y-110799523D01*
X147556071Y-110704285D01*
X147508452Y-110513809D01*
X147508452Y-110370952D01*
X147556071Y-110180476D01*
X147603690Y-110085238D01*
X147698928Y-109990000D01*
X147841785Y-109942380D01*
X147937023Y-109942380D01*
X148079880Y-109990000D01*
X148127500Y-110037619D01*
X149032261Y-110942380D02*
X148556071Y-110942380D01*
X148556071Y-109942380D01*
X131161309Y-118880000D02*
X131066071Y-118832380D01*
X130923214Y-118832380D01*
X130780357Y-118880000D01*
X130685119Y-118975238D01*
X130637500Y-119070476D01*
X130589880Y-119260952D01*
X130589880Y-119403809D01*
X130637500Y-119594285D01*
X130685119Y-119689523D01*
X130780357Y-119784761D01*
X130923214Y-119832380D01*
X131018452Y-119832380D01*
X131161309Y-119784761D01*
X131208928Y-119737142D01*
X131208928Y-119403809D01*
X131018452Y-119403809D01*
X132208928Y-119832380D02*
X131875595Y-119356190D01*
X131637500Y-119832380D02*
X131637500Y-118832380D01*
X132018452Y-118832380D01*
X132113690Y-118880000D01*
X132161309Y-118927619D01*
X132208928Y-119022857D01*
X132208928Y-119165714D01*
X132161309Y-119260952D01*
X132113690Y-119308571D01*
X132018452Y-119356190D01*
X131637500Y-119356190D01*
X132827976Y-119356190D02*
X132827976Y-119832380D01*
X132494642Y-118832380D02*
X132827976Y-119356190D01*
X133161309Y-118832380D01*
X130637500Y-117292380D02*
X130637500Y-116292380D01*
X131018452Y-116292380D01*
X131113690Y-116340000D01*
X131161309Y-116387619D01*
X131208928Y-116482857D01*
X131208928Y-116625714D01*
X131161309Y-116720952D01*
X131113690Y-116768571D01*
X131018452Y-116816190D01*
X130637500Y-116816190D01*
X132208928Y-117292380D02*
X131875595Y-116816190D01*
X131637500Y-117292380D02*
X131637500Y-116292380D01*
X132018452Y-116292380D01*
X132113690Y-116340000D01*
X132161309Y-116387619D01*
X132208928Y-116482857D01*
X132208928Y-116625714D01*
X132161309Y-116720952D01*
X132113690Y-116768571D01*
X132018452Y-116816190D01*
X131637500Y-116816190D01*
X133113690Y-117292380D02*
X132637500Y-117292380D01*
X132637500Y-116292380D01*
X131161309Y-101100000D02*
X131066071Y-101052380D01*
X130923214Y-101052380D01*
X130780357Y-101100000D01*
X130685119Y-101195238D01*
X130637500Y-101290476D01*
X130589880Y-101480952D01*
X130589880Y-101623809D01*
X130637500Y-101814285D01*
X130685119Y-101909523D01*
X130780357Y-102004761D01*
X130923214Y-102052380D01*
X131018452Y-102052380D01*
X131161309Y-102004761D01*
X131208928Y-101957142D01*
X131208928Y-101623809D01*
X131018452Y-101623809D01*
X132208928Y-102052380D02*
X131875595Y-101576190D01*
X131637500Y-102052380D02*
X131637500Y-101052380D01*
X132018452Y-101052380D01*
X132113690Y-101100000D01*
X132161309Y-101147619D01*
X132208928Y-101242857D01*
X132208928Y-101385714D01*
X132161309Y-101480952D01*
X132113690Y-101528571D01*
X132018452Y-101576190D01*
X131637500Y-101576190D01*
X132637500Y-102052380D02*
X132637500Y-101052380D01*
X133208928Y-102052380D01*
X133208928Y-101052380D01*
X130208928Y-120578571D02*
X130351785Y-120626190D01*
X130399404Y-120673809D01*
X130447023Y-120769047D01*
X130447023Y-120911904D01*
X130399404Y-121007142D01*
X130351785Y-121054761D01*
X130256547Y-121102380D01*
X129875595Y-121102380D01*
X129875595Y-120102380D01*
X130208928Y-120102380D01*
X130304166Y-120150000D01*
X130351785Y-120197619D01*
X130399404Y-120292857D01*
X130399404Y-120388095D01*
X130351785Y-120483333D01*
X130304166Y-120530952D01*
X130208928Y-120578571D01*
X129875595Y-120578571D01*
X130399404Y-112530000D02*
X130304166Y-112482380D01*
X130161309Y-112482380D01*
X130018452Y-112530000D01*
X129923214Y-112625238D01*
X129875595Y-112720476D01*
X129827976Y-112910952D01*
X129827976Y-113053809D01*
X129875595Y-113244285D01*
X129923214Y-113339523D01*
X130018452Y-113434761D01*
X130161309Y-113482380D01*
X130256547Y-113482380D01*
X130399404Y-113434761D01*
X130447023Y-113387142D01*
X130447023Y-113053809D01*
X130256547Y-113053809D01*
X130875595Y-113482380D02*
X130875595Y-112482380D01*
X131447023Y-113482380D01*
X131447023Y-112482380D01*
X131923214Y-113482380D02*
X131923214Y-112482380D01*
X132161309Y-112482380D01*
X132304166Y-112530000D01*
X132399404Y-112625238D01*
X132447023Y-112720476D01*
X132494642Y-112910952D01*
X132494642Y-113053809D01*
X132447023Y-113244285D01*
X132399404Y-113339523D01*
X132304166Y-113434761D01*
X132161309Y-113482380D01*
X131923214Y-113482380D01*
X129240595Y-105862380D02*
X129240595Y-104862380D01*
X129478690Y-104862380D01*
X129621547Y-104910000D01*
X129716785Y-105005238D01*
X129764404Y-105100476D01*
X129812023Y-105290952D01*
X129812023Y-105433809D01*
X129764404Y-105624285D01*
X129716785Y-105719523D01*
X129621547Y-105814761D01*
X129478690Y-105862380D01*
X129240595Y-105862380D01*
X130431071Y-104862380D02*
X130621547Y-104862380D01*
X130716785Y-104910000D01*
X130812023Y-105005238D01*
X130859642Y-105195714D01*
X130859642Y-105529047D01*
X130812023Y-105719523D01*
X130716785Y-105814761D01*
X130621547Y-105862380D01*
X130431071Y-105862380D01*
X130335833Y-105814761D01*
X130240595Y-105719523D01*
X130192976Y-105529047D01*
X130192976Y-105195714D01*
X130240595Y-105005238D01*
X130335833Y-104910000D01*
X130431071Y-104862380D01*
X131192976Y-104862380D02*
X131431071Y-105862380D01*
X131621547Y-105148095D01*
X131812023Y-105862380D01*
X132050119Y-104862380D01*
X132431071Y-105862380D02*
X132431071Y-104862380D01*
X133002500Y-105862380D01*
X133002500Y-104862380D01*
X130351785Y-107402380D02*
X129875595Y-107402380D01*
X129827976Y-107878571D01*
X129875595Y-107830952D01*
X129970833Y-107783333D01*
X130208928Y-107783333D01*
X130304166Y-107830952D01*
X130351785Y-107878571D01*
X130399404Y-107973809D01*
X130399404Y-108211904D01*
X130351785Y-108307142D01*
X130304166Y-108354761D01*
X130208928Y-108402380D01*
X129970833Y-108402380D01*
X129875595Y-108354761D01*
X129827976Y-108307142D01*
X130685119Y-107402380D02*
X131018452Y-108402380D01*
X131351785Y-107402380D01*
X130351785Y-110942380D02*
X129875595Y-110942380D01*
X129875595Y-109942380D01*
X130685119Y-110418571D02*
X131018452Y-110418571D01*
X131161309Y-110942380D02*
X130685119Y-110942380D01*
X130685119Y-109942380D01*
X131161309Y-109942380D01*
X131923214Y-110418571D02*
X131589880Y-110418571D01*
X131589880Y-110942380D02*
X131589880Y-109942380D01*
X132066071Y-109942380D01*
X132304166Y-109942380D02*
X132875595Y-109942380D01*
X132589880Y-110942380D02*
X132589880Y-109942380D01*
X129827976Y-118276666D02*
X130304166Y-118276666D01*
X129732738Y-118562380D02*
X130066071Y-117562380D01*
X130399404Y-118562380D01*
X130447023Y-116022380D02*
X130113690Y-115546190D01*
X129875595Y-116022380D02*
X129875595Y-115022380D01*
X130256547Y-115022380D01*
X130351785Y-115070000D01*
X130399404Y-115117619D01*
X130447023Y-115212857D01*
X130447023Y-115355714D01*
X130399404Y-115450952D01*
X130351785Y-115498571D01*
X130256547Y-115546190D01*
X129875595Y-115546190D01*
X130875595Y-116022380D02*
X130875595Y-115022380D01*
X131875595Y-115070000D02*
X131780357Y-115022380D01*
X131637500Y-115022380D01*
X131494642Y-115070000D01*
X131399404Y-115165238D01*
X131351785Y-115260476D01*
X131304166Y-115450952D01*
X131304166Y-115593809D01*
X131351785Y-115784285D01*
X131399404Y-115879523D01*
X131494642Y-115974761D01*
X131637500Y-116022380D01*
X131732738Y-116022380D01*
X131875595Y-115974761D01*
X131923214Y-115927142D01*
X131923214Y-115593809D01*
X131732738Y-115593809D01*
X132351785Y-116022380D02*
X132351785Y-115022380D01*
X132351785Y-115498571D02*
X132923214Y-115498571D01*
X132923214Y-116022380D02*
X132923214Y-115022380D01*
X133256547Y-115022380D02*
X133827976Y-115022380D01*
X133542261Y-116022380D02*
X133542261Y-115022380D01*
X129875595Y-99782380D02*
X129875595Y-100591904D01*
X129923214Y-100687142D01*
X129970833Y-100734761D01*
X130066071Y-100782380D01*
X130256547Y-100782380D01*
X130351785Y-100734761D01*
X130399404Y-100687142D01*
X130447023Y-100591904D01*
X130447023Y-99782380D01*
X130923214Y-100782380D02*
X130923214Y-99782380D01*
X131304166Y-99782380D01*
X131399404Y-99830000D01*
X131447023Y-99877619D01*
X131494642Y-99972857D01*
X131494642Y-100115714D01*
X131447023Y-100210952D01*
X131399404Y-100258571D01*
X131304166Y-100306190D01*
X130923214Y-100306190D01*
X129732738Y-102322380D02*
X130304166Y-102322380D01*
X130018452Y-103322380D02*
X130018452Y-102322380D01*
X131208928Y-103322380D02*
X130875595Y-102846190D01*
X130637500Y-103322380D02*
X130637500Y-102322380D01*
X131018452Y-102322380D01*
X131113690Y-102370000D01*
X131161309Y-102417619D01*
X131208928Y-102512857D01*
X131208928Y-102655714D01*
X131161309Y-102750952D01*
X131113690Y-102798571D01*
X131018452Y-102846190D01*
X130637500Y-102846190D01*
X131637500Y-103322380D02*
X131637500Y-102322380D01*
X132637500Y-102370000D02*
X132542261Y-102322380D01*
X132399404Y-102322380D01*
X132256547Y-102370000D01*
X132161309Y-102465238D01*
X132113690Y-102560476D01*
X132066071Y-102750952D01*
X132066071Y-102893809D01*
X132113690Y-103084285D01*
X132161309Y-103179523D01*
X132256547Y-103274761D01*
X132399404Y-103322380D01*
X132494642Y-103322380D01*
X132637500Y-103274761D01*
X132685119Y-103227142D01*
X132685119Y-102893809D01*
X132494642Y-102893809D01*
X130970833Y-104068571D02*
X131113690Y-104116190D01*
X131161309Y-104163809D01*
X131208928Y-104259047D01*
X131208928Y-104401904D01*
X131161309Y-104497142D01*
X131113690Y-104544761D01*
X131018452Y-104592380D01*
X130637500Y-104592380D01*
X130637500Y-103592380D01*
X130970833Y-103592380D01*
X131066071Y-103640000D01*
X131113690Y-103687619D01*
X131161309Y-103782857D01*
X131161309Y-103878095D01*
X131113690Y-103973333D01*
X131066071Y-104020952D01*
X130970833Y-104068571D01*
X130637500Y-104068571D01*
X132113690Y-104592380D02*
X131637500Y-104592380D01*
X131637500Y-103592380D01*
X132447023Y-103592380D02*
X132447023Y-104401904D01*
X132494642Y-104497142D01*
X132542261Y-104544761D01*
X132637500Y-104592380D01*
X132827976Y-104592380D01*
X132923214Y-104544761D01*
X132970833Y-104497142D01*
X133018452Y-104401904D01*
X133018452Y-103592380D01*
X130827976Y-121372380D02*
X131018452Y-121372380D01*
X131113690Y-121420000D01*
X131208928Y-121515238D01*
X131256547Y-121705714D01*
X131256547Y-122039047D01*
X131208928Y-122229523D01*
X131113690Y-122324761D01*
X131018452Y-122372380D01*
X130827976Y-122372380D01*
X130732738Y-122324761D01*
X130637500Y-122229523D01*
X130589880Y-122039047D01*
X130589880Y-121705714D01*
X130637500Y-121515238D01*
X130732738Y-121420000D01*
X130827976Y-121372380D01*
X132256547Y-122372380D02*
X131923214Y-121896190D01*
X131685119Y-122372380D02*
X131685119Y-121372380D01*
X132066071Y-121372380D01*
X132161309Y-121420000D01*
X132208928Y-121467619D01*
X132256547Y-121562857D01*
X132256547Y-121705714D01*
X132208928Y-121800952D01*
X132161309Y-121848571D01*
X132066071Y-121896190D01*
X131685119Y-121896190D01*
X133208928Y-121420000D02*
X133113690Y-121372380D01*
X132970833Y-121372380D01*
X132827976Y-121420000D01*
X132732738Y-121515238D01*
X132685119Y-121610476D01*
X132637500Y-121800952D01*
X132637500Y-121943809D01*
X132685119Y-122134285D01*
X132732738Y-122229523D01*
X132827976Y-122324761D01*
X132970833Y-122372380D01*
X133066071Y-122372380D01*
X133208928Y-122324761D01*
X133256547Y-122277142D01*
X133256547Y-121943809D01*
X133066071Y-121943809D01*
X130542261Y-111212380D02*
X130780357Y-112212380D01*
X130970833Y-111498095D01*
X131161309Y-112212380D01*
X131399404Y-111212380D01*
X131780357Y-112212380D02*
X131780357Y-111212380D01*
X131780357Y-111688571D02*
X132351785Y-111688571D01*
X132351785Y-112212380D02*
X132351785Y-111212380D01*
X132685119Y-111212380D02*
X133256547Y-111212380D01*
X132970833Y-112212380D02*
X132970833Y-111212380D01*
X131208928Y-109672380D02*
X130875595Y-109196190D01*
X130637500Y-109672380D02*
X130637500Y-108672380D01*
X131018452Y-108672380D01*
X131113690Y-108720000D01*
X131161309Y-108767619D01*
X131208928Y-108862857D01*
X131208928Y-109005714D01*
X131161309Y-109100952D01*
X131113690Y-109148571D01*
X131018452Y-109196190D01*
X130637500Y-109196190D01*
X131637500Y-109148571D02*
X131970833Y-109148571D01*
X132113690Y-109672380D02*
X131637500Y-109672380D01*
X131637500Y-108672380D01*
X132113690Y-108672380D01*
X132542261Y-109672380D02*
X132542261Y-108672380D01*
X132780357Y-108672380D01*
X132923214Y-108720000D01*
X133018452Y-108815238D01*
X133066071Y-108910476D01*
X133113690Y-109100952D01*
X133113690Y-109243809D01*
X133066071Y-109434285D01*
X133018452Y-109529523D01*
X132923214Y-109624761D01*
X132780357Y-109672380D01*
X132542261Y-109672380D01*
X130970833Y-114228571D02*
X131113690Y-114276190D01*
X131161309Y-114323809D01*
X131208928Y-114419047D01*
X131208928Y-114561904D01*
X131161309Y-114657142D01*
X131113690Y-114704761D01*
X131018452Y-114752380D01*
X130637500Y-114752380D01*
X130637500Y-113752380D01*
X130970833Y-113752380D01*
X131066071Y-113800000D01*
X131113690Y-113847619D01*
X131161309Y-113942857D01*
X131161309Y-114038095D01*
X131113690Y-114133333D01*
X131066071Y-114180952D01*
X130970833Y-114228571D01*
X130637500Y-114228571D01*
X132113690Y-114752380D02*
X131637500Y-114752380D01*
X131637500Y-113752380D01*
X132447023Y-114752380D02*
X132447023Y-113752380D01*
X133018452Y-114752380D02*
X132589880Y-114180952D01*
X133018452Y-113752380D02*
X132447023Y-114323809D01*
X130192976Y-106656190D02*
X130192976Y-107132380D01*
X129859642Y-106132380D02*
X130192976Y-106656190D01*
X130526309Y-106132380D01*
X130859642Y-106608571D02*
X131192976Y-106608571D01*
X131335833Y-107132380D02*
X130859642Y-107132380D01*
X130859642Y-106132380D01*
X131335833Y-106132380D01*
X132240595Y-107132380D02*
X131764404Y-107132380D01*
X131764404Y-106132380D01*
X131161309Y-74430000D02*
X131066071Y-74382380D01*
X130923214Y-74382380D01*
X130780357Y-74430000D01*
X130685119Y-74525238D01*
X130637500Y-74620476D01*
X130589880Y-74810952D01*
X130589880Y-74953809D01*
X130637500Y-75144285D01*
X130685119Y-75239523D01*
X130780357Y-75334761D01*
X130923214Y-75382380D01*
X131018452Y-75382380D01*
X131161309Y-75334761D01*
X131208928Y-75287142D01*
X131208928Y-74953809D01*
X131018452Y-74953809D01*
X132208928Y-75382380D02*
X131875595Y-74906190D01*
X131637500Y-75382380D02*
X131637500Y-74382380D01*
X132018452Y-74382380D01*
X132113690Y-74430000D01*
X132161309Y-74477619D01*
X132208928Y-74572857D01*
X132208928Y-74715714D01*
X132161309Y-74810952D01*
X132113690Y-74858571D01*
X132018452Y-74906190D01*
X131637500Y-74906190D01*
X132827976Y-74906190D02*
X132827976Y-75382380D01*
X132494642Y-74382380D02*
X132827976Y-74906190D01*
X133161309Y-74382380D01*
X130637500Y-77922380D02*
X130637500Y-76922380D01*
X131018452Y-76922380D01*
X131113690Y-76970000D01*
X131161309Y-77017619D01*
X131208928Y-77112857D01*
X131208928Y-77255714D01*
X131161309Y-77350952D01*
X131113690Y-77398571D01*
X131018452Y-77446190D01*
X130637500Y-77446190D01*
X132208928Y-77922380D02*
X131875595Y-77446190D01*
X131637500Y-77922380D02*
X131637500Y-76922380D01*
X132018452Y-76922380D01*
X132113690Y-76970000D01*
X132161309Y-77017619D01*
X132208928Y-77112857D01*
X132208928Y-77255714D01*
X132161309Y-77350952D01*
X132113690Y-77398571D01*
X132018452Y-77446190D01*
X131637500Y-77446190D01*
X133113690Y-77922380D02*
X132637500Y-77922380D01*
X132637500Y-76922380D01*
X130970833Y-79938571D02*
X131113690Y-79986190D01*
X131161309Y-80033809D01*
X131208928Y-80129047D01*
X131208928Y-80271904D01*
X131161309Y-80367142D01*
X131113690Y-80414761D01*
X131018452Y-80462380D01*
X130637500Y-80462380D01*
X130637500Y-79462380D01*
X130970833Y-79462380D01*
X131066071Y-79510000D01*
X131113690Y-79557619D01*
X131161309Y-79652857D01*
X131161309Y-79748095D01*
X131113690Y-79843333D01*
X131066071Y-79890952D01*
X130970833Y-79938571D01*
X130637500Y-79938571D01*
X132113690Y-80462380D02*
X131637500Y-80462380D01*
X131637500Y-79462380D01*
X132447023Y-80462380D02*
X132447023Y-79462380D01*
X133018452Y-80462380D02*
X132589880Y-79890952D01*
X133018452Y-79462380D02*
X132447023Y-80033809D01*
X130542261Y-82002380D02*
X130780357Y-83002380D01*
X130970833Y-82288095D01*
X131161309Y-83002380D01*
X131399404Y-82002380D01*
X131780357Y-83002380D02*
X131780357Y-82002380D01*
X131780357Y-82478571D02*
X132351785Y-82478571D01*
X132351785Y-83002380D02*
X132351785Y-82002380D01*
X132685119Y-82002380D02*
X133256547Y-82002380D01*
X132970833Y-83002380D02*
X132970833Y-82002380D01*
X131208928Y-85542380D02*
X130875595Y-85066190D01*
X130637500Y-85542380D02*
X130637500Y-84542380D01*
X131018452Y-84542380D01*
X131113690Y-84590000D01*
X131161309Y-84637619D01*
X131208928Y-84732857D01*
X131208928Y-84875714D01*
X131161309Y-84970952D01*
X131113690Y-85018571D01*
X131018452Y-85066190D01*
X130637500Y-85066190D01*
X131637500Y-85018571D02*
X131970833Y-85018571D01*
X132113690Y-85542380D02*
X131637500Y-85542380D01*
X131637500Y-84542380D01*
X132113690Y-84542380D01*
X132542261Y-85542380D02*
X132542261Y-84542380D01*
X132780357Y-84542380D01*
X132923214Y-84590000D01*
X133018452Y-84685238D01*
X133066071Y-84780476D01*
X133113690Y-84970952D01*
X133113690Y-85113809D01*
X133066071Y-85304285D01*
X133018452Y-85399523D01*
X132923214Y-85494761D01*
X132780357Y-85542380D01*
X132542261Y-85542380D01*
X130827976Y-87606190D02*
X130827976Y-88082380D01*
X130494642Y-87082380D02*
X130827976Y-87606190D01*
X131161309Y-87082380D01*
X131494642Y-87558571D02*
X131827976Y-87558571D01*
X131970833Y-88082380D02*
X131494642Y-88082380D01*
X131494642Y-87082380D01*
X131970833Y-87082380D01*
X132875595Y-88082380D02*
X132399404Y-88082380D01*
X132399404Y-87082380D01*
X130970833Y-90098571D02*
X131113690Y-90146190D01*
X131161309Y-90193809D01*
X131208928Y-90289047D01*
X131208928Y-90431904D01*
X131161309Y-90527142D01*
X131113690Y-90574761D01*
X131018452Y-90622380D01*
X130637500Y-90622380D01*
X130637500Y-89622380D01*
X130970833Y-89622380D01*
X131066071Y-89670000D01*
X131113690Y-89717619D01*
X131161309Y-89812857D01*
X131161309Y-89908095D01*
X131113690Y-90003333D01*
X131066071Y-90050952D01*
X130970833Y-90098571D01*
X130637500Y-90098571D01*
X132113690Y-90622380D02*
X131637500Y-90622380D01*
X131637500Y-89622380D01*
X132447023Y-89622380D02*
X132447023Y-90431904D01*
X132494642Y-90527142D01*
X132542261Y-90574761D01*
X132637500Y-90622380D01*
X132827976Y-90622380D01*
X132923214Y-90574761D01*
X132970833Y-90527142D01*
X133018452Y-90431904D01*
X133018452Y-89622380D01*
X130827976Y-71842380D02*
X131018452Y-71842380D01*
X131113690Y-71890000D01*
X131208928Y-71985238D01*
X131256547Y-72175714D01*
X131256547Y-72509047D01*
X131208928Y-72699523D01*
X131113690Y-72794761D01*
X131018452Y-72842380D01*
X130827976Y-72842380D01*
X130732738Y-72794761D01*
X130637500Y-72699523D01*
X130589880Y-72509047D01*
X130589880Y-72175714D01*
X130637500Y-71985238D01*
X130732738Y-71890000D01*
X130827976Y-71842380D01*
X132256547Y-72842380D02*
X131923214Y-72366190D01*
X131685119Y-72842380D02*
X131685119Y-71842380D01*
X132066071Y-71842380D01*
X132161309Y-71890000D01*
X132208928Y-71937619D01*
X132256547Y-72032857D01*
X132256547Y-72175714D01*
X132208928Y-72270952D01*
X132161309Y-72318571D01*
X132066071Y-72366190D01*
X131685119Y-72366190D01*
X133208928Y-71890000D02*
X133113690Y-71842380D01*
X132970833Y-71842380D01*
X132827976Y-71890000D01*
X132732738Y-71985238D01*
X132685119Y-72080476D01*
X132637500Y-72270952D01*
X132637500Y-72413809D01*
X132685119Y-72604285D01*
X132732738Y-72699523D01*
X132827976Y-72794761D01*
X132970833Y-72842380D01*
X133066071Y-72842380D01*
X133208928Y-72794761D01*
X133256547Y-72747142D01*
X133256547Y-72413809D01*
X133066071Y-72413809D01*
X131161309Y-92210000D02*
X131066071Y-92162380D01*
X130923214Y-92162380D01*
X130780357Y-92210000D01*
X130685119Y-92305238D01*
X130637500Y-92400476D01*
X130589880Y-92590952D01*
X130589880Y-92733809D01*
X130637500Y-92924285D01*
X130685119Y-93019523D01*
X130780357Y-93114761D01*
X130923214Y-93162380D01*
X131018452Y-93162380D01*
X131161309Y-93114761D01*
X131208928Y-93067142D01*
X131208928Y-92733809D01*
X131018452Y-92733809D01*
X132208928Y-93162380D02*
X131875595Y-92686190D01*
X131637500Y-93162380D02*
X131637500Y-92162380D01*
X132018452Y-92162380D01*
X132113690Y-92210000D01*
X132161309Y-92257619D01*
X132208928Y-92352857D01*
X132208928Y-92495714D01*
X132161309Y-92590952D01*
X132113690Y-92638571D01*
X132018452Y-92686190D01*
X131637500Y-92686190D01*
X132637500Y-93162380D02*
X132637500Y-92162380D01*
X133208928Y-93162380D01*
X133208928Y-92162380D01*
X129875595Y-90892380D02*
X129875595Y-91701904D01*
X129923214Y-91797142D01*
X129970833Y-91844761D01*
X130066071Y-91892380D01*
X130256547Y-91892380D01*
X130351785Y-91844761D01*
X130399404Y-91797142D01*
X130447023Y-91701904D01*
X130447023Y-90892380D01*
X130923214Y-91892380D02*
X130923214Y-90892380D01*
X131304166Y-90892380D01*
X131399404Y-90940000D01*
X131447023Y-90987619D01*
X131494642Y-91082857D01*
X131494642Y-91225714D01*
X131447023Y-91320952D01*
X131399404Y-91368571D01*
X131304166Y-91416190D01*
X130923214Y-91416190D01*
X129732738Y-88352380D02*
X130304166Y-88352380D01*
X130018452Y-89352380D02*
X130018452Y-88352380D01*
X131208928Y-89352380D02*
X130875595Y-88876190D01*
X130637500Y-89352380D02*
X130637500Y-88352380D01*
X131018452Y-88352380D01*
X131113690Y-88400000D01*
X131161309Y-88447619D01*
X131208928Y-88542857D01*
X131208928Y-88685714D01*
X131161309Y-88780952D01*
X131113690Y-88828571D01*
X131018452Y-88876190D01*
X130637500Y-88876190D01*
X131637500Y-89352380D02*
X131637500Y-88352380D01*
X132637500Y-88400000D02*
X132542261Y-88352380D01*
X132399404Y-88352380D01*
X132256547Y-88400000D01*
X132161309Y-88495238D01*
X132113690Y-88590476D01*
X132066071Y-88780952D01*
X132066071Y-88923809D01*
X132113690Y-89114285D01*
X132161309Y-89209523D01*
X132256547Y-89304761D01*
X132399404Y-89352380D01*
X132494642Y-89352380D01*
X132637500Y-89304761D01*
X132685119Y-89257142D01*
X132685119Y-88923809D01*
X132494642Y-88923809D01*
X129875595Y-86812380D02*
X129875595Y-85812380D01*
X130113690Y-85812380D01*
X130256547Y-85860000D01*
X130351785Y-85955238D01*
X130399404Y-86050476D01*
X130447023Y-86240952D01*
X130447023Y-86383809D01*
X130399404Y-86574285D01*
X130351785Y-86669523D01*
X130256547Y-86764761D01*
X130113690Y-86812380D01*
X129875595Y-86812380D01*
X131066071Y-85812380D02*
X131256547Y-85812380D01*
X131351785Y-85860000D01*
X131447023Y-85955238D01*
X131494642Y-86145714D01*
X131494642Y-86479047D01*
X131447023Y-86669523D01*
X131351785Y-86764761D01*
X131256547Y-86812380D01*
X131066071Y-86812380D01*
X130970833Y-86764761D01*
X130875595Y-86669523D01*
X130827976Y-86479047D01*
X130827976Y-86145714D01*
X130875595Y-85955238D01*
X130970833Y-85860000D01*
X131066071Y-85812380D01*
X131827976Y-85812380D02*
X132066071Y-86812380D01*
X132256547Y-86098095D01*
X132447023Y-86812380D01*
X132685119Y-85812380D01*
X133066071Y-86812380D02*
X133066071Y-85812380D01*
X133637500Y-86812380D01*
X133637500Y-85812380D01*
X130351785Y-83272380D02*
X129875595Y-83272380D01*
X129827976Y-83748571D01*
X129875595Y-83700952D01*
X129970833Y-83653333D01*
X130208928Y-83653333D01*
X130304166Y-83700952D01*
X130351785Y-83748571D01*
X130399404Y-83843809D01*
X130399404Y-84081904D01*
X130351785Y-84177142D01*
X130304166Y-84224761D01*
X130208928Y-84272380D01*
X129970833Y-84272380D01*
X129875595Y-84224761D01*
X129827976Y-84177142D01*
X130685119Y-83272380D02*
X131018452Y-84272380D01*
X131351785Y-83272380D01*
X130351785Y-81732380D02*
X129875595Y-81732380D01*
X129875595Y-80732380D01*
X130685119Y-81208571D02*
X131018452Y-81208571D01*
X131161309Y-81732380D02*
X130685119Y-81732380D01*
X130685119Y-80732380D01*
X131161309Y-80732380D01*
X131923214Y-81208571D02*
X131589880Y-81208571D01*
X131589880Y-81732380D02*
X131589880Y-80732380D01*
X132066071Y-80732380D01*
X132304166Y-80732380D02*
X132875595Y-80732380D01*
X132589880Y-81732380D02*
X132589880Y-80732380D01*
X130399404Y-78240000D02*
X130304166Y-78192380D01*
X130161309Y-78192380D01*
X130018452Y-78240000D01*
X129923214Y-78335238D01*
X129875595Y-78430476D01*
X129827976Y-78620952D01*
X129827976Y-78763809D01*
X129875595Y-78954285D01*
X129923214Y-79049523D01*
X130018452Y-79144761D01*
X130161309Y-79192380D01*
X130256547Y-79192380D01*
X130399404Y-79144761D01*
X130447023Y-79097142D01*
X130447023Y-78763809D01*
X130256547Y-78763809D01*
X130875595Y-79192380D02*
X130875595Y-78192380D01*
X131447023Y-79192380D01*
X131447023Y-78192380D01*
X131923214Y-79192380D02*
X131923214Y-78192380D01*
X132161309Y-78192380D01*
X132304166Y-78240000D01*
X132399404Y-78335238D01*
X132447023Y-78430476D01*
X132494642Y-78620952D01*
X132494642Y-78763809D01*
X132447023Y-78954285D01*
X132399404Y-79049523D01*
X132304166Y-79144761D01*
X132161309Y-79192380D01*
X131923214Y-79192380D01*
X130447023Y-76652380D02*
X130113690Y-76176190D01*
X129875595Y-76652380D02*
X129875595Y-75652380D01*
X130256547Y-75652380D01*
X130351785Y-75700000D01*
X130399404Y-75747619D01*
X130447023Y-75842857D01*
X130447023Y-75985714D01*
X130399404Y-76080952D01*
X130351785Y-76128571D01*
X130256547Y-76176190D01*
X129875595Y-76176190D01*
X130875595Y-76652380D02*
X130875595Y-75652380D01*
X131875595Y-75700000D02*
X131780357Y-75652380D01*
X131637500Y-75652380D01*
X131494642Y-75700000D01*
X131399404Y-75795238D01*
X131351785Y-75890476D01*
X131304166Y-76080952D01*
X131304166Y-76223809D01*
X131351785Y-76414285D01*
X131399404Y-76509523D01*
X131494642Y-76604761D01*
X131637500Y-76652380D01*
X131732738Y-76652380D01*
X131875595Y-76604761D01*
X131923214Y-76557142D01*
X131923214Y-76223809D01*
X131732738Y-76223809D01*
X132351785Y-76652380D02*
X132351785Y-75652380D01*
X132351785Y-76128571D02*
X132923214Y-76128571D01*
X132923214Y-76652380D02*
X132923214Y-75652380D01*
X133256547Y-75652380D02*
X133827976Y-75652380D01*
X133542261Y-76652380D02*
X133542261Y-75652380D01*
X129827976Y-73826666D02*
X130304166Y-73826666D01*
X129732738Y-74112380D02*
X130066071Y-73112380D01*
X130399404Y-74112380D01*
X130208928Y-71048571D02*
X130351785Y-71096190D01*
X130399404Y-71143809D01*
X130447023Y-71239047D01*
X130447023Y-71381904D01*
X130399404Y-71477142D01*
X130351785Y-71524761D01*
X130256547Y-71572380D01*
X129875595Y-71572380D01*
X129875595Y-70572380D01*
X130208928Y-70572380D01*
X130304166Y-70620000D01*
X130351785Y-70667619D01*
X130399404Y-70762857D01*
X130399404Y-70858095D01*
X130351785Y-70953333D01*
X130304166Y-71000952D01*
X130208928Y-71048571D01*
X129875595Y-71048571D01*
D11*
X165133866Y-103142142D02*
X165133866Y-102537380D01*
X165496723Y-103263095D02*
X164226723Y-102839761D01*
X165496723Y-102416428D01*
X164650057Y-102174523D02*
X164650057Y-101690714D01*
X164226723Y-101993095D02*
X165315295Y-101993095D01*
X165436247Y-101932619D01*
X165496723Y-101811666D01*
X165496723Y-101690714D01*
X165496723Y-100723095D02*
X164831485Y-100723095D01*
X164710533Y-100783571D01*
X164650057Y-100904523D01*
X164650057Y-101146428D01*
X164710533Y-101267380D01*
X165436247Y-100723095D02*
X165496723Y-100844047D01*
X165496723Y-101146428D01*
X165436247Y-101267380D01*
X165315295Y-101327857D01*
X165194342Y-101327857D01*
X165073390Y-101267380D01*
X165012914Y-101146428D01*
X165012914Y-100844047D01*
X164952438Y-100723095D01*
X165496723Y-100118333D02*
X164650057Y-100118333D01*
X164891961Y-100118333D02*
X164771009Y-100057857D01*
X164710533Y-99997380D01*
X164650057Y-99876428D01*
X164650057Y-99755476D01*
X165496723Y-99332142D02*
X164650057Y-99332142D01*
X164226723Y-99332142D02*
X164287200Y-99392619D01*
X164347676Y-99332142D01*
X164287200Y-99271666D01*
X164226723Y-99332142D01*
X164347676Y-99332142D01*
X164831485Y-97759761D02*
X164831485Y-97336428D01*
X165496723Y-97155000D02*
X165496723Y-97759761D01*
X164226723Y-97759761D01*
X164226723Y-97155000D01*
X165436247Y-96671190D02*
X165496723Y-96489761D01*
X165496723Y-96187380D01*
X165436247Y-96066428D01*
X165375771Y-96005952D01*
X165254819Y-95945476D01*
X165133866Y-95945476D01*
X165012914Y-96005952D01*
X164952438Y-96066428D01*
X164891961Y-96187380D01*
X164831485Y-96429285D01*
X164771009Y-96550238D01*
X164710533Y-96610714D01*
X164589580Y-96671190D01*
X164468628Y-96671190D01*
X164347676Y-96610714D01*
X164287200Y-96550238D01*
X164226723Y-96429285D01*
X164226723Y-96126904D01*
X164287200Y-95945476D01*
X165496723Y-95401190D02*
X164226723Y-95401190D01*
X164226723Y-94917380D01*
X164287200Y-94796428D01*
X164347676Y-94735952D01*
X164468628Y-94675476D01*
X164650057Y-94675476D01*
X164771009Y-94735952D01*
X164831485Y-94796428D01*
X164891961Y-94917380D01*
X164891961Y-95401190D01*
X164226723Y-94252142D02*
X164226723Y-93465952D01*
X164710533Y-93889285D01*
X164710533Y-93707857D01*
X164771009Y-93586904D01*
X164831485Y-93526428D01*
X164952438Y-93465952D01*
X165254819Y-93465952D01*
X165375771Y-93526428D01*
X165436247Y-93586904D01*
X165496723Y-93707857D01*
X165496723Y-94070714D01*
X165436247Y-94191666D01*
X165375771Y-94252142D01*
X164347676Y-92982142D02*
X164287200Y-92921666D01*
X164226723Y-92800714D01*
X164226723Y-92498333D01*
X164287200Y-92377380D01*
X164347676Y-92316904D01*
X164468628Y-92256428D01*
X164589580Y-92256428D01*
X164771009Y-92316904D01*
X165496723Y-93042619D01*
X165496723Y-92256428D01*
X164226723Y-90865476D02*
X165496723Y-90563095D01*
X164589580Y-90321190D01*
X165496723Y-90079285D01*
X164226723Y-89776904D01*
X165496723Y-89293095D02*
X164650057Y-89293095D01*
X164226723Y-89293095D02*
X164287200Y-89353571D01*
X164347676Y-89293095D01*
X164287200Y-89232619D01*
X164226723Y-89293095D01*
X164347676Y-89293095D01*
X165496723Y-88688333D02*
X164650057Y-88688333D01*
X164891961Y-88688333D02*
X164771009Y-88627857D01*
X164710533Y-88567380D01*
X164650057Y-88446428D01*
X164650057Y-88325476D01*
X165436247Y-87418333D02*
X165496723Y-87539285D01*
X165496723Y-87781190D01*
X165436247Y-87902142D01*
X165315295Y-87962619D01*
X164831485Y-87962619D01*
X164710533Y-87902142D01*
X164650057Y-87781190D01*
X164650057Y-87539285D01*
X164710533Y-87418333D01*
X164831485Y-87357857D01*
X164952438Y-87357857D01*
X165073390Y-87962619D01*
X165496723Y-86632142D02*
X165436247Y-86753095D01*
X165315295Y-86813571D01*
X164226723Y-86813571D01*
X165436247Y-85664523D02*
X165496723Y-85785476D01*
X165496723Y-86027380D01*
X165436247Y-86148333D01*
X165315295Y-86208809D01*
X164831485Y-86208809D01*
X164710533Y-86148333D01*
X164650057Y-86027380D01*
X164650057Y-85785476D01*
X164710533Y-85664523D01*
X164831485Y-85604047D01*
X164952438Y-85604047D01*
X165073390Y-86208809D01*
X165436247Y-85120238D02*
X165496723Y-84999285D01*
X165496723Y-84757380D01*
X165436247Y-84636428D01*
X165315295Y-84575952D01*
X165254819Y-84575952D01*
X165133866Y-84636428D01*
X165073390Y-84757380D01*
X165073390Y-84938809D01*
X165012914Y-85059761D01*
X164891961Y-85120238D01*
X164831485Y-85120238D01*
X164710533Y-85059761D01*
X164650057Y-84938809D01*
X164650057Y-84757380D01*
X164710533Y-84636428D01*
X165436247Y-84092142D02*
X165496723Y-83971190D01*
X165496723Y-83729285D01*
X165436247Y-83608333D01*
X165315295Y-83547857D01*
X165254819Y-83547857D01*
X165133866Y-83608333D01*
X165073390Y-83729285D01*
X165073390Y-83910714D01*
X165012914Y-84031666D01*
X164891961Y-84092142D01*
X164831485Y-84092142D01*
X164710533Y-84031666D01*
X164650057Y-83910714D01*
X164650057Y-83729285D01*
X164710533Y-83608333D01*
X167579523Y-95068571D02*
X166974761Y-95491904D01*
X167579523Y-95794285D02*
X166309523Y-95794285D01*
X166309523Y-95310476D01*
X166370000Y-95189523D01*
X166430476Y-95129047D01*
X166551428Y-95068571D01*
X166732857Y-95068571D01*
X166853809Y-95129047D01*
X166914285Y-95189523D01*
X166974761Y-95310476D01*
X166974761Y-95794285D01*
X167519047Y-94040476D02*
X167579523Y-94161428D01*
X167579523Y-94403333D01*
X167519047Y-94524285D01*
X167398095Y-94584761D01*
X166914285Y-94584761D01*
X166793333Y-94524285D01*
X166732857Y-94403333D01*
X166732857Y-94161428D01*
X166793333Y-94040476D01*
X166914285Y-93980000D01*
X167035238Y-93980000D01*
X167156190Y-94584761D01*
X166732857Y-93556666D02*
X167579523Y-93254285D01*
X166732857Y-92951904D01*
X166309523Y-91621428D02*
X166309523Y-90835238D01*
X166793333Y-91258571D01*
X166793333Y-91077142D01*
X166853809Y-90956190D01*
X166914285Y-90895714D01*
X167035238Y-90835238D01*
X167337619Y-90835238D01*
X167458571Y-90895714D01*
X167519047Y-90956190D01*
X167579523Y-91077142D01*
X167579523Y-91440000D01*
X167519047Y-91560952D01*
X167458571Y-91621428D01*
X169662323Y-99664761D02*
X168815657Y-99664761D01*
X168936609Y-99664761D02*
X168876133Y-99604285D01*
X168815657Y-99483333D01*
X168815657Y-99301904D01*
X168876133Y-99180952D01*
X168997085Y-99120476D01*
X169662323Y-99120476D01*
X168997085Y-99120476D02*
X168876133Y-99060000D01*
X168815657Y-98939047D01*
X168815657Y-98757619D01*
X168876133Y-98636666D01*
X168997085Y-98576190D01*
X169662323Y-98576190D01*
X168815657Y-97427142D02*
X169662323Y-97427142D01*
X168815657Y-97971428D02*
X169480895Y-97971428D01*
X169601847Y-97910952D01*
X169662323Y-97790000D01*
X169662323Y-97608571D01*
X169601847Y-97487619D01*
X169541371Y-97427142D01*
X169662323Y-96640952D02*
X169601847Y-96761904D01*
X169480895Y-96822380D01*
X168392323Y-96822380D01*
X169601847Y-95612857D02*
X169662323Y-95733809D01*
X169662323Y-95975714D01*
X169601847Y-96096666D01*
X169541371Y-96157142D01*
X169420419Y-96217619D01*
X169057561Y-96217619D01*
X168936609Y-96157142D01*
X168876133Y-96096666D01*
X168815657Y-95975714D01*
X168815657Y-95733809D01*
X168876133Y-95612857D01*
X169662323Y-95068571D02*
X168815657Y-95068571D01*
X168936609Y-95068571D02*
X168876133Y-95008095D01*
X168815657Y-94887142D01*
X168815657Y-94705714D01*
X168876133Y-94584761D01*
X168997085Y-94524285D01*
X169662323Y-94524285D01*
X168997085Y-94524285D02*
X168876133Y-94463809D01*
X168815657Y-94342857D01*
X168815657Y-94161428D01*
X168876133Y-94040476D01*
X168997085Y-93980000D01*
X169662323Y-93980000D01*
X168815657Y-92830952D02*
X169662323Y-92830952D01*
X168815657Y-93375238D02*
X169480895Y-93375238D01*
X169601847Y-93314761D01*
X169662323Y-93193809D01*
X169662323Y-93012380D01*
X169601847Y-92891428D01*
X169541371Y-92830952D01*
X168513276Y-91319047D02*
X168452800Y-91258571D01*
X168392323Y-91137619D01*
X168392323Y-90835238D01*
X168452800Y-90714285D01*
X168513276Y-90653809D01*
X168634228Y-90593333D01*
X168755180Y-90593333D01*
X168936609Y-90653809D01*
X169662323Y-91379523D01*
X169662323Y-90593333D01*
X168392323Y-89807142D02*
X168392323Y-89686190D01*
X168452800Y-89565238D01*
X168513276Y-89504761D01*
X168634228Y-89444285D01*
X168876133Y-89383809D01*
X169178514Y-89383809D01*
X169420419Y-89444285D01*
X169541371Y-89504761D01*
X169601847Y-89565238D01*
X169662323Y-89686190D01*
X169662323Y-89807142D01*
X169601847Y-89928095D01*
X169541371Y-89988571D01*
X169420419Y-90049047D01*
X169178514Y-90109523D01*
X168876133Y-90109523D01*
X168634228Y-90049047D01*
X168513276Y-89988571D01*
X168452800Y-89928095D01*
X168392323Y-89807142D01*
X168513276Y-88900000D02*
X168452800Y-88839523D01*
X168392323Y-88718571D01*
X168392323Y-88416190D01*
X168452800Y-88295238D01*
X168513276Y-88234761D01*
X168634228Y-88174285D01*
X168755180Y-88174285D01*
X168936609Y-88234761D01*
X169662323Y-88960476D01*
X169662323Y-88174285D01*
X169662323Y-86964761D02*
X169662323Y-87690476D01*
X169662323Y-87327619D02*
X168392323Y-87327619D01*
X168573752Y-87448571D01*
X168694704Y-87569523D01*
X168755180Y-87690476D01*
D10*
%TO.C,U4*%
X167640000Y-118110000D02*
X175260000Y-118110000D01*
D12*
X166869999Y-116670000D02*
X175489999Y-116670000D01*
X166869999Y-116310000D02*
X166869999Y-116670000D01*
X158250000Y-116310000D02*
X166869999Y-116310000D01*
X158250000Y-116670000D02*
X158250000Y-116310000D01*
X149630000Y-116670000D02*
X158250000Y-116670000D01*
X149630001Y-68750000D02*
X149630000Y-116670000D01*
X175490000Y-68750000D02*
X149630001Y-68750000D01*
X175489999Y-116670000D02*
X175490000Y-68750000D01*
%TO.C,J2A1*%
X128965000Y-92770000D02*
X127635000Y-92770000D01*
X128965000Y-91440000D02*
X128965000Y-92770000D01*
X128965000Y-90170000D02*
X126305000Y-90170000D01*
X126305000Y-90170000D02*
X126305000Y-69790000D01*
X128965000Y-90170000D02*
X128965000Y-69790000D01*
X128965000Y-69790000D02*
X126305000Y-69790000D01*
%TO.C,C1*%
X136792600Y-85377400D02*
X136792600Y-86377400D01*
X138492600Y-86377400D02*
X138492600Y-85377400D01*
%TO.C,J1A1*%
X126305000Y-121980000D02*
X128965000Y-121980000D01*
X126305000Y-101600000D02*
X126305000Y-121980000D01*
X128965000Y-101600000D02*
X128965000Y-121980000D01*
X126305000Y-101600000D02*
X128965000Y-101600000D01*
X126305000Y-100330000D02*
X126305000Y-99000000D01*
X126305000Y-99000000D02*
X127635000Y-99000000D01*
%TO.C,R1*%
X145170000Y-84420000D02*
X145170000Y-83220000D01*
X146930000Y-83220000D02*
X146930000Y-84420000D01*
%TO.C,R2*%
X156880000Y-75320000D02*
X158080000Y-75320000D01*
X158080000Y-77080000D02*
X156880000Y-77080000D01*
%TO.C,R3*%
X158080000Y-102480000D02*
X156880000Y-102480000D01*
X156880000Y-100720000D02*
X158080000Y-100720000D01*
%TO.C,R4*%
X156880000Y-103260000D02*
X158080000Y-103260000D01*
X158080000Y-105020000D02*
X156880000Y-105020000D01*
D10*
%TO.C,U1*%
X137580000Y-90385000D02*
X137605000Y-90385000D01*
X145630000Y-90385000D02*
X145605000Y-90385000D01*
X145630000Y-95035000D02*
X145605000Y-95035000D01*
X137530000Y-96110000D02*
X137530000Y-90385000D01*
X145630000Y-95035000D02*
X145630000Y-90385000D01*
%TO.C,U2*%
X138170000Y-82515000D02*
X138170000Y-76540000D01*
X143695000Y-80940000D02*
X143695000Y-76540000D01*
%TO.C,U3*%
X143060000Y-113960000D02*
X143060000Y-109560000D01*
X137535000Y-115535000D02*
X137535000Y-109560000D01*
D12*
%TO.C,C2*%
X141613000Y-118833000D02*
X142613000Y-118833000D01*
X142613000Y-117133000D02*
X141613000Y-117133000D01*
%TO.C,C3*%
X136355200Y-99579800D02*
X137355200Y-99579800D01*
X137355200Y-97879800D02*
X136355200Y-97879800D01*
%TO.C,C4*%
X141105000Y-85940000D02*
X142105000Y-85940000D01*
X142105000Y-84240000D02*
X141105000Y-84240000D01*
%TO.C,C5*%
X156980000Y-99910000D02*
X157980000Y-99910000D01*
X157980000Y-98210000D02*
X156980000Y-98210000D01*
%TO.C,C6*%
X168795000Y-107735000D02*
X167795000Y-107735000D01*
X167795000Y-109435000D02*
X168795000Y-109435000D01*
%TO.C,J4*%
X141545000Y-69155000D02*
X141545000Y-71815000D01*
X144145000Y-69155000D02*
X141545000Y-69155000D01*
X144145000Y-71815000D02*
X141545000Y-71815000D01*
X144145000Y-69155000D02*
X144145000Y-71815000D01*
X145415000Y-69155000D02*
X146745000Y-69155000D01*
X146745000Y-69155000D02*
X146745000Y-70485000D01*
%TO.C,R5*%
X156880000Y-77860000D02*
X158080000Y-77860000D01*
X158080000Y-79620000D02*
X156880000Y-79620000D01*
%TO.C,R6*%
X156880000Y-80400000D02*
X158080000Y-80400000D01*
X158080000Y-82160000D02*
X156880000Y-82160000D01*
%TO.C,R7*%
X158080000Y-107560000D02*
X156880000Y-107560000D01*
X156880000Y-105800000D02*
X158080000Y-105800000D01*
%TO.C,R8*%
X163440000Y-92110000D02*
X163440000Y-93310000D01*
X161680000Y-93310000D02*
X161680000Y-92110000D01*
%TO.C,U5*%
X169640000Y-110470000D02*
X167840000Y-110470000D01*
X167840000Y-113690000D02*
X170290000Y-113690000D01*
D10*
%TO.C,U6*%
X154855000Y-95035000D02*
X154980000Y-95035000D01*
X154855000Y-90385000D02*
X155080000Y-90385000D01*
X160105000Y-90385000D02*
X159880000Y-90385000D01*
X160105000Y-95035000D02*
X159880000Y-95035000D01*
X154855000Y-95035000D02*
X154855000Y-90385000D01*
X160105000Y-95035000D02*
X160105000Y-90385000D01*
X154980000Y-95035000D02*
X154980000Y-96385000D01*
D12*
%TO.C,C7*%
X153607400Y-85834600D02*
X153607400Y-86834600D01*
X155307400Y-86834600D02*
X155307400Y-85834600D01*
%TO.C,U4*%
D10*
X161798095Y-117122380D02*
X161798095Y-117931904D01*
X161845714Y-118027142D01*
X161893333Y-118074761D01*
X161988571Y-118122380D01*
X162179047Y-118122380D01*
X162274285Y-118074761D01*
X162321904Y-118027142D01*
X162369523Y-117931904D01*
X162369523Y-117122380D01*
X163274285Y-117455714D02*
X163274285Y-118122380D01*
X163036190Y-117074761D02*
X162798095Y-117789047D01*
X163417142Y-117789047D01*
%TO.C,J2A1*%
X126396904Y-93222380D02*
X126396904Y-93936666D01*
X126349285Y-94079523D01*
X126254047Y-94174761D01*
X126111190Y-94222380D01*
X126015952Y-94222380D01*
X126825476Y-93317619D02*
X126873095Y-93270000D01*
X126968333Y-93222380D01*
X127206428Y-93222380D01*
X127301666Y-93270000D01*
X127349285Y-93317619D01*
X127396904Y-93412857D01*
X127396904Y-93508095D01*
X127349285Y-93650952D01*
X126777857Y-94222380D01*
X127396904Y-94222380D01*
X127777857Y-93936666D02*
X128254047Y-93936666D01*
X127682619Y-94222380D02*
X128015952Y-93222380D01*
X128349285Y-94222380D01*
X129206428Y-94222380D02*
X128635000Y-94222380D01*
X128920714Y-94222380D02*
X128920714Y-93222380D01*
X128825476Y-93365238D01*
X128730238Y-93460476D01*
X128635000Y-93508095D01*
%TO.C,C1*%
X137999742Y-82843666D02*
X138047361Y-82891285D01*
X138094980Y-83034142D01*
X138094980Y-83129380D01*
X138047361Y-83272238D01*
X137952123Y-83367476D01*
X137856885Y-83415095D01*
X137666409Y-83462714D01*
X137523552Y-83462714D01*
X137333076Y-83415095D01*
X137237838Y-83367476D01*
X137142600Y-83272238D01*
X137094980Y-83129380D01*
X137094980Y-83034142D01*
X137142600Y-82891285D01*
X137190219Y-82843666D01*
X138094980Y-81891285D02*
X138094980Y-82462714D01*
X138094980Y-82177000D02*
X137094980Y-82177000D01*
X137237838Y-82272238D01*
X137333076Y-82367476D01*
X137380695Y-82462714D01*
%TO.C,J1A1*%
X126396904Y-97452380D02*
X126396904Y-98166666D01*
X126349285Y-98309523D01*
X126254047Y-98404761D01*
X126111190Y-98452380D01*
X126015952Y-98452380D01*
X127396904Y-98452380D02*
X126825476Y-98452380D01*
X127111190Y-98452380D02*
X127111190Y-97452380D01*
X127015952Y-97595238D01*
X126920714Y-97690476D01*
X126825476Y-97738095D01*
X127777857Y-98166666D02*
X128254047Y-98166666D01*
X127682619Y-98452380D02*
X128015952Y-97452380D01*
X128349285Y-98452380D01*
X129206428Y-98452380D02*
X128635000Y-98452380D01*
X128920714Y-98452380D02*
X128920714Y-97452380D01*
X128825476Y-97595238D01*
X128730238Y-97690476D01*
X128635000Y-97738095D01*
%TO.C,R1*%
X146502380Y-87876666D02*
X146026190Y-88210000D01*
X146502380Y-88448095D02*
X145502380Y-88448095D01*
X145502380Y-88067142D01*
X145550000Y-87971904D01*
X145597619Y-87924285D01*
X145692857Y-87876666D01*
X145835714Y-87876666D01*
X145930952Y-87924285D01*
X145978571Y-87971904D01*
X146026190Y-88067142D01*
X146026190Y-88448095D01*
X146502380Y-86924285D02*
X146502380Y-87495714D01*
X146502380Y-87210000D02*
X145502380Y-87210000D01*
X145645238Y-87305238D01*
X145740476Y-87400476D01*
X145788095Y-87495714D01*
%TO.C,R2*%
X160488333Y-76652380D02*
X160155000Y-76176190D01*
X159916904Y-76652380D02*
X159916904Y-75652380D01*
X160297857Y-75652380D01*
X160393095Y-75700000D01*
X160440714Y-75747619D01*
X160488333Y-75842857D01*
X160488333Y-75985714D01*
X160440714Y-76080952D01*
X160393095Y-76128571D01*
X160297857Y-76176190D01*
X159916904Y-76176190D01*
X160869285Y-75747619D02*
X160916904Y-75700000D01*
X161012142Y-75652380D01*
X161250238Y-75652380D01*
X161345476Y-75700000D01*
X161393095Y-75747619D01*
X161440714Y-75842857D01*
X161440714Y-75938095D01*
X161393095Y-76080952D01*
X160821666Y-76652380D01*
X161440714Y-76652380D01*
%TO.C,R3*%
X161123333Y-102052380D02*
X160790000Y-101576190D01*
X160551904Y-102052380D02*
X160551904Y-101052380D01*
X160932857Y-101052380D01*
X161028095Y-101100000D01*
X161075714Y-101147619D01*
X161123333Y-101242857D01*
X161123333Y-101385714D01*
X161075714Y-101480952D01*
X161028095Y-101528571D01*
X160932857Y-101576190D01*
X160551904Y-101576190D01*
X161456666Y-101052380D02*
X162075714Y-101052380D01*
X161742380Y-101433333D01*
X161885238Y-101433333D01*
X161980476Y-101480952D01*
X162028095Y-101528571D01*
X162075714Y-101623809D01*
X162075714Y-101861904D01*
X162028095Y-101957142D01*
X161980476Y-102004761D01*
X161885238Y-102052380D01*
X161599523Y-102052380D01*
X161504285Y-102004761D01*
X161456666Y-101957142D01*
%TO.C,R4*%
X161123333Y-104592380D02*
X160790000Y-104116190D01*
X160551904Y-104592380D02*
X160551904Y-103592380D01*
X160932857Y-103592380D01*
X161028095Y-103640000D01*
X161075714Y-103687619D01*
X161123333Y-103782857D01*
X161123333Y-103925714D01*
X161075714Y-104020952D01*
X161028095Y-104068571D01*
X160932857Y-104116190D01*
X160551904Y-104116190D01*
X161980476Y-103925714D02*
X161980476Y-104592380D01*
X161742380Y-103544761D02*
X161504285Y-104259047D01*
X162123333Y-104259047D01*
%TO.C,U1*%
X146137380Y-93421104D02*
X146946904Y-93421104D01*
X147042142Y-93373485D01*
X147089761Y-93325866D01*
X147137380Y-93230628D01*
X147137380Y-93040152D01*
X147089761Y-92944914D01*
X147042142Y-92897295D01*
X146946904Y-92849676D01*
X146137380Y-92849676D01*
X147137380Y-91849676D02*
X147137380Y-92421104D01*
X147137380Y-92135390D02*
X146137380Y-92135390D01*
X146280238Y-92230628D01*
X146375476Y-92325866D01*
X146423095Y-92421104D01*
%TO.C,U2*%
X136872380Y-79501904D02*
X137681904Y-79501904D01*
X137777142Y-79454285D01*
X137824761Y-79406666D01*
X137872380Y-79311428D01*
X137872380Y-79120952D01*
X137824761Y-79025714D01*
X137777142Y-78978095D01*
X137681904Y-78930476D01*
X136872380Y-78930476D01*
X136967619Y-78501904D02*
X136920000Y-78454285D01*
X136872380Y-78359047D01*
X136872380Y-78120952D01*
X136920000Y-78025714D01*
X136967619Y-77978095D01*
X137062857Y-77930476D01*
X137158095Y-77930476D01*
X137300952Y-77978095D01*
X137872380Y-78549523D01*
X137872380Y-77930476D01*
%TO.C,U3*%
X136237380Y-112521904D02*
X137046904Y-112521904D01*
X137142142Y-112474285D01*
X137189761Y-112426666D01*
X137237380Y-112331428D01*
X137237380Y-112140952D01*
X137189761Y-112045714D01*
X137142142Y-111998095D01*
X137046904Y-111950476D01*
X136237380Y-111950476D01*
X136237380Y-111569523D02*
X136237380Y-110950476D01*
X136618333Y-111283809D01*
X136618333Y-111140952D01*
X136665952Y-111045714D01*
X136713571Y-110998095D01*
X136808809Y-110950476D01*
X137046904Y-110950476D01*
X137142142Y-110998095D01*
X137189761Y-111045714D01*
X137237380Y-111140952D01*
X137237380Y-111426666D01*
X137189761Y-111521904D01*
X137142142Y-111569523D01*
%TO.C,C2*%
X141819333Y-120245142D02*
X141771714Y-120292761D01*
X141628857Y-120340380D01*
X141533619Y-120340380D01*
X141390761Y-120292761D01*
X141295523Y-120197523D01*
X141247904Y-120102285D01*
X141200285Y-119911809D01*
X141200285Y-119768952D01*
X141247904Y-119578476D01*
X141295523Y-119483238D01*
X141390761Y-119388000D01*
X141533619Y-119340380D01*
X141628857Y-119340380D01*
X141771714Y-119388000D01*
X141819333Y-119435619D01*
X142200285Y-119435619D02*
X142247904Y-119388000D01*
X142343142Y-119340380D01*
X142581238Y-119340380D01*
X142676476Y-119388000D01*
X142724095Y-119435619D01*
X142771714Y-119530857D01*
X142771714Y-119626095D01*
X142724095Y-119768952D01*
X142152666Y-120340380D01*
X142771714Y-120340380D01*
%TO.C,C3*%
X132878533Y-99086942D02*
X132830914Y-99134561D01*
X132688057Y-99182180D01*
X132592819Y-99182180D01*
X132449961Y-99134561D01*
X132354723Y-99039323D01*
X132307104Y-98944085D01*
X132259485Y-98753609D01*
X132259485Y-98610752D01*
X132307104Y-98420276D01*
X132354723Y-98325038D01*
X132449961Y-98229800D01*
X132592819Y-98182180D01*
X132688057Y-98182180D01*
X132830914Y-98229800D01*
X132878533Y-98277419D01*
X133211866Y-98182180D02*
X133830914Y-98182180D01*
X133497580Y-98563133D01*
X133640438Y-98563133D01*
X133735676Y-98610752D01*
X133783295Y-98658371D01*
X133830914Y-98753609D01*
X133830914Y-98991704D01*
X133783295Y-99086942D01*
X133735676Y-99134561D01*
X133640438Y-99182180D01*
X133354723Y-99182180D01*
X133259485Y-99134561D01*
X133211866Y-99086942D01*
%TO.C,C4*%
X141438333Y-83697142D02*
X141390714Y-83744761D01*
X141247857Y-83792380D01*
X141152619Y-83792380D01*
X141009761Y-83744761D01*
X140914523Y-83649523D01*
X140866904Y-83554285D01*
X140819285Y-83363809D01*
X140819285Y-83220952D01*
X140866904Y-83030476D01*
X140914523Y-82935238D01*
X141009761Y-82840000D01*
X141152619Y-82792380D01*
X141247857Y-82792380D01*
X141390714Y-82840000D01*
X141438333Y-82887619D01*
X142295476Y-83125714D02*
X142295476Y-83792380D01*
X142057380Y-82744761D02*
X141819285Y-83459047D01*
X142438333Y-83459047D01*
%TO.C,C5*%
X161123333Y-99417142D02*
X161075714Y-99464761D01*
X160932857Y-99512380D01*
X160837619Y-99512380D01*
X160694761Y-99464761D01*
X160599523Y-99369523D01*
X160551904Y-99274285D01*
X160504285Y-99083809D01*
X160504285Y-98940952D01*
X160551904Y-98750476D01*
X160599523Y-98655238D01*
X160694761Y-98560000D01*
X160837619Y-98512380D01*
X160932857Y-98512380D01*
X161075714Y-98560000D01*
X161123333Y-98607619D01*
X162028095Y-98512380D02*
X161551904Y-98512380D01*
X161504285Y-98988571D01*
X161551904Y-98940952D01*
X161647142Y-98893333D01*
X161885238Y-98893333D01*
X161980476Y-98940952D01*
X162028095Y-98988571D01*
X162075714Y-99083809D01*
X162075714Y-99321904D01*
X162028095Y-99417142D01*
X161980476Y-99464761D01*
X161885238Y-99512380D01*
X161647142Y-99512380D01*
X161551904Y-99464761D01*
X161504285Y-99417142D01*
%TO.C,C6*%
X168128333Y-107192142D02*
X168080714Y-107239761D01*
X167937857Y-107287380D01*
X167842619Y-107287380D01*
X167699761Y-107239761D01*
X167604523Y-107144523D01*
X167556904Y-107049285D01*
X167509285Y-106858809D01*
X167509285Y-106715952D01*
X167556904Y-106525476D01*
X167604523Y-106430238D01*
X167699761Y-106335000D01*
X167842619Y-106287380D01*
X167937857Y-106287380D01*
X168080714Y-106335000D01*
X168128333Y-106382619D01*
X168985476Y-106287380D02*
X168795000Y-106287380D01*
X168699761Y-106335000D01*
X168652142Y-106382619D01*
X168556904Y-106525476D01*
X168509285Y-106715952D01*
X168509285Y-107096904D01*
X168556904Y-107192142D01*
X168604523Y-107239761D01*
X168699761Y-107287380D01*
X168890238Y-107287380D01*
X168985476Y-107239761D01*
X169033095Y-107192142D01*
X169080714Y-107096904D01*
X169080714Y-106858809D01*
X169033095Y-106763571D01*
X168985476Y-106715952D01*
X168890238Y-106668333D01*
X168699761Y-106668333D01*
X168604523Y-106715952D01*
X168556904Y-106763571D01*
X168509285Y-106858809D01*
%TO.C,J4*%
X147197380Y-70818333D02*
X147911666Y-70818333D01*
X148054523Y-70865952D01*
X148149761Y-70961190D01*
X148197380Y-71104047D01*
X148197380Y-71199285D01*
X147530714Y-69913571D02*
X148197380Y-69913571D01*
X147149761Y-70151666D02*
X147864047Y-70389761D01*
X147864047Y-69770714D01*
%TO.C,R5*%
X160488333Y-81732380D02*
X160155000Y-81256190D01*
X159916904Y-81732380D02*
X159916904Y-80732380D01*
X160297857Y-80732380D01*
X160393095Y-80780000D01*
X160440714Y-80827619D01*
X160488333Y-80922857D01*
X160488333Y-81065714D01*
X160440714Y-81160952D01*
X160393095Y-81208571D01*
X160297857Y-81256190D01*
X159916904Y-81256190D01*
X161393095Y-80732380D02*
X160916904Y-80732380D01*
X160869285Y-81208571D01*
X160916904Y-81160952D01*
X161012142Y-81113333D01*
X161250238Y-81113333D01*
X161345476Y-81160952D01*
X161393095Y-81208571D01*
X161440714Y-81303809D01*
X161440714Y-81541904D01*
X161393095Y-81637142D01*
X161345476Y-81684761D01*
X161250238Y-81732380D01*
X161012142Y-81732380D01*
X160916904Y-81684761D01*
X160869285Y-81637142D01*
%TO.C,R6*%
X160488333Y-79192380D02*
X160155000Y-78716190D01*
X159916904Y-79192380D02*
X159916904Y-78192380D01*
X160297857Y-78192380D01*
X160393095Y-78240000D01*
X160440714Y-78287619D01*
X160488333Y-78382857D01*
X160488333Y-78525714D01*
X160440714Y-78620952D01*
X160393095Y-78668571D01*
X160297857Y-78716190D01*
X159916904Y-78716190D01*
X161345476Y-78192380D02*
X161155000Y-78192380D01*
X161059761Y-78240000D01*
X161012142Y-78287619D01*
X160916904Y-78430476D01*
X160869285Y-78620952D01*
X160869285Y-79001904D01*
X160916904Y-79097142D01*
X160964523Y-79144761D01*
X161059761Y-79192380D01*
X161250238Y-79192380D01*
X161345476Y-79144761D01*
X161393095Y-79097142D01*
X161440714Y-79001904D01*
X161440714Y-78763809D01*
X161393095Y-78668571D01*
X161345476Y-78620952D01*
X161250238Y-78573333D01*
X161059761Y-78573333D01*
X160964523Y-78620952D01*
X160916904Y-78668571D01*
X160869285Y-78763809D01*
%TO.C,R7*%
X161123333Y-107132380D02*
X160790000Y-106656190D01*
X160551904Y-107132380D02*
X160551904Y-106132380D01*
X160932857Y-106132380D01*
X161028095Y-106180000D01*
X161075714Y-106227619D01*
X161123333Y-106322857D01*
X161123333Y-106465714D01*
X161075714Y-106560952D01*
X161028095Y-106608571D01*
X160932857Y-106656190D01*
X160551904Y-106656190D01*
X161456666Y-106132380D02*
X162123333Y-106132380D01*
X161694761Y-107132380D01*
%TO.C,R8*%
X163012380Y-96686666D02*
X162536190Y-97020000D01*
X163012380Y-97258095D02*
X162012380Y-97258095D01*
X162012380Y-96877142D01*
X162060000Y-96781904D01*
X162107619Y-96734285D01*
X162202857Y-96686666D01*
X162345714Y-96686666D01*
X162440952Y-96734285D01*
X162488571Y-96781904D01*
X162536190Y-96877142D01*
X162536190Y-97258095D01*
X162440952Y-96115238D02*
X162393333Y-96210476D01*
X162345714Y-96258095D01*
X162250476Y-96305714D01*
X162202857Y-96305714D01*
X162107619Y-96258095D01*
X162060000Y-96210476D01*
X162012380Y-96115238D01*
X162012380Y-95924761D01*
X162060000Y-95829523D01*
X162107619Y-95781904D01*
X162202857Y-95734285D01*
X162250476Y-95734285D01*
X162345714Y-95781904D01*
X162393333Y-95829523D01*
X162440952Y-95924761D01*
X162440952Y-96115238D01*
X162488571Y-96210476D01*
X162536190Y-96258095D01*
X162631428Y-96305714D01*
X162821904Y-96305714D01*
X162917142Y-96258095D01*
X162964761Y-96210476D01*
X163012380Y-96115238D01*
X163012380Y-95924761D01*
X162964761Y-95829523D01*
X162917142Y-95781904D01*
X162821904Y-95734285D01*
X162631428Y-95734285D01*
X162536190Y-95781904D01*
X162488571Y-95829523D01*
X162440952Y-95924761D01*
%TO.C,U5*%
X167978095Y-114432380D02*
X167978095Y-115241904D01*
X168025714Y-115337142D01*
X168073333Y-115384761D01*
X168168571Y-115432380D01*
X168359047Y-115432380D01*
X168454285Y-115384761D01*
X168501904Y-115337142D01*
X168549523Y-115241904D01*
X168549523Y-114432380D01*
X169501904Y-114432380D02*
X169025714Y-114432380D01*
X168978095Y-114908571D01*
X169025714Y-114860952D01*
X169120952Y-114813333D01*
X169359047Y-114813333D01*
X169454285Y-114860952D01*
X169501904Y-114908571D01*
X169549523Y-115003809D01*
X169549523Y-115241904D01*
X169501904Y-115337142D01*
X169454285Y-115384761D01*
X169359047Y-115432380D01*
X169120952Y-115432380D01*
X169025714Y-115384761D01*
X168978095Y-115337142D01*
%TO.C,U6*%
X153382380Y-93471904D02*
X154191904Y-93471904D01*
X154287142Y-93424285D01*
X154334761Y-93376666D01*
X154382380Y-93281428D01*
X154382380Y-93090952D01*
X154334761Y-92995714D01*
X154287142Y-92948095D01*
X154191904Y-92900476D01*
X153382380Y-92900476D01*
X153382380Y-91995714D02*
X153382380Y-92186190D01*
X153430000Y-92281428D01*
X153477619Y-92329047D01*
X153620476Y-92424285D01*
X153810952Y-92471904D01*
X154191904Y-92471904D01*
X154287142Y-92424285D01*
X154334761Y-92376666D01*
X154382380Y-92281428D01*
X154382380Y-92090952D01*
X154334761Y-91995714D01*
X154287142Y-91948095D01*
X154191904Y-91900476D01*
X153953809Y-91900476D01*
X153858571Y-91948095D01*
X153810952Y-91995714D01*
X153763333Y-92090952D01*
X153763333Y-92281428D01*
X153810952Y-92376666D01*
X153858571Y-92424285D01*
X153953809Y-92471904D01*
%TO.C,C7*%
X156567142Y-86526666D02*
X156614761Y-86574285D01*
X156662380Y-86717142D01*
X156662380Y-86812380D01*
X156614761Y-86955238D01*
X156519523Y-87050476D01*
X156424285Y-87098095D01*
X156233809Y-87145714D01*
X156090952Y-87145714D01*
X155900476Y-87098095D01*
X155805238Y-87050476D01*
X155710000Y-86955238D01*
X155662380Y-86812380D01*
X155662380Y-86717142D01*
X155710000Y-86574285D01*
X155757619Y-86526666D01*
X155662380Y-86193333D02*
X155662380Y-85526666D01*
X156662380Y-85955238D01*
%TD*%
M02*
