M48
; DRILL file {KiCad (5.1.9)-1} date 06/26/21 09:10:08
; FORMAT={-:-/ absolute / metric / decimal}
; #@! TF.CreationDate,2021-06-26T09:10:08-04:00
; #@! TF.GenerationSoftware,Kicad,Pcbnew,(5.1.9)-1
FMAT,2
METRIC
T1C0.400
T2C0.800
T3C1.000
T4C3.200
%
G90
G05
T1
X135.966Y-80.899
X137.744Y-97.231
X141.707Y-88.544
X142.24Y-78.283
X142.85Y-83.642
X143.612Y-100.101
X144.45Y-111.1
X144.577Y-84.201
X144.577Y-86.709
X145.44Y-87.427
X145.745Y-111.785
X145.777Y-94.482
X148.438Y-82.042
X153.772Y-89.51
X155.6Y-93.802
X156.235Y-108.788
X158.064Y-93.828
X160.299Y-100.254
X160.477Y-81.28
X160.67Y-79.055
X162.255Y-98.4
X169.596Y-105.969
T2
X151.13Y-69.85
X151.13Y-72.39
X151.13Y-74.93
X151.13Y-77.47
X151.13Y-80.01
X151.13Y-82.55
X151.13Y-85.09
X151.13Y-87.63
X151.13Y-90.17
X151.13Y-92.71
X151.13Y-95.25
X151.13Y-97.79
X151.13Y-100.33
X151.13Y-102.87
X151.13Y-105.41
X151.13Y-107.95
X151.13Y-110.49
X151.13Y-113.03
X151.13Y-115.57
X173.99Y-69.85
X173.99Y-72.39
X173.99Y-74.93
X173.99Y-77.47
X173.99Y-80.01
X173.99Y-82.55
X173.99Y-85.09
X173.99Y-87.63
X173.99Y-90.17
X173.99Y-92.71
X173.99Y-95.25
X173.99Y-97.79
X173.99Y-100.33
X173.99Y-102.87
X173.99Y-105.41
X173.99Y-107.95
X173.99Y-110.49
X173.99Y-113.03
X173.99Y-115.57
T3
X127.635Y-71.12
X127.635Y-73.66
X127.635Y-76.2
X127.635Y-78.74
X127.635Y-81.28
X127.635Y-83.82
X127.635Y-86.36
X127.635Y-88.9
X127.635Y-91.44
X127.635Y-100.33
X127.635Y-102.87
X127.635Y-105.41
X127.635Y-107.95
X127.635Y-110.49
X127.635Y-113.03
X127.635Y-115.57
X127.635Y-118.11
X127.635Y-120.65
X142.875Y-70.485
X145.415Y-70.485
T4
X135.255Y-71.12
X135.255Y-120.65
X168.275Y-71.12
X168.275Y-120.65
T0
M30
