%TF.GenerationSoftware,KiCad,Pcbnew,(5.1.9)-1*%
%TF.CreationDate,2021-06-26T09:10:02-04:00*%
%TF.ProjectId,AtariWiiWifi,41746172-6957-4696-9957-6966692e6b69,rev?*%
%TF.SameCoordinates,Original*%
%TF.FileFunction,Copper,L1,Top*%
%TF.FilePolarity,Positive*%
%FSLAX46Y46*%
G04 Gerber Fmt 4.6, Leading zero omitted, Abs format (unit mm)*
G04 Created by KiCad (PCBNEW (5.1.9)-1) date 2021-06-26 09:10:02*
%MOMM*%
%LPD*%
G01*
G04 APERTURE LIST*
%TA.AperFunction,ComponentPad*%
%ADD10O,2.000000X1.200000*%
%TD*%
%TA.AperFunction,ComponentPad*%
%ADD11R,2.000000X1.200000*%
%TD*%
%TA.AperFunction,ComponentPad*%
%ADD12R,1.700000X1.700000*%
%TD*%
%TA.AperFunction,ComponentPad*%
%ADD13O,1.700000X1.700000*%
%TD*%
%TA.AperFunction,SMDPad,CuDef*%
%ADD14R,1.250000X1.500000*%
%TD*%
%TA.AperFunction,SMDPad,CuDef*%
%ADD15R,1.300000X1.500000*%
%TD*%
%TA.AperFunction,SMDPad,CuDef*%
%ADD16R,1.500000X1.300000*%
%TD*%
%TA.AperFunction,SMDPad,CuDef*%
%ADD17R,0.400000X1.100000*%
%TD*%
%TA.AperFunction,SMDPad,CuDef*%
%ADD18R,0.450000X1.500000*%
%TD*%
%TA.AperFunction,SMDPad,CuDef*%
%ADD19R,1.500000X1.250000*%
%TD*%
%TA.AperFunction,SMDPad,CuDef*%
%ADD20R,1.060000X0.650000*%
%TD*%
%TA.AperFunction,SMDPad,CuDef*%
%ADD21R,0.450000X1.450000*%
%TD*%
%TA.AperFunction,ViaPad*%
%ADD22C,0.800000*%
%TD*%
%TA.AperFunction,Conductor*%
%ADD23C,0.228600*%
%TD*%
%TA.AperFunction,Conductor*%
%ADD24C,0.304800*%
%TD*%
%TA.AperFunction,Conductor*%
%ADD25C,0.254000*%
%TD*%
%TA.AperFunction,Conductor*%
%ADD26C,0.100000*%
%TD*%
G04 APERTURE END LIST*
D10*
%TO.P,U4,38*%
%TO.N,GND*%
X151130000Y-115570000D03*
D11*
%TO.P,U4,1*%
%TO.N,+3V3*%
X173990000Y-115570000D03*
D10*
%TO.P,U4,37*%
%TO.N,Net-(U4-Pad37)*%
X151130000Y-113030000D03*
%TO.P,U4,2*%
%TO.N,Net-(U4-Pad2)*%
X173990000Y-113030000D03*
%TO.P,U4,36*%
%TO.N,/SCL*%
X151130000Y-110490000D03*
%TO.P,U4,3*%
%TO.N,Net-(U4-Pad3)*%
X173990000Y-110490000D03*
%TO.P,U4,35*%
%TO.N,Net-(U4-Pad35)*%
X151130000Y-107950000D03*
%TO.P,U4,4*%
%TO.N,Net-(U4-Pad4)*%
X173990000Y-107950000D03*
%TO.P,U4,34*%
%TO.N,Net-(U4-Pad34)*%
X151130000Y-105410000D03*
%TO.P,U4,5*%
%TO.N,Net-(U4-Pad5)*%
X173990000Y-105410000D03*
%TO.P,U4,33*%
%TO.N,/SDA*%
X151130000Y-102870000D03*
%TO.P,U4,6*%
%TO.N,Net-(U4-Pad6)*%
X173990000Y-102870000D03*
%TO.P,U4,32*%
%TO.N,GND*%
X151130000Y-100330000D03*
%TO.P,U4,7*%
%TO.N,Net-(U4-Pad7)*%
X173990000Y-100330000D03*
%TO.P,U4,31*%
%TO.N,/INT*%
X151130000Y-97790000D03*
%TO.P,U4,8*%
%TO.N,Net-(U4-Pad8)*%
X173990000Y-97790000D03*
%TO.P,U4,30*%
%TO.N,Net-(R8-Pad1)*%
X151130000Y-95250000D03*
%TO.P,U4,9*%
%TO.N,Net-(U4-Pad9)*%
X173990000Y-95250000D03*
%TO.P,U4,29*%
%TO.N,Net-(U4-Pad29)*%
X151130000Y-92710000D03*
%TO.P,U4,10*%
%TO.N,Net-(U4-Pad10)*%
X173990000Y-92710000D03*
%TO.P,U4,28*%
%TO.N,Net-(U4-Pad28)*%
X151130000Y-90170000D03*
%TO.P,U4,11*%
%TO.N,Net-(U4-Pad11)*%
X173990000Y-90170000D03*
%TO.P,U4,27*%
%TO.N,Net-(U4-Pad27)*%
X151130000Y-87630000D03*
%TO.P,U4,12*%
%TO.N,Net-(U4-Pad12)*%
X173990000Y-87630000D03*
%TO.P,U4,26*%
%TO.N,Net-(U4-Pad26)*%
X151130000Y-85090000D03*
%TO.P,U4,13*%
%TO.N,Net-(U4-Pad13)*%
X173990000Y-85090000D03*
%TO.P,U4,25*%
%TO.N,Net-(U4-Pad25)*%
X151130000Y-82550000D03*
%TO.P,U4,14*%
%TO.N,GND*%
X173990000Y-82550000D03*
%TO.P,U4,24*%
%TO.N,Net-(U4-Pad24)*%
X151130000Y-80010000D03*
%TO.P,U4,15*%
%TO.N,Net-(U4-Pad15)*%
X173990000Y-80010000D03*
%TO.P,U4,23*%
%TO.N,Net-(U4-Pad23)*%
X151130000Y-77470000D03*
%TO.P,U4,16*%
%TO.N,Net-(U4-Pad16)*%
X173990000Y-77470000D03*
%TO.P,U4,22*%
%TO.N,Net-(U4-Pad22)*%
X151130000Y-74930000D03*
%TO.P,U4,17*%
%TO.N,Net-(U4-Pad17)*%
X173990000Y-74930000D03*
%TO.P,U4,21*%
%TO.N,Net-(U4-Pad21)*%
X151130000Y-72390000D03*
%TO.P,U4,18*%
%TO.N,Net-(U4-Pad18)*%
X173990000Y-72390000D03*
%TO.P,U4,20*%
%TO.N,Net-(U4-Pad20)*%
X151130000Y-69850000D03*
%TO.P,U4,19*%
%TO.N,Net-(J4-Pad1)*%
X173990000Y-69850000D03*
%TD*%
D12*
%TO.P,J2A1,1*%
%TO.N,/J2_UP*%
X127635000Y-91440000D03*
D13*
%TO.P,J2A1,2*%
%TO.N,/J2_TRIG*%
X127635000Y-88900000D03*
%TO.P,J2A1,3*%
%TO.N,/J2_DOWN*%
X127635000Y-86360000D03*
%TO.P,J2A1,4*%
%TO.N,+5V*%
X127635000Y-83820000D03*
%TO.P,J2A1,5*%
%TO.N,/J2_LEFT*%
X127635000Y-81280000D03*
%TO.P,J2A1,6*%
%TO.N,GND*%
X127635000Y-78740000D03*
%TO.P,J2A1,7*%
%TO.N,/J2_RIGHT*%
X127635000Y-76200000D03*
%TO.P,J2A1,8*%
%TO.N,/J2_PotA*%
X127635000Y-73660000D03*
%TO.P,J2A1,9*%
%TO.N,/J2_PotB*%
X127635000Y-71120000D03*
%TD*%
D14*
%TO.P,C1,2*%
%TO.N,GND*%
X137642600Y-84627400D03*
%TO.P,C1,1*%
%TO.N,+5V*%
X137642600Y-87127400D03*
%TD*%
D13*
%TO.P,J1A1,9*%
%TO.N,/J1_PotB*%
X127635000Y-120650000D03*
%TO.P,J1A1,8*%
%TO.N,/J1_PotA*%
X127635000Y-118110000D03*
%TO.P,J1A1,7*%
%TO.N,/J1_RIGHT*%
X127635000Y-115570000D03*
%TO.P,J1A1,6*%
%TO.N,GND*%
X127635000Y-113030000D03*
%TO.P,J1A1,5*%
%TO.N,/J1_LEFT*%
X127635000Y-110490000D03*
%TO.P,J1A1,4*%
%TO.N,+5V*%
X127635000Y-107950000D03*
%TO.P,J1A1,3*%
%TO.N,/J1_DOWN*%
X127635000Y-105410000D03*
%TO.P,J1A1,2*%
%TO.N,/J1_TRIG*%
X127635000Y-102870000D03*
D12*
%TO.P,J1A1,1*%
%TO.N,/J1_UP*%
X127635000Y-100330000D03*
%TD*%
D15*
%TO.P,R1,2*%
%TO.N,GND*%
X146050000Y-85170000D03*
%TO.P,R1,1*%
%TO.N,/READY*%
X146050000Y-82470000D03*
%TD*%
D16*
%TO.P,R2,1*%
%TO.N,+5V*%
X156130000Y-76200000D03*
%TO.P,R2,2*%
%TO.N,/INT_5*%
X158830000Y-76200000D03*
%TD*%
%TO.P,R3,2*%
%TO.N,/SCL*%
X158830000Y-101600000D03*
%TO.P,R3,1*%
%TO.N,+3V3*%
X156130000Y-101600000D03*
%TD*%
%TO.P,R4,1*%
%TO.N,+3V3*%
X156130000Y-104140000D03*
%TO.P,R4,2*%
%TO.N,/SDA*%
X158830000Y-104140000D03*
%TD*%
D17*
%TO.P,U1,24*%
%TO.N,+5V*%
X138030000Y-89860000D03*
%TO.P,U1,23*%
%TO.N,/SDA_5*%
X138680000Y-89860000D03*
%TO.P,U1,22*%
%TO.N,/SLC_5*%
X139330000Y-89860000D03*
%TO.P,U1,21*%
%TO.N,GND*%
X139980000Y-89860000D03*
%TO.P,U1,20*%
%TO.N,Net-(J3-Pad9)*%
X140630000Y-89860000D03*
%TO.P,U1,19*%
%TO.N,/J3_RIGHT*%
X141280000Y-89860000D03*
%TO.P,U1,18*%
%TO.N,/J3_LEFT*%
X141930000Y-89860000D03*
%TO.P,U1,17*%
%TO.N,/J2_RIGHT*%
X142580000Y-89860000D03*
%TO.P,U1,16*%
%TO.N,/J2_LEFT*%
X143230000Y-89860000D03*
%TO.P,U1,15*%
%TO.N,/J2_DOWN*%
X143880000Y-89860000D03*
%TO.P,U1,14*%
%TO.N,/J2_TRIG*%
X144530000Y-89860000D03*
%TO.P,U1,13*%
%TO.N,/J2_UP*%
X145180000Y-89860000D03*
%TO.P,U1,12*%
%TO.N,GND*%
X145180000Y-95560000D03*
%TO.P,U1,11*%
%TO.N,/J3_DOWN*%
X144530000Y-95560000D03*
%TO.P,U1,10*%
%TO.N,/J3_TRIG*%
X143880000Y-95560000D03*
%TO.P,U1,9*%
%TO.N,/J3_UP*%
X143230000Y-95560000D03*
%TO.P,U1,8*%
%TO.N,/J1_RIGHT*%
X142580000Y-95560000D03*
%TO.P,U1,7*%
%TO.N,/J1_LEFT*%
X141930000Y-95560000D03*
%TO.P,U1,6*%
%TO.N,/J1_DOWN*%
X141280000Y-95560000D03*
%TO.P,U1,5*%
%TO.N,/J1_TRIG*%
X140630000Y-95560000D03*
%TO.P,U1,4*%
%TO.N,/J1_UP*%
X139980000Y-95560000D03*
%TO.P,U1,3*%
%TO.N,/READY*%
X139330000Y-95560000D03*
%TO.P,U1,2*%
%TO.N,+5V*%
X138680000Y-95560000D03*
%TO.P,U1,1*%
%TO.N,/INT_5*%
X138030000Y-95560000D03*
%TD*%
D18*
%TO.P,U2,1*%
%TO.N,Net-(U2-Pad1)*%
X138695000Y-81690000D03*
%TO.P,U2,2*%
%TO.N,Net-(U2-Pad2)*%
X139345000Y-81690000D03*
%TO.P,U2,3*%
%TO.N,/J2_PotA*%
X139995000Y-81690000D03*
%TO.P,U2,4*%
%TO.N,+5V*%
X140645000Y-81690000D03*
%TO.P,U2,5*%
X141295000Y-81690000D03*
%TO.P,U2,6*%
%TO.N,/READY*%
X141945000Y-81690000D03*
%TO.P,U2,7*%
%TO.N,/SLC_5*%
X142595000Y-81690000D03*
%TO.P,U2,8*%
%TO.N,/SDA_5*%
X143245000Y-81690000D03*
%TO.P,U2,9*%
%TO.N,GND*%
X143245000Y-75790000D03*
%TO.P,U2,10*%
X142595000Y-75790000D03*
%TO.P,U2,11*%
X141945000Y-75790000D03*
%TO.P,U2,12*%
X141295000Y-75790000D03*
%TO.P,U2,13*%
%TO.N,Net-(U2-Pad13)*%
X140645000Y-75790000D03*
%TO.P,U2,14*%
%TO.N,+5V*%
X139995000Y-75790000D03*
%TO.P,U2,15*%
%TO.N,/J2_PotB*%
X139345000Y-75790000D03*
%TO.P,U2,16*%
%TO.N,Net-(U2-Pad16)*%
X138695000Y-75790000D03*
%TD*%
%TO.P,U3,16*%
%TO.N,Net-(U3-Pad16)*%
X138060000Y-108810000D03*
%TO.P,U3,15*%
%TO.N,/J1_PotA*%
X138710000Y-108810000D03*
%TO.P,U3,14*%
%TO.N,+5V*%
X139360000Y-108810000D03*
%TO.P,U3,13*%
%TO.N,Net-(U3-Pad13)*%
X140010000Y-108810000D03*
%TO.P,U3,12*%
%TO.N,GND*%
X140660000Y-108810000D03*
%TO.P,U3,11*%
X141310000Y-108810000D03*
%TO.P,U3,10*%
%TO.N,+5V*%
X141960000Y-108810000D03*
%TO.P,U3,9*%
X142610000Y-108810000D03*
%TO.P,U3,8*%
%TO.N,/SDA_5*%
X142610000Y-114710000D03*
%TO.P,U3,7*%
%TO.N,/SLC_5*%
X141960000Y-114710000D03*
%TO.P,U3,6*%
%TO.N,/READY*%
X141310000Y-114710000D03*
%TO.P,U3,5*%
%TO.N,+5V*%
X140660000Y-114710000D03*
%TO.P,U3,4*%
X140010000Y-114710000D03*
%TO.P,U3,3*%
%TO.N,/J1_PotB*%
X139360000Y-114710000D03*
%TO.P,U3,2*%
%TO.N,Net-(U3-Pad2)*%
X138710000Y-114710000D03*
%TO.P,U3,1*%
%TO.N,Net-(U3-Pad1)*%
X138060000Y-114710000D03*
%TD*%
D19*
%TO.P,C2,1*%
%TO.N,+5V*%
X140863000Y-117983000D03*
%TO.P,C2,2*%
%TO.N,GND*%
X143363000Y-117983000D03*
%TD*%
%TO.P,C3,2*%
%TO.N,GND*%
X135605200Y-98729800D03*
%TO.P,C3,1*%
%TO.N,+5V*%
X138105200Y-98729800D03*
%TD*%
%TO.P,C4,1*%
%TO.N,+5V*%
X140355000Y-85090000D03*
%TO.P,C4,2*%
%TO.N,GND*%
X142855000Y-85090000D03*
%TD*%
%TO.P,C5,1*%
%TO.N,+3V3*%
X156230000Y-99060000D03*
%TO.P,C5,2*%
%TO.N,GND*%
X158730000Y-99060000D03*
%TD*%
%TO.P,C6,2*%
%TO.N,GND*%
X169545000Y-108585000D03*
%TO.P,C6,1*%
%TO.N,+5V*%
X167045000Y-108585000D03*
%TD*%
D13*
%TO.P,J4,2*%
%TO.N,+5V*%
X142875000Y-70485000D03*
D12*
%TO.P,J4,1*%
%TO.N,Net-(J4-Pad1)*%
X145415000Y-70485000D03*
%TD*%
D16*
%TO.P,R5,2*%
%TO.N,+5V*%
X156130000Y-78740000D03*
%TO.P,R5,1*%
%TO.N,/SDA_5*%
X158830000Y-78740000D03*
%TD*%
%TO.P,R6,1*%
%TO.N,+5V*%
X156130000Y-81280000D03*
%TO.P,R6,2*%
%TO.N,/SLC_5*%
X158830000Y-81280000D03*
%TD*%
%TO.P,R7,2*%
%TO.N,/INT*%
X158830000Y-106680000D03*
%TO.P,R7,1*%
%TO.N,+3V3*%
X156130000Y-106680000D03*
%TD*%
D15*
%TO.P,R8,1*%
%TO.N,Net-(R8-Pad1)*%
X162560000Y-91360000D03*
%TO.P,R8,2*%
%TO.N,GND*%
X162560000Y-94060000D03*
%TD*%
D20*
%TO.P,U5,5*%
%TO.N,+5V*%
X167640000Y-113030000D03*
%TO.P,U5,4*%
%TO.N,Net-(U5-Pad4)*%
X167640000Y-111130000D03*
%TO.P,U5,3*%
%TO.N,Net-(U5-Pad3)*%
X169840000Y-111130000D03*
%TO.P,U5,2*%
%TO.N,GND*%
X169840000Y-112080000D03*
%TO.P,U5,1*%
%TO.N,Net-(U4-Pad2)*%
X169840000Y-113030000D03*
%TD*%
D21*
%TO.P,U6,14*%
%TO.N,+5V*%
X155530000Y-89760000D03*
%TO.P,U6,13*%
%TO.N,/READY*%
X156180000Y-89760000D03*
%TO.P,U6,12*%
%TO.N,/SLC_5*%
X156830000Y-89760000D03*
%TO.P,U6,11*%
%TO.N,/SDA_5*%
X157480000Y-89760000D03*
%TO.P,U6,10*%
%TO.N,/INT_5*%
X158130000Y-89760000D03*
%TO.P,U6,9*%
%TO.N,Net-(U6-Pad9)*%
X158780000Y-89760000D03*
%TO.P,U6,8*%
%TO.N,Net-(R8-Pad1)*%
X159430000Y-89760000D03*
%TO.P,U6,7*%
%TO.N,GND*%
X159430000Y-95660000D03*
%TO.P,U6,6*%
%TO.N,Net-(U6-Pad6)*%
X158780000Y-95660000D03*
%TO.P,U6,5*%
%TO.N,/INT*%
X158130000Y-95660000D03*
%TO.P,U6,4*%
%TO.N,/SDA*%
X157480000Y-95660000D03*
%TO.P,U6,3*%
%TO.N,/SCL*%
X156830000Y-95660000D03*
%TO.P,U6,2*%
%TO.N,Net-(U4-Pad37)*%
X156180000Y-95660000D03*
%TO.P,U6,1*%
%TO.N,+3V3*%
X155530000Y-95660000D03*
%TD*%
D14*
%TO.P,C7,2*%
%TO.N,GND*%
X154457400Y-85084600D03*
%TO.P,C7,1*%
%TO.N,+5V*%
X154457400Y-87584600D03*
%TD*%
D22*
%TO.N,GND*%
X142849600Y-83642200D03*
X162255200Y-98399600D03*
X169595800Y-105968800D03*
X141706600Y-88544400D03*
X143611600Y-100101400D03*
X160299400Y-100253800D03*
X142240000Y-78282800D03*
X135966200Y-80899000D03*
%TO.N,+3V3*%
X156235400Y-108788200D03*
%TO.N,Net-(U4-Pad37)*%
X155600400Y-93802200D03*
%TO.N,/INT*%
X158064200Y-93827600D03*
%TO.N,+5V*%
X137744200Y-97231200D03*
X153771600Y-89509600D03*
%TO.N,/READY*%
X144576800Y-84201000D03*
X145777000Y-94481600D03*
%TO.N,/SDA_5*%
X148437600Y-82042000D03*
X160670250Y-79054950D03*
X144576800Y-86709300D03*
X145745200Y-111785400D03*
%TO.N,/SLC_5*%
X160477200Y-81280000D03*
X145440400Y-87426800D03*
X144449800Y-111099600D03*
%TD*%
D23*
%TO.N,/J1_UP*%
X139980000Y-98754600D02*
X139980000Y-95560000D01*
X138404600Y-100330000D02*
X139980000Y-98754600D01*
X127635000Y-100330000D02*
X138404600Y-100330000D01*
%TO.N,/J1_DOWN*%
X141280000Y-95560000D02*
X141280000Y-100703660D01*
X136573660Y-105410000D02*
X127635000Y-105410000D01*
X141280000Y-100703660D02*
X136573660Y-105410000D01*
%TO.N,/J1_LEFT*%
X132104330Y-110490000D02*
X127635000Y-110490000D01*
X141930000Y-100664330D02*
X132104330Y-110490000D01*
X141930000Y-95560000D02*
X141930000Y-100664330D01*
%TO.N,/J1_RIGHT*%
X142580000Y-100625000D02*
X142580000Y-95560000D01*
X127635000Y-115570000D02*
X142580000Y-100625000D01*
%TO.N,/J1_PotB*%
X127635000Y-120650000D02*
X129667000Y-120650000D01*
X129667000Y-120650000D02*
X133858000Y-116459000D01*
X139360000Y-115783000D02*
X139360000Y-114710000D01*
X138684000Y-116459000D02*
X139360000Y-115783000D01*
X133858000Y-116459000D02*
X138684000Y-116459000D01*
%TO.N,/J1_TRIG*%
X140630000Y-95560000D02*
X140630000Y-100742990D01*
X138502990Y-102870000D02*
X127635000Y-102870000D01*
X140630000Y-100742990D02*
X138502990Y-102870000D01*
D24*
%TO.N,GND*%
X159430000Y-95660000D02*
X159610000Y-95660000D01*
X161210000Y-94060000D02*
X162560000Y-94060000D01*
X159610000Y-95660000D02*
X161210000Y-94060000D01*
X141295000Y-75790000D02*
X141295000Y-77160000D01*
X141295000Y-77160000D02*
X141478000Y-77343000D01*
X143256000Y-75801000D02*
X143245000Y-75790000D01*
X143256000Y-77343000D02*
X143256000Y-75801000D01*
X142595000Y-77317000D02*
X142621000Y-77343000D01*
X142595000Y-75790000D02*
X142595000Y-77317000D01*
X142621000Y-77343000D02*
X143256000Y-77343000D01*
X141945000Y-77302000D02*
X141986000Y-77343000D01*
X141945000Y-75790000D02*
X141945000Y-77302000D01*
X141478000Y-77343000D02*
X141986000Y-77343000D01*
X140660000Y-108810000D02*
X141310000Y-108810000D01*
X142855000Y-83647600D02*
X142849600Y-83642200D01*
X142855000Y-85090000D02*
X142855000Y-83647600D01*
X162560000Y-98094800D02*
X162255200Y-98399600D01*
X162560000Y-94060000D02*
X162560000Y-98094800D01*
X169595800Y-105968800D02*
X169595800Y-83413600D01*
X170459400Y-82550000D02*
X173990000Y-82550000D01*
X169595800Y-83413600D02*
X170459400Y-82550000D01*
X140638650Y-88544400D02*
X141706600Y-88544400D01*
X139980000Y-89203050D02*
X140638650Y-88544400D01*
X139980000Y-89860000D02*
X139980000Y-89203050D01*
X145180000Y-98533000D02*
X143611600Y-100101400D01*
X145180000Y-95560000D02*
X145180000Y-98533000D01*
X143611600Y-100257952D02*
X143611600Y-100101400D01*
X141310000Y-102559552D02*
X143611600Y-100257952D01*
X141310000Y-108810000D02*
X141310000Y-102559552D01*
X159515600Y-95660000D02*
X162255200Y-98399600D01*
X159430000Y-95660000D02*
X159515600Y-95660000D01*
X159105600Y-99060000D02*
X160299400Y-100253800D01*
X158730000Y-99060000D02*
X159105600Y-99060000D01*
X142240000Y-77368400D02*
X142265400Y-77343000D01*
X142240000Y-78282800D02*
X142240000Y-77368400D01*
X142265400Y-77343000D02*
X142621000Y-77343000D01*
X141986000Y-77343000D02*
X142265400Y-77343000D01*
X170725601Y-109765601D02*
X169545000Y-108585000D01*
X170725601Y-112029199D02*
X170725601Y-109765601D01*
X170674800Y-112080000D02*
X170725601Y-112029199D01*
X169840000Y-112080000D02*
X170674800Y-112080000D01*
X169545000Y-106019600D02*
X169595800Y-105968800D01*
X169545000Y-108585000D02*
X169545000Y-106019600D01*
X137642600Y-82575400D02*
X135966200Y-80899000D01*
X137642600Y-84627400D02*
X137642600Y-82575400D01*
D23*
%TO.N,/J1_PotA*%
X138710000Y-109788600D02*
X138710000Y-108810000D01*
X138710000Y-113385000D02*
X138710000Y-109788600D01*
X138452501Y-113642499D02*
X138710000Y-113385000D01*
X137580999Y-113642499D02*
X138452501Y-113642499D01*
X137517499Y-114577501D02*
X137517499Y-113705999D01*
X136067810Y-116027190D02*
X137517499Y-114577501D01*
X133679139Y-116027190D02*
X136067810Y-116027190D01*
X137517499Y-113705999D02*
X137580999Y-113642499D01*
X131596330Y-118110000D02*
X133679139Y-116027190D01*
X127635000Y-118110000D02*
X131596330Y-118110000D01*
%TO.N,/J2_PotA*%
X138428940Y-78079610D02*
X136448810Y-78079610D01*
X139995000Y-79645670D02*
X138428940Y-78079610D01*
X139995000Y-81690000D02*
X139995000Y-79645670D01*
X132029200Y-73660000D02*
X127635000Y-73660000D01*
X136448810Y-78079610D02*
X132029200Y-73660000D01*
%TO.N,/J2_TRIG*%
X133832600Y-88900000D02*
X127635000Y-88900000D01*
X137033000Y-92100400D02*
X133832600Y-88900000D01*
X142961102Y-92100400D02*
X137033000Y-92100400D01*
X144530000Y-90531502D02*
X142961102Y-92100400D01*
X144530000Y-89860000D02*
X144530000Y-90531502D01*
%TO.N,/J2_PotB*%
X127635000Y-71120000D02*
X130124200Y-71120000D01*
X130124200Y-71120000D02*
X136652000Y-77647800D01*
X138383702Y-77647800D02*
X138409102Y-77622400D01*
X136652000Y-77647800D02*
X138383702Y-77647800D01*
X138409102Y-77622400D02*
X139039600Y-77622400D01*
X139345000Y-77317000D02*
X139345000Y-75790000D01*
X139039600Y-77622400D02*
X139345000Y-77317000D01*
%TO.N,/J2_RIGHT*%
X127635000Y-76200000D02*
X136093200Y-84658200D01*
X142580000Y-90638600D02*
X142580000Y-89860000D01*
X142491099Y-90727501D02*
X142580000Y-90638600D01*
X137575999Y-90727501D02*
X142491099Y-90727501D01*
X136093200Y-89244702D02*
X137575999Y-90727501D01*
X136093200Y-84658200D02*
X136093200Y-89244702D01*
%TO.N,/J2_LEFT*%
X137397138Y-91159311D02*
X135661390Y-89423563D01*
X142669960Y-91159311D02*
X137397138Y-91159311D01*
X143230000Y-90599271D02*
X142669960Y-91159311D01*
X143230000Y-89860000D02*
X143230000Y-90599271D01*
X135661390Y-89423563D02*
X135661390Y-84837060D01*
X132104330Y-81280000D02*
X127635000Y-81280000D01*
X135661390Y-84837060D02*
X132104330Y-81280000D01*
%TO.N,/J2_DOWN*%
X137218277Y-91591121D02*
X135229580Y-89602424D01*
X142848821Y-91591121D02*
X137218277Y-91591121D01*
X143880000Y-90559941D02*
X142848821Y-91591121D01*
X143880000Y-89860000D02*
X143880000Y-90559941D01*
X135229580Y-89602424D02*
X135229580Y-87375980D01*
X134213600Y-86360000D02*
X127635000Y-86360000D01*
X135229580Y-87375980D02*
X134213600Y-86360000D01*
%TO.N,/J2_UP*%
X145180000Y-90638600D02*
X145180000Y-89860000D01*
X143235600Y-92583000D02*
X145180000Y-90638600D01*
X143235600Y-92583000D02*
X136804400Y-92583000D01*
X135661400Y-91440000D02*
X127635000Y-91440000D01*
X136804400Y-92583000D02*
X135661400Y-91440000D01*
D24*
%TO.N,+3V3*%
X155530000Y-95660000D02*
X155530000Y-97084600D01*
X156230000Y-97784600D02*
X156230000Y-99060000D01*
X155530000Y-97084600D02*
X156230000Y-97784600D01*
X156230000Y-101500000D02*
X156130000Y-101600000D01*
X156230000Y-99060000D02*
X156230000Y-101500000D01*
X156130000Y-101600000D02*
X156130000Y-104695000D01*
X156130000Y-108682800D02*
X156235400Y-108788200D01*
X156130000Y-106680000D02*
X156130000Y-108682800D01*
X156130000Y-106680000D02*
X156130000Y-104140000D01*
%TO.N,/SDA*%
X152434800Y-102870000D02*
X154635200Y-100669600D01*
X151130000Y-102870000D02*
X152434800Y-102870000D01*
X154635200Y-100669600D02*
X154635200Y-93218000D01*
X154597110Y-93179910D02*
X154635200Y-93218000D01*
X157480000Y-94563510D02*
X157480000Y-95660000D01*
X155963089Y-93046599D02*
X157480000Y-94563510D01*
X154730421Y-93046599D02*
X155963089Y-93046599D01*
X154597110Y-93179910D02*
X154730421Y-93046599D01*
D23*
%TO.N,Net-(U4-Pad37)*%
X156180000Y-94381800D02*
X156180000Y-95660000D01*
X155600400Y-93802200D02*
X156180000Y-94381800D01*
%TO.N,Net-(U4-Pad2)*%
X169840000Y-113030000D02*
X173990000Y-113030000D01*
%TO.N,+5V*%
X166792499Y-112182499D02*
X167640000Y-113030000D01*
X156130000Y-73740000D02*
X156130000Y-76200000D01*
X156130000Y-81280000D02*
X156130000Y-78740000D01*
X156130000Y-78740000D02*
X156130000Y-76200000D01*
X156050000Y-73660000D02*
X140970000Y-73660000D01*
X156130000Y-73740000D02*
X156050000Y-73660000D01*
X156210000Y-73660000D02*
X156130000Y-73740000D01*
X161925000Y-73660000D02*
X156210000Y-73660000D01*
X139995000Y-75790000D02*
X139995000Y-79035000D01*
X140645000Y-79685000D02*
X140645000Y-81690000D01*
X139995000Y-79035000D02*
X140645000Y-79685000D01*
X140645000Y-79685000D02*
X140772000Y-79685000D01*
X141295000Y-80208000D02*
X141295000Y-81690000D01*
X140772000Y-79685000D02*
X141295000Y-80208000D01*
X140537501Y-84907499D02*
X140355000Y-85090000D01*
X140537501Y-82474499D02*
X140537501Y-84907499D01*
X140645000Y-82367000D02*
X140537501Y-82474499D01*
X140645000Y-81690000D02*
X140645000Y-82367000D01*
D24*
X140010000Y-117130000D02*
X140863000Y-117983000D01*
X140010000Y-114710000D02*
X140010000Y-117130000D01*
X140010000Y-114710000D02*
X140660000Y-114710000D01*
X139360000Y-111293000D02*
X140010000Y-111943000D01*
X139360000Y-108810000D02*
X139360000Y-111293000D01*
X140010000Y-114710000D02*
X140010000Y-111943000D01*
X141960000Y-108810000D02*
X142610000Y-108810000D01*
X140010000Y-111943000D02*
X141015600Y-111943000D01*
X141960000Y-110998600D02*
X141960000Y-108810000D01*
X141015600Y-111943000D02*
X141960000Y-110998600D01*
X166754399Y-112144399D02*
X166792499Y-112182499D01*
X166754399Y-108875601D02*
X166754399Y-112144399D01*
X167045000Y-108585000D02*
X166754399Y-108875601D01*
X166754399Y-112144399D02*
X167640000Y-113030000D01*
X167045000Y-108585000D02*
X167045000Y-78780000D01*
X167045000Y-78780000D02*
X161925000Y-73660000D01*
X161925000Y-73660000D02*
X140970000Y-73660000D01*
X140970000Y-73660000D02*
X139995000Y-74635000D01*
X139995000Y-75790000D02*
X139995000Y-74635000D01*
X142875000Y-70485000D02*
X142875000Y-73660000D01*
D23*
%TO.N,/READY*%
X156180000Y-89760000D02*
X156180000Y-84425000D01*
X147047510Y-83467510D02*
X146050000Y-82470000D01*
X155222510Y-83467510D02*
X147047510Y-83467510D01*
X156180000Y-84425000D02*
X155222510Y-83467510D01*
X145762499Y-82757501D02*
X146050000Y-82470000D01*
X142033901Y-82757501D02*
X145762499Y-82757501D01*
X141945000Y-82668600D02*
X142033901Y-82757501D01*
X141945000Y-81690000D02*
X141945000Y-82668600D01*
%TO.N,/INT_5*%
X157499312Y-91262190D02*
X145167080Y-91262190D01*
X158130000Y-90631502D02*
X157499312Y-91262190D01*
X145167080Y-91262190D02*
X143312870Y-93116400D01*
X158130000Y-89760000D02*
X158130000Y-90631502D01*
X143312870Y-93116400D02*
X138074400Y-93116400D01*
X138030000Y-93160800D02*
X138030000Y-95560000D01*
X138074400Y-93116400D02*
X138030000Y-93160800D01*
%TO.N,/SLC_5*%
X158830000Y-81280000D02*
X158830000Y-85010000D01*
X156830000Y-87010000D02*
X156830000Y-89760000D01*
X158830000Y-85010000D02*
X156830000Y-87010000D01*
%TO.N,/INT*%
X158130000Y-95660000D02*
X158130000Y-95641400D01*
X158064200Y-95594200D02*
X158130000Y-95660000D01*
X158064200Y-93827600D02*
X158064200Y-95594200D01*
%TO.N,/SCL*%
X158830000Y-101600000D02*
X158830000Y-101553000D01*
D24*
X158830000Y-101600000D02*
X158750000Y-101600000D01*
X157624399Y-100394399D02*
X158830000Y-101600000D01*
X156830000Y-97644918D02*
X157624399Y-98439317D01*
X157624399Y-98439317D02*
X157624399Y-100394399D01*
X156830000Y-95660000D02*
X156830000Y-97644918D01*
X157724399Y-102705601D02*
X158830000Y-101600000D01*
X157724399Y-109864601D02*
X157724399Y-102705601D01*
X157099000Y-110490000D02*
X157724399Y-109864601D01*
X151130000Y-110490000D02*
X157099000Y-110490000D01*
%TO.N,/SDA*%
X158425683Y-97790000D02*
X157693518Y-97790000D01*
X158715082Y-98079399D02*
X158425683Y-97790000D01*
X159764481Y-98079399D02*
X158715082Y-98079399D01*
X161137600Y-99452518D02*
X159764481Y-98079399D01*
X157480000Y-97576482D02*
X157480000Y-95660000D01*
X157693518Y-97790000D02*
X157480000Y-97576482D01*
X161137600Y-101832400D02*
X161137600Y-99452518D01*
X158830000Y-104140000D02*
X161137600Y-101832400D01*
%TO.N,+5V*%
X138317600Y-87127400D02*
X140355000Y-85090000D01*
X137642600Y-87127400D02*
X138317600Y-87127400D01*
X137642600Y-89472600D02*
X138030000Y-89860000D01*
X137642600Y-87127400D02*
X137642600Y-89472600D01*
X138680000Y-98155000D02*
X138105200Y-98729800D01*
X138680000Y-95560000D02*
X138680000Y-98155000D01*
X137744200Y-98368800D02*
X138105200Y-98729800D01*
X137744200Y-97231200D02*
X137744200Y-98368800D01*
X140800519Y-115815601D02*
X143119481Y-115815601D01*
X140729399Y-117849399D02*
X140729399Y-115744481D01*
X140729399Y-115744481D02*
X140800519Y-115815601D01*
X140863000Y-117983000D02*
X140729399Y-117849399D01*
X155530000Y-89760000D02*
X154022000Y-89760000D01*
X154022000Y-89760000D02*
X153771600Y-89509600D01*
X154457400Y-87584600D02*
X155366400Y-87584600D01*
X155530000Y-87748200D02*
X155530000Y-89760000D01*
X155366400Y-87584600D02*
X155530000Y-87748200D01*
X161015610Y-114614390D02*
X167045000Y-108585000D01*
X144320692Y-114614390D02*
X161015610Y-114614390D01*
X143119481Y-115815601D02*
X144320692Y-114614390D01*
X138680000Y-93933200D02*
X138680000Y-95560000D01*
X138887200Y-93726000D02*
X138680000Y-93933200D01*
X146532600Y-93726000D02*
X138887200Y-93726000D01*
X146532600Y-112402482D02*
X146532600Y-93726000D01*
X143119481Y-115815601D02*
X146532600Y-112402482D01*
%TO.N,Net-(J4-Pad1)*%
X145735610Y-70805610D02*
X162702810Y-70805610D01*
X145415000Y-70485000D02*
X145735610Y-70805610D01*
X162702810Y-70805610D02*
X167386000Y-75488800D01*
X167386000Y-75488800D02*
X170586400Y-75488800D01*
X170586400Y-75488800D02*
X172212000Y-73863200D01*
X172212000Y-71628000D02*
X173990000Y-69850000D01*
X172212000Y-73863200D02*
X172212000Y-71628000D01*
D23*
%TO.N,/READY*%
X141310000Y-112461400D02*
X141310000Y-114710000D01*
X146062690Y-107708710D02*
X141310000Y-112461400D01*
X146062690Y-95139842D02*
X146062690Y-107708710D01*
X145118758Y-94195910D02*
X146062690Y-95139842D01*
X139915490Y-94195910D02*
X145118758Y-94195910D01*
X139330000Y-94781400D02*
X139915490Y-94195910D01*
X139330000Y-95560000D02*
X139330000Y-94781400D01*
X146050000Y-82727800D02*
X144576800Y-84201000D01*
X146050000Y-82470000D02*
X146050000Y-82727800D01*
X145491310Y-94195910D02*
X145777000Y-94481600D01*
X145118758Y-94195910D02*
X145491310Y-94195910D01*
%TO.N,/INT_5*%
X161772600Y-79142600D02*
X158830000Y-76200000D01*
X158130000Y-88806400D02*
X161772600Y-85163800D01*
X161772600Y-85163800D02*
X161772600Y-79142600D01*
X158130000Y-89760000D02*
X158130000Y-88806400D01*
%TO.N,/SDA_5*%
X147798099Y-81402499D02*
X148437600Y-82042000D01*
X143532501Y-81402499D02*
X147798099Y-81402499D01*
X143245000Y-81690000D02*
X143532501Y-81402499D01*
X160670250Y-79054950D02*
X159897501Y-79827699D01*
X159897501Y-79807501D02*
X158830000Y-78740000D01*
X160554101Y-79807501D02*
X159897501Y-79807501D01*
X161264600Y-80518000D02*
X160554101Y-79807501D01*
X161264600Y-85021800D02*
X161264600Y-80518000D01*
X157480000Y-88806400D02*
X161264600Y-85021800D01*
X157480000Y-89760000D02*
X157480000Y-88806400D01*
X141052100Y-86709300D02*
X144576800Y-86709300D01*
X138680000Y-89081400D02*
X141052100Y-86709300D01*
X138680000Y-89860000D02*
X138680000Y-89081400D01*
X142820600Y-114710000D02*
X145745200Y-111785400D01*
X142610000Y-114710000D02*
X142820600Y-114710000D01*
%TO.N,/SLC_5*%
X154510988Y-81632490D02*
X155125999Y-82247501D01*
X157862499Y-82247501D02*
X158830000Y-81280000D01*
X155125999Y-82247501D02*
X157862499Y-82247501D01*
X151054935Y-81632490D02*
X154510988Y-81632490D01*
X150044944Y-80622499D02*
X151054935Y-81632490D01*
X142765999Y-80622499D02*
X150044944Y-80622499D01*
X142595000Y-80793498D02*
X142765999Y-80622499D01*
X142595000Y-81690000D02*
X142595000Y-80793498D01*
X158830000Y-81280000D02*
X160477200Y-81280000D01*
X139330000Y-89188498D02*
X139330000Y-89860000D01*
X141091698Y-87426800D02*
X139330000Y-89188498D01*
X145440400Y-87426800D02*
X141091698Y-87426800D01*
X141960000Y-113589400D02*
X144449800Y-111099600D01*
X141960000Y-114710000D02*
X141960000Y-113589400D01*
%TO.N,/INT*%
X161696400Y-103813600D02*
X158830000Y-106680000D01*
X161696400Y-99346765D02*
X161696400Y-103813600D01*
X159959124Y-97609489D02*
X161696400Y-99346765D01*
X159125889Y-97609489D02*
X159959124Y-97609489D01*
X158130000Y-96613600D02*
X159125889Y-97609489D01*
X158130000Y-95660000D02*
X158130000Y-96613600D01*
%TO.N,Net-(R8-Pad1)*%
X159430000Y-89760000D02*
X159610000Y-89760000D01*
X161210000Y-91360000D02*
X162560000Y-91360000D01*
X159610000Y-89760000D02*
X161210000Y-91360000D01*
X159430000Y-92665000D02*
X159430000Y-89760000D01*
X158459000Y-91694000D02*
X159430000Y-92665000D01*
X155321000Y-91694000D02*
X158459000Y-91694000D01*
X151765000Y-95250000D02*
X155321000Y-91694000D01*
X151130000Y-95250000D02*
X151765000Y-95250000D01*
%TD*%
D25*
%TO.N,GND*%
X177140000Y-123800000D02*
X125120000Y-123800000D01*
X125120000Y-98104800D01*
X134217128Y-98104800D01*
X134220200Y-98444050D01*
X134378950Y-98602800D01*
X135478200Y-98602800D01*
X135478200Y-97628550D01*
X135319450Y-97469800D01*
X134855200Y-97466728D01*
X134730718Y-97478988D01*
X134611020Y-97515298D01*
X134500706Y-97574263D01*
X134404015Y-97653615D01*
X134324663Y-97750306D01*
X134265698Y-97860620D01*
X134229388Y-97980318D01*
X134217128Y-98104800D01*
X125120000Y-98104800D01*
X125120000Y-90590000D01*
X126146928Y-90590000D01*
X126146928Y-92290000D01*
X126159188Y-92414482D01*
X126195498Y-92534180D01*
X126254463Y-92644494D01*
X126333815Y-92741185D01*
X126430506Y-92820537D01*
X126540820Y-92879502D01*
X126660518Y-92915812D01*
X126785000Y-92928072D01*
X128485000Y-92928072D01*
X128609482Y-92915812D01*
X128729180Y-92879502D01*
X128839494Y-92820537D01*
X128936185Y-92741185D01*
X129015537Y-92644494D01*
X129074502Y-92534180D01*
X129110812Y-92414482D01*
X129123072Y-92290000D01*
X129123072Y-92189300D01*
X135351031Y-92189300D01*
X136248541Y-93086811D01*
X136272002Y-93115398D01*
X136300588Y-93138858D01*
X136300590Y-93138860D01*
X136386096Y-93209034D01*
X136431438Y-93233270D01*
X136516268Y-93278612D01*
X136657512Y-93321458D01*
X136767594Y-93332300D01*
X136767603Y-93332300D01*
X136804399Y-93335924D01*
X136841195Y-93332300D01*
X137280700Y-93332300D01*
X137280701Y-94690607D01*
X137240498Y-94765820D01*
X137204188Y-94885518D01*
X137191928Y-95010000D01*
X137191928Y-96110000D01*
X137204188Y-96234482D01*
X137232628Y-96328238D01*
X137084426Y-96427263D01*
X136940263Y-96571426D01*
X136826995Y-96740944D01*
X136748974Y-96929302D01*
X136709200Y-97129261D01*
X136709200Y-97333139D01*
X136748974Y-97533098D01*
X136795036Y-97644301D01*
X136709694Y-97574263D01*
X136599380Y-97515298D01*
X136479682Y-97478988D01*
X136355200Y-97466728D01*
X135890950Y-97469800D01*
X135732200Y-97628550D01*
X135732200Y-98602800D01*
X135752200Y-98602800D01*
X135752200Y-98856800D01*
X135732200Y-98856800D01*
X135732200Y-98876800D01*
X135478200Y-98876800D01*
X135478200Y-98856800D01*
X134378950Y-98856800D01*
X134220200Y-99015550D01*
X134217128Y-99354800D01*
X134229388Y-99479282D01*
X134260153Y-99580700D01*
X129123072Y-99580700D01*
X129123072Y-99480000D01*
X129110812Y-99355518D01*
X129074502Y-99235820D01*
X129015537Y-99125506D01*
X128936185Y-99028815D01*
X128839494Y-98949463D01*
X128729180Y-98890498D01*
X128609482Y-98854188D01*
X128485000Y-98841928D01*
X126785000Y-98841928D01*
X126660518Y-98854188D01*
X126540820Y-98890498D01*
X126430506Y-98949463D01*
X126333815Y-99028815D01*
X126254463Y-99125506D01*
X126195498Y-99235820D01*
X126159188Y-99355518D01*
X126146928Y-99480000D01*
X126146928Y-101180000D01*
X126159188Y-101304482D01*
X126195498Y-101424180D01*
X126254463Y-101534494D01*
X126333815Y-101631185D01*
X126430506Y-101710537D01*
X126540820Y-101769502D01*
X126613380Y-101791513D01*
X126481525Y-101923368D01*
X126319010Y-102166589D01*
X126207068Y-102436842D01*
X126150000Y-102723740D01*
X126150000Y-103016260D01*
X126207068Y-103303158D01*
X126319010Y-103573411D01*
X126481525Y-103816632D01*
X126688368Y-104023475D01*
X126862760Y-104140000D01*
X126688368Y-104256525D01*
X126481525Y-104463368D01*
X126319010Y-104706589D01*
X126207068Y-104976842D01*
X126150000Y-105263740D01*
X126150000Y-105556260D01*
X126207068Y-105843158D01*
X126319010Y-106113411D01*
X126481525Y-106356632D01*
X126688368Y-106563475D01*
X126862760Y-106680000D01*
X126688368Y-106796525D01*
X126481525Y-107003368D01*
X126319010Y-107246589D01*
X126207068Y-107516842D01*
X126150000Y-107803740D01*
X126150000Y-108096260D01*
X126207068Y-108383158D01*
X126319010Y-108653411D01*
X126481525Y-108896632D01*
X126688368Y-109103475D01*
X126862760Y-109220000D01*
X126688368Y-109336525D01*
X126481525Y-109543368D01*
X126319010Y-109786589D01*
X126207068Y-110056842D01*
X126150000Y-110343740D01*
X126150000Y-110636260D01*
X126207068Y-110923158D01*
X126319010Y-111193411D01*
X126481525Y-111436632D01*
X126688368Y-111643475D01*
X126870534Y-111765195D01*
X126753645Y-111834822D01*
X126537412Y-112029731D01*
X126363359Y-112263080D01*
X126238175Y-112525901D01*
X126193524Y-112673110D01*
X126314845Y-112903000D01*
X127508000Y-112903000D01*
X127508000Y-112883000D01*
X127762000Y-112883000D01*
X127762000Y-112903000D01*
X127782000Y-112903000D01*
X127782000Y-113157000D01*
X127762000Y-113157000D01*
X127762000Y-113177000D01*
X127508000Y-113177000D01*
X127508000Y-113157000D01*
X126314845Y-113157000D01*
X126193524Y-113386890D01*
X126238175Y-113534099D01*
X126363359Y-113796920D01*
X126537412Y-114030269D01*
X126753645Y-114225178D01*
X126870534Y-114294805D01*
X126688368Y-114416525D01*
X126481525Y-114623368D01*
X126319010Y-114866589D01*
X126207068Y-115136842D01*
X126150000Y-115423740D01*
X126150000Y-115716260D01*
X126207068Y-116003158D01*
X126319010Y-116273411D01*
X126481525Y-116516632D01*
X126688368Y-116723475D01*
X126862760Y-116840000D01*
X126688368Y-116956525D01*
X126481525Y-117163368D01*
X126319010Y-117406589D01*
X126207068Y-117676842D01*
X126150000Y-117963740D01*
X126150000Y-118256260D01*
X126207068Y-118543158D01*
X126319010Y-118813411D01*
X126481525Y-119056632D01*
X126688368Y-119263475D01*
X126862760Y-119380000D01*
X126688368Y-119496525D01*
X126481525Y-119703368D01*
X126319010Y-119946589D01*
X126207068Y-120216842D01*
X126150000Y-120503740D01*
X126150000Y-120796260D01*
X126207068Y-121083158D01*
X126319010Y-121353411D01*
X126481525Y-121596632D01*
X126688368Y-121803475D01*
X126931589Y-121965990D01*
X127201842Y-122077932D01*
X127488740Y-122135000D01*
X127781260Y-122135000D01*
X128068158Y-122077932D01*
X128338411Y-121965990D01*
X128581632Y-121803475D01*
X128788475Y-121596632D01*
X128920328Y-121399300D01*
X129630205Y-121399300D01*
X129667000Y-121402924D01*
X129703795Y-121399300D01*
X129703806Y-121399300D01*
X129813888Y-121388458D01*
X129955132Y-121345612D01*
X130085303Y-121276034D01*
X130199398Y-121182398D01*
X130222863Y-121153806D01*
X130946797Y-120429872D01*
X133020000Y-120429872D01*
X133020000Y-120870128D01*
X133105890Y-121301925D01*
X133274369Y-121708669D01*
X133518962Y-122074729D01*
X133830271Y-122386038D01*
X134196331Y-122630631D01*
X134603075Y-122799110D01*
X135034872Y-122885000D01*
X135475128Y-122885000D01*
X135906925Y-122799110D01*
X136313669Y-122630631D01*
X136679729Y-122386038D01*
X136991038Y-122074729D01*
X137235631Y-121708669D01*
X137404110Y-121301925D01*
X137490000Y-120870128D01*
X137490000Y-120429872D01*
X166040000Y-120429872D01*
X166040000Y-120870128D01*
X166125890Y-121301925D01*
X166294369Y-121708669D01*
X166538962Y-122074729D01*
X166850271Y-122386038D01*
X167216331Y-122630631D01*
X167623075Y-122799110D01*
X168054872Y-122885000D01*
X168495128Y-122885000D01*
X168926925Y-122799110D01*
X169333669Y-122630631D01*
X169699729Y-122386038D01*
X170011038Y-122074729D01*
X170255631Y-121708669D01*
X170424110Y-121301925D01*
X170510000Y-120870128D01*
X170510000Y-120429872D01*
X170424110Y-119998075D01*
X170255631Y-119591331D01*
X170011038Y-119225271D01*
X169699729Y-118913962D01*
X169333669Y-118669369D01*
X168926925Y-118500890D01*
X168495128Y-118415000D01*
X168054872Y-118415000D01*
X167623075Y-118500890D01*
X167216331Y-118669369D01*
X166850271Y-118913962D01*
X166538962Y-119225271D01*
X166294369Y-119591331D01*
X166125890Y-119998075D01*
X166040000Y-120429872D01*
X137490000Y-120429872D01*
X137404110Y-119998075D01*
X137235631Y-119591331D01*
X136991038Y-119225271D01*
X136679729Y-118913962D01*
X136313669Y-118669369D01*
X135906925Y-118500890D01*
X135475128Y-118415000D01*
X135034872Y-118415000D01*
X134603075Y-118500890D01*
X134196331Y-118669369D01*
X133830271Y-118913962D01*
X133518962Y-119225271D01*
X133274369Y-119591331D01*
X133105890Y-119998075D01*
X133020000Y-120429872D01*
X130946797Y-120429872D01*
X134168370Y-117208300D01*
X138647205Y-117208300D01*
X138684000Y-117211924D01*
X138720795Y-117208300D01*
X138720806Y-117208300D01*
X138830888Y-117197458D01*
X138972132Y-117154612D01*
X139102303Y-117085034D01*
X139216398Y-116991398D01*
X139222601Y-116983840D01*
X139222601Y-117091327D01*
X139218792Y-117130000D01*
X139233995Y-117284357D01*
X139279018Y-117432782D01*
X139279019Y-117432783D01*
X139352135Y-117569572D01*
X139450532Y-117689469D01*
X139474928Y-117709490D01*
X139474928Y-118608000D01*
X139487188Y-118732482D01*
X139523498Y-118852180D01*
X139582463Y-118962494D01*
X139661815Y-119059185D01*
X139758506Y-119138537D01*
X139868820Y-119197502D01*
X139988518Y-119233812D01*
X140113000Y-119246072D01*
X141613000Y-119246072D01*
X141737482Y-119233812D01*
X141857180Y-119197502D01*
X141967494Y-119138537D01*
X142064185Y-119059185D01*
X142113000Y-118999704D01*
X142161815Y-119059185D01*
X142258506Y-119138537D01*
X142368820Y-119197502D01*
X142488518Y-119233812D01*
X142613000Y-119246072D01*
X143077250Y-119243000D01*
X143236000Y-119084250D01*
X143236000Y-118110000D01*
X143490000Y-118110000D01*
X143490000Y-119084250D01*
X143648750Y-119243000D01*
X144113000Y-119246072D01*
X144237482Y-119233812D01*
X144357180Y-119197502D01*
X144467494Y-119138537D01*
X144564185Y-119059185D01*
X144643537Y-118962494D01*
X144702502Y-118852180D01*
X144738812Y-118732482D01*
X144751072Y-118608000D01*
X144748000Y-118268750D01*
X144589250Y-118110000D01*
X143490000Y-118110000D01*
X143236000Y-118110000D01*
X143216000Y-118110000D01*
X143216000Y-117856000D01*
X143236000Y-117856000D01*
X143236000Y-116881750D01*
X143490000Y-116881750D01*
X143490000Y-117856000D01*
X144589250Y-117856000D01*
X144748000Y-117697250D01*
X144751072Y-117358000D01*
X144738812Y-117233518D01*
X144702502Y-117113820D01*
X144643537Y-117003506D01*
X144564185Y-116906815D01*
X144467494Y-116827463D01*
X144357180Y-116768498D01*
X144237482Y-116732188D01*
X144113000Y-116719928D01*
X143648750Y-116723000D01*
X143490000Y-116881750D01*
X143236000Y-116881750D01*
X143077250Y-116723000D01*
X142613000Y-116719928D01*
X142488518Y-116732188D01*
X142368820Y-116768498D01*
X142258506Y-116827463D01*
X142161815Y-116906815D01*
X142113000Y-116966296D01*
X142064185Y-116906815D01*
X141967494Y-116827463D01*
X141857180Y-116768498D01*
X141737482Y-116732188D01*
X141613000Y-116719928D01*
X141516799Y-116719928D01*
X141516799Y-116603001D01*
X143080818Y-116603001D01*
X143119481Y-116606809D01*
X143158144Y-116603001D01*
X143158154Y-116603001D01*
X143273838Y-116591607D01*
X143422264Y-116546583D01*
X143559053Y-116473467D01*
X143678950Y-116375070D01*
X143703609Y-116345023D01*
X144161023Y-115887609D01*
X149536538Y-115887609D01*
X149540409Y-115925282D01*
X149632579Y-116150533D01*
X149766922Y-116353474D01*
X149938275Y-116526307D01*
X150140054Y-116662390D01*
X150364504Y-116756493D01*
X150603000Y-116805000D01*
X151003000Y-116805000D01*
X151003000Y-115697000D01*
X151257000Y-115697000D01*
X151257000Y-116805000D01*
X151657000Y-116805000D01*
X151895496Y-116756493D01*
X152119946Y-116662390D01*
X152321725Y-116526307D01*
X152493078Y-116353474D01*
X152627421Y-116150533D01*
X152719591Y-115925282D01*
X152723462Y-115887609D01*
X152598731Y-115697000D01*
X151257000Y-115697000D01*
X151003000Y-115697000D01*
X149661269Y-115697000D01*
X149536538Y-115887609D01*
X144161023Y-115887609D01*
X144646843Y-115401790D01*
X149634302Y-115401790D01*
X149661269Y-115443000D01*
X151003000Y-115443000D01*
X151003000Y-115423000D01*
X151257000Y-115423000D01*
X151257000Y-115443000D01*
X152598731Y-115443000D01*
X152625698Y-115401790D01*
X160976947Y-115401790D01*
X161015610Y-115405598D01*
X161054273Y-115401790D01*
X161054283Y-115401790D01*
X161169967Y-115390396D01*
X161318393Y-115345372D01*
X161455182Y-115272256D01*
X161575079Y-115173859D01*
X161599738Y-115143812D01*
X161773550Y-114970000D01*
X172351928Y-114970000D01*
X172351928Y-116170000D01*
X172364188Y-116294482D01*
X172400498Y-116414180D01*
X172459463Y-116524494D01*
X172538815Y-116621185D01*
X172635506Y-116700537D01*
X172745820Y-116759502D01*
X172865518Y-116795812D01*
X172990000Y-116808072D01*
X174990000Y-116808072D01*
X175114482Y-116795812D01*
X175234180Y-116759502D01*
X175344494Y-116700537D01*
X175441185Y-116621185D01*
X175520537Y-116524494D01*
X175579502Y-116414180D01*
X175615812Y-116294482D01*
X175628072Y-116170000D01*
X175628072Y-114970000D01*
X175615812Y-114845518D01*
X175579502Y-114725820D01*
X175520537Y-114615506D01*
X175441185Y-114518815D01*
X175344494Y-114439463D01*
X175234180Y-114380498D01*
X175114482Y-114344188D01*
X174990000Y-114331928D01*
X172990000Y-114331928D01*
X172865518Y-114344188D01*
X172745820Y-114380498D01*
X172635506Y-114439463D01*
X172538815Y-114518815D01*
X172459463Y-114615506D01*
X172400498Y-114725820D01*
X172364188Y-114845518D01*
X172351928Y-114970000D01*
X161773550Y-114970000D01*
X165967000Y-110776552D01*
X165967000Y-112105726D01*
X165963191Y-112144399D01*
X165978394Y-112298756D01*
X166023417Y-112447181D01*
X166065649Y-112526190D01*
X166096534Y-112583971D01*
X166194931Y-112703868D01*
X166224969Y-112728519D01*
X166263070Y-112766621D01*
X166263075Y-112766625D01*
X166471928Y-112975478D01*
X166471928Y-113355000D01*
X166484188Y-113479482D01*
X166520498Y-113599180D01*
X166579463Y-113709494D01*
X166658815Y-113806185D01*
X166755506Y-113885537D01*
X166865820Y-113944502D01*
X166985518Y-113980812D01*
X167110000Y-113993072D01*
X168170000Y-113993072D01*
X168294482Y-113980812D01*
X168414180Y-113944502D01*
X168524494Y-113885537D01*
X168621185Y-113806185D01*
X168700537Y-113709494D01*
X168740000Y-113635665D01*
X168779463Y-113709494D01*
X168858815Y-113806185D01*
X168955506Y-113885537D01*
X169065820Y-113944502D01*
X169185518Y-113980812D01*
X169310000Y-113993072D01*
X170370000Y-113993072D01*
X170494482Y-113980812D01*
X170614180Y-113944502D01*
X170724494Y-113885537D01*
X170821185Y-113806185D01*
X170843249Y-113779300D01*
X172607285Y-113779300D01*
X172712498Y-113907502D01*
X172900551Y-114061833D01*
X173115099Y-114176511D01*
X173347898Y-114247130D01*
X173529335Y-114265000D01*
X174450665Y-114265000D01*
X174632102Y-114247130D01*
X174864901Y-114176511D01*
X175079449Y-114061833D01*
X175267502Y-113907502D01*
X175421833Y-113719449D01*
X175536511Y-113504901D01*
X175607130Y-113272102D01*
X175630975Y-113030000D01*
X175607130Y-112787898D01*
X175536511Y-112555099D01*
X175421833Y-112340551D01*
X175267502Y-112152498D01*
X175079449Y-111998167D01*
X174864901Y-111883489D01*
X174632102Y-111812870D01*
X174450665Y-111795000D01*
X173529335Y-111795000D01*
X173347898Y-111812870D01*
X173115099Y-111883489D01*
X172900551Y-111998167D01*
X172712498Y-112152498D01*
X172607285Y-112280700D01*
X170919950Y-112280700D01*
X170846250Y-112207000D01*
X170764141Y-112207000D01*
X170724494Y-112174463D01*
X170614180Y-112115498D01*
X170497159Y-112080000D01*
X170614180Y-112044502D01*
X170724494Y-111985537D01*
X170764141Y-111953000D01*
X170846250Y-111953000D01*
X171005000Y-111794250D01*
X171008072Y-111755000D01*
X170995812Y-111630518D01*
X170988071Y-111605000D01*
X170995812Y-111579482D01*
X171008072Y-111455000D01*
X171008072Y-110805000D01*
X170995812Y-110680518D01*
X170959502Y-110560820D01*
X170921648Y-110490000D01*
X172349025Y-110490000D01*
X172372870Y-110732102D01*
X172443489Y-110964901D01*
X172558167Y-111179449D01*
X172712498Y-111367502D01*
X172900551Y-111521833D01*
X173115099Y-111636511D01*
X173347898Y-111707130D01*
X173529335Y-111725000D01*
X174450665Y-111725000D01*
X174632102Y-111707130D01*
X174864901Y-111636511D01*
X175079449Y-111521833D01*
X175267502Y-111367502D01*
X175421833Y-111179449D01*
X175536511Y-110964901D01*
X175607130Y-110732102D01*
X175630975Y-110490000D01*
X175607130Y-110247898D01*
X175536511Y-110015099D01*
X175421833Y-109800551D01*
X175267502Y-109612498D01*
X175079449Y-109458167D01*
X174864901Y-109343489D01*
X174632102Y-109272870D01*
X174450665Y-109255000D01*
X173529335Y-109255000D01*
X173347898Y-109272870D01*
X173115099Y-109343489D01*
X172900551Y-109458167D01*
X172712498Y-109612498D01*
X172558167Y-109800551D01*
X172443489Y-110015099D01*
X172372870Y-110247898D01*
X172349025Y-110490000D01*
X170921648Y-110490000D01*
X170900537Y-110450506D01*
X170821185Y-110353815D01*
X170724494Y-110274463D01*
X170614180Y-110215498D01*
X170494482Y-110179188D01*
X170370000Y-110166928D01*
X169310000Y-110166928D01*
X169185518Y-110179188D01*
X169065820Y-110215498D01*
X168955506Y-110274463D01*
X168858815Y-110353815D01*
X168779463Y-110450506D01*
X168740000Y-110524335D01*
X168700537Y-110450506D01*
X168621185Y-110353815D01*
X168524494Y-110274463D01*
X168414180Y-110215498D01*
X168294482Y-110179188D01*
X168170000Y-110166928D01*
X167541799Y-110166928D01*
X167541799Y-109848072D01*
X167795000Y-109848072D01*
X167919482Y-109835812D01*
X168039180Y-109799502D01*
X168149494Y-109740537D01*
X168246185Y-109661185D01*
X168295000Y-109601704D01*
X168343815Y-109661185D01*
X168440506Y-109740537D01*
X168550820Y-109799502D01*
X168670518Y-109835812D01*
X168795000Y-109848072D01*
X169259250Y-109845000D01*
X169418000Y-109686250D01*
X169418000Y-108712000D01*
X169672000Y-108712000D01*
X169672000Y-109686250D01*
X169830750Y-109845000D01*
X170295000Y-109848072D01*
X170419482Y-109835812D01*
X170539180Y-109799502D01*
X170649494Y-109740537D01*
X170746185Y-109661185D01*
X170825537Y-109564494D01*
X170884502Y-109454180D01*
X170920812Y-109334482D01*
X170933072Y-109210000D01*
X170930000Y-108870750D01*
X170771250Y-108712000D01*
X169672000Y-108712000D01*
X169418000Y-108712000D01*
X169398000Y-108712000D01*
X169398000Y-108458000D01*
X169418000Y-108458000D01*
X169418000Y-107483750D01*
X169672000Y-107483750D01*
X169672000Y-108458000D01*
X170771250Y-108458000D01*
X170930000Y-108299250D01*
X170933072Y-107960000D01*
X170932088Y-107950000D01*
X172349025Y-107950000D01*
X172372870Y-108192102D01*
X172443489Y-108424901D01*
X172558167Y-108639449D01*
X172712498Y-108827502D01*
X172900551Y-108981833D01*
X173115099Y-109096511D01*
X173347898Y-109167130D01*
X173529335Y-109185000D01*
X174450665Y-109185000D01*
X174632102Y-109167130D01*
X174864901Y-109096511D01*
X175079449Y-108981833D01*
X175267502Y-108827502D01*
X175421833Y-108639449D01*
X175536511Y-108424901D01*
X175607130Y-108192102D01*
X175630975Y-107950000D01*
X175607130Y-107707898D01*
X175536511Y-107475099D01*
X175421833Y-107260551D01*
X175267502Y-107072498D01*
X175079449Y-106918167D01*
X174864901Y-106803489D01*
X174632102Y-106732870D01*
X174450665Y-106715000D01*
X173529335Y-106715000D01*
X173347898Y-106732870D01*
X173115099Y-106803489D01*
X172900551Y-106918167D01*
X172712498Y-107072498D01*
X172558167Y-107260551D01*
X172443489Y-107475099D01*
X172372870Y-107707898D01*
X172349025Y-107950000D01*
X170932088Y-107950000D01*
X170920812Y-107835518D01*
X170884502Y-107715820D01*
X170825537Y-107605506D01*
X170746185Y-107508815D01*
X170649494Y-107429463D01*
X170539180Y-107370498D01*
X170419482Y-107334188D01*
X170295000Y-107321928D01*
X169830750Y-107325000D01*
X169672000Y-107483750D01*
X169418000Y-107483750D01*
X169259250Y-107325000D01*
X168795000Y-107321928D01*
X168670518Y-107334188D01*
X168550820Y-107370498D01*
X168440506Y-107429463D01*
X168343815Y-107508815D01*
X168295000Y-107568296D01*
X168246185Y-107508815D01*
X168149494Y-107429463D01*
X168039180Y-107370498D01*
X167919482Y-107334188D01*
X167832400Y-107325611D01*
X167832400Y-105410000D01*
X172349025Y-105410000D01*
X172372870Y-105652102D01*
X172443489Y-105884901D01*
X172558167Y-106099449D01*
X172712498Y-106287502D01*
X172900551Y-106441833D01*
X173115099Y-106556511D01*
X173347898Y-106627130D01*
X173529335Y-106645000D01*
X174450665Y-106645000D01*
X174632102Y-106627130D01*
X174864901Y-106556511D01*
X175079449Y-106441833D01*
X175267502Y-106287502D01*
X175421833Y-106099449D01*
X175536511Y-105884901D01*
X175607130Y-105652102D01*
X175630975Y-105410000D01*
X175607130Y-105167898D01*
X175536511Y-104935099D01*
X175421833Y-104720551D01*
X175267502Y-104532498D01*
X175079449Y-104378167D01*
X174864901Y-104263489D01*
X174632102Y-104192870D01*
X174450665Y-104175000D01*
X173529335Y-104175000D01*
X173347898Y-104192870D01*
X173115099Y-104263489D01*
X172900551Y-104378167D01*
X172712498Y-104532498D01*
X172558167Y-104720551D01*
X172443489Y-104935099D01*
X172372870Y-105167898D01*
X172349025Y-105410000D01*
X167832400Y-105410000D01*
X167832400Y-102870000D01*
X172349025Y-102870000D01*
X172372870Y-103112102D01*
X172443489Y-103344901D01*
X172558167Y-103559449D01*
X172712498Y-103747502D01*
X172900551Y-103901833D01*
X173115099Y-104016511D01*
X173347898Y-104087130D01*
X173529335Y-104105000D01*
X174450665Y-104105000D01*
X174632102Y-104087130D01*
X174864901Y-104016511D01*
X175079449Y-103901833D01*
X175267502Y-103747502D01*
X175421833Y-103559449D01*
X175536511Y-103344901D01*
X175607130Y-103112102D01*
X175630975Y-102870000D01*
X175607130Y-102627898D01*
X175536511Y-102395099D01*
X175421833Y-102180551D01*
X175267502Y-101992498D01*
X175079449Y-101838167D01*
X174864901Y-101723489D01*
X174632102Y-101652870D01*
X174450665Y-101635000D01*
X173529335Y-101635000D01*
X173347898Y-101652870D01*
X173115099Y-101723489D01*
X172900551Y-101838167D01*
X172712498Y-101992498D01*
X172558167Y-102180551D01*
X172443489Y-102395099D01*
X172372870Y-102627898D01*
X172349025Y-102870000D01*
X167832400Y-102870000D01*
X167832400Y-100330000D01*
X172349025Y-100330000D01*
X172372870Y-100572102D01*
X172443489Y-100804901D01*
X172558167Y-101019449D01*
X172712498Y-101207502D01*
X172900551Y-101361833D01*
X173115099Y-101476511D01*
X173347898Y-101547130D01*
X173529335Y-101565000D01*
X174450665Y-101565000D01*
X174632102Y-101547130D01*
X174864901Y-101476511D01*
X175079449Y-101361833D01*
X175267502Y-101207502D01*
X175421833Y-101019449D01*
X175536511Y-100804901D01*
X175607130Y-100572102D01*
X175630975Y-100330000D01*
X175607130Y-100087898D01*
X175536511Y-99855099D01*
X175421833Y-99640551D01*
X175267502Y-99452498D01*
X175079449Y-99298167D01*
X174864901Y-99183489D01*
X174632102Y-99112870D01*
X174450665Y-99095000D01*
X173529335Y-99095000D01*
X173347898Y-99112870D01*
X173115099Y-99183489D01*
X172900551Y-99298167D01*
X172712498Y-99452498D01*
X172558167Y-99640551D01*
X172443489Y-99855099D01*
X172372870Y-100087898D01*
X172349025Y-100330000D01*
X167832400Y-100330000D01*
X167832400Y-97790000D01*
X172349025Y-97790000D01*
X172372870Y-98032102D01*
X172443489Y-98264901D01*
X172558167Y-98479449D01*
X172712498Y-98667502D01*
X172900551Y-98821833D01*
X173115099Y-98936511D01*
X173347898Y-99007130D01*
X173529335Y-99025000D01*
X174450665Y-99025000D01*
X174632102Y-99007130D01*
X174864901Y-98936511D01*
X175079449Y-98821833D01*
X175267502Y-98667502D01*
X175421833Y-98479449D01*
X175536511Y-98264901D01*
X175607130Y-98032102D01*
X175630975Y-97790000D01*
X175607130Y-97547898D01*
X175536511Y-97315099D01*
X175421833Y-97100551D01*
X175267502Y-96912498D01*
X175079449Y-96758167D01*
X174864901Y-96643489D01*
X174632102Y-96572870D01*
X174450665Y-96555000D01*
X173529335Y-96555000D01*
X173347898Y-96572870D01*
X173115099Y-96643489D01*
X172900551Y-96758167D01*
X172712498Y-96912498D01*
X172558167Y-97100551D01*
X172443489Y-97315099D01*
X172372870Y-97547898D01*
X172349025Y-97790000D01*
X167832400Y-97790000D01*
X167832400Y-95250000D01*
X172349025Y-95250000D01*
X172372870Y-95492102D01*
X172443489Y-95724901D01*
X172558167Y-95939449D01*
X172712498Y-96127502D01*
X172900551Y-96281833D01*
X173115099Y-96396511D01*
X173347898Y-96467130D01*
X173529335Y-96485000D01*
X174450665Y-96485000D01*
X174632102Y-96467130D01*
X174864901Y-96396511D01*
X175079449Y-96281833D01*
X175267502Y-96127502D01*
X175421833Y-95939449D01*
X175536511Y-95724901D01*
X175607130Y-95492102D01*
X175630975Y-95250000D01*
X175607130Y-95007898D01*
X175536511Y-94775099D01*
X175421833Y-94560551D01*
X175267502Y-94372498D01*
X175079449Y-94218167D01*
X174864901Y-94103489D01*
X174632102Y-94032870D01*
X174450665Y-94015000D01*
X173529335Y-94015000D01*
X173347898Y-94032870D01*
X173115099Y-94103489D01*
X172900551Y-94218167D01*
X172712498Y-94372498D01*
X172558167Y-94560551D01*
X172443489Y-94775099D01*
X172372870Y-95007898D01*
X172349025Y-95250000D01*
X167832400Y-95250000D01*
X167832400Y-92710000D01*
X172349025Y-92710000D01*
X172372870Y-92952102D01*
X172443489Y-93184901D01*
X172558167Y-93399449D01*
X172712498Y-93587502D01*
X172900551Y-93741833D01*
X173115099Y-93856511D01*
X173347898Y-93927130D01*
X173529335Y-93945000D01*
X174450665Y-93945000D01*
X174632102Y-93927130D01*
X174864901Y-93856511D01*
X175079449Y-93741833D01*
X175267502Y-93587502D01*
X175421833Y-93399449D01*
X175536511Y-93184901D01*
X175607130Y-92952102D01*
X175630975Y-92710000D01*
X175607130Y-92467898D01*
X175536511Y-92235099D01*
X175421833Y-92020551D01*
X175267502Y-91832498D01*
X175079449Y-91678167D01*
X174864901Y-91563489D01*
X174632102Y-91492870D01*
X174450665Y-91475000D01*
X173529335Y-91475000D01*
X173347898Y-91492870D01*
X173115099Y-91563489D01*
X172900551Y-91678167D01*
X172712498Y-91832498D01*
X172558167Y-92020551D01*
X172443489Y-92235099D01*
X172372870Y-92467898D01*
X172349025Y-92710000D01*
X167832400Y-92710000D01*
X167832400Y-90170000D01*
X172349025Y-90170000D01*
X172372870Y-90412102D01*
X172443489Y-90644901D01*
X172558167Y-90859449D01*
X172712498Y-91047502D01*
X172900551Y-91201833D01*
X173115099Y-91316511D01*
X173347898Y-91387130D01*
X173529335Y-91405000D01*
X174450665Y-91405000D01*
X174632102Y-91387130D01*
X174864901Y-91316511D01*
X175079449Y-91201833D01*
X175267502Y-91047502D01*
X175421833Y-90859449D01*
X175536511Y-90644901D01*
X175607130Y-90412102D01*
X175630975Y-90170000D01*
X175607130Y-89927898D01*
X175536511Y-89695099D01*
X175421833Y-89480551D01*
X175267502Y-89292498D01*
X175079449Y-89138167D01*
X174864901Y-89023489D01*
X174632102Y-88952870D01*
X174450665Y-88935000D01*
X173529335Y-88935000D01*
X173347898Y-88952870D01*
X173115099Y-89023489D01*
X172900551Y-89138167D01*
X172712498Y-89292498D01*
X172558167Y-89480551D01*
X172443489Y-89695099D01*
X172372870Y-89927898D01*
X172349025Y-90170000D01*
X167832400Y-90170000D01*
X167832400Y-87630000D01*
X172349025Y-87630000D01*
X172372870Y-87872102D01*
X172443489Y-88104901D01*
X172558167Y-88319449D01*
X172712498Y-88507502D01*
X172900551Y-88661833D01*
X173115099Y-88776511D01*
X173347898Y-88847130D01*
X173529335Y-88865000D01*
X174450665Y-88865000D01*
X174632102Y-88847130D01*
X174864901Y-88776511D01*
X175079449Y-88661833D01*
X175267502Y-88507502D01*
X175421833Y-88319449D01*
X175536511Y-88104901D01*
X175607130Y-87872102D01*
X175630975Y-87630000D01*
X175607130Y-87387898D01*
X175536511Y-87155099D01*
X175421833Y-86940551D01*
X175267502Y-86752498D01*
X175079449Y-86598167D01*
X174864901Y-86483489D01*
X174632102Y-86412870D01*
X174450665Y-86395000D01*
X173529335Y-86395000D01*
X173347898Y-86412870D01*
X173115099Y-86483489D01*
X172900551Y-86598167D01*
X172712498Y-86752498D01*
X172558167Y-86940551D01*
X172443489Y-87155099D01*
X172372870Y-87387898D01*
X172349025Y-87630000D01*
X167832400Y-87630000D01*
X167832400Y-85090000D01*
X172349025Y-85090000D01*
X172372870Y-85332102D01*
X172443489Y-85564901D01*
X172558167Y-85779449D01*
X172712498Y-85967502D01*
X172900551Y-86121833D01*
X173115099Y-86236511D01*
X173347898Y-86307130D01*
X173529335Y-86325000D01*
X174450665Y-86325000D01*
X174632102Y-86307130D01*
X174864901Y-86236511D01*
X175079449Y-86121833D01*
X175267502Y-85967502D01*
X175421833Y-85779449D01*
X175536511Y-85564901D01*
X175607130Y-85332102D01*
X175630975Y-85090000D01*
X175607130Y-84847898D01*
X175536511Y-84615099D01*
X175421833Y-84400551D01*
X175267502Y-84212498D01*
X175079449Y-84058167D01*
X174864901Y-83943489D01*
X174632102Y-83872870D01*
X174450665Y-83855000D01*
X173529335Y-83855000D01*
X173347898Y-83872870D01*
X173115099Y-83943489D01*
X172900551Y-84058167D01*
X172712498Y-84212498D01*
X172558167Y-84400551D01*
X172443489Y-84615099D01*
X172372870Y-84847898D01*
X172349025Y-85090000D01*
X167832400Y-85090000D01*
X167832400Y-82867609D01*
X172396538Y-82867609D01*
X172400409Y-82905282D01*
X172492579Y-83130533D01*
X172626922Y-83333474D01*
X172798275Y-83506307D01*
X173000054Y-83642390D01*
X173224504Y-83736493D01*
X173463000Y-83785000D01*
X173863000Y-83785000D01*
X173863000Y-82677000D01*
X174117000Y-82677000D01*
X174117000Y-83785000D01*
X174517000Y-83785000D01*
X174755496Y-83736493D01*
X174979946Y-83642390D01*
X175181725Y-83506307D01*
X175353078Y-83333474D01*
X175487421Y-83130533D01*
X175579591Y-82905282D01*
X175583462Y-82867609D01*
X175458731Y-82677000D01*
X174117000Y-82677000D01*
X173863000Y-82677000D01*
X172521269Y-82677000D01*
X172396538Y-82867609D01*
X167832400Y-82867609D01*
X167832400Y-82232391D01*
X172396538Y-82232391D01*
X172521269Y-82423000D01*
X173863000Y-82423000D01*
X173863000Y-81315000D01*
X174117000Y-81315000D01*
X174117000Y-82423000D01*
X175458731Y-82423000D01*
X175583462Y-82232391D01*
X175579591Y-82194718D01*
X175487421Y-81969467D01*
X175353078Y-81766526D01*
X175181725Y-81593693D01*
X174979946Y-81457610D01*
X174755496Y-81363507D01*
X174517000Y-81315000D01*
X174117000Y-81315000D01*
X173863000Y-81315000D01*
X173463000Y-81315000D01*
X173224504Y-81363507D01*
X173000054Y-81457610D01*
X172798275Y-81593693D01*
X172626922Y-81766526D01*
X172492579Y-81969467D01*
X172400409Y-82194718D01*
X172396538Y-82232391D01*
X167832400Y-82232391D01*
X167832400Y-80010000D01*
X172349025Y-80010000D01*
X172372870Y-80252102D01*
X172443489Y-80484901D01*
X172558167Y-80699449D01*
X172712498Y-80887502D01*
X172900551Y-81041833D01*
X173115099Y-81156511D01*
X173347898Y-81227130D01*
X173529335Y-81245000D01*
X174450665Y-81245000D01*
X174632102Y-81227130D01*
X174864901Y-81156511D01*
X175079449Y-81041833D01*
X175267502Y-80887502D01*
X175421833Y-80699449D01*
X175536511Y-80484901D01*
X175607130Y-80252102D01*
X175630975Y-80010000D01*
X175607130Y-79767898D01*
X175536511Y-79535099D01*
X175421833Y-79320551D01*
X175267502Y-79132498D01*
X175079449Y-78978167D01*
X174864901Y-78863489D01*
X174632102Y-78792870D01*
X174450665Y-78775000D01*
X173529335Y-78775000D01*
X173347898Y-78792870D01*
X173115099Y-78863489D01*
X172900551Y-78978167D01*
X172712498Y-79132498D01*
X172558167Y-79320551D01*
X172443489Y-79535099D01*
X172372870Y-79767898D01*
X172349025Y-80010000D01*
X167832400Y-80010000D01*
X167832400Y-78818662D01*
X167836208Y-78779999D01*
X167832400Y-78741336D01*
X167832400Y-78741327D01*
X167821006Y-78625643D01*
X167775982Y-78477217D01*
X167702866Y-78340428D01*
X167671350Y-78302026D01*
X167629121Y-78250569D01*
X167629119Y-78250567D01*
X167604469Y-78220531D01*
X167574433Y-78195881D01*
X166848552Y-77470000D01*
X172349025Y-77470000D01*
X172372870Y-77712102D01*
X172443489Y-77944901D01*
X172558167Y-78159449D01*
X172712498Y-78347502D01*
X172900551Y-78501833D01*
X173115099Y-78616511D01*
X173347898Y-78687130D01*
X173529335Y-78705000D01*
X174450665Y-78705000D01*
X174632102Y-78687130D01*
X174864901Y-78616511D01*
X175079449Y-78501833D01*
X175267502Y-78347502D01*
X175421833Y-78159449D01*
X175536511Y-77944901D01*
X175607130Y-77712102D01*
X175630975Y-77470000D01*
X175607130Y-77227898D01*
X175536511Y-76995099D01*
X175421833Y-76780551D01*
X175267502Y-76592498D01*
X175079449Y-76438167D01*
X174864901Y-76323489D01*
X174632102Y-76252870D01*
X174450665Y-76235000D01*
X173529335Y-76235000D01*
X173347898Y-76252870D01*
X173115099Y-76323489D01*
X172900551Y-76438167D01*
X172712498Y-76592498D01*
X172558167Y-76780551D01*
X172443489Y-76995099D01*
X172372870Y-77227898D01*
X172349025Y-77470000D01*
X166848552Y-77470000D01*
X162509128Y-73130578D01*
X162484469Y-73100531D01*
X162364572Y-73002134D01*
X162227783Y-72929018D01*
X162079357Y-72883994D01*
X161963673Y-72872600D01*
X161963663Y-72872600D01*
X161925000Y-72868792D01*
X161886337Y-72872600D01*
X152672396Y-72872600D01*
X152676511Y-72864901D01*
X152747130Y-72632102D01*
X152770975Y-72390000D01*
X152747130Y-72147898D01*
X152676511Y-71915099D01*
X152561833Y-71700551D01*
X152473576Y-71593010D01*
X162376660Y-71593010D01*
X166801877Y-76018228D01*
X166826531Y-76048269D01*
X166885465Y-76096635D01*
X166946427Y-76146666D01*
X167046208Y-76200000D01*
X167083217Y-76219782D01*
X167231643Y-76264806D01*
X167347327Y-76276200D01*
X167347337Y-76276200D01*
X167386000Y-76280008D01*
X167424663Y-76276200D01*
X170547737Y-76276200D01*
X170586400Y-76280008D01*
X170625063Y-76276200D01*
X170625073Y-76276200D01*
X170740757Y-76264806D01*
X170889183Y-76219782D01*
X171025972Y-76146666D01*
X171145869Y-76048269D01*
X171170527Y-76018223D01*
X172358888Y-74829864D01*
X172349025Y-74930000D01*
X172372870Y-75172102D01*
X172443489Y-75404901D01*
X172558167Y-75619449D01*
X172712498Y-75807502D01*
X172900551Y-75961833D01*
X173115099Y-76076511D01*
X173347898Y-76147130D01*
X173529335Y-76165000D01*
X174450665Y-76165000D01*
X174632102Y-76147130D01*
X174864901Y-76076511D01*
X175079449Y-75961833D01*
X175267502Y-75807502D01*
X175421833Y-75619449D01*
X175536511Y-75404901D01*
X175607130Y-75172102D01*
X175630975Y-74930000D01*
X175607130Y-74687898D01*
X175536511Y-74455099D01*
X175421833Y-74240551D01*
X175267502Y-74052498D01*
X175079449Y-73898167D01*
X174864901Y-73783489D01*
X174632102Y-73712870D01*
X174450665Y-73695000D01*
X173529335Y-73695000D01*
X173347898Y-73712870D01*
X173115099Y-73783489D01*
X173001346Y-73844291D01*
X172999400Y-73824535D01*
X172999400Y-73474669D01*
X173115099Y-73536511D01*
X173347898Y-73607130D01*
X173529335Y-73625000D01*
X174450665Y-73625000D01*
X174632102Y-73607130D01*
X174864901Y-73536511D01*
X175079449Y-73421833D01*
X175267502Y-73267502D01*
X175421833Y-73079449D01*
X175536511Y-72864901D01*
X175607130Y-72632102D01*
X175630975Y-72390000D01*
X175607130Y-72147898D01*
X175536511Y-71915099D01*
X175421833Y-71700551D01*
X175267502Y-71512498D01*
X175079449Y-71358167D01*
X174864901Y-71243489D01*
X174632102Y-71172870D01*
X174450665Y-71155000D01*
X173798551Y-71155000D01*
X173868551Y-71085000D01*
X174450665Y-71085000D01*
X174632102Y-71067130D01*
X174864901Y-70996511D01*
X175079449Y-70881833D01*
X175267502Y-70727502D01*
X175421833Y-70539449D01*
X175536511Y-70324901D01*
X175607130Y-70092102D01*
X175630975Y-69850000D01*
X175607130Y-69607898D01*
X175536511Y-69375099D01*
X175421833Y-69160551D01*
X175267502Y-68972498D01*
X175079449Y-68818167D01*
X174864901Y-68703489D01*
X174632102Y-68632870D01*
X174450665Y-68615000D01*
X173529335Y-68615000D01*
X173347898Y-68632870D01*
X173115099Y-68703489D01*
X172900551Y-68818167D01*
X172712498Y-68972498D01*
X172558167Y-69160551D01*
X172443489Y-69375099D01*
X172372870Y-69607898D01*
X172349025Y-69850000D01*
X172372870Y-70092102D01*
X172433727Y-70292722D01*
X171682573Y-71043877D01*
X171652532Y-71068531D01*
X171581569Y-71155000D01*
X171554135Y-71188428D01*
X171481018Y-71325218D01*
X171435995Y-71473643D01*
X171420792Y-71628000D01*
X171424601Y-71666673D01*
X171424600Y-73537048D01*
X170260250Y-74701400D01*
X167712151Y-74701400D01*
X163910623Y-70899872D01*
X166040000Y-70899872D01*
X166040000Y-71340128D01*
X166125890Y-71771925D01*
X166294369Y-72178669D01*
X166538962Y-72544729D01*
X166850271Y-72856038D01*
X167216331Y-73100631D01*
X167623075Y-73269110D01*
X168054872Y-73355000D01*
X168495128Y-73355000D01*
X168926925Y-73269110D01*
X169333669Y-73100631D01*
X169699729Y-72856038D01*
X170011038Y-72544729D01*
X170255631Y-72178669D01*
X170424110Y-71771925D01*
X170510000Y-71340128D01*
X170510000Y-70899872D01*
X170424110Y-70468075D01*
X170255631Y-70061331D01*
X170011038Y-69695271D01*
X169699729Y-69383962D01*
X169333669Y-69139369D01*
X168926925Y-68970890D01*
X168495128Y-68885000D01*
X168054872Y-68885000D01*
X167623075Y-68970890D01*
X167216331Y-69139369D01*
X166850271Y-69383962D01*
X166538962Y-69695271D01*
X166294369Y-70061331D01*
X166125890Y-70468075D01*
X166040000Y-70899872D01*
X163910623Y-70899872D01*
X163286938Y-70276188D01*
X163262279Y-70246141D01*
X163142382Y-70147744D01*
X163005593Y-70074628D01*
X162857167Y-70029604D01*
X162741483Y-70018210D01*
X162741473Y-70018210D01*
X162702810Y-70014402D01*
X162664147Y-70018210D01*
X152754408Y-70018210D01*
X152770975Y-69850000D01*
X152747130Y-69607898D01*
X152676511Y-69375099D01*
X152561833Y-69160551D01*
X152407502Y-68972498D01*
X152219449Y-68818167D01*
X152004901Y-68703489D01*
X151772102Y-68632870D01*
X151590665Y-68615000D01*
X150669335Y-68615000D01*
X150487898Y-68632870D01*
X150255099Y-68703489D01*
X150040551Y-68818167D01*
X149852498Y-68972498D01*
X149698167Y-69160551D01*
X149583489Y-69375099D01*
X149512870Y-69607898D01*
X149489025Y-69850000D01*
X149505592Y-70018210D01*
X146903072Y-70018210D01*
X146903072Y-69635000D01*
X146890812Y-69510518D01*
X146854502Y-69390820D01*
X146795537Y-69280506D01*
X146716185Y-69183815D01*
X146619494Y-69104463D01*
X146509180Y-69045498D01*
X146389482Y-69009188D01*
X146265000Y-68996928D01*
X144565000Y-68996928D01*
X144440518Y-69009188D01*
X144320820Y-69045498D01*
X144210506Y-69104463D01*
X144113815Y-69183815D01*
X144034463Y-69280506D01*
X143975498Y-69390820D01*
X143953487Y-69463380D01*
X143821632Y-69331525D01*
X143578411Y-69169010D01*
X143308158Y-69057068D01*
X143021260Y-69000000D01*
X142728740Y-69000000D01*
X142441842Y-69057068D01*
X142171589Y-69169010D01*
X141928368Y-69331525D01*
X141721525Y-69538368D01*
X141559010Y-69781589D01*
X141447068Y-70051842D01*
X141390000Y-70338740D01*
X141390000Y-70631260D01*
X141447068Y-70918158D01*
X141559010Y-71188411D01*
X141721525Y-71431632D01*
X141928368Y-71638475D01*
X142087600Y-71744871D01*
X142087601Y-72872600D01*
X141008662Y-72872600D01*
X140969999Y-72868792D01*
X140931336Y-72872600D01*
X140931327Y-72872600D01*
X140815643Y-72883994D01*
X140667217Y-72929018D01*
X140530428Y-73002134D01*
X140530426Y-73002135D01*
X140530427Y-73002135D01*
X140440569Y-73075879D01*
X140440567Y-73075881D01*
X140410531Y-73100531D01*
X140385881Y-73130567D01*
X139465573Y-74050877D01*
X139435532Y-74075531D01*
X139410879Y-74105571D01*
X139337135Y-74195428D01*
X139264018Y-74332218D01*
X139242872Y-74401928D01*
X139120000Y-74401928D01*
X139020000Y-74411777D01*
X138920000Y-74401928D01*
X138470000Y-74401928D01*
X138345518Y-74414188D01*
X138225820Y-74450498D01*
X138115506Y-74509463D01*
X138018815Y-74588815D01*
X137939463Y-74685506D01*
X137880498Y-74795820D01*
X137844188Y-74915518D01*
X137831928Y-75040000D01*
X137831928Y-76540000D01*
X137844188Y-76664482D01*
X137880498Y-76784180D01*
X137939463Y-76894494D01*
X137942751Y-76898500D01*
X136962370Y-76898500D01*
X130963742Y-70899872D01*
X133020000Y-70899872D01*
X133020000Y-71340128D01*
X133105890Y-71771925D01*
X133274369Y-72178669D01*
X133518962Y-72544729D01*
X133830271Y-72856038D01*
X134196331Y-73100631D01*
X134603075Y-73269110D01*
X135034872Y-73355000D01*
X135475128Y-73355000D01*
X135906925Y-73269110D01*
X136313669Y-73100631D01*
X136679729Y-72856038D01*
X136991038Y-72544729D01*
X137235631Y-72178669D01*
X137404110Y-71771925D01*
X137490000Y-71340128D01*
X137490000Y-70899872D01*
X137404110Y-70468075D01*
X137235631Y-70061331D01*
X136991038Y-69695271D01*
X136679729Y-69383962D01*
X136313669Y-69139369D01*
X135906925Y-68970890D01*
X135475128Y-68885000D01*
X135034872Y-68885000D01*
X134603075Y-68970890D01*
X134196331Y-69139369D01*
X133830271Y-69383962D01*
X133518962Y-69695271D01*
X133274369Y-70061331D01*
X133105890Y-70468075D01*
X133020000Y-70899872D01*
X130963742Y-70899872D01*
X130680063Y-70616194D01*
X130656598Y-70587602D01*
X130542503Y-70493966D01*
X130412332Y-70424388D01*
X130271088Y-70381542D01*
X130161006Y-70370700D01*
X130160995Y-70370700D01*
X130124200Y-70367076D01*
X130087405Y-70370700D01*
X128920328Y-70370700D01*
X128788475Y-70173368D01*
X128581632Y-69966525D01*
X128338411Y-69804010D01*
X128068158Y-69692068D01*
X127781260Y-69635000D01*
X127488740Y-69635000D01*
X127201842Y-69692068D01*
X126931589Y-69804010D01*
X126688368Y-69966525D01*
X126481525Y-70173368D01*
X126319010Y-70416589D01*
X126207068Y-70686842D01*
X126150000Y-70973740D01*
X126150000Y-71266260D01*
X126207068Y-71553158D01*
X126319010Y-71823411D01*
X126481525Y-72066632D01*
X126688368Y-72273475D01*
X126862760Y-72390000D01*
X126688368Y-72506525D01*
X126481525Y-72713368D01*
X126319010Y-72956589D01*
X126207068Y-73226842D01*
X126150000Y-73513740D01*
X126150000Y-73806260D01*
X126207068Y-74093158D01*
X126319010Y-74363411D01*
X126481525Y-74606632D01*
X126688368Y-74813475D01*
X126862760Y-74930000D01*
X126688368Y-75046525D01*
X126481525Y-75253368D01*
X126319010Y-75496589D01*
X126207068Y-75766842D01*
X126150000Y-76053740D01*
X126150000Y-76346260D01*
X126207068Y-76633158D01*
X126319010Y-76903411D01*
X126481525Y-77146632D01*
X126688368Y-77353475D01*
X126870534Y-77475195D01*
X126753645Y-77544822D01*
X126537412Y-77739731D01*
X126363359Y-77973080D01*
X126238175Y-78235901D01*
X126193524Y-78383110D01*
X126314845Y-78613000D01*
X127508000Y-78613000D01*
X127508000Y-78593000D01*
X127762000Y-78593000D01*
X127762000Y-78613000D01*
X127782000Y-78613000D01*
X127782000Y-78867000D01*
X127762000Y-78867000D01*
X127762000Y-78887000D01*
X127508000Y-78887000D01*
X127508000Y-78867000D01*
X126314845Y-78867000D01*
X126193524Y-79096890D01*
X126238175Y-79244099D01*
X126363359Y-79506920D01*
X126537412Y-79740269D01*
X126753645Y-79935178D01*
X126870534Y-80004805D01*
X126688368Y-80126525D01*
X126481525Y-80333368D01*
X126319010Y-80576589D01*
X126207068Y-80846842D01*
X126150000Y-81133740D01*
X126150000Y-81426260D01*
X126207068Y-81713158D01*
X126319010Y-81983411D01*
X126481525Y-82226632D01*
X126688368Y-82433475D01*
X126862760Y-82550000D01*
X126688368Y-82666525D01*
X126481525Y-82873368D01*
X126319010Y-83116589D01*
X126207068Y-83386842D01*
X126150000Y-83673740D01*
X126150000Y-83966260D01*
X126207068Y-84253158D01*
X126319010Y-84523411D01*
X126481525Y-84766632D01*
X126688368Y-84973475D01*
X126862760Y-85090000D01*
X126688368Y-85206525D01*
X126481525Y-85413368D01*
X126319010Y-85656589D01*
X126207068Y-85926842D01*
X126150000Y-86213740D01*
X126150000Y-86506260D01*
X126207068Y-86793158D01*
X126319010Y-87063411D01*
X126481525Y-87306632D01*
X126688368Y-87513475D01*
X126862760Y-87630000D01*
X126688368Y-87746525D01*
X126481525Y-87953368D01*
X126319010Y-88196589D01*
X126207068Y-88466842D01*
X126150000Y-88753740D01*
X126150000Y-89046260D01*
X126207068Y-89333158D01*
X126319010Y-89603411D01*
X126481525Y-89846632D01*
X126613380Y-89978487D01*
X126540820Y-90000498D01*
X126430506Y-90059463D01*
X126333815Y-90138815D01*
X126254463Y-90235506D01*
X126195498Y-90345820D01*
X126159188Y-90465518D01*
X126146928Y-90590000D01*
X125120000Y-90590000D01*
X125120000Y-67970000D01*
X177140001Y-67970000D01*
X177140000Y-123800000D01*
%TA.AperFunction,Conductor*%
D26*
G36*
X177140000Y-123800000D02*
G01*
X125120000Y-123800000D01*
X125120000Y-98104800D01*
X134217128Y-98104800D01*
X134220200Y-98444050D01*
X134378950Y-98602800D01*
X135478200Y-98602800D01*
X135478200Y-97628550D01*
X135319450Y-97469800D01*
X134855200Y-97466728D01*
X134730718Y-97478988D01*
X134611020Y-97515298D01*
X134500706Y-97574263D01*
X134404015Y-97653615D01*
X134324663Y-97750306D01*
X134265698Y-97860620D01*
X134229388Y-97980318D01*
X134217128Y-98104800D01*
X125120000Y-98104800D01*
X125120000Y-90590000D01*
X126146928Y-90590000D01*
X126146928Y-92290000D01*
X126159188Y-92414482D01*
X126195498Y-92534180D01*
X126254463Y-92644494D01*
X126333815Y-92741185D01*
X126430506Y-92820537D01*
X126540820Y-92879502D01*
X126660518Y-92915812D01*
X126785000Y-92928072D01*
X128485000Y-92928072D01*
X128609482Y-92915812D01*
X128729180Y-92879502D01*
X128839494Y-92820537D01*
X128936185Y-92741185D01*
X129015537Y-92644494D01*
X129074502Y-92534180D01*
X129110812Y-92414482D01*
X129123072Y-92290000D01*
X129123072Y-92189300D01*
X135351031Y-92189300D01*
X136248541Y-93086811D01*
X136272002Y-93115398D01*
X136300588Y-93138858D01*
X136300590Y-93138860D01*
X136386096Y-93209034D01*
X136431438Y-93233270D01*
X136516268Y-93278612D01*
X136657512Y-93321458D01*
X136767594Y-93332300D01*
X136767603Y-93332300D01*
X136804399Y-93335924D01*
X136841195Y-93332300D01*
X137280700Y-93332300D01*
X137280701Y-94690607D01*
X137240498Y-94765820D01*
X137204188Y-94885518D01*
X137191928Y-95010000D01*
X137191928Y-96110000D01*
X137204188Y-96234482D01*
X137232628Y-96328238D01*
X137084426Y-96427263D01*
X136940263Y-96571426D01*
X136826995Y-96740944D01*
X136748974Y-96929302D01*
X136709200Y-97129261D01*
X136709200Y-97333139D01*
X136748974Y-97533098D01*
X136795036Y-97644301D01*
X136709694Y-97574263D01*
X136599380Y-97515298D01*
X136479682Y-97478988D01*
X136355200Y-97466728D01*
X135890950Y-97469800D01*
X135732200Y-97628550D01*
X135732200Y-98602800D01*
X135752200Y-98602800D01*
X135752200Y-98856800D01*
X135732200Y-98856800D01*
X135732200Y-98876800D01*
X135478200Y-98876800D01*
X135478200Y-98856800D01*
X134378950Y-98856800D01*
X134220200Y-99015550D01*
X134217128Y-99354800D01*
X134229388Y-99479282D01*
X134260153Y-99580700D01*
X129123072Y-99580700D01*
X129123072Y-99480000D01*
X129110812Y-99355518D01*
X129074502Y-99235820D01*
X129015537Y-99125506D01*
X128936185Y-99028815D01*
X128839494Y-98949463D01*
X128729180Y-98890498D01*
X128609482Y-98854188D01*
X128485000Y-98841928D01*
X126785000Y-98841928D01*
X126660518Y-98854188D01*
X126540820Y-98890498D01*
X126430506Y-98949463D01*
X126333815Y-99028815D01*
X126254463Y-99125506D01*
X126195498Y-99235820D01*
X126159188Y-99355518D01*
X126146928Y-99480000D01*
X126146928Y-101180000D01*
X126159188Y-101304482D01*
X126195498Y-101424180D01*
X126254463Y-101534494D01*
X126333815Y-101631185D01*
X126430506Y-101710537D01*
X126540820Y-101769502D01*
X126613380Y-101791513D01*
X126481525Y-101923368D01*
X126319010Y-102166589D01*
X126207068Y-102436842D01*
X126150000Y-102723740D01*
X126150000Y-103016260D01*
X126207068Y-103303158D01*
X126319010Y-103573411D01*
X126481525Y-103816632D01*
X126688368Y-104023475D01*
X126862760Y-104140000D01*
X126688368Y-104256525D01*
X126481525Y-104463368D01*
X126319010Y-104706589D01*
X126207068Y-104976842D01*
X126150000Y-105263740D01*
X126150000Y-105556260D01*
X126207068Y-105843158D01*
X126319010Y-106113411D01*
X126481525Y-106356632D01*
X126688368Y-106563475D01*
X126862760Y-106680000D01*
X126688368Y-106796525D01*
X126481525Y-107003368D01*
X126319010Y-107246589D01*
X126207068Y-107516842D01*
X126150000Y-107803740D01*
X126150000Y-108096260D01*
X126207068Y-108383158D01*
X126319010Y-108653411D01*
X126481525Y-108896632D01*
X126688368Y-109103475D01*
X126862760Y-109220000D01*
X126688368Y-109336525D01*
X126481525Y-109543368D01*
X126319010Y-109786589D01*
X126207068Y-110056842D01*
X126150000Y-110343740D01*
X126150000Y-110636260D01*
X126207068Y-110923158D01*
X126319010Y-111193411D01*
X126481525Y-111436632D01*
X126688368Y-111643475D01*
X126870534Y-111765195D01*
X126753645Y-111834822D01*
X126537412Y-112029731D01*
X126363359Y-112263080D01*
X126238175Y-112525901D01*
X126193524Y-112673110D01*
X126314845Y-112903000D01*
X127508000Y-112903000D01*
X127508000Y-112883000D01*
X127762000Y-112883000D01*
X127762000Y-112903000D01*
X127782000Y-112903000D01*
X127782000Y-113157000D01*
X127762000Y-113157000D01*
X127762000Y-113177000D01*
X127508000Y-113177000D01*
X127508000Y-113157000D01*
X126314845Y-113157000D01*
X126193524Y-113386890D01*
X126238175Y-113534099D01*
X126363359Y-113796920D01*
X126537412Y-114030269D01*
X126753645Y-114225178D01*
X126870534Y-114294805D01*
X126688368Y-114416525D01*
X126481525Y-114623368D01*
X126319010Y-114866589D01*
X126207068Y-115136842D01*
X126150000Y-115423740D01*
X126150000Y-115716260D01*
X126207068Y-116003158D01*
X126319010Y-116273411D01*
X126481525Y-116516632D01*
X126688368Y-116723475D01*
X126862760Y-116840000D01*
X126688368Y-116956525D01*
X126481525Y-117163368D01*
X126319010Y-117406589D01*
X126207068Y-117676842D01*
X126150000Y-117963740D01*
X126150000Y-118256260D01*
X126207068Y-118543158D01*
X126319010Y-118813411D01*
X126481525Y-119056632D01*
X126688368Y-119263475D01*
X126862760Y-119380000D01*
X126688368Y-119496525D01*
X126481525Y-119703368D01*
X126319010Y-119946589D01*
X126207068Y-120216842D01*
X126150000Y-120503740D01*
X126150000Y-120796260D01*
X126207068Y-121083158D01*
X126319010Y-121353411D01*
X126481525Y-121596632D01*
X126688368Y-121803475D01*
X126931589Y-121965990D01*
X127201842Y-122077932D01*
X127488740Y-122135000D01*
X127781260Y-122135000D01*
X128068158Y-122077932D01*
X128338411Y-121965990D01*
X128581632Y-121803475D01*
X128788475Y-121596632D01*
X128920328Y-121399300D01*
X129630205Y-121399300D01*
X129667000Y-121402924D01*
X129703795Y-121399300D01*
X129703806Y-121399300D01*
X129813888Y-121388458D01*
X129955132Y-121345612D01*
X130085303Y-121276034D01*
X130199398Y-121182398D01*
X130222863Y-121153806D01*
X130946797Y-120429872D01*
X133020000Y-120429872D01*
X133020000Y-120870128D01*
X133105890Y-121301925D01*
X133274369Y-121708669D01*
X133518962Y-122074729D01*
X133830271Y-122386038D01*
X134196331Y-122630631D01*
X134603075Y-122799110D01*
X135034872Y-122885000D01*
X135475128Y-122885000D01*
X135906925Y-122799110D01*
X136313669Y-122630631D01*
X136679729Y-122386038D01*
X136991038Y-122074729D01*
X137235631Y-121708669D01*
X137404110Y-121301925D01*
X137490000Y-120870128D01*
X137490000Y-120429872D01*
X166040000Y-120429872D01*
X166040000Y-120870128D01*
X166125890Y-121301925D01*
X166294369Y-121708669D01*
X166538962Y-122074729D01*
X166850271Y-122386038D01*
X167216331Y-122630631D01*
X167623075Y-122799110D01*
X168054872Y-122885000D01*
X168495128Y-122885000D01*
X168926925Y-122799110D01*
X169333669Y-122630631D01*
X169699729Y-122386038D01*
X170011038Y-122074729D01*
X170255631Y-121708669D01*
X170424110Y-121301925D01*
X170510000Y-120870128D01*
X170510000Y-120429872D01*
X170424110Y-119998075D01*
X170255631Y-119591331D01*
X170011038Y-119225271D01*
X169699729Y-118913962D01*
X169333669Y-118669369D01*
X168926925Y-118500890D01*
X168495128Y-118415000D01*
X168054872Y-118415000D01*
X167623075Y-118500890D01*
X167216331Y-118669369D01*
X166850271Y-118913962D01*
X166538962Y-119225271D01*
X166294369Y-119591331D01*
X166125890Y-119998075D01*
X166040000Y-120429872D01*
X137490000Y-120429872D01*
X137404110Y-119998075D01*
X137235631Y-119591331D01*
X136991038Y-119225271D01*
X136679729Y-118913962D01*
X136313669Y-118669369D01*
X135906925Y-118500890D01*
X135475128Y-118415000D01*
X135034872Y-118415000D01*
X134603075Y-118500890D01*
X134196331Y-118669369D01*
X133830271Y-118913962D01*
X133518962Y-119225271D01*
X133274369Y-119591331D01*
X133105890Y-119998075D01*
X133020000Y-120429872D01*
X130946797Y-120429872D01*
X134168370Y-117208300D01*
X138647205Y-117208300D01*
X138684000Y-117211924D01*
X138720795Y-117208300D01*
X138720806Y-117208300D01*
X138830888Y-117197458D01*
X138972132Y-117154612D01*
X139102303Y-117085034D01*
X139216398Y-116991398D01*
X139222601Y-116983840D01*
X139222601Y-117091327D01*
X139218792Y-117130000D01*
X139233995Y-117284357D01*
X139279018Y-117432782D01*
X139279019Y-117432783D01*
X139352135Y-117569572D01*
X139450532Y-117689469D01*
X139474928Y-117709490D01*
X139474928Y-118608000D01*
X139487188Y-118732482D01*
X139523498Y-118852180D01*
X139582463Y-118962494D01*
X139661815Y-119059185D01*
X139758506Y-119138537D01*
X139868820Y-119197502D01*
X139988518Y-119233812D01*
X140113000Y-119246072D01*
X141613000Y-119246072D01*
X141737482Y-119233812D01*
X141857180Y-119197502D01*
X141967494Y-119138537D01*
X142064185Y-119059185D01*
X142113000Y-118999704D01*
X142161815Y-119059185D01*
X142258506Y-119138537D01*
X142368820Y-119197502D01*
X142488518Y-119233812D01*
X142613000Y-119246072D01*
X143077250Y-119243000D01*
X143236000Y-119084250D01*
X143236000Y-118110000D01*
X143490000Y-118110000D01*
X143490000Y-119084250D01*
X143648750Y-119243000D01*
X144113000Y-119246072D01*
X144237482Y-119233812D01*
X144357180Y-119197502D01*
X144467494Y-119138537D01*
X144564185Y-119059185D01*
X144643537Y-118962494D01*
X144702502Y-118852180D01*
X144738812Y-118732482D01*
X144751072Y-118608000D01*
X144748000Y-118268750D01*
X144589250Y-118110000D01*
X143490000Y-118110000D01*
X143236000Y-118110000D01*
X143216000Y-118110000D01*
X143216000Y-117856000D01*
X143236000Y-117856000D01*
X143236000Y-116881750D01*
X143490000Y-116881750D01*
X143490000Y-117856000D01*
X144589250Y-117856000D01*
X144748000Y-117697250D01*
X144751072Y-117358000D01*
X144738812Y-117233518D01*
X144702502Y-117113820D01*
X144643537Y-117003506D01*
X144564185Y-116906815D01*
X144467494Y-116827463D01*
X144357180Y-116768498D01*
X144237482Y-116732188D01*
X144113000Y-116719928D01*
X143648750Y-116723000D01*
X143490000Y-116881750D01*
X143236000Y-116881750D01*
X143077250Y-116723000D01*
X142613000Y-116719928D01*
X142488518Y-116732188D01*
X142368820Y-116768498D01*
X142258506Y-116827463D01*
X142161815Y-116906815D01*
X142113000Y-116966296D01*
X142064185Y-116906815D01*
X141967494Y-116827463D01*
X141857180Y-116768498D01*
X141737482Y-116732188D01*
X141613000Y-116719928D01*
X141516799Y-116719928D01*
X141516799Y-116603001D01*
X143080818Y-116603001D01*
X143119481Y-116606809D01*
X143158144Y-116603001D01*
X143158154Y-116603001D01*
X143273838Y-116591607D01*
X143422264Y-116546583D01*
X143559053Y-116473467D01*
X143678950Y-116375070D01*
X143703609Y-116345023D01*
X144161023Y-115887609D01*
X149536538Y-115887609D01*
X149540409Y-115925282D01*
X149632579Y-116150533D01*
X149766922Y-116353474D01*
X149938275Y-116526307D01*
X150140054Y-116662390D01*
X150364504Y-116756493D01*
X150603000Y-116805000D01*
X151003000Y-116805000D01*
X151003000Y-115697000D01*
X151257000Y-115697000D01*
X151257000Y-116805000D01*
X151657000Y-116805000D01*
X151895496Y-116756493D01*
X152119946Y-116662390D01*
X152321725Y-116526307D01*
X152493078Y-116353474D01*
X152627421Y-116150533D01*
X152719591Y-115925282D01*
X152723462Y-115887609D01*
X152598731Y-115697000D01*
X151257000Y-115697000D01*
X151003000Y-115697000D01*
X149661269Y-115697000D01*
X149536538Y-115887609D01*
X144161023Y-115887609D01*
X144646843Y-115401790D01*
X149634302Y-115401790D01*
X149661269Y-115443000D01*
X151003000Y-115443000D01*
X151003000Y-115423000D01*
X151257000Y-115423000D01*
X151257000Y-115443000D01*
X152598731Y-115443000D01*
X152625698Y-115401790D01*
X160976947Y-115401790D01*
X161015610Y-115405598D01*
X161054273Y-115401790D01*
X161054283Y-115401790D01*
X161169967Y-115390396D01*
X161318393Y-115345372D01*
X161455182Y-115272256D01*
X161575079Y-115173859D01*
X161599738Y-115143812D01*
X161773550Y-114970000D01*
X172351928Y-114970000D01*
X172351928Y-116170000D01*
X172364188Y-116294482D01*
X172400498Y-116414180D01*
X172459463Y-116524494D01*
X172538815Y-116621185D01*
X172635506Y-116700537D01*
X172745820Y-116759502D01*
X172865518Y-116795812D01*
X172990000Y-116808072D01*
X174990000Y-116808072D01*
X175114482Y-116795812D01*
X175234180Y-116759502D01*
X175344494Y-116700537D01*
X175441185Y-116621185D01*
X175520537Y-116524494D01*
X175579502Y-116414180D01*
X175615812Y-116294482D01*
X175628072Y-116170000D01*
X175628072Y-114970000D01*
X175615812Y-114845518D01*
X175579502Y-114725820D01*
X175520537Y-114615506D01*
X175441185Y-114518815D01*
X175344494Y-114439463D01*
X175234180Y-114380498D01*
X175114482Y-114344188D01*
X174990000Y-114331928D01*
X172990000Y-114331928D01*
X172865518Y-114344188D01*
X172745820Y-114380498D01*
X172635506Y-114439463D01*
X172538815Y-114518815D01*
X172459463Y-114615506D01*
X172400498Y-114725820D01*
X172364188Y-114845518D01*
X172351928Y-114970000D01*
X161773550Y-114970000D01*
X165967000Y-110776552D01*
X165967000Y-112105726D01*
X165963191Y-112144399D01*
X165978394Y-112298756D01*
X166023417Y-112447181D01*
X166065649Y-112526190D01*
X166096534Y-112583971D01*
X166194931Y-112703868D01*
X166224969Y-112728519D01*
X166263070Y-112766621D01*
X166263075Y-112766625D01*
X166471928Y-112975478D01*
X166471928Y-113355000D01*
X166484188Y-113479482D01*
X166520498Y-113599180D01*
X166579463Y-113709494D01*
X166658815Y-113806185D01*
X166755506Y-113885537D01*
X166865820Y-113944502D01*
X166985518Y-113980812D01*
X167110000Y-113993072D01*
X168170000Y-113993072D01*
X168294482Y-113980812D01*
X168414180Y-113944502D01*
X168524494Y-113885537D01*
X168621185Y-113806185D01*
X168700537Y-113709494D01*
X168740000Y-113635665D01*
X168779463Y-113709494D01*
X168858815Y-113806185D01*
X168955506Y-113885537D01*
X169065820Y-113944502D01*
X169185518Y-113980812D01*
X169310000Y-113993072D01*
X170370000Y-113993072D01*
X170494482Y-113980812D01*
X170614180Y-113944502D01*
X170724494Y-113885537D01*
X170821185Y-113806185D01*
X170843249Y-113779300D01*
X172607285Y-113779300D01*
X172712498Y-113907502D01*
X172900551Y-114061833D01*
X173115099Y-114176511D01*
X173347898Y-114247130D01*
X173529335Y-114265000D01*
X174450665Y-114265000D01*
X174632102Y-114247130D01*
X174864901Y-114176511D01*
X175079449Y-114061833D01*
X175267502Y-113907502D01*
X175421833Y-113719449D01*
X175536511Y-113504901D01*
X175607130Y-113272102D01*
X175630975Y-113030000D01*
X175607130Y-112787898D01*
X175536511Y-112555099D01*
X175421833Y-112340551D01*
X175267502Y-112152498D01*
X175079449Y-111998167D01*
X174864901Y-111883489D01*
X174632102Y-111812870D01*
X174450665Y-111795000D01*
X173529335Y-111795000D01*
X173347898Y-111812870D01*
X173115099Y-111883489D01*
X172900551Y-111998167D01*
X172712498Y-112152498D01*
X172607285Y-112280700D01*
X170919950Y-112280700D01*
X170846250Y-112207000D01*
X170764141Y-112207000D01*
X170724494Y-112174463D01*
X170614180Y-112115498D01*
X170497159Y-112080000D01*
X170614180Y-112044502D01*
X170724494Y-111985537D01*
X170764141Y-111953000D01*
X170846250Y-111953000D01*
X171005000Y-111794250D01*
X171008072Y-111755000D01*
X170995812Y-111630518D01*
X170988071Y-111605000D01*
X170995812Y-111579482D01*
X171008072Y-111455000D01*
X171008072Y-110805000D01*
X170995812Y-110680518D01*
X170959502Y-110560820D01*
X170921648Y-110490000D01*
X172349025Y-110490000D01*
X172372870Y-110732102D01*
X172443489Y-110964901D01*
X172558167Y-111179449D01*
X172712498Y-111367502D01*
X172900551Y-111521833D01*
X173115099Y-111636511D01*
X173347898Y-111707130D01*
X173529335Y-111725000D01*
X174450665Y-111725000D01*
X174632102Y-111707130D01*
X174864901Y-111636511D01*
X175079449Y-111521833D01*
X175267502Y-111367502D01*
X175421833Y-111179449D01*
X175536511Y-110964901D01*
X175607130Y-110732102D01*
X175630975Y-110490000D01*
X175607130Y-110247898D01*
X175536511Y-110015099D01*
X175421833Y-109800551D01*
X175267502Y-109612498D01*
X175079449Y-109458167D01*
X174864901Y-109343489D01*
X174632102Y-109272870D01*
X174450665Y-109255000D01*
X173529335Y-109255000D01*
X173347898Y-109272870D01*
X173115099Y-109343489D01*
X172900551Y-109458167D01*
X172712498Y-109612498D01*
X172558167Y-109800551D01*
X172443489Y-110015099D01*
X172372870Y-110247898D01*
X172349025Y-110490000D01*
X170921648Y-110490000D01*
X170900537Y-110450506D01*
X170821185Y-110353815D01*
X170724494Y-110274463D01*
X170614180Y-110215498D01*
X170494482Y-110179188D01*
X170370000Y-110166928D01*
X169310000Y-110166928D01*
X169185518Y-110179188D01*
X169065820Y-110215498D01*
X168955506Y-110274463D01*
X168858815Y-110353815D01*
X168779463Y-110450506D01*
X168740000Y-110524335D01*
X168700537Y-110450506D01*
X168621185Y-110353815D01*
X168524494Y-110274463D01*
X168414180Y-110215498D01*
X168294482Y-110179188D01*
X168170000Y-110166928D01*
X167541799Y-110166928D01*
X167541799Y-109848072D01*
X167795000Y-109848072D01*
X167919482Y-109835812D01*
X168039180Y-109799502D01*
X168149494Y-109740537D01*
X168246185Y-109661185D01*
X168295000Y-109601704D01*
X168343815Y-109661185D01*
X168440506Y-109740537D01*
X168550820Y-109799502D01*
X168670518Y-109835812D01*
X168795000Y-109848072D01*
X169259250Y-109845000D01*
X169418000Y-109686250D01*
X169418000Y-108712000D01*
X169672000Y-108712000D01*
X169672000Y-109686250D01*
X169830750Y-109845000D01*
X170295000Y-109848072D01*
X170419482Y-109835812D01*
X170539180Y-109799502D01*
X170649494Y-109740537D01*
X170746185Y-109661185D01*
X170825537Y-109564494D01*
X170884502Y-109454180D01*
X170920812Y-109334482D01*
X170933072Y-109210000D01*
X170930000Y-108870750D01*
X170771250Y-108712000D01*
X169672000Y-108712000D01*
X169418000Y-108712000D01*
X169398000Y-108712000D01*
X169398000Y-108458000D01*
X169418000Y-108458000D01*
X169418000Y-107483750D01*
X169672000Y-107483750D01*
X169672000Y-108458000D01*
X170771250Y-108458000D01*
X170930000Y-108299250D01*
X170933072Y-107960000D01*
X170932088Y-107950000D01*
X172349025Y-107950000D01*
X172372870Y-108192102D01*
X172443489Y-108424901D01*
X172558167Y-108639449D01*
X172712498Y-108827502D01*
X172900551Y-108981833D01*
X173115099Y-109096511D01*
X173347898Y-109167130D01*
X173529335Y-109185000D01*
X174450665Y-109185000D01*
X174632102Y-109167130D01*
X174864901Y-109096511D01*
X175079449Y-108981833D01*
X175267502Y-108827502D01*
X175421833Y-108639449D01*
X175536511Y-108424901D01*
X175607130Y-108192102D01*
X175630975Y-107950000D01*
X175607130Y-107707898D01*
X175536511Y-107475099D01*
X175421833Y-107260551D01*
X175267502Y-107072498D01*
X175079449Y-106918167D01*
X174864901Y-106803489D01*
X174632102Y-106732870D01*
X174450665Y-106715000D01*
X173529335Y-106715000D01*
X173347898Y-106732870D01*
X173115099Y-106803489D01*
X172900551Y-106918167D01*
X172712498Y-107072498D01*
X172558167Y-107260551D01*
X172443489Y-107475099D01*
X172372870Y-107707898D01*
X172349025Y-107950000D01*
X170932088Y-107950000D01*
X170920812Y-107835518D01*
X170884502Y-107715820D01*
X170825537Y-107605506D01*
X170746185Y-107508815D01*
X170649494Y-107429463D01*
X170539180Y-107370498D01*
X170419482Y-107334188D01*
X170295000Y-107321928D01*
X169830750Y-107325000D01*
X169672000Y-107483750D01*
X169418000Y-107483750D01*
X169259250Y-107325000D01*
X168795000Y-107321928D01*
X168670518Y-107334188D01*
X168550820Y-107370498D01*
X168440506Y-107429463D01*
X168343815Y-107508815D01*
X168295000Y-107568296D01*
X168246185Y-107508815D01*
X168149494Y-107429463D01*
X168039180Y-107370498D01*
X167919482Y-107334188D01*
X167832400Y-107325611D01*
X167832400Y-105410000D01*
X172349025Y-105410000D01*
X172372870Y-105652102D01*
X172443489Y-105884901D01*
X172558167Y-106099449D01*
X172712498Y-106287502D01*
X172900551Y-106441833D01*
X173115099Y-106556511D01*
X173347898Y-106627130D01*
X173529335Y-106645000D01*
X174450665Y-106645000D01*
X174632102Y-106627130D01*
X174864901Y-106556511D01*
X175079449Y-106441833D01*
X175267502Y-106287502D01*
X175421833Y-106099449D01*
X175536511Y-105884901D01*
X175607130Y-105652102D01*
X175630975Y-105410000D01*
X175607130Y-105167898D01*
X175536511Y-104935099D01*
X175421833Y-104720551D01*
X175267502Y-104532498D01*
X175079449Y-104378167D01*
X174864901Y-104263489D01*
X174632102Y-104192870D01*
X174450665Y-104175000D01*
X173529335Y-104175000D01*
X173347898Y-104192870D01*
X173115099Y-104263489D01*
X172900551Y-104378167D01*
X172712498Y-104532498D01*
X172558167Y-104720551D01*
X172443489Y-104935099D01*
X172372870Y-105167898D01*
X172349025Y-105410000D01*
X167832400Y-105410000D01*
X167832400Y-102870000D01*
X172349025Y-102870000D01*
X172372870Y-103112102D01*
X172443489Y-103344901D01*
X172558167Y-103559449D01*
X172712498Y-103747502D01*
X172900551Y-103901833D01*
X173115099Y-104016511D01*
X173347898Y-104087130D01*
X173529335Y-104105000D01*
X174450665Y-104105000D01*
X174632102Y-104087130D01*
X174864901Y-104016511D01*
X175079449Y-103901833D01*
X175267502Y-103747502D01*
X175421833Y-103559449D01*
X175536511Y-103344901D01*
X175607130Y-103112102D01*
X175630975Y-102870000D01*
X175607130Y-102627898D01*
X175536511Y-102395099D01*
X175421833Y-102180551D01*
X175267502Y-101992498D01*
X175079449Y-101838167D01*
X174864901Y-101723489D01*
X174632102Y-101652870D01*
X174450665Y-101635000D01*
X173529335Y-101635000D01*
X173347898Y-101652870D01*
X173115099Y-101723489D01*
X172900551Y-101838167D01*
X172712498Y-101992498D01*
X172558167Y-102180551D01*
X172443489Y-102395099D01*
X172372870Y-102627898D01*
X172349025Y-102870000D01*
X167832400Y-102870000D01*
X167832400Y-100330000D01*
X172349025Y-100330000D01*
X172372870Y-100572102D01*
X172443489Y-100804901D01*
X172558167Y-101019449D01*
X172712498Y-101207502D01*
X172900551Y-101361833D01*
X173115099Y-101476511D01*
X173347898Y-101547130D01*
X173529335Y-101565000D01*
X174450665Y-101565000D01*
X174632102Y-101547130D01*
X174864901Y-101476511D01*
X175079449Y-101361833D01*
X175267502Y-101207502D01*
X175421833Y-101019449D01*
X175536511Y-100804901D01*
X175607130Y-100572102D01*
X175630975Y-100330000D01*
X175607130Y-100087898D01*
X175536511Y-99855099D01*
X175421833Y-99640551D01*
X175267502Y-99452498D01*
X175079449Y-99298167D01*
X174864901Y-99183489D01*
X174632102Y-99112870D01*
X174450665Y-99095000D01*
X173529335Y-99095000D01*
X173347898Y-99112870D01*
X173115099Y-99183489D01*
X172900551Y-99298167D01*
X172712498Y-99452498D01*
X172558167Y-99640551D01*
X172443489Y-99855099D01*
X172372870Y-100087898D01*
X172349025Y-100330000D01*
X167832400Y-100330000D01*
X167832400Y-97790000D01*
X172349025Y-97790000D01*
X172372870Y-98032102D01*
X172443489Y-98264901D01*
X172558167Y-98479449D01*
X172712498Y-98667502D01*
X172900551Y-98821833D01*
X173115099Y-98936511D01*
X173347898Y-99007130D01*
X173529335Y-99025000D01*
X174450665Y-99025000D01*
X174632102Y-99007130D01*
X174864901Y-98936511D01*
X175079449Y-98821833D01*
X175267502Y-98667502D01*
X175421833Y-98479449D01*
X175536511Y-98264901D01*
X175607130Y-98032102D01*
X175630975Y-97790000D01*
X175607130Y-97547898D01*
X175536511Y-97315099D01*
X175421833Y-97100551D01*
X175267502Y-96912498D01*
X175079449Y-96758167D01*
X174864901Y-96643489D01*
X174632102Y-96572870D01*
X174450665Y-96555000D01*
X173529335Y-96555000D01*
X173347898Y-96572870D01*
X173115099Y-96643489D01*
X172900551Y-96758167D01*
X172712498Y-96912498D01*
X172558167Y-97100551D01*
X172443489Y-97315099D01*
X172372870Y-97547898D01*
X172349025Y-97790000D01*
X167832400Y-97790000D01*
X167832400Y-95250000D01*
X172349025Y-95250000D01*
X172372870Y-95492102D01*
X172443489Y-95724901D01*
X172558167Y-95939449D01*
X172712498Y-96127502D01*
X172900551Y-96281833D01*
X173115099Y-96396511D01*
X173347898Y-96467130D01*
X173529335Y-96485000D01*
X174450665Y-96485000D01*
X174632102Y-96467130D01*
X174864901Y-96396511D01*
X175079449Y-96281833D01*
X175267502Y-96127502D01*
X175421833Y-95939449D01*
X175536511Y-95724901D01*
X175607130Y-95492102D01*
X175630975Y-95250000D01*
X175607130Y-95007898D01*
X175536511Y-94775099D01*
X175421833Y-94560551D01*
X175267502Y-94372498D01*
X175079449Y-94218167D01*
X174864901Y-94103489D01*
X174632102Y-94032870D01*
X174450665Y-94015000D01*
X173529335Y-94015000D01*
X173347898Y-94032870D01*
X173115099Y-94103489D01*
X172900551Y-94218167D01*
X172712498Y-94372498D01*
X172558167Y-94560551D01*
X172443489Y-94775099D01*
X172372870Y-95007898D01*
X172349025Y-95250000D01*
X167832400Y-95250000D01*
X167832400Y-92710000D01*
X172349025Y-92710000D01*
X172372870Y-92952102D01*
X172443489Y-93184901D01*
X172558167Y-93399449D01*
X172712498Y-93587502D01*
X172900551Y-93741833D01*
X173115099Y-93856511D01*
X173347898Y-93927130D01*
X173529335Y-93945000D01*
X174450665Y-93945000D01*
X174632102Y-93927130D01*
X174864901Y-93856511D01*
X175079449Y-93741833D01*
X175267502Y-93587502D01*
X175421833Y-93399449D01*
X175536511Y-93184901D01*
X175607130Y-92952102D01*
X175630975Y-92710000D01*
X175607130Y-92467898D01*
X175536511Y-92235099D01*
X175421833Y-92020551D01*
X175267502Y-91832498D01*
X175079449Y-91678167D01*
X174864901Y-91563489D01*
X174632102Y-91492870D01*
X174450665Y-91475000D01*
X173529335Y-91475000D01*
X173347898Y-91492870D01*
X173115099Y-91563489D01*
X172900551Y-91678167D01*
X172712498Y-91832498D01*
X172558167Y-92020551D01*
X172443489Y-92235099D01*
X172372870Y-92467898D01*
X172349025Y-92710000D01*
X167832400Y-92710000D01*
X167832400Y-90170000D01*
X172349025Y-90170000D01*
X172372870Y-90412102D01*
X172443489Y-90644901D01*
X172558167Y-90859449D01*
X172712498Y-91047502D01*
X172900551Y-91201833D01*
X173115099Y-91316511D01*
X173347898Y-91387130D01*
X173529335Y-91405000D01*
X174450665Y-91405000D01*
X174632102Y-91387130D01*
X174864901Y-91316511D01*
X175079449Y-91201833D01*
X175267502Y-91047502D01*
X175421833Y-90859449D01*
X175536511Y-90644901D01*
X175607130Y-90412102D01*
X175630975Y-90170000D01*
X175607130Y-89927898D01*
X175536511Y-89695099D01*
X175421833Y-89480551D01*
X175267502Y-89292498D01*
X175079449Y-89138167D01*
X174864901Y-89023489D01*
X174632102Y-88952870D01*
X174450665Y-88935000D01*
X173529335Y-88935000D01*
X173347898Y-88952870D01*
X173115099Y-89023489D01*
X172900551Y-89138167D01*
X172712498Y-89292498D01*
X172558167Y-89480551D01*
X172443489Y-89695099D01*
X172372870Y-89927898D01*
X172349025Y-90170000D01*
X167832400Y-90170000D01*
X167832400Y-87630000D01*
X172349025Y-87630000D01*
X172372870Y-87872102D01*
X172443489Y-88104901D01*
X172558167Y-88319449D01*
X172712498Y-88507502D01*
X172900551Y-88661833D01*
X173115099Y-88776511D01*
X173347898Y-88847130D01*
X173529335Y-88865000D01*
X174450665Y-88865000D01*
X174632102Y-88847130D01*
X174864901Y-88776511D01*
X175079449Y-88661833D01*
X175267502Y-88507502D01*
X175421833Y-88319449D01*
X175536511Y-88104901D01*
X175607130Y-87872102D01*
X175630975Y-87630000D01*
X175607130Y-87387898D01*
X175536511Y-87155099D01*
X175421833Y-86940551D01*
X175267502Y-86752498D01*
X175079449Y-86598167D01*
X174864901Y-86483489D01*
X174632102Y-86412870D01*
X174450665Y-86395000D01*
X173529335Y-86395000D01*
X173347898Y-86412870D01*
X173115099Y-86483489D01*
X172900551Y-86598167D01*
X172712498Y-86752498D01*
X172558167Y-86940551D01*
X172443489Y-87155099D01*
X172372870Y-87387898D01*
X172349025Y-87630000D01*
X167832400Y-87630000D01*
X167832400Y-85090000D01*
X172349025Y-85090000D01*
X172372870Y-85332102D01*
X172443489Y-85564901D01*
X172558167Y-85779449D01*
X172712498Y-85967502D01*
X172900551Y-86121833D01*
X173115099Y-86236511D01*
X173347898Y-86307130D01*
X173529335Y-86325000D01*
X174450665Y-86325000D01*
X174632102Y-86307130D01*
X174864901Y-86236511D01*
X175079449Y-86121833D01*
X175267502Y-85967502D01*
X175421833Y-85779449D01*
X175536511Y-85564901D01*
X175607130Y-85332102D01*
X175630975Y-85090000D01*
X175607130Y-84847898D01*
X175536511Y-84615099D01*
X175421833Y-84400551D01*
X175267502Y-84212498D01*
X175079449Y-84058167D01*
X174864901Y-83943489D01*
X174632102Y-83872870D01*
X174450665Y-83855000D01*
X173529335Y-83855000D01*
X173347898Y-83872870D01*
X173115099Y-83943489D01*
X172900551Y-84058167D01*
X172712498Y-84212498D01*
X172558167Y-84400551D01*
X172443489Y-84615099D01*
X172372870Y-84847898D01*
X172349025Y-85090000D01*
X167832400Y-85090000D01*
X167832400Y-82867609D01*
X172396538Y-82867609D01*
X172400409Y-82905282D01*
X172492579Y-83130533D01*
X172626922Y-83333474D01*
X172798275Y-83506307D01*
X173000054Y-83642390D01*
X173224504Y-83736493D01*
X173463000Y-83785000D01*
X173863000Y-83785000D01*
X173863000Y-82677000D01*
X174117000Y-82677000D01*
X174117000Y-83785000D01*
X174517000Y-83785000D01*
X174755496Y-83736493D01*
X174979946Y-83642390D01*
X175181725Y-83506307D01*
X175353078Y-83333474D01*
X175487421Y-83130533D01*
X175579591Y-82905282D01*
X175583462Y-82867609D01*
X175458731Y-82677000D01*
X174117000Y-82677000D01*
X173863000Y-82677000D01*
X172521269Y-82677000D01*
X172396538Y-82867609D01*
X167832400Y-82867609D01*
X167832400Y-82232391D01*
X172396538Y-82232391D01*
X172521269Y-82423000D01*
X173863000Y-82423000D01*
X173863000Y-81315000D01*
X174117000Y-81315000D01*
X174117000Y-82423000D01*
X175458731Y-82423000D01*
X175583462Y-82232391D01*
X175579591Y-82194718D01*
X175487421Y-81969467D01*
X175353078Y-81766526D01*
X175181725Y-81593693D01*
X174979946Y-81457610D01*
X174755496Y-81363507D01*
X174517000Y-81315000D01*
X174117000Y-81315000D01*
X173863000Y-81315000D01*
X173463000Y-81315000D01*
X173224504Y-81363507D01*
X173000054Y-81457610D01*
X172798275Y-81593693D01*
X172626922Y-81766526D01*
X172492579Y-81969467D01*
X172400409Y-82194718D01*
X172396538Y-82232391D01*
X167832400Y-82232391D01*
X167832400Y-80010000D01*
X172349025Y-80010000D01*
X172372870Y-80252102D01*
X172443489Y-80484901D01*
X172558167Y-80699449D01*
X172712498Y-80887502D01*
X172900551Y-81041833D01*
X173115099Y-81156511D01*
X173347898Y-81227130D01*
X173529335Y-81245000D01*
X174450665Y-81245000D01*
X174632102Y-81227130D01*
X174864901Y-81156511D01*
X175079449Y-81041833D01*
X175267502Y-80887502D01*
X175421833Y-80699449D01*
X175536511Y-80484901D01*
X175607130Y-80252102D01*
X175630975Y-80010000D01*
X175607130Y-79767898D01*
X175536511Y-79535099D01*
X175421833Y-79320551D01*
X175267502Y-79132498D01*
X175079449Y-78978167D01*
X174864901Y-78863489D01*
X174632102Y-78792870D01*
X174450665Y-78775000D01*
X173529335Y-78775000D01*
X173347898Y-78792870D01*
X173115099Y-78863489D01*
X172900551Y-78978167D01*
X172712498Y-79132498D01*
X172558167Y-79320551D01*
X172443489Y-79535099D01*
X172372870Y-79767898D01*
X172349025Y-80010000D01*
X167832400Y-80010000D01*
X167832400Y-78818662D01*
X167836208Y-78779999D01*
X167832400Y-78741336D01*
X167832400Y-78741327D01*
X167821006Y-78625643D01*
X167775982Y-78477217D01*
X167702866Y-78340428D01*
X167671350Y-78302026D01*
X167629121Y-78250569D01*
X167629119Y-78250567D01*
X167604469Y-78220531D01*
X167574433Y-78195881D01*
X166848552Y-77470000D01*
X172349025Y-77470000D01*
X172372870Y-77712102D01*
X172443489Y-77944901D01*
X172558167Y-78159449D01*
X172712498Y-78347502D01*
X172900551Y-78501833D01*
X173115099Y-78616511D01*
X173347898Y-78687130D01*
X173529335Y-78705000D01*
X174450665Y-78705000D01*
X174632102Y-78687130D01*
X174864901Y-78616511D01*
X175079449Y-78501833D01*
X175267502Y-78347502D01*
X175421833Y-78159449D01*
X175536511Y-77944901D01*
X175607130Y-77712102D01*
X175630975Y-77470000D01*
X175607130Y-77227898D01*
X175536511Y-76995099D01*
X175421833Y-76780551D01*
X175267502Y-76592498D01*
X175079449Y-76438167D01*
X174864901Y-76323489D01*
X174632102Y-76252870D01*
X174450665Y-76235000D01*
X173529335Y-76235000D01*
X173347898Y-76252870D01*
X173115099Y-76323489D01*
X172900551Y-76438167D01*
X172712498Y-76592498D01*
X172558167Y-76780551D01*
X172443489Y-76995099D01*
X172372870Y-77227898D01*
X172349025Y-77470000D01*
X166848552Y-77470000D01*
X162509128Y-73130578D01*
X162484469Y-73100531D01*
X162364572Y-73002134D01*
X162227783Y-72929018D01*
X162079357Y-72883994D01*
X161963673Y-72872600D01*
X161963663Y-72872600D01*
X161925000Y-72868792D01*
X161886337Y-72872600D01*
X152672396Y-72872600D01*
X152676511Y-72864901D01*
X152747130Y-72632102D01*
X152770975Y-72390000D01*
X152747130Y-72147898D01*
X152676511Y-71915099D01*
X152561833Y-71700551D01*
X152473576Y-71593010D01*
X162376660Y-71593010D01*
X166801877Y-76018228D01*
X166826531Y-76048269D01*
X166885465Y-76096635D01*
X166946427Y-76146666D01*
X167046208Y-76200000D01*
X167083217Y-76219782D01*
X167231643Y-76264806D01*
X167347327Y-76276200D01*
X167347337Y-76276200D01*
X167386000Y-76280008D01*
X167424663Y-76276200D01*
X170547737Y-76276200D01*
X170586400Y-76280008D01*
X170625063Y-76276200D01*
X170625073Y-76276200D01*
X170740757Y-76264806D01*
X170889183Y-76219782D01*
X171025972Y-76146666D01*
X171145869Y-76048269D01*
X171170527Y-76018223D01*
X172358888Y-74829864D01*
X172349025Y-74930000D01*
X172372870Y-75172102D01*
X172443489Y-75404901D01*
X172558167Y-75619449D01*
X172712498Y-75807502D01*
X172900551Y-75961833D01*
X173115099Y-76076511D01*
X173347898Y-76147130D01*
X173529335Y-76165000D01*
X174450665Y-76165000D01*
X174632102Y-76147130D01*
X174864901Y-76076511D01*
X175079449Y-75961833D01*
X175267502Y-75807502D01*
X175421833Y-75619449D01*
X175536511Y-75404901D01*
X175607130Y-75172102D01*
X175630975Y-74930000D01*
X175607130Y-74687898D01*
X175536511Y-74455099D01*
X175421833Y-74240551D01*
X175267502Y-74052498D01*
X175079449Y-73898167D01*
X174864901Y-73783489D01*
X174632102Y-73712870D01*
X174450665Y-73695000D01*
X173529335Y-73695000D01*
X173347898Y-73712870D01*
X173115099Y-73783489D01*
X173001346Y-73844291D01*
X172999400Y-73824535D01*
X172999400Y-73474669D01*
X173115099Y-73536511D01*
X173347898Y-73607130D01*
X173529335Y-73625000D01*
X174450665Y-73625000D01*
X174632102Y-73607130D01*
X174864901Y-73536511D01*
X175079449Y-73421833D01*
X175267502Y-73267502D01*
X175421833Y-73079449D01*
X175536511Y-72864901D01*
X175607130Y-72632102D01*
X175630975Y-72390000D01*
X175607130Y-72147898D01*
X175536511Y-71915099D01*
X175421833Y-71700551D01*
X175267502Y-71512498D01*
X175079449Y-71358167D01*
X174864901Y-71243489D01*
X174632102Y-71172870D01*
X174450665Y-71155000D01*
X173798551Y-71155000D01*
X173868551Y-71085000D01*
X174450665Y-71085000D01*
X174632102Y-71067130D01*
X174864901Y-70996511D01*
X175079449Y-70881833D01*
X175267502Y-70727502D01*
X175421833Y-70539449D01*
X175536511Y-70324901D01*
X175607130Y-70092102D01*
X175630975Y-69850000D01*
X175607130Y-69607898D01*
X175536511Y-69375099D01*
X175421833Y-69160551D01*
X175267502Y-68972498D01*
X175079449Y-68818167D01*
X174864901Y-68703489D01*
X174632102Y-68632870D01*
X174450665Y-68615000D01*
X173529335Y-68615000D01*
X173347898Y-68632870D01*
X173115099Y-68703489D01*
X172900551Y-68818167D01*
X172712498Y-68972498D01*
X172558167Y-69160551D01*
X172443489Y-69375099D01*
X172372870Y-69607898D01*
X172349025Y-69850000D01*
X172372870Y-70092102D01*
X172433727Y-70292722D01*
X171682573Y-71043877D01*
X171652532Y-71068531D01*
X171581569Y-71155000D01*
X171554135Y-71188428D01*
X171481018Y-71325218D01*
X171435995Y-71473643D01*
X171420792Y-71628000D01*
X171424601Y-71666673D01*
X171424600Y-73537048D01*
X170260250Y-74701400D01*
X167712151Y-74701400D01*
X163910623Y-70899872D01*
X166040000Y-70899872D01*
X166040000Y-71340128D01*
X166125890Y-71771925D01*
X166294369Y-72178669D01*
X166538962Y-72544729D01*
X166850271Y-72856038D01*
X167216331Y-73100631D01*
X167623075Y-73269110D01*
X168054872Y-73355000D01*
X168495128Y-73355000D01*
X168926925Y-73269110D01*
X169333669Y-73100631D01*
X169699729Y-72856038D01*
X170011038Y-72544729D01*
X170255631Y-72178669D01*
X170424110Y-71771925D01*
X170510000Y-71340128D01*
X170510000Y-70899872D01*
X170424110Y-70468075D01*
X170255631Y-70061331D01*
X170011038Y-69695271D01*
X169699729Y-69383962D01*
X169333669Y-69139369D01*
X168926925Y-68970890D01*
X168495128Y-68885000D01*
X168054872Y-68885000D01*
X167623075Y-68970890D01*
X167216331Y-69139369D01*
X166850271Y-69383962D01*
X166538962Y-69695271D01*
X166294369Y-70061331D01*
X166125890Y-70468075D01*
X166040000Y-70899872D01*
X163910623Y-70899872D01*
X163286938Y-70276188D01*
X163262279Y-70246141D01*
X163142382Y-70147744D01*
X163005593Y-70074628D01*
X162857167Y-70029604D01*
X162741483Y-70018210D01*
X162741473Y-70018210D01*
X162702810Y-70014402D01*
X162664147Y-70018210D01*
X152754408Y-70018210D01*
X152770975Y-69850000D01*
X152747130Y-69607898D01*
X152676511Y-69375099D01*
X152561833Y-69160551D01*
X152407502Y-68972498D01*
X152219449Y-68818167D01*
X152004901Y-68703489D01*
X151772102Y-68632870D01*
X151590665Y-68615000D01*
X150669335Y-68615000D01*
X150487898Y-68632870D01*
X150255099Y-68703489D01*
X150040551Y-68818167D01*
X149852498Y-68972498D01*
X149698167Y-69160551D01*
X149583489Y-69375099D01*
X149512870Y-69607898D01*
X149489025Y-69850000D01*
X149505592Y-70018210D01*
X146903072Y-70018210D01*
X146903072Y-69635000D01*
X146890812Y-69510518D01*
X146854502Y-69390820D01*
X146795537Y-69280506D01*
X146716185Y-69183815D01*
X146619494Y-69104463D01*
X146509180Y-69045498D01*
X146389482Y-69009188D01*
X146265000Y-68996928D01*
X144565000Y-68996928D01*
X144440518Y-69009188D01*
X144320820Y-69045498D01*
X144210506Y-69104463D01*
X144113815Y-69183815D01*
X144034463Y-69280506D01*
X143975498Y-69390820D01*
X143953487Y-69463380D01*
X143821632Y-69331525D01*
X143578411Y-69169010D01*
X143308158Y-69057068D01*
X143021260Y-69000000D01*
X142728740Y-69000000D01*
X142441842Y-69057068D01*
X142171589Y-69169010D01*
X141928368Y-69331525D01*
X141721525Y-69538368D01*
X141559010Y-69781589D01*
X141447068Y-70051842D01*
X141390000Y-70338740D01*
X141390000Y-70631260D01*
X141447068Y-70918158D01*
X141559010Y-71188411D01*
X141721525Y-71431632D01*
X141928368Y-71638475D01*
X142087600Y-71744871D01*
X142087601Y-72872600D01*
X141008662Y-72872600D01*
X140969999Y-72868792D01*
X140931336Y-72872600D01*
X140931327Y-72872600D01*
X140815643Y-72883994D01*
X140667217Y-72929018D01*
X140530428Y-73002134D01*
X140530426Y-73002135D01*
X140530427Y-73002135D01*
X140440569Y-73075879D01*
X140440567Y-73075881D01*
X140410531Y-73100531D01*
X140385881Y-73130567D01*
X139465573Y-74050877D01*
X139435532Y-74075531D01*
X139410879Y-74105571D01*
X139337135Y-74195428D01*
X139264018Y-74332218D01*
X139242872Y-74401928D01*
X139120000Y-74401928D01*
X139020000Y-74411777D01*
X138920000Y-74401928D01*
X138470000Y-74401928D01*
X138345518Y-74414188D01*
X138225820Y-74450498D01*
X138115506Y-74509463D01*
X138018815Y-74588815D01*
X137939463Y-74685506D01*
X137880498Y-74795820D01*
X137844188Y-74915518D01*
X137831928Y-75040000D01*
X137831928Y-76540000D01*
X137844188Y-76664482D01*
X137880498Y-76784180D01*
X137939463Y-76894494D01*
X137942751Y-76898500D01*
X136962370Y-76898500D01*
X130963742Y-70899872D01*
X133020000Y-70899872D01*
X133020000Y-71340128D01*
X133105890Y-71771925D01*
X133274369Y-72178669D01*
X133518962Y-72544729D01*
X133830271Y-72856038D01*
X134196331Y-73100631D01*
X134603075Y-73269110D01*
X135034872Y-73355000D01*
X135475128Y-73355000D01*
X135906925Y-73269110D01*
X136313669Y-73100631D01*
X136679729Y-72856038D01*
X136991038Y-72544729D01*
X137235631Y-72178669D01*
X137404110Y-71771925D01*
X137490000Y-71340128D01*
X137490000Y-70899872D01*
X137404110Y-70468075D01*
X137235631Y-70061331D01*
X136991038Y-69695271D01*
X136679729Y-69383962D01*
X136313669Y-69139369D01*
X135906925Y-68970890D01*
X135475128Y-68885000D01*
X135034872Y-68885000D01*
X134603075Y-68970890D01*
X134196331Y-69139369D01*
X133830271Y-69383962D01*
X133518962Y-69695271D01*
X133274369Y-70061331D01*
X133105890Y-70468075D01*
X133020000Y-70899872D01*
X130963742Y-70899872D01*
X130680063Y-70616194D01*
X130656598Y-70587602D01*
X130542503Y-70493966D01*
X130412332Y-70424388D01*
X130271088Y-70381542D01*
X130161006Y-70370700D01*
X130160995Y-70370700D01*
X130124200Y-70367076D01*
X130087405Y-70370700D01*
X128920328Y-70370700D01*
X128788475Y-70173368D01*
X128581632Y-69966525D01*
X128338411Y-69804010D01*
X128068158Y-69692068D01*
X127781260Y-69635000D01*
X127488740Y-69635000D01*
X127201842Y-69692068D01*
X126931589Y-69804010D01*
X126688368Y-69966525D01*
X126481525Y-70173368D01*
X126319010Y-70416589D01*
X126207068Y-70686842D01*
X126150000Y-70973740D01*
X126150000Y-71266260D01*
X126207068Y-71553158D01*
X126319010Y-71823411D01*
X126481525Y-72066632D01*
X126688368Y-72273475D01*
X126862760Y-72390000D01*
X126688368Y-72506525D01*
X126481525Y-72713368D01*
X126319010Y-72956589D01*
X126207068Y-73226842D01*
X126150000Y-73513740D01*
X126150000Y-73806260D01*
X126207068Y-74093158D01*
X126319010Y-74363411D01*
X126481525Y-74606632D01*
X126688368Y-74813475D01*
X126862760Y-74930000D01*
X126688368Y-75046525D01*
X126481525Y-75253368D01*
X126319010Y-75496589D01*
X126207068Y-75766842D01*
X126150000Y-76053740D01*
X126150000Y-76346260D01*
X126207068Y-76633158D01*
X126319010Y-76903411D01*
X126481525Y-77146632D01*
X126688368Y-77353475D01*
X126870534Y-77475195D01*
X126753645Y-77544822D01*
X126537412Y-77739731D01*
X126363359Y-77973080D01*
X126238175Y-78235901D01*
X126193524Y-78383110D01*
X126314845Y-78613000D01*
X127508000Y-78613000D01*
X127508000Y-78593000D01*
X127762000Y-78593000D01*
X127762000Y-78613000D01*
X127782000Y-78613000D01*
X127782000Y-78867000D01*
X127762000Y-78867000D01*
X127762000Y-78887000D01*
X127508000Y-78887000D01*
X127508000Y-78867000D01*
X126314845Y-78867000D01*
X126193524Y-79096890D01*
X126238175Y-79244099D01*
X126363359Y-79506920D01*
X126537412Y-79740269D01*
X126753645Y-79935178D01*
X126870534Y-80004805D01*
X126688368Y-80126525D01*
X126481525Y-80333368D01*
X126319010Y-80576589D01*
X126207068Y-80846842D01*
X126150000Y-81133740D01*
X126150000Y-81426260D01*
X126207068Y-81713158D01*
X126319010Y-81983411D01*
X126481525Y-82226632D01*
X126688368Y-82433475D01*
X126862760Y-82550000D01*
X126688368Y-82666525D01*
X126481525Y-82873368D01*
X126319010Y-83116589D01*
X126207068Y-83386842D01*
X126150000Y-83673740D01*
X126150000Y-83966260D01*
X126207068Y-84253158D01*
X126319010Y-84523411D01*
X126481525Y-84766632D01*
X126688368Y-84973475D01*
X126862760Y-85090000D01*
X126688368Y-85206525D01*
X126481525Y-85413368D01*
X126319010Y-85656589D01*
X126207068Y-85926842D01*
X126150000Y-86213740D01*
X126150000Y-86506260D01*
X126207068Y-86793158D01*
X126319010Y-87063411D01*
X126481525Y-87306632D01*
X126688368Y-87513475D01*
X126862760Y-87630000D01*
X126688368Y-87746525D01*
X126481525Y-87953368D01*
X126319010Y-88196589D01*
X126207068Y-88466842D01*
X126150000Y-88753740D01*
X126150000Y-89046260D01*
X126207068Y-89333158D01*
X126319010Y-89603411D01*
X126481525Y-89846632D01*
X126613380Y-89978487D01*
X126540820Y-90000498D01*
X126430506Y-90059463D01*
X126333815Y-90138815D01*
X126254463Y-90235506D01*
X126195498Y-90345820D01*
X126159188Y-90465518D01*
X126146928Y-90590000D01*
X125120000Y-90590000D01*
X125120000Y-67970000D01*
X177140001Y-67970000D01*
X177140000Y-123800000D01*
G37*
%TD.AperFunction*%
D25*
X145253000Y-96586250D02*
X145313390Y-96646640D01*
X145313391Y-107398338D01*
X143473072Y-109238658D01*
X143473072Y-108060000D01*
X143460812Y-107935518D01*
X143424502Y-107815820D01*
X143365537Y-107705506D01*
X143286185Y-107608815D01*
X143189494Y-107529463D01*
X143079180Y-107470498D01*
X142959482Y-107434188D01*
X142835000Y-107421928D01*
X142385000Y-107421928D01*
X142285000Y-107431777D01*
X142185000Y-107421928D01*
X141735000Y-107421928D01*
X141631843Y-107432088D01*
X141566750Y-107425000D01*
X141534503Y-107457247D01*
X141490820Y-107470498D01*
X141380506Y-107529463D01*
X141309720Y-107587555D01*
X141247343Y-107534792D01*
X141137918Y-107474194D01*
X141085777Y-107457527D01*
X141053250Y-107425000D01*
X140985000Y-107432432D01*
X140916750Y-107425000D01*
X140884223Y-107457527D01*
X140832082Y-107474194D01*
X140722657Y-107534792D01*
X140660280Y-107587555D01*
X140589494Y-107529463D01*
X140479180Y-107470498D01*
X140435497Y-107457247D01*
X140403250Y-107425000D01*
X140338157Y-107432088D01*
X140235000Y-107421928D01*
X139785000Y-107421928D01*
X139685000Y-107431777D01*
X139585000Y-107421928D01*
X139135000Y-107421928D01*
X139035000Y-107431777D01*
X138935000Y-107421928D01*
X138485000Y-107421928D01*
X138385000Y-107431777D01*
X138285000Y-107421928D01*
X137835000Y-107421928D01*
X137710518Y-107434188D01*
X137590820Y-107470498D01*
X137480506Y-107529463D01*
X137383815Y-107608815D01*
X137304463Y-107705506D01*
X137245498Y-107815820D01*
X137209188Y-107935518D01*
X137196928Y-108060000D01*
X137196928Y-109560000D01*
X137209188Y-109684482D01*
X137245498Y-109804180D01*
X137304463Y-109914494D01*
X137383815Y-110011185D01*
X137480506Y-110090537D01*
X137590820Y-110149502D01*
X137710518Y-110185812D01*
X137835000Y-110198072D01*
X137960701Y-110198072D01*
X137960700Y-112893199D01*
X137617797Y-112893199D01*
X137580999Y-112889575D01*
X137544201Y-112893199D01*
X137544193Y-112893199D01*
X137434111Y-112904041D01*
X137292867Y-112946887D01*
X137162696Y-113016465D01*
X137134019Y-113040000D01*
X137077190Y-113086638D01*
X137077187Y-113086641D01*
X137048601Y-113110101D01*
X137025138Y-113138690D01*
X137013686Y-113150143D01*
X136985102Y-113173601D01*
X136961642Y-113202187D01*
X136961639Y-113202190D01*
X136891465Y-113287696D01*
X136821887Y-113417868D01*
X136798304Y-113495612D01*
X136779042Y-113559111D01*
X136768199Y-113669193D01*
X136768199Y-113669204D01*
X136764575Y-113705999D01*
X136768199Y-113742794D01*
X136768199Y-114267131D01*
X135757441Y-115277890D01*
X133715934Y-115277890D01*
X133679138Y-115274266D01*
X133642342Y-115277890D01*
X133642333Y-115277890D01*
X133532251Y-115288732D01*
X133391007Y-115331578D01*
X133260836Y-115401156D01*
X133234082Y-115423113D01*
X133211435Y-115441699D01*
X133146741Y-115494792D01*
X133123280Y-115523379D01*
X131285960Y-117360700D01*
X128920328Y-117360700D01*
X128788475Y-117163368D01*
X128581632Y-116956525D01*
X128407240Y-116840000D01*
X128581632Y-116723475D01*
X128788475Y-116516632D01*
X128950990Y-116273411D01*
X129062932Y-116003158D01*
X129120000Y-115716260D01*
X129120000Y-115423740D01*
X129073699Y-115190970D01*
X143083818Y-101180853D01*
X143112398Y-101157398D01*
X143135854Y-101128817D01*
X143135861Y-101128810D01*
X143206034Y-101043303D01*
X143275612Y-100913132D01*
X143291002Y-100862398D01*
X143318458Y-100771888D01*
X143329300Y-100661806D01*
X143329300Y-100661796D01*
X143332924Y-100625000D01*
X143329300Y-100588204D01*
X143329300Y-96748072D01*
X143430000Y-96748072D01*
X143554482Y-96735812D01*
X143555000Y-96735655D01*
X143555518Y-96735812D01*
X143680000Y-96748072D01*
X144080000Y-96748072D01*
X144204482Y-96735812D01*
X144205000Y-96735655D01*
X144205518Y-96735812D01*
X144330000Y-96748072D01*
X144730000Y-96748072D01*
X144854482Y-96735812D01*
X144857446Y-96734913D01*
X144948250Y-96745000D01*
X145016218Y-96677032D01*
X145084494Y-96640537D01*
X145181185Y-96561185D01*
X145253000Y-96473678D01*
X145253000Y-96586250D01*
%TA.AperFunction,Conductor*%
D26*
G36*
X145253000Y-96586250D02*
G01*
X145313390Y-96646640D01*
X145313391Y-107398338D01*
X143473072Y-109238658D01*
X143473072Y-108060000D01*
X143460812Y-107935518D01*
X143424502Y-107815820D01*
X143365537Y-107705506D01*
X143286185Y-107608815D01*
X143189494Y-107529463D01*
X143079180Y-107470498D01*
X142959482Y-107434188D01*
X142835000Y-107421928D01*
X142385000Y-107421928D01*
X142285000Y-107431777D01*
X142185000Y-107421928D01*
X141735000Y-107421928D01*
X141631843Y-107432088D01*
X141566750Y-107425000D01*
X141534503Y-107457247D01*
X141490820Y-107470498D01*
X141380506Y-107529463D01*
X141309720Y-107587555D01*
X141247343Y-107534792D01*
X141137918Y-107474194D01*
X141085777Y-107457527D01*
X141053250Y-107425000D01*
X140985000Y-107432432D01*
X140916750Y-107425000D01*
X140884223Y-107457527D01*
X140832082Y-107474194D01*
X140722657Y-107534792D01*
X140660280Y-107587555D01*
X140589494Y-107529463D01*
X140479180Y-107470498D01*
X140435497Y-107457247D01*
X140403250Y-107425000D01*
X140338157Y-107432088D01*
X140235000Y-107421928D01*
X139785000Y-107421928D01*
X139685000Y-107431777D01*
X139585000Y-107421928D01*
X139135000Y-107421928D01*
X139035000Y-107431777D01*
X138935000Y-107421928D01*
X138485000Y-107421928D01*
X138385000Y-107431777D01*
X138285000Y-107421928D01*
X137835000Y-107421928D01*
X137710518Y-107434188D01*
X137590820Y-107470498D01*
X137480506Y-107529463D01*
X137383815Y-107608815D01*
X137304463Y-107705506D01*
X137245498Y-107815820D01*
X137209188Y-107935518D01*
X137196928Y-108060000D01*
X137196928Y-109560000D01*
X137209188Y-109684482D01*
X137245498Y-109804180D01*
X137304463Y-109914494D01*
X137383815Y-110011185D01*
X137480506Y-110090537D01*
X137590820Y-110149502D01*
X137710518Y-110185812D01*
X137835000Y-110198072D01*
X137960701Y-110198072D01*
X137960700Y-112893199D01*
X137617797Y-112893199D01*
X137580999Y-112889575D01*
X137544201Y-112893199D01*
X137544193Y-112893199D01*
X137434111Y-112904041D01*
X137292867Y-112946887D01*
X137162696Y-113016465D01*
X137134019Y-113040000D01*
X137077190Y-113086638D01*
X137077187Y-113086641D01*
X137048601Y-113110101D01*
X137025138Y-113138690D01*
X137013686Y-113150143D01*
X136985102Y-113173601D01*
X136961642Y-113202187D01*
X136961639Y-113202190D01*
X136891465Y-113287696D01*
X136821887Y-113417868D01*
X136798304Y-113495612D01*
X136779042Y-113559111D01*
X136768199Y-113669193D01*
X136768199Y-113669204D01*
X136764575Y-113705999D01*
X136768199Y-113742794D01*
X136768199Y-114267131D01*
X135757441Y-115277890D01*
X133715934Y-115277890D01*
X133679138Y-115274266D01*
X133642342Y-115277890D01*
X133642333Y-115277890D01*
X133532251Y-115288732D01*
X133391007Y-115331578D01*
X133260836Y-115401156D01*
X133234082Y-115423113D01*
X133211435Y-115441699D01*
X133146741Y-115494792D01*
X133123280Y-115523379D01*
X131285960Y-117360700D01*
X128920328Y-117360700D01*
X128788475Y-117163368D01*
X128581632Y-116956525D01*
X128407240Y-116840000D01*
X128581632Y-116723475D01*
X128788475Y-116516632D01*
X128950990Y-116273411D01*
X129062932Y-116003158D01*
X129120000Y-115716260D01*
X129120000Y-115423740D01*
X129073699Y-115190970D01*
X143083818Y-101180853D01*
X143112398Y-101157398D01*
X143135854Y-101128817D01*
X143135861Y-101128810D01*
X143206034Y-101043303D01*
X143275612Y-100913132D01*
X143291002Y-100862398D01*
X143318458Y-100771888D01*
X143329300Y-100661806D01*
X143329300Y-100661796D01*
X143332924Y-100625000D01*
X143329300Y-100588204D01*
X143329300Y-96748072D01*
X143430000Y-96748072D01*
X143554482Y-96735812D01*
X143555000Y-96735655D01*
X143555518Y-96735812D01*
X143680000Y-96748072D01*
X144080000Y-96748072D01*
X144204482Y-96735812D01*
X144205000Y-96735655D01*
X144205518Y-96735812D01*
X144330000Y-96748072D01*
X144730000Y-96748072D01*
X144854482Y-96735812D01*
X144857446Y-96734913D01*
X144948250Y-96745000D01*
X145016218Y-96677032D01*
X145084494Y-96640537D01*
X145181185Y-96561185D01*
X145253000Y-96473678D01*
X145253000Y-96586250D01*
G37*
%TD.AperFunction*%
D25*
X166257601Y-79106153D02*
X166257600Y-107325611D01*
X166170518Y-107334188D01*
X166050820Y-107370498D01*
X165940506Y-107429463D01*
X165843815Y-107508815D01*
X165764463Y-107605506D01*
X165705498Y-107715820D01*
X165669188Y-107835518D01*
X165656928Y-107960000D01*
X165656928Y-108859520D01*
X160689460Y-113826990D01*
X152473576Y-113826990D01*
X152561833Y-113719449D01*
X152676511Y-113504901D01*
X152747130Y-113272102D01*
X152770975Y-113030000D01*
X152747130Y-112787898D01*
X152676511Y-112555099D01*
X152561833Y-112340551D01*
X152407502Y-112152498D01*
X152219449Y-111998167D01*
X152004901Y-111883489D01*
X151772102Y-111812870D01*
X151590665Y-111795000D01*
X150669335Y-111795000D01*
X150487898Y-111812870D01*
X150255099Y-111883489D01*
X150040551Y-111998167D01*
X149852498Y-112152498D01*
X149698167Y-112340551D01*
X149583489Y-112555099D01*
X149512870Y-112787898D01*
X149489025Y-113030000D01*
X149512870Y-113272102D01*
X149583489Y-113504901D01*
X149698167Y-113719449D01*
X149786424Y-113826990D01*
X146221643Y-113826990D01*
X147062034Y-112986600D01*
X147092069Y-112961951D01*
X147131848Y-112913481D01*
X147190465Y-112842055D01*
X147190467Y-112842053D01*
X147263582Y-112705265D01*
X147308606Y-112556839D01*
X147320000Y-112441155D01*
X147320000Y-112441146D01*
X147323808Y-112402483D01*
X147320000Y-112363820D01*
X147320000Y-107950000D01*
X149489025Y-107950000D01*
X149512870Y-108192102D01*
X149583489Y-108424901D01*
X149698167Y-108639449D01*
X149852498Y-108827502D01*
X150040551Y-108981833D01*
X150255099Y-109096511D01*
X150487898Y-109167130D01*
X150669335Y-109185000D01*
X151590665Y-109185000D01*
X151772102Y-109167130D01*
X152004901Y-109096511D01*
X152219449Y-108981833D01*
X152407502Y-108827502D01*
X152561833Y-108639449D01*
X152676511Y-108424901D01*
X152747130Y-108192102D01*
X152770975Y-107950000D01*
X152747130Y-107707898D01*
X152676511Y-107475099D01*
X152561833Y-107260551D01*
X152407502Y-107072498D01*
X152219449Y-106918167D01*
X152004901Y-106803489D01*
X151772102Y-106732870D01*
X151590665Y-106715000D01*
X150669335Y-106715000D01*
X150487898Y-106732870D01*
X150255099Y-106803489D01*
X150040551Y-106918167D01*
X149852498Y-107072498D01*
X149698167Y-107260551D01*
X149583489Y-107475099D01*
X149512870Y-107707898D01*
X149489025Y-107950000D01*
X147320000Y-107950000D01*
X147320000Y-105410000D01*
X149489025Y-105410000D01*
X149512870Y-105652102D01*
X149583489Y-105884901D01*
X149698167Y-106099449D01*
X149852498Y-106287502D01*
X150040551Y-106441833D01*
X150255099Y-106556511D01*
X150487898Y-106627130D01*
X150669335Y-106645000D01*
X151590665Y-106645000D01*
X151772102Y-106627130D01*
X152004901Y-106556511D01*
X152219449Y-106441833D01*
X152407502Y-106287502D01*
X152561833Y-106099449D01*
X152676511Y-105884901D01*
X152747130Y-105652102D01*
X152770975Y-105410000D01*
X152747130Y-105167898D01*
X152676511Y-104935099D01*
X152561833Y-104720551D01*
X152407502Y-104532498D01*
X152219449Y-104378167D01*
X152004901Y-104263489D01*
X151772102Y-104192870D01*
X151590665Y-104175000D01*
X150669335Y-104175000D01*
X150487898Y-104192870D01*
X150255099Y-104263489D01*
X150040551Y-104378167D01*
X149852498Y-104532498D01*
X149698167Y-104720551D01*
X149583489Y-104935099D01*
X149512870Y-105167898D01*
X149489025Y-105410000D01*
X147320000Y-105410000D01*
X147320000Y-100647609D01*
X149536538Y-100647609D01*
X149540409Y-100685282D01*
X149632579Y-100910533D01*
X149766922Y-101113474D01*
X149938275Y-101286307D01*
X150140054Y-101422390D01*
X150364504Y-101516493D01*
X150603000Y-101565000D01*
X151003000Y-101565000D01*
X151003000Y-100457000D01*
X151257000Y-100457000D01*
X151257000Y-101565000D01*
X151657000Y-101565000D01*
X151895496Y-101516493D01*
X152119946Y-101422390D01*
X152321725Y-101286307D01*
X152493078Y-101113474D01*
X152627421Y-100910533D01*
X152719591Y-100685282D01*
X152723462Y-100647609D01*
X152598731Y-100457000D01*
X151257000Y-100457000D01*
X151003000Y-100457000D01*
X149661269Y-100457000D01*
X149536538Y-100647609D01*
X147320000Y-100647609D01*
X147320000Y-100012391D01*
X149536538Y-100012391D01*
X149661269Y-100203000D01*
X151003000Y-100203000D01*
X151003000Y-99095000D01*
X151257000Y-99095000D01*
X151257000Y-100203000D01*
X152598731Y-100203000D01*
X152723462Y-100012391D01*
X152719591Y-99974718D01*
X152627421Y-99749467D01*
X152493078Y-99546526D01*
X152321725Y-99373693D01*
X152119946Y-99237610D01*
X151895496Y-99143507D01*
X151657000Y-99095000D01*
X151257000Y-99095000D01*
X151003000Y-99095000D01*
X150603000Y-99095000D01*
X150364504Y-99143507D01*
X150140054Y-99237610D01*
X149938275Y-99373693D01*
X149766922Y-99546526D01*
X149632579Y-99749467D01*
X149540409Y-99974718D01*
X149536538Y-100012391D01*
X147320000Y-100012391D01*
X147320000Y-97790000D01*
X149489025Y-97790000D01*
X149512870Y-98032102D01*
X149583489Y-98264901D01*
X149698167Y-98479449D01*
X149852498Y-98667502D01*
X150040551Y-98821833D01*
X150255099Y-98936511D01*
X150487898Y-99007130D01*
X150669335Y-99025000D01*
X151590665Y-99025000D01*
X151772102Y-99007130D01*
X152004901Y-98936511D01*
X152219449Y-98821833D01*
X152407502Y-98667502D01*
X152561833Y-98479449D01*
X152676511Y-98264901D01*
X152747130Y-98032102D01*
X152770975Y-97790000D01*
X152747130Y-97547898D01*
X152676511Y-97315099D01*
X152561833Y-97100551D01*
X152407502Y-96912498D01*
X152219449Y-96758167D01*
X152004901Y-96643489D01*
X151772102Y-96572870D01*
X151590665Y-96555000D01*
X150669335Y-96555000D01*
X150487898Y-96572870D01*
X150255099Y-96643489D01*
X150040551Y-96758167D01*
X149852498Y-96912498D01*
X149698167Y-97100551D01*
X149583489Y-97315099D01*
X149512870Y-97547898D01*
X149489025Y-97790000D01*
X147320000Y-97790000D01*
X147320000Y-93764673D01*
X147323809Y-93726000D01*
X147308606Y-93571643D01*
X147263582Y-93423217D01*
X147190466Y-93286428D01*
X147092069Y-93166531D01*
X146972172Y-93068134D01*
X146835383Y-92995018D01*
X146686957Y-92949994D01*
X146571273Y-92938600D01*
X146532600Y-92934791D01*
X146493927Y-92938600D01*
X144550339Y-92938600D01*
X145477450Y-92011490D01*
X149705603Y-92011490D01*
X149698167Y-92020551D01*
X149583489Y-92235099D01*
X149512870Y-92467898D01*
X149489025Y-92710000D01*
X149512870Y-92952102D01*
X149583489Y-93184901D01*
X149698167Y-93399449D01*
X149852498Y-93587502D01*
X150040551Y-93741833D01*
X150255099Y-93856511D01*
X150487898Y-93927130D01*
X150669335Y-93945000D01*
X151590665Y-93945000D01*
X151772102Y-93927130D01*
X152004901Y-93856511D01*
X152206664Y-93748667D01*
X151887466Y-94067865D01*
X151772102Y-94032870D01*
X151590665Y-94015000D01*
X150669335Y-94015000D01*
X150487898Y-94032870D01*
X150255099Y-94103489D01*
X150040551Y-94218167D01*
X149852498Y-94372498D01*
X149698167Y-94560551D01*
X149583489Y-94775099D01*
X149512870Y-95007898D01*
X149489025Y-95250000D01*
X149512870Y-95492102D01*
X149583489Y-95724901D01*
X149698167Y-95939449D01*
X149852498Y-96127502D01*
X150040551Y-96281833D01*
X150255099Y-96396511D01*
X150487898Y-96467130D01*
X150669335Y-96485000D01*
X151590665Y-96485000D01*
X151772102Y-96467130D01*
X152004901Y-96396511D01*
X152219449Y-96281833D01*
X152407502Y-96127502D01*
X152561833Y-95939449D01*
X152676511Y-95724901D01*
X152747130Y-95492102D01*
X152765109Y-95309560D01*
X153847801Y-94226869D01*
X153847800Y-100343448D01*
X152292847Y-101898403D01*
X152219449Y-101838167D01*
X152004901Y-101723489D01*
X151772102Y-101652870D01*
X151590665Y-101635000D01*
X150669335Y-101635000D01*
X150487898Y-101652870D01*
X150255099Y-101723489D01*
X150040551Y-101838167D01*
X149852498Y-101992498D01*
X149698167Y-102180551D01*
X149583489Y-102395099D01*
X149512870Y-102627898D01*
X149489025Y-102870000D01*
X149512870Y-103112102D01*
X149583489Y-103344901D01*
X149698167Y-103559449D01*
X149852498Y-103747502D01*
X150040551Y-103901833D01*
X150255099Y-104016511D01*
X150487898Y-104087130D01*
X150669335Y-104105000D01*
X151590665Y-104105000D01*
X151772102Y-104087130D01*
X152004901Y-104016511D01*
X152219449Y-103901833D01*
X152407502Y-103747502D01*
X152482148Y-103656546D01*
X152589157Y-103646006D01*
X152737583Y-103600982D01*
X152874372Y-103527866D01*
X152994269Y-103429469D01*
X153018928Y-103399423D01*
X154741928Y-101676424D01*
X154741928Y-102250000D01*
X154754188Y-102374482D01*
X154790498Y-102494180D01*
X154849463Y-102604494D01*
X154928815Y-102701185D01*
X155025506Y-102780537D01*
X155135820Y-102839502D01*
X155236358Y-102870000D01*
X155135820Y-102900498D01*
X155025506Y-102959463D01*
X154928815Y-103038815D01*
X154849463Y-103135506D01*
X154790498Y-103245820D01*
X154754188Y-103365518D01*
X154741928Y-103490000D01*
X154741928Y-104790000D01*
X154754188Y-104914482D01*
X154790498Y-105034180D01*
X154849463Y-105144494D01*
X154928815Y-105241185D01*
X155025506Y-105320537D01*
X155135820Y-105379502D01*
X155236358Y-105410000D01*
X155135820Y-105440498D01*
X155025506Y-105499463D01*
X154928815Y-105578815D01*
X154849463Y-105675506D01*
X154790498Y-105785820D01*
X154754188Y-105905518D01*
X154741928Y-106030000D01*
X154741928Y-107330000D01*
X154754188Y-107454482D01*
X154790498Y-107574180D01*
X154849463Y-107684494D01*
X154928815Y-107781185D01*
X155025506Y-107860537D01*
X155135820Y-107919502D01*
X155255518Y-107955812D01*
X155342601Y-107964389D01*
X155342601Y-108261418D01*
X155318195Y-108297944D01*
X155240174Y-108486302D01*
X155200400Y-108686261D01*
X155200400Y-108890139D01*
X155240174Y-109090098D01*
X155318195Y-109278456D01*
X155431463Y-109447974D01*
X155575626Y-109592137D01*
X155740946Y-109702600D01*
X152481447Y-109702600D01*
X152407502Y-109612498D01*
X152219449Y-109458167D01*
X152004901Y-109343489D01*
X151772102Y-109272870D01*
X151590665Y-109255000D01*
X150669335Y-109255000D01*
X150487898Y-109272870D01*
X150255099Y-109343489D01*
X150040551Y-109458167D01*
X149852498Y-109612498D01*
X149698167Y-109800551D01*
X149583489Y-110015099D01*
X149512870Y-110247898D01*
X149489025Y-110490000D01*
X149512870Y-110732102D01*
X149583489Y-110964901D01*
X149698167Y-111179449D01*
X149852498Y-111367502D01*
X150040551Y-111521833D01*
X150255099Y-111636511D01*
X150487898Y-111707130D01*
X150669335Y-111725000D01*
X151590665Y-111725000D01*
X151772102Y-111707130D01*
X152004901Y-111636511D01*
X152219449Y-111521833D01*
X152407502Y-111367502D01*
X152481447Y-111277400D01*
X157060337Y-111277400D01*
X157099000Y-111281208D01*
X157137663Y-111277400D01*
X157137673Y-111277400D01*
X157253357Y-111266006D01*
X157401783Y-111220982D01*
X157538572Y-111147866D01*
X157658469Y-111049469D01*
X157683127Y-111019423D01*
X158253828Y-110448723D01*
X158283868Y-110424070D01*
X158350309Y-110343112D01*
X158382265Y-110304174D01*
X158455381Y-110167384D01*
X158500405Y-110018958D01*
X158503632Y-109986191D01*
X158511799Y-109903274D01*
X158511799Y-109903266D01*
X158515607Y-109864601D01*
X158511799Y-109825936D01*
X158511799Y-107968072D01*
X159580000Y-107968072D01*
X159704482Y-107955812D01*
X159824180Y-107919502D01*
X159934494Y-107860537D01*
X160031185Y-107781185D01*
X160110537Y-107684494D01*
X160169502Y-107574180D01*
X160205812Y-107454482D01*
X160218072Y-107330000D01*
X160218072Y-106351598D01*
X162200217Y-104369454D01*
X162228798Y-104345998D01*
X162252254Y-104317417D01*
X162252261Y-104317410D01*
X162322434Y-104231903D01*
X162392012Y-104101732D01*
X162415751Y-104023475D01*
X162434858Y-103960488D01*
X162445700Y-103850406D01*
X162445700Y-103850396D01*
X162449324Y-103813600D01*
X162445700Y-103776804D01*
X162445700Y-99383560D01*
X162449324Y-99346764D01*
X162445700Y-99309968D01*
X162445700Y-99309959D01*
X162434858Y-99199877D01*
X162392012Y-99058633D01*
X162322434Y-98928462D01*
X162262477Y-98855405D01*
X162252260Y-98842955D01*
X162252258Y-98842953D01*
X162228798Y-98814367D01*
X162200212Y-98790908D01*
X160514987Y-97105683D01*
X160491522Y-97077091D01*
X160377427Y-96983455D01*
X160247256Y-96913877D01*
X160106012Y-96871031D01*
X160068074Y-96867294D01*
X160113003Y-96829263D01*
X160190874Y-96731375D01*
X160248151Y-96620175D01*
X160282634Y-96499939D01*
X160292998Y-96375285D01*
X160290000Y-95945750D01*
X160131250Y-95787000D01*
X159643072Y-95787000D01*
X159643072Y-95533000D01*
X160131250Y-95533000D01*
X160290000Y-95374250D01*
X160292998Y-94944715D01*
X160282634Y-94820061D01*
X160279749Y-94810000D01*
X161271928Y-94810000D01*
X161284188Y-94934482D01*
X161320498Y-95054180D01*
X161379463Y-95164494D01*
X161458815Y-95261185D01*
X161555506Y-95340537D01*
X161665820Y-95399502D01*
X161785518Y-95435812D01*
X161910000Y-95448072D01*
X162274250Y-95445000D01*
X162433000Y-95286250D01*
X162433000Y-94187000D01*
X162687000Y-94187000D01*
X162687000Y-95286250D01*
X162845750Y-95445000D01*
X163210000Y-95448072D01*
X163334482Y-95435812D01*
X163454180Y-95399502D01*
X163564494Y-95340537D01*
X163661185Y-95261185D01*
X163740537Y-95164494D01*
X163799502Y-95054180D01*
X163835812Y-94934482D01*
X163848072Y-94810000D01*
X163845000Y-94345750D01*
X163686250Y-94187000D01*
X162687000Y-94187000D01*
X162433000Y-94187000D01*
X161433750Y-94187000D01*
X161275000Y-94345750D01*
X161271928Y-94810000D01*
X160279749Y-94810000D01*
X160248151Y-94699825D01*
X160190874Y-94588625D01*
X160113003Y-94490737D01*
X160017531Y-94409922D01*
X159908127Y-94349285D01*
X159788996Y-94311156D01*
X159686750Y-94300000D01*
X159528000Y-94458750D01*
X159528000Y-94571322D01*
X159456185Y-94483815D01*
X159359494Y-94404463D01*
X159249180Y-94345498D01*
X159205497Y-94332247D01*
X159173250Y-94300000D01*
X159108227Y-94307095D01*
X159005000Y-94296928D01*
X158990074Y-94296928D01*
X159059426Y-94129498D01*
X159099200Y-93929539D01*
X159099200Y-93725661D01*
X159059426Y-93525702D01*
X158981405Y-93337344D01*
X158868137Y-93167826D01*
X158723974Y-93023663D01*
X158554456Y-92910395D01*
X158366098Y-92832374D01*
X158166139Y-92792600D01*
X157962261Y-92792600D01*
X157762302Y-92832374D01*
X157573944Y-92910395D01*
X157404426Y-93023663D01*
X157260263Y-93167826D01*
X157235271Y-93205230D01*
X156547216Y-92517176D01*
X156522558Y-92487130D01*
X156469151Y-92443300D01*
X158148631Y-92443300D01*
X158874142Y-93168812D01*
X158897602Y-93197398D01*
X158926188Y-93220858D01*
X158926190Y-93220860D01*
X158977649Y-93263091D01*
X159011697Y-93291034D01*
X159141868Y-93360612D01*
X159283112Y-93403458D01*
X159430000Y-93417925D01*
X159576887Y-93403458D01*
X159718131Y-93360612D01*
X159848302Y-93291034D01*
X159962398Y-93197398D01*
X160056034Y-93083303D01*
X160125612Y-92953132D01*
X160168458Y-92811888D01*
X160179300Y-92701806D01*
X160179300Y-92701795D01*
X160182924Y-92664999D01*
X160179300Y-92628203D01*
X160179300Y-91388970D01*
X160654146Y-91863817D01*
X160677602Y-91892398D01*
X160706183Y-91915854D01*
X160706190Y-91915861D01*
X160786941Y-91982131D01*
X160791697Y-91986034D01*
X160921868Y-92055612D01*
X161063112Y-92098458D01*
X161173194Y-92109300D01*
X161173204Y-92109300D01*
X161210000Y-92112924D01*
X161246796Y-92109300D01*
X161271928Y-92109300D01*
X161271928Y-92110000D01*
X161284188Y-92234482D01*
X161320498Y-92354180D01*
X161379463Y-92464494D01*
X161458815Y-92561185D01*
X161555506Y-92640537D01*
X161665820Y-92699502D01*
X161700427Y-92710000D01*
X161665820Y-92720498D01*
X161555506Y-92779463D01*
X161458815Y-92858815D01*
X161379463Y-92955506D01*
X161320498Y-93065820D01*
X161284188Y-93185518D01*
X161271928Y-93310000D01*
X161275000Y-93774250D01*
X161433750Y-93933000D01*
X162433000Y-93933000D01*
X162433000Y-93913000D01*
X162687000Y-93913000D01*
X162687000Y-93933000D01*
X163686250Y-93933000D01*
X163845000Y-93774250D01*
X163848072Y-93310000D01*
X163835812Y-93185518D01*
X163799502Y-93065820D01*
X163740537Y-92955506D01*
X163661185Y-92858815D01*
X163564494Y-92779463D01*
X163454180Y-92720498D01*
X163419573Y-92710000D01*
X163454180Y-92699502D01*
X163564494Y-92640537D01*
X163661185Y-92561185D01*
X163740537Y-92464494D01*
X163799502Y-92354180D01*
X163835812Y-92234482D01*
X163848072Y-92110000D01*
X163848072Y-90610000D01*
X163835812Y-90485518D01*
X163799502Y-90365820D01*
X163740537Y-90255506D01*
X163661185Y-90158815D01*
X163564494Y-90079463D01*
X163454180Y-90020498D01*
X163334482Y-89984188D01*
X163210000Y-89971928D01*
X161910000Y-89971928D01*
X161785518Y-89984188D01*
X161665820Y-90020498D01*
X161555506Y-90079463D01*
X161458815Y-90158815D01*
X161379463Y-90255506D01*
X161320498Y-90365820D01*
X161310023Y-90400352D01*
X160293072Y-89383403D01*
X160293072Y-89035000D01*
X160280812Y-88910518D01*
X160244502Y-88790820D01*
X160185537Y-88680506D01*
X160106185Y-88583815D01*
X160009494Y-88504463D01*
X159899180Y-88445498D01*
X159779482Y-88409188D01*
X159655000Y-88396928D01*
X159599141Y-88396928D01*
X162276413Y-85719657D01*
X162304998Y-85696198D01*
X162337505Y-85656589D01*
X162398633Y-85582104D01*
X162398634Y-85582103D01*
X162468212Y-85451932D01*
X162511058Y-85310688D01*
X162521900Y-85200606D01*
X162521900Y-85200597D01*
X162525524Y-85163801D01*
X162521900Y-85127005D01*
X162521900Y-79179396D01*
X162525524Y-79142600D01*
X162521900Y-79105804D01*
X162521900Y-79105794D01*
X162511058Y-78995712D01*
X162468212Y-78854468D01*
X162435287Y-78792870D01*
X162398634Y-78724296D01*
X162328461Y-78638790D01*
X162328454Y-78638783D01*
X162304998Y-78610202D01*
X162276417Y-78586746D01*
X160218072Y-76528402D01*
X160218072Y-75550000D01*
X160205812Y-75425518D01*
X160169502Y-75305820D01*
X160110537Y-75195506D01*
X160031185Y-75098815D01*
X159934494Y-75019463D01*
X159824180Y-74960498D01*
X159704482Y-74924188D01*
X159580000Y-74911928D01*
X158080000Y-74911928D01*
X157955518Y-74924188D01*
X157835820Y-74960498D01*
X157725506Y-75019463D01*
X157628815Y-75098815D01*
X157549463Y-75195506D01*
X157490498Y-75305820D01*
X157480000Y-75340427D01*
X157469502Y-75305820D01*
X157410537Y-75195506D01*
X157331185Y-75098815D01*
X157234494Y-75019463D01*
X157124180Y-74960498D01*
X157004482Y-74924188D01*
X156880000Y-74911928D01*
X156879300Y-74911928D01*
X156879300Y-74447400D01*
X161598850Y-74447400D01*
X166257601Y-79106153D01*
%TA.AperFunction,Conductor*%
D26*
G36*
X166257601Y-79106153D02*
G01*
X166257600Y-107325611D01*
X166170518Y-107334188D01*
X166050820Y-107370498D01*
X165940506Y-107429463D01*
X165843815Y-107508815D01*
X165764463Y-107605506D01*
X165705498Y-107715820D01*
X165669188Y-107835518D01*
X165656928Y-107960000D01*
X165656928Y-108859520D01*
X160689460Y-113826990D01*
X152473576Y-113826990D01*
X152561833Y-113719449D01*
X152676511Y-113504901D01*
X152747130Y-113272102D01*
X152770975Y-113030000D01*
X152747130Y-112787898D01*
X152676511Y-112555099D01*
X152561833Y-112340551D01*
X152407502Y-112152498D01*
X152219449Y-111998167D01*
X152004901Y-111883489D01*
X151772102Y-111812870D01*
X151590665Y-111795000D01*
X150669335Y-111795000D01*
X150487898Y-111812870D01*
X150255099Y-111883489D01*
X150040551Y-111998167D01*
X149852498Y-112152498D01*
X149698167Y-112340551D01*
X149583489Y-112555099D01*
X149512870Y-112787898D01*
X149489025Y-113030000D01*
X149512870Y-113272102D01*
X149583489Y-113504901D01*
X149698167Y-113719449D01*
X149786424Y-113826990D01*
X146221643Y-113826990D01*
X147062034Y-112986600D01*
X147092069Y-112961951D01*
X147131848Y-112913481D01*
X147190465Y-112842055D01*
X147190467Y-112842053D01*
X147263582Y-112705265D01*
X147308606Y-112556839D01*
X147320000Y-112441155D01*
X147320000Y-112441146D01*
X147323808Y-112402483D01*
X147320000Y-112363820D01*
X147320000Y-107950000D01*
X149489025Y-107950000D01*
X149512870Y-108192102D01*
X149583489Y-108424901D01*
X149698167Y-108639449D01*
X149852498Y-108827502D01*
X150040551Y-108981833D01*
X150255099Y-109096511D01*
X150487898Y-109167130D01*
X150669335Y-109185000D01*
X151590665Y-109185000D01*
X151772102Y-109167130D01*
X152004901Y-109096511D01*
X152219449Y-108981833D01*
X152407502Y-108827502D01*
X152561833Y-108639449D01*
X152676511Y-108424901D01*
X152747130Y-108192102D01*
X152770975Y-107950000D01*
X152747130Y-107707898D01*
X152676511Y-107475099D01*
X152561833Y-107260551D01*
X152407502Y-107072498D01*
X152219449Y-106918167D01*
X152004901Y-106803489D01*
X151772102Y-106732870D01*
X151590665Y-106715000D01*
X150669335Y-106715000D01*
X150487898Y-106732870D01*
X150255099Y-106803489D01*
X150040551Y-106918167D01*
X149852498Y-107072498D01*
X149698167Y-107260551D01*
X149583489Y-107475099D01*
X149512870Y-107707898D01*
X149489025Y-107950000D01*
X147320000Y-107950000D01*
X147320000Y-105410000D01*
X149489025Y-105410000D01*
X149512870Y-105652102D01*
X149583489Y-105884901D01*
X149698167Y-106099449D01*
X149852498Y-106287502D01*
X150040551Y-106441833D01*
X150255099Y-106556511D01*
X150487898Y-106627130D01*
X150669335Y-106645000D01*
X151590665Y-106645000D01*
X151772102Y-106627130D01*
X152004901Y-106556511D01*
X152219449Y-106441833D01*
X152407502Y-106287502D01*
X152561833Y-106099449D01*
X152676511Y-105884901D01*
X152747130Y-105652102D01*
X152770975Y-105410000D01*
X152747130Y-105167898D01*
X152676511Y-104935099D01*
X152561833Y-104720551D01*
X152407502Y-104532498D01*
X152219449Y-104378167D01*
X152004901Y-104263489D01*
X151772102Y-104192870D01*
X151590665Y-104175000D01*
X150669335Y-104175000D01*
X150487898Y-104192870D01*
X150255099Y-104263489D01*
X150040551Y-104378167D01*
X149852498Y-104532498D01*
X149698167Y-104720551D01*
X149583489Y-104935099D01*
X149512870Y-105167898D01*
X149489025Y-105410000D01*
X147320000Y-105410000D01*
X147320000Y-100647609D01*
X149536538Y-100647609D01*
X149540409Y-100685282D01*
X149632579Y-100910533D01*
X149766922Y-101113474D01*
X149938275Y-101286307D01*
X150140054Y-101422390D01*
X150364504Y-101516493D01*
X150603000Y-101565000D01*
X151003000Y-101565000D01*
X151003000Y-100457000D01*
X151257000Y-100457000D01*
X151257000Y-101565000D01*
X151657000Y-101565000D01*
X151895496Y-101516493D01*
X152119946Y-101422390D01*
X152321725Y-101286307D01*
X152493078Y-101113474D01*
X152627421Y-100910533D01*
X152719591Y-100685282D01*
X152723462Y-100647609D01*
X152598731Y-100457000D01*
X151257000Y-100457000D01*
X151003000Y-100457000D01*
X149661269Y-100457000D01*
X149536538Y-100647609D01*
X147320000Y-100647609D01*
X147320000Y-100012391D01*
X149536538Y-100012391D01*
X149661269Y-100203000D01*
X151003000Y-100203000D01*
X151003000Y-99095000D01*
X151257000Y-99095000D01*
X151257000Y-100203000D01*
X152598731Y-100203000D01*
X152723462Y-100012391D01*
X152719591Y-99974718D01*
X152627421Y-99749467D01*
X152493078Y-99546526D01*
X152321725Y-99373693D01*
X152119946Y-99237610D01*
X151895496Y-99143507D01*
X151657000Y-99095000D01*
X151257000Y-99095000D01*
X151003000Y-99095000D01*
X150603000Y-99095000D01*
X150364504Y-99143507D01*
X150140054Y-99237610D01*
X149938275Y-99373693D01*
X149766922Y-99546526D01*
X149632579Y-99749467D01*
X149540409Y-99974718D01*
X149536538Y-100012391D01*
X147320000Y-100012391D01*
X147320000Y-97790000D01*
X149489025Y-97790000D01*
X149512870Y-98032102D01*
X149583489Y-98264901D01*
X149698167Y-98479449D01*
X149852498Y-98667502D01*
X150040551Y-98821833D01*
X150255099Y-98936511D01*
X150487898Y-99007130D01*
X150669335Y-99025000D01*
X151590665Y-99025000D01*
X151772102Y-99007130D01*
X152004901Y-98936511D01*
X152219449Y-98821833D01*
X152407502Y-98667502D01*
X152561833Y-98479449D01*
X152676511Y-98264901D01*
X152747130Y-98032102D01*
X152770975Y-97790000D01*
X152747130Y-97547898D01*
X152676511Y-97315099D01*
X152561833Y-97100551D01*
X152407502Y-96912498D01*
X152219449Y-96758167D01*
X152004901Y-96643489D01*
X151772102Y-96572870D01*
X151590665Y-96555000D01*
X150669335Y-96555000D01*
X150487898Y-96572870D01*
X150255099Y-96643489D01*
X150040551Y-96758167D01*
X149852498Y-96912498D01*
X149698167Y-97100551D01*
X149583489Y-97315099D01*
X149512870Y-97547898D01*
X149489025Y-97790000D01*
X147320000Y-97790000D01*
X147320000Y-93764673D01*
X147323809Y-93726000D01*
X147308606Y-93571643D01*
X147263582Y-93423217D01*
X147190466Y-93286428D01*
X147092069Y-93166531D01*
X146972172Y-93068134D01*
X146835383Y-92995018D01*
X146686957Y-92949994D01*
X146571273Y-92938600D01*
X146532600Y-92934791D01*
X146493927Y-92938600D01*
X144550339Y-92938600D01*
X145477450Y-92011490D01*
X149705603Y-92011490D01*
X149698167Y-92020551D01*
X149583489Y-92235099D01*
X149512870Y-92467898D01*
X149489025Y-92710000D01*
X149512870Y-92952102D01*
X149583489Y-93184901D01*
X149698167Y-93399449D01*
X149852498Y-93587502D01*
X150040551Y-93741833D01*
X150255099Y-93856511D01*
X150487898Y-93927130D01*
X150669335Y-93945000D01*
X151590665Y-93945000D01*
X151772102Y-93927130D01*
X152004901Y-93856511D01*
X152206664Y-93748667D01*
X151887466Y-94067865D01*
X151772102Y-94032870D01*
X151590665Y-94015000D01*
X150669335Y-94015000D01*
X150487898Y-94032870D01*
X150255099Y-94103489D01*
X150040551Y-94218167D01*
X149852498Y-94372498D01*
X149698167Y-94560551D01*
X149583489Y-94775099D01*
X149512870Y-95007898D01*
X149489025Y-95250000D01*
X149512870Y-95492102D01*
X149583489Y-95724901D01*
X149698167Y-95939449D01*
X149852498Y-96127502D01*
X150040551Y-96281833D01*
X150255099Y-96396511D01*
X150487898Y-96467130D01*
X150669335Y-96485000D01*
X151590665Y-96485000D01*
X151772102Y-96467130D01*
X152004901Y-96396511D01*
X152219449Y-96281833D01*
X152407502Y-96127502D01*
X152561833Y-95939449D01*
X152676511Y-95724901D01*
X152747130Y-95492102D01*
X152765109Y-95309560D01*
X153847801Y-94226869D01*
X153847800Y-100343448D01*
X152292847Y-101898403D01*
X152219449Y-101838167D01*
X152004901Y-101723489D01*
X151772102Y-101652870D01*
X151590665Y-101635000D01*
X150669335Y-101635000D01*
X150487898Y-101652870D01*
X150255099Y-101723489D01*
X150040551Y-101838167D01*
X149852498Y-101992498D01*
X149698167Y-102180551D01*
X149583489Y-102395099D01*
X149512870Y-102627898D01*
X149489025Y-102870000D01*
X149512870Y-103112102D01*
X149583489Y-103344901D01*
X149698167Y-103559449D01*
X149852498Y-103747502D01*
X150040551Y-103901833D01*
X150255099Y-104016511D01*
X150487898Y-104087130D01*
X150669335Y-104105000D01*
X151590665Y-104105000D01*
X151772102Y-104087130D01*
X152004901Y-104016511D01*
X152219449Y-103901833D01*
X152407502Y-103747502D01*
X152482148Y-103656546D01*
X152589157Y-103646006D01*
X152737583Y-103600982D01*
X152874372Y-103527866D01*
X152994269Y-103429469D01*
X153018928Y-103399423D01*
X154741928Y-101676424D01*
X154741928Y-102250000D01*
X154754188Y-102374482D01*
X154790498Y-102494180D01*
X154849463Y-102604494D01*
X154928815Y-102701185D01*
X155025506Y-102780537D01*
X155135820Y-102839502D01*
X155236358Y-102870000D01*
X155135820Y-102900498D01*
X155025506Y-102959463D01*
X154928815Y-103038815D01*
X154849463Y-103135506D01*
X154790498Y-103245820D01*
X154754188Y-103365518D01*
X154741928Y-103490000D01*
X154741928Y-104790000D01*
X154754188Y-104914482D01*
X154790498Y-105034180D01*
X154849463Y-105144494D01*
X154928815Y-105241185D01*
X155025506Y-105320537D01*
X155135820Y-105379502D01*
X155236358Y-105410000D01*
X155135820Y-105440498D01*
X155025506Y-105499463D01*
X154928815Y-105578815D01*
X154849463Y-105675506D01*
X154790498Y-105785820D01*
X154754188Y-105905518D01*
X154741928Y-106030000D01*
X154741928Y-107330000D01*
X154754188Y-107454482D01*
X154790498Y-107574180D01*
X154849463Y-107684494D01*
X154928815Y-107781185D01*
X155025506Y-107860537D01*
X155135820Y-107919502D01*
X155255518Y-107955812D01*
X155342601Y-107964389D01*
X155342601Y-108261418D01*
X155318195Y-108297944D01*
X155240174Y-108486302D01*
X155200400Y-108686261D01*
X155200400Y-108890139D01*
X155240174Y-109090098D01*
X155318195Y-109278456D01*
X155431463Y-109447974D01*
X155575626Y-109592137D01*
X155740946Y-109702600D01*
X152481447Y-109702600D01*
X152407502Y-109612498D01*
X152219449Y-109458167D01*
X152004901Y-109343489D01*
X151772102Y-109272870D01*
X151590665Y-109255000D01*
X150669335Y-109255000D01*
X150487898Y-109272870D01*
X150255099Y-109343489D01*
X150040551Y-109458167D01*
X149852498Y-109612498D01*
X149698167Y-109800551D01*
X149583489Y-110015099D01*
X149512870Y-110247898D01*
X149489025Y-110490000D01*
X149512870Y-110732102D01*
X149583489Y-110964901D01*
X149698167Y-111179449D01*
X149852498Y-111367502D01*
X150040551Y-111521833D01*
X150255099Y-111636511D01*
X150487898Y-111707130D01*
X150669335Y-111725000D01*
X151590665Y-111725000D01*
X151772102Y-111707130D01*
X152004901Y-111636511D01*
X152219449Y-111521833D01*
X152407502Y-111367502D01*
X152481447Y-111277400D01*
X157060337Y-111277400D01*
X157099000Y-111281208D01*
X157137663Y-111277400D01*
X157137673Y-111277400D01*
X157253357Y-111266006D01*
X157401783Y-111220982D01*
X157538572Y-111147866D01*
X157658469Y-111049469D01*
X157683127Y-111019423D01*
X158253828Y-110448723D01*
X158283868Y-110424070D01*
X158350309Y-110343112D01*
X158382265Y-110304174D01*
X158455381Y-110167384D01*
X158500405Y-110018958D01*
X158503632Y-109986191D01*
X158511799Y-109903274D01*
X158511799Y-109903266D01*
X158515607Y-109864601D01*
X158511799Y-109825936D01*
X158511799Y-107968072D01*
X159580000Y-107968072D01*
X159704482Y-107955812D01*
X159824180Y-107919502D01*
X159934494Y-107860537D01*
X160031185Y-107781185D01*
X160110537Y-107684494D01*
X160169502Y-107574180D01*
X160205812Y-107454482D01*
X160218072Y-107330000D01*
X160218072Y-106351598D01*
X162200217Y-104369454D01*
X162228798Y-104345998D01*
X162252254Y-104317417D01*
X162252261Y-104317410D01*
X162322434Y-104231903D01*
X162392012Y-104101732D01*
X162415751Y-104023475D01*
X162434858Y-103960488D01*
X162445700Y-103850406D01*
X162445700Y-103850396D01*
X162449324Y-103813600D01*
X162445700Y-103776804D01*
X162445700Y-99383560D01*
X162449324Y-99346764D01*
X162445700Y-99309968D01*
X162445700Y-99309959D01*
X162434858Y-99199877D01*
X162392012Y-99058633D01*
X162322434Y-98928462D01*
X162262477Y-98855405D01*
X162252260Y-98842955D01*
X162252258Y-98842953D01*
X162228798Y-98814367D01*
X162200212Y-98790908D01*
X160514987Y-97105683D01*
X160491522Y-97077091D01*
X160377427Y-96983455D01*
X160247256Y-96913877D01*
X160106012Y-96871031D01*
X160068074Y-96867294D01*
X160113003Y-96829263D01*
X160190874Y-96731375D01*
X160248151Y-96620175D01*
X160282634Y-96499939D01*
X160292998Y-96375285D01*
X160290000Y-95945750D01*
X160131250Y-95787000D01*
X159643072Y-95787000D01*
X159643072Y-95533000D01*
X160131250Y-95533000D01*
X160290000Y-95374250D01*
X160292998Y-94944715D01*
X160282634Y-94820061D01*
X160279749Y-94810000D01*
X161271928Y-94810000D01*
X161284188Y-94934482D01*
X161320498Y-95054180D01*
X161379463Y-95164494D01*
X161458815Y-95261185D01*
X161555506Y-95340537D01*
X161665820Y-95399502D01*
X161785518Y-95435812D01*
X161910000Y-95448072D01*
X162274250Y-95445000D01*
X162433000Y-95286250D01*
X162433000Y-94187000D01*
X162687000Y-94187000D01*
X162687000Y-95286250D01*
X162845750Y-95445000D01*
X163210000Y-95448072D01*
X163334482Y-95435812D01*
X163454180Y-95399502D01*
X163564494Y-95340537D01*
X163661185Y-95261185D01*
X163740537Y-95164494D01*
X163799502Y-95054180D01*
X163835812Y-94934482D01*
X163848072Y-94810000D01*
X163845000Y-94345750D01*
X163686250Y-94187000D01*
X162687000Y-94187000D01*
X162433000Y-94187000D01*
X161433750Y-94187000D01*
X161275000Y-94345750D01*
X161271928Y-94810000D01*
X160279749Y-94810000D01*
X160248151Y-94699825D01*
X160190874Y-94588625D01*
X160113003Y-94490737D01*
X160017531Y-94409922D01*
X159908127Y-94349285D01*
X159788996Y-94311156D01*
X159686750Y-94300000D01*
X159528000Y-94458750D01*
X159528000Y-94571322D01*
X159456185Y-94483815D01*
X159359494Y-94404463D01*
X159249180Y-94345498D01*
X159205497Y-94332247D01*
X159173250Y-94300000D01*
X159108227Y-94307095D01*
X159005000Y-94296928D01*
X158990074Y-94296928D01*
X159059426Y-94129498D01*
X159099200Y-93929539D01*
X159099200Y-93725661D01*
X159059426Y-93525702D01*
X158981405Y-93337344D01*
X158868137Y-93167826D01*
X158723974Y-93023663D01*
X158554456Y-92910395D01*
X158366098Y-92832374D01*
X158166139Y-92792600D01*
X157962261Y-92792600D01*
X157762302Y-92832374D01*
X157573944Y-92910395D01*
X157404426Y-93023663D01*
X157260263Y-93167826D01*
X157235271Y-93205230D01*
X156547216Y-92517176D01*
X156522558Y-92487130D01*
X156469151Y-92443300D01*
X158148631Y-92443300D01*
X158874142Y-93168812D01*
X158897602Y-93197398D01*
X158926188Y-93220858D01*
X158926190Y-93220860D01*
X158977649Y-93263091D01*
X159011697Y-93291034D01*
X159141868Y-93360612D01*
X159283112Y-93403458D01*
X159430000Y-93417925D01*
X159576887Y-93403458D01*
X159718131Y-93360612D01*
X159848302Y-93291034D01*
X159962398Y-93197398D01*
X160056034Y-93083303D01*
X160125612Y-92953132D01*
X160168458Y-92811888D01*
X160179300Y-92701806D01*
X160179300Y-92701795D01*
X160182924Y-92664999D01*
X160179300Y-92628203D01*
X160179300Y-91388970D01*
X160654146Y-91863817D01*
X160677602Y-91892398D01*
X160706183Y-91915854D01*
X160706190Y-91915861D01*
X160786941Y-91982131D01*
X160791697Y-91986034D01*
X160921868Y-92055612D01*
X161063112Y-92098458D01*
X161173194Y-92109300D01*
X161173204Y-92109300D01*
X161210000Y-92112924D01*
X161246796Y-92109300D01*
X161271928Y-92109300D01*
X161271928Y-92110000D01*
X161284188Y-92234482D01*
X161320498Y-92354180D01*
X161379463Y-92464494D01*
X161458815Y-92561185D01*
X161555506Y-92640537D01*
X161665820Y-92699502D01*
X161700427Y-92710000D01*
X161665820Y-92720498D01*
X161555506Y-92779463D01*
X161458815Y-92858815D01*
X161379463Y-92955506D01*
X161320498Y-93065820D01*
X161284188Y-93185518D01*
X161271928Y-93310000D01*
X161275000Y-93774250D01*
X161433750Y-93933000D01*
X162433000Y-93933000D01*
X162433000Y-93913000D01*
X162687000Y-93913000D01*
X162687000Y-93933000D01*
X163686250Y-93933000D01*
X163845000Y-93774250D01*
X163848072Y-93310000D01*
X163835812Y-93185518D01*
X163799502Y-93065820D01*
X163740537Y-92955506D01*
X163661185Y-92858815D01*
X163564494Y-92779463D01*
X163454180Y-92720498D01*
X163419573Y-92710000D01*
X163454180Y-92699502D01*
X163564494Y-92640537D01*
X163661185Y-92561185D01*
X163740537Y-92464494D01*
X163799502Y-92354180D01*
X163835812Y-92234482D01*
X163848072Y-92110000D01*
X163848072Y-90610000D01*
X163835812Y-90485518D01*
X163799502Y-90365820D01*
X163740537Y-90255506D01*
X163661185Y-90158815D01*
X163564494Y-90079463D01*
X163454180Y-90020498D01*
X163334482Y-89984188D01*
X163210000Y-89971928D01*
X161910000Y-89971928D01*
X161785518Y-89984188D01*
X161665820Y-90020498D01*
X161555506Y-90079463D01*
X161458815Y-90158815D01*
X161379463Y-90255506D01*
X161320498Y-90365820D01*
X161310023Y-90400352D01*
X160293072Y-89383403D01*
X160293072Y-89035000D01*
X160280812Y-88910518D01*
X160244502Y-88790820D01*
X160185537Y-88680506D01*
X160106185Y-88583815D01*
X160009494Y-88504463D01*
X159899180Y-88445498D01*
X159779482Y-88409188D01*
X159655000Y-88396928D01*
X159599141Y-88396928D01*
X162276413Y-85719657D01*
X162304998Y-85696198D01*
X162337505Y-85656589D01*
X162398633Y-85582104D01*
X162398634Y-85582103D01*
X162468212Y-85451932D01*
X162511058Y-85310688D01*
X162521900Y-85200606D01*
X162521900Y-85200597D01*
X162525524Y-85163801D01*
X162521900Y-85127005D01*
X162521900Y-79179396D01*
X162525524Y-79142600D01*
X162521900Y-79105804D01*
X162521900Y-79105794D01*
X162511058Y-78995712D01*
X162468212Y-78854468D01*
X162435287Y-78792870D01*
X162398634Y-78724296D01*
X162328461Y-78638790D01*
X162328454Y-78638783D01*
X162304998Y-78610202D01*
X162276417Y-78586746D01*
X160218072Y-76528402D01*
X160218072Y-75550000D01*
X160205812Y-75425518D01*
X160169502Y-75305820D01*
X160110537Y-75195506D01*
X160031185Y-75098815D01*
X159934494Y-75019463D01*
X159824180Y-74960498D01*
X159704482Y-74924188D01*
X159580000Y-74911928D01*
X158080000Y-74911928D01*
X157955518Y-74924188D01*
X157835820Y-74960498D01*
X157725506Y-75019463D01*
X157628815Y-75098815D01*
X157549463Y-75195506D01*
X157490498Y-75305820D01*
X157480000Y-75340427D01*
X157469502Y-75305820D01*
X157410537Y-75195506D01*
X157331185Y-75098815D01*
X157234494Y-75019463D01*
X157124180Y-74960498D01*
X157004482Y-74924188D01*
X156880000Y-74911928D01*
X156879300Y-74911928D01*
X156879300Y-74447400D01*
X161598850Y-74447400D01*
X166257601Y-79106153D01*
G37*
%TD.AperFunction*%
D25*
X160350201Y-99778670D02*
X160350200Y-101506248D01*
X160218072Y-101638376D01*
X160218072Y-100950000D01*
X160205812Y-100825518D01*
X160169502Y-100705820D01*
X160110537Y-100595506D01*
X160031185Y-100498815D01*
X159934494Y-100419463D01*
X159824180Y-100360498D01*
X159704482Y-100324188D01*
X159586575Y-100312576D01*
X159604482Y-100310812D01*
X159724180Y-100274502D01*
X159834494Y-100215537D01*
X159931185Y-100136185D01*
X160010537Y-100039494D01*
X160069502Y-99929180D01*
X160105812Y-99809482D01*
X160118072Y-99685000D01*
X160116807Y-99545276D01*
X160350201Y-99778670D01*
%TA.AperFunction,Conductor*%
D26*
G36*
X160350201Y-99778670D02*
G01*
X160350200Y-101506248D01*
X160218072Y-101638376D01*
X160218072Y-100950000D01*
X160205812Y-100825518D01*
X160169502Y-100705820D01*
X160110537Y-100595506D01*
X160031185Y-100498815D01*
X159934494Y-100419463D01*
X159824180Y-100360498D01*
X159704482Y-100324188D01*
X159586575Y-100312576D01*
X159604482Y-100310812D01*
X159724180Y-100274502D01*
X159834494Y-100215537D01*
X159931185Y-100136185D01*
X160010537Y-100039494D01*
X160069502Y-99929180D01*
X160105812Y-99809482D01*
X160118072Y-99685000D01*
X160116807Y-99545276D01*
X160350201Y-99778670D01*
G37*
%TD.AperFunction*%
D25*
X158857000Y-98933000D02*
X158877000Y-98933000D01*
X158877000Y-99187000D01*
X158857000Y-99187000D01*
X158857000Y-99207000D01*
X158603000Y-99207000D01*
X158603000Y-99187000D01*
X158583000Y-99187000D01*
X158583000Y-98933000D01*
X158603000Y-98933000D01*
X158603000Y-98913000D01*
X158857000Y-98913000D01*
X158857000Y-98933000D01*
%TA.AperFunction,Conductor*%
D26*
G36*
X158857000Y-98933000D02*
G01*
X158877000Y-98933000D01*
X158877000Y-99187000D01*
X158857000Y-99187000D01*
X158857000Y-99207000D01*
X158603000Y-99207000D01*
X158603000Y-99187000D01*
X158583000Y-99187000D01*
X158583000Y-98933000D01*
X158603000Y-98933000D01*
X158603000Y-98913000D01*
X158857000Y-98913000D01*
X158857000Y-98933000D01*
G37*
%TD.AperFunction*%
D25*
X149698167Y-84400551D02*
X149583489Y-84615099D01*
X149512870Y-84847898D01*
X149489025Y-85090000D01*
X149512870Y-85332102D01*
X149583489Y-85564901D01*
X149698167Y-85779449D01*
X149852498Y-85967502D01*
X150040551Y-86121833D01*
X150255099Y-86236511D01*
X150487898Y-86307130D01*
X150669335Y-86325000D01*
X151590665Y-86325000D01*
X151772102Y-86307130D01*
X152004901Y-86236511D01*
X152219449Y-86121833D01*
X152407502Y-85967502D01*
X152561833Y-85779449D01*
X152676511Y-85564901D01*
X152747130Y-85332102D01*
X152770975Y-85090000D01*
X152747130Y-84847898D01*
X152676511Y-84615099D01*
X152561833Y-84400551D01*
X152411041Y-84216810D01*
X153205929Y-84216810D01*
X153194328Y-84334600D01*
X153197400Y-84798850D01*
X153356150Y-84957600D01*
X154330400Y-84957600D01*
X154330400Y-84937600D01*
X154584400Y-84937600D01*
X154584400Y-84957600D01*
X154604400Y-84957600D01*
X154604400Y-85211600D01*
X154584400Y-85211600D01*
X154584400Y-85231600D01*
X154330400Y-85231600D01*
X154330400Y-85211600D01*
X153356150Y-85211600D01*
X153197400Y-85370350D01*
X153194328Y-85834600D01*
X153206588Y-85959082D01*
X153242898Y-86078780D01*
X153301863Y-86189094D01*
X153381215Y-86285785D01*
X153440696Y-86334600D01*
X153381215Y-86383415D01*
X153301863Y-86480106D01*
X153242898Y-86590420D01*
X153206588Y-86710118D01*
X153194328Y-86834600D01*
X153194328Y-88334600D01*
X153206588Y-88459082D01*
X153242898Y-88578780D01*
X153258378Y-88607740D01*
X153111826Y-88705663D01*
X152967663Y-88849826D01*
X152854395Y-89019344D01*
X152776374Y-89207702D01*
X152736600Y-89407661D01*
X152736600Y-89611539D01*
X152776374Y-89811498D01*
X152854395Y-89999856D01*
X152967663Y-90169374D01*
X153111826Y-90313537D01*
X153281344Y-90426805D01*
X153469702Y-90504826D01*
X153510243Y-90512890D01*
X152716556Y-90512890D01*
X152747130Y-90412102D01*
X152770975Y-90170000D01*
X152747130Y-89927898D01*
X152676511Y-89695099D01*
X152561833Y-89480551D01*
X152407502Y-89292498D01*
X152219449Y-89138167D01*
X152004901Y-89023489D01*
X151772102Y-88952870D01*
X151590665Y-88935000D01*
X150669335Y-88935000D01*
X150487898Y-88952870D01*
X150255099Y-89023489D01*
X150040551Y-89138167D01*
X149852498Y-89292498D01*
X149698167Y-89480551D01*
X149583489Y-89695099D01*
X149512870Y-89927898D01*
X149489025Y-90170000D01*
X149512870Y-90412102D01*
X149543444Y-90512890D01*
X146007939Y-90512890D01*
X146018072Y-90410000D01*
X146018072Y-89310000D01*
X146005812Y-89185518D01*
X145969502Y-89065820D01*
X145910537Y-88955506D01*
X145831185Y-88858815D01*
X145734494Y-88779463D01*
X145624180Y-88720498D01*
X145504482Y-88684188D01*
X145380000Y-88671928D01*
X144980000Y-88671928D01*
X144855518Y-88684188D01*
X144855000Y-88684345D01*
X144854482Y-88684188D01*
X144730000Y-88671928D01*
X144330000Y-88671928D01*
X144205518Y-88684188D01*
X144205000Y-88684345D01*
X144204482Y-88684188D01*
X144080000Y-88671928D01*
X143680000Y-88671928D01*
X143555518Y-88684188D01*
X143555000Y-88684345D01*
X143554482Y-88684188D01*
X143430000Y-88671928D01*
X143030000Y-88671928D01*
X142905518Y-88684188D01*
X142905000Y-88684345D01*
X142904482Y-88684188D01*
X142780000Y-88671928D01*
X142380000Y-88671928D01*
X142255518Y-88684188D01*
X142255000Y-88684345D01*
X142254482Y-88684188D01*
X142130000Y-88671928D01*
X141730000Y-88671928D01*
X141605518Y-88684188D01*
X141605000Y-88684345D01*
X141604482Y-88684188D01*
X141480000Y-88671928D01*
X141080000Y-88671928D01*
X140955518Y-88684188D01*
X140955000Y-88684345D01*
X140954482Y-88684188D01*
X140899404Y-88678763D01*
X141402068Y-88176100D01*
X144725989Y-88176100D01*
X144780626Y-88230737D01*
X144950144Y-88344005D01*
X145138502Y-88422026D01*
X145338461Y-88461800D01*
X145542339Y-88461800D01*
X145742298Y-88422026D01*
X145930656Y-88344005D01*
X146100174Y-88230737D01*
X146244337Y-88086574D01*
X146357605Y-87917056D01*
X146435626Y-87728698D01*
X146455258Y-87630000D01*
X149489025Y-87630000D01*
X149512870Y-87872102D01*
X149583489Y-88104901D01*
X149698167Y-88319449D01*
X149852498Y-88507502D01*
X150040551Y-88661833D01*
X150255099Y-88776511D01*
X150487898Y-88847130D01*
X150669335Y-88865000D01*
X151590665Y-88865000D01*
X151772102Y-88847130D01*
X152004901Y-88776511D01*
X152219449Y-88661833D01*
X152407502Y-88507502D01*
X152561833Y-88319449D01*
X152676511Y-88104901D01*
X152747130Y-87872102D01*
X152770975Y-87630000D01*
X152747130Y-87387898D01*
X152676511Y-87155099D01*
X152561833Y-86940551D01*
X152407502Y-86752498D01*
X152219449Y-86598167D01*
X152004901Y-86483489D01*
X151772102Y-86412870D01*
X151590665Y-86395000D01*
X150669335Y-86395000D01*
X150487898Y-86412870D01*
X150255099Y-86483489D01*
X150040551Y-86598167D01*
X149852498Y-86752498D01*
X149698167Y-86940551D01*
X149583489Y-87155099D01*
X149512870Y-87387898D01*
X149489025Y-87630000D01*
X146455258Y-87630000D01*
X146475400Y-87528739D01*
X146475400Y-87324861D01*
X146435626Y-87124902D01*
X146357605Y-86936544D01*
X146244337Y-86767026D01*
X146100174Y-86622863D01*
X145930656Y-86509595D01*
X145845096Y-86474154D01*
X145923000Y-86396250D01*
X145923000Y-85297000D01*
X146177000Y-85297000D01*
X146177000Y-86396250D01*
X146335750Y-86555000D01*
X146700000Y-86558072D01*
X146824482Y-86545812D01*
X146944180Y-86509502D01*
X147054494Y-86450537D01*
X147151185Y-86371185D01*
X147230537Y-86274494D01*
X147289502Y-86164180D01*
X147325812Y-86044482D01*
X147338072Y-85920000D01*
X147335000Y-85455750D01*
X147176250Y-85297000D01*
X146177000Y-85297000D01*
X145923000Y-85297000D01*
X145903000Y-85297000D01*
X145903000Y-85043000D01*
X145923000Y-85043000D01*
X145923000Y-85023000D01*
X146177000Y-85023000D01*
X146177000Y-85043000D01*
X147176250Y-85043000D01*
X147335000Y-84884250D01*
X147338072Y-84420000D01*
X147325812Y-84295518D01*
X147301936Y-84216810D01*
X149848959Y-84216810D01*
X149698167Y-84400551D01*
%TA.AperFunction,Conductor*%
D26*
G36*
X149698167Y-84400551D02*
G01*
X149583489Y-84615099D01*
X149512870Y-84847898D01*
X149489025Y-85090000D01*
X149512870Y-85332102D01*
X149583489Y-85564901D01*
X149698167Y-85779449D01*
X149852498Y-85967502D01*
X150040551Y-86121833D01*
X150255099Y-86236511D01*
X150487898Y-86307130D01*
X150669335Y-86325000D01*
X151590665Y-86325000D01*
X151772102Y-86307130D01*
X152004901Y-86236511D01*
X152219449Y-86121833D01*
X152407502Y-85967502D01*
X152561833Y-85779449D01*
X152676511Y-85564901D01*
X152747130Y-85332102D01*
X152770975Y-85090000D01*
X152747130Y-84847898D01*
X152676511Y-84615099D01*
X152561833Y-84400551D01*
X152411041Y-84216810D01*
X153205929Y-84216810D01*
X153194328Y-84334600D01*
X153197400Y-84798850D01*
X153356150Y-84957600D01*
X154330400Y-84957600D01*
X154330400Y-84937600D01*
X154584400Y-84937600D01*
X154584400Y-84957600D01*
X154604400Y-84957600D01*
X154604400Y-85211600D01*
X154584400Y-85211600D01*
X154584400Y-85231600D01*
X154330400Y-85231600D01*
X154330400Y-85211600D01*
X153356150Y-85211600D01*
X153197400Y-85370350D01*
X153194328Y-85834600D01*
X153206588Y-85959082D01*
X153242898Y-86078780D01*
X153301863Y-86189094D01*
X153381215Y-86285785D01*
X153440696Y-86334600D01*
X153381215Y-86383415D01*
X153301863Y-86480106D01*
X153242898Y-86590420D01*
X153206588Y-86710118D01*
X153194328Y-86834600D01*
X153194328Y-88334600D01*
X153206588Y-88459082D01*
X153242898Y-88578780D01*
X153258378Y-88607740D01*
X153111826Y-88705663D01*
X152967663Y-88849826D01*
X152854395Y-89019344D01*
X152776374Y-89207702D01*
X152736600Y-89407661D01*
X152736600Y-89611539D01*
X152776374Y-89811498D01*
X152854395Y-89999856D01*
X152967663Y-90169374D01*
X153111826Y-90313537D01*
X153281344Y-90426805D01*
X153469702Y-90504826D01*
X153510243Y-90512890D01*
X152716556Y-90512890D01*
X152747130Y-90412102D01*
X152770975Y-90170000D01*
X152747130Y-89927898D01*
X152676511Y-89695099D01*
X152561833Y-89480551D01*
X152407502Y-89292498D01*
X152219449Y-89138167D01*
X152004901Y-89023489D01*
X151772102Y-88952870D01*
X151590665Y-88935000D01*
X150669335Y-88935000D01*
X150487898Y-88952870D01*
X150255099Y-89023489D01*
X150040551Y-89138167D01*
X149852498Y-89292498D01*
X149698167Y-89480551D01*
X149583489Y-89695099D01*
X149512870Y-89927898D01*
X149489025Y-90170000D01*
X149512870Y-90412102D01*
X149543444Y-90512890D01*
X146007939Y-90512890D01*
X146018072Y-90410000D01*
X146018072Y-89310000D01*
X146005812Y-89185518D01*
X145969502Y-89065820D01*
X145910537Y-88955506D01*
X145831185Y-88858815D01*
X145734494Y-88779463D01*
X145624180Y-88720498D01*
X145504482Y-88684188D01*
X145380000Y-88671928D01*
X144980000Y-88671928D01*
X144855518Y-88684188D01*
X144855000Y-88684345D01*
X144854482Y-88684188D01*
X144730000Y-88671928D01*
X144330000Y-88671928D01*
X144205518Y-88684188D01*
X144205000Y-88684345D01*
X144204482Y-88684188D01*
X144080000Y-88671928D01*
X143680000Y-88671928D01*
X143555518Y-88684188D01*
X143555000Y-88684345D01*
X143554482Y-88684188D01*
X143430000Y-88671928D01*
X143030000Y-88671928D01*
X142905518Y-88684188D01*
X142905000Y-88684345D01*
X142904482Y-88684188D01*
X142780000Y-88671928D01*
X142380000Y-88671928D01*
X142255518Y-88684188D01*
X142255000Y-88684345D01*
X142254482Y-88684188D01*
X142130000Y-88671928D01*
X141730000Y-88671928D01*
X141605518Y-88684188D01*
X141605000Y-88684345D01*
X141604482Y-88684188D01*
X141480000Y-88671928D01*
X141080000Y-88671928D01*
X140955518Y-88684188D01*
X140955000Y-88684345D01*
X140954482Y-88684188D01*
X140899404Y-88678763D01*
X141402068Y-88176100D01*
X144725989Y-88176100D01*
X144780626Y-88230737D01*
X144950144Y-88344005D01*
X145138502Y-88422026D01*
X145338461Y-88461800D01*
X145542339Y-88461800D01*
X145742298Y-88422026D01*
X145930656Y-88344005D01*
X146100174Y-88230737D01*
X146244337Y-88086574D01*
X146357605Y-87917056D01*
X146435626Y-87728698D01*
X146455258Y-87630000D01*
X149489025Y-87630000D01*
X149512870Y-87872102D01*
X149583489Y-88104901D01*
X149698167Y-88319449D01*
X149852498Y-88507502D01*
X150040551Y-88661833D01*
X150255099Y-88776511D01*
X150487898Y-88847130D01*
X150669335Y-88865000D01*
X151590665Y-88865000D01*
X151772102Y-88847130D01*
X152004901Y-88776511D01*
X152219449Y-88661833D01*
X152407502Y-88507502D01*
X152561833Y-88319449D01*
X152676511Y-88104901D01*
X152747130Y-87872102D01*
X152770975Y-87630000D01*
X152747130Y-87387898D01*
X152676511Y-87155099D01*
X152561833Y-86940551D01*
X152407502Y-86752498D01*
X152219449Y-86598167D01*
X152004901Y-86483489D01*
X151772102Y-86412870D01*
X151590665Y-86395000D01*
X150669335Y-86395000D01*
X150487898Y-86412870D01*
X150255099Y-86483489D01*
X150040551Y-86598167D01*
X149852498Y-86752498D01*
X149698167Y-86940551D01*
X149583489Y-87155099D01*
X149512870Y-87387898D01*
X149489025Y-87630000D01*
X146455258Y-87630000D01*
X146475400Y-87528739D01*
X146475400Y-87324861D01*
X146435626Y-87124902D01*
X146357605Y-86936544D01*
X146244337Y-86767026D01*
X146100174Y-86622863D01*
X145930656Y-86509595D01*
X145845096Y-86474154D01*
X145923000Y-86396250D01*
X145923000Y-85297000D01*
X146177000Y-85297000D01*
X146177000Y-86396250D01*
X146335750Y-86555000D01*
X146700000Y-86558072D01*
X146824482Y-86545812D01*
X146944180Y-86509502D01*
X147054494Y-86450537D01*
X147151185Y-86371185D01*
X147230537Y-86274494D01*
X147289502Y-86164180D01*
X147325812Y-86044482D01*
X147338072Y-85920000D01*
X147335000Y-85455750D01*
X147176250Y-85297000D01*
X146177000Y-85297000D01*
X145923000Y-85297000D01*
X145903000Y-85297000D01*
X145903000Y-85043000D01*
X145923000Y-85043000D01*
X145923000Y-85023000D01*
X146177000Y-85023000D01*
X146177000Y-85043000D01*
X147176250Y-85043000D01*
X147335000Y-84884250D01*
X147338072Y-84420000D01*
X147325812Y-84295518D01*
X147301936Y-84216810D01*
X149848959Y-84216810D01*
X149698167Y-84400551D01*
G37*
%TD.AperFunction*%
D25*
X135892949Y-78583419D02*
X135916412Y-78612008D01*
X135944998Y-78635468D01*
X135945000Y-78635470D01*
X135996459Y-78677701D01*
X136030507Y-78705644D01*
X136160678Y-78775222D01*
X136301922Y-78818068D01*
X136412004Y-78828910D01*
X136412013Y-78828910D01*
X136448809Y-78832534D01*
X136485605Y-78828910D01*
X138118571Y-78828910D01*
X139245701Y-79956041D01*
X139245701Y-80301928D01*
X139120000Y-80301928D01*
X139020000Y-80311777D01*
X138920000Y-80301928D01*
X138470000Y-80301928D01*
X138345518Y-80314188D01*
X138225820Y-80350498D01*
X138115506Y-80409463D01*
X138018815Y-80488815D01*
X137939463Y-80585506D01*
X137880498Y-80695820D01*
X137844188Y-80815518D01*
X137831928Y-80940000D01*
X137831928Y-82440000D01*
X137844188Y-82564482D01*
X137880498Y-82684180D01*
X137939463Y-82794494D01*
X138018815Y-82891185D01*
X138115506Y-82970537D01*
X138225820Y-83029502D01*
X138345518Y-83065812D01*
X138470000Y-83078072D01*
X138920000Y-83078072D01*
X139020000Y-83068223D01*
X139120000Y-83078072D01*
X139570000Y-83078072D01*
X139670000Y-83068223D01*
X139770000Y-83078072D01*
X139788201Y-83078072D01*
X139788202Y-83826928D01*
X139605000Y-83826928D01*
X139480518Y-83839188D01*
X139360820Y-83875498D01*
X139250506Y-83934463D01*
X139153815Y-84013815D01*
X139074463Y-84110506D01*
X139015498Y-84220820D01*
X138979188Y-84340518D01*
X138966928Y-84465000D01*
X138966928Y-85364521D01*
X138900387Y-85431062D01*
X138905672Y-85377400D01*
X138902600Y-84913150D01*
X138743850Y-84754400D01*
X137769600Y-84754400D01*
X137769600Y-84774400D01*
X137515600Y-84774400D01*
X137515600Y-84754400D01*
X137495600Y-84754400D01*
X137495600Y-84500400D01*
X137515600Y-84500400D01*
X137515600Y-83401150D01*
X137769600Y-83401150D01*
X137769600Y-84500400D01*
X138743850Y-84500400D01*
X138902600Y-84341650D01*
X138905672Y-83877400D01*
X138893412Y-83752918D01*
X138857102Y-83633220D01*
X138798137Y-83522906D01*
X138718785Y-83426215D01*
X138622094Y-83346863D01*
X138511780Y-83287898D01*
X138392082Y-83251588D01*
X138267600Y-83239328D01*
X137928350Y-83242400D01*
X137769600Y-83401150D01*
X137515600Y-83401150D01*
X137356850Y-83242400D01*
X137017600Y-83239328D01*
X136893118Y-83251588D01*
X136773420Y-83287898D01*
X136663106Y-83346863D01*
X136566415Y-83426215D01*
X136487063Y-83522906D01*
X136428098Y-83633220D01*
X136391788Y-83752918D01*
X136379528Y-83877400D01*
X136379578Y-83884908D01*
X129073699Y-76579030D01*
X129120000Y-76346260D01*
X129120000Y-76053740D01*
X129062932Y-75766842D01*
X128950990Y-75496589D01*
X128788475Y-75253368D01*
X128581632Y-75046525D01*
X128407240Y-74930000D01*
X128581632Y-74813475D01*
X128788475Y-74606632D01*
X128920328Y-74409300D01*
X131718831Y-74409300D01*
X135892949Y-78583419D01*
%TA.AperFunction,Conductor*%
D26*
G36*
X135892949Y-78583419D02*
G01*
X135916412Y-78612008D01*
X135944998Y-78635468D01*
X135945000Y-78635470D01*
X135996459Y-78677701D01*
X136030507Y-78705644D01*
X136160678Y-78775222D01*
X136301922Y-78818068D01*
X136412004Y-78828910D01*
X136412013Y-78828910D01*
X136448809Y-78832534D01*
X136485605Y-78828910D01*
X138118571Y-78828910D01*
X139245701Y-79956041D01*
X139245701Y-80301928D01*
X139120000Y-80301928D01*
X139020000Y-80311777D01*
X138920000Y-80301928D01*
X138470000Y-80301928D01*
X138345518Y-80314188D01*
X138225820Y-80350498D01*
X138115506Y-80409463D01*
X138018815Y-80488815D01*
X137939463Y-80585506D01*
X137880498Y-80695820D01*
X137844188Y-80815518D01*
X137831928Y-80940000D01*
X137831928Y-82440000D01*
X137844188Y-82564482D01*
X137880498Y-82684180D01*
X137939463Y-82794494D01*
X138018815Y-82891185D01*
X138115506Y-82970537D01*
X138225820Y-83029502D01*
X138345518Y-83065812D01*
X138470000Y-83078072D01*
X138920000Y-83078072D01*
X139020000Y-83068223D01*
X139120000Y-83078072D01*
X139570000Y-83078072D01*
X139670000Y-83068223D01*
X139770000Y-83078072D01*
X139788201Y-83078072D01*
X139788202Y-83826928D01*
X139605000Y-83826928D01*
X139480518Y-83839188D01*
X139360820Y-83875498D01*
X139250506Y-83934463D01*
X139153815Y-84013815D01*
X139074463Y-84110506D01*
X139015498Y-84220820D01*
X138979188Y-84340518D01*
X138966928Y-84465000D01*
X138966928Y-85364521D01*
X138900387Y-85431062D01*
X138905672Y-85377400D01*
X138902600Y-84913150D01*
X138743850Y-84754400D01*
X137769600Y-84754400D01*
X137769600Y-84774400D01*
X137515600Y-84774400D01*
X137515600Y-84754400D01*
X137495600Y-84754400D01*
X137495600Y-84500400D01*
X137515600Y-84500400D01*
X137515600Y-83401150D01*
X137769600Y-83401150D01*
X137769600Y-84500400D01*
X138743850Y-84500400D01*
X138902600Y-84341650D01*
X138905672Y-83877400D01*
X138893412Y-83752918D01*
X138857102Y-83633220D01*
X138798137Y-83522906D01*
X138718785Y-83426215D01*
X138622094Y-83346863D01*
X138511780Y-83287898D01*
X138392082Y-83251588D01*
X138267600Y-83239328D01*
X137928350Y-83242400D01*
X137769600Y-83401150D01*
X137515600Y-83401150D01*
X137356850Y-83242400D01*
X137017600Y-83239328D01*
X136893118Y-83251588D01*
X136773420Y-83287898D01*
X136663106Y-83346863D01*
X136566415Y-83426215D01*
X136487063Y-83522906D01*
X136428098Y-83633220D01*
X136391788Y-83752918D01*
X136379528Y-83877400D01*
X136379578Y-83884908D01*
X129073699Y-76579030D01*
X129120000Y-76346260D01*
X129120000Y-76053740D01*
X129062932Y-75766842D01*
X128950990Y-75496589D01*
X128788475Y-75253368D01*
X128581632Y-75046525D01*
X128407240Y-74930000D01*
X128581632Y-74813475D01*
X128788475Y-74606632D01*
X128920328Y-74409300D01*
X131718831Y-74409300D01*
X135892949Y-78583419D01*
G37*
%TD.AperFunction*%
D25*
X141318966Y-83086903D02*
X141389140Y-83172409D01*
X141412603Y-83200998D01*
X141441189Y-83224458D01*
X141478038Y-83261307D01*
X141501503Y-83289899D01*
X141615598Y-83383535D01*
X141745769Y-83453113D01*
X141887013Y-83495959D01*
X141997095Y-83506801D01*
X141997106Y-83506801D01*
X142033901Y-83510425D01*
X142070696Y-83506801D01*
X143807288Y-83506801D01*
X143772863Y-83541226D01*
X143659595Y-83710744D01*
X143611216Y-83827540D01*
X143605000Y-83826928D01*
X143140750Y-83830000D01*
X142982000Y-83988750D01*
X142982000Y-84963000D01*
X143002000Y-84963000D01*
X143002000Y-85217000D01*
X142982000Y-85217000D01*
X142982000Y-85237000D01*
X142728000Y-85237000D01*
X142728000Y-85217000D01*
X142708000Y-85217000D01*
X142708000Y-84963000D01*
X142728000Y-84963000D01*
X142728000Y-83988750D01*
X142569250Y-83830000D01*
X142105000Y-83826928D01*
X141980518Y-83839188D01*
X141860820Y-83875498D01*
X141750506Y-83934463D01*
X141653815Y-84013815D01*
X141605000Y-84073296D01*
X141556185Y-84013815D01*
X141459494Y-83934463D01*
X141349180Y-83875498D01*
X141286801Y-83856576D01*
X141286801Y-83078072D01*
X141314246Y-83078072D01*
X141318966Y-83086903D01*
%TA.AperFunction,Conductor*%
D26*
G36*
X141318966Y-83086903D02*
G01*
X141389140Y-83172409D01*
X141412603Y-83200998D01*
X141441189Y-83224458D01*
X141478038Y-83261307D01*
X141501503Y-83289899D01*
X141615598Y-83383535D01*
X141745769Y-83453113D01*
X141887013Y-83495959D01*
X141997095Y-83506801D01*
X141997106Y-83506801D01*
X142033901Y-83510425D01*
X142070696Y-83506801D01*
X143807288Y-83506801D01*
X143772863Y-83541226D01*
X143659595Y-83710744D01*
X143611216Y-83827540D01*
X143605000Y-83826928D01*
X143140750Y-83830000D01*
X142982000Y-83988750D01*
X142982000Y-84963000D01*
X143002000Y-84963000D01*
X143002000Y-85217000D01*
X142982000Y-85217000D01*
X142982000Y-85237000D01*
X142728000Y-85237000D01*
X142728000Y-85217000D01*
X142708000Y-85217000D01*
X142708000Y-84963000D01*
X142728000Y-84963000D01*
X142728000Y-83988750D01*
X142569250Y-83830000D01*
X142105000Y-83826928D01*
X141980518Y-83839188D01*
X141860820Y-83875498D01*
X141750506Y-83934463D01*
X141653815Y-84013815D01*
X141605000Y-84073296D01*
X141556185Y-84013815D01*
X141459494Y-83934463D01*
X141349180Y-83875498D01*
X141286801Y-83856576D01*
X141286801Y-83078072D01*
X141314246Y-83078072D01*
X141318966Y-83086903D01*
G37*
%TD.AperFunction*%
D25*
X149583489Y-74455099D02*
X149512870Y-74687898D01*
X149489025Y-74930000D01*
X149512870Y-75172102D01*
X149583489Y-75404901D01*
X149698167Y-75619449D01*
X149852498Y-75807502D01*
X150040551Y-75961833D01*
X150255099Y-76076511D01*
X150487898Y-76147130D01*
X150669335Y-76165000D01*
X151590665Y-76165000D01*
X151772102Y-76147130D01*
X152004901Y-76076511D01*
X152219449Y-75961833D01*
X152407502Y-75807502D01*
X152561833Y-75619449D01*
X152676511Y-75404901D01*
X152747130Y-75172102D01*
X152770975Y-74930000D01*
X152747130Y-74687898D01*
X152676511Y-74455099D01*
X152672396Y-74447400D01*
X155380700Y-74447400D01*
X155380700Y-74911928D01*
X155380000Y-74911928D01*
X155255518Y-74924188D01*
X155135820Y-74960498D01*
X155025506Y-75019463D01*
X154928815Y-75098815D01*
X154849463Y-75195506D01*
X154790498Y-75305820D01*
X154754188Y-75425518D01*
X154741928Y-75550000D01*
X154741928Y-76850000D01*
X154754188Y-76974482D01*
X154790498Y-77094180D01*
X154849463Y-77204494D01*
X154928815Y-77301185D01*
X155025506Y-77380537D01*
X155135820Y-77439502D01*
X155236358Y-77470000D01*
X155135820Y-77500498D01*
X155025506Y-77559463D01*
X154928815Y-77638815D01*
X154849463Y-77735506D01*
X154790498Y-77845820D01*
X154754188Y-77965518D01*
X154741928Y-78090000D01*
X154741928Y-79390000D01*
X154754188Y-79514482D01*
X154790498Y-79634180D01*
X154849463Y-79744494D01*
X154928815Y-79841185D01*
X155025506Y-79920537D01*
X155135820Y-79979502D01*
X155236358Y-80010000D01*
X155135820Y-80040498D01*
X155025506Y-80099463D01*
X154928815Y-80178815D01*
X154849463Y-80275506D01*
X154790498Y-80385820D01*
X154754188Y-80505518D01*
X154741928Y-80630000D01*
X154741928Y-80919529D01*
X154657876Y-80894032D01*
X154547794Y-80883190D01*
X154547783Y-80883190D01*
X154510988Y-80879566D01*
X154474193Y-80883190D01*
X152411041Y-80883190D01*
X152561833Y-80699449D01*
X152676511Y-80484901D01*
X152747130Y-80252102D01*
X152770975Y-80010000D01*
X152747130Y-79767898D01*
X152676511Y-79535099D01*
X152561833Y-79320551D01*
X152407502Y-79132498D01*
X152219449Y-78978167D01*
X152004901Y-78863489D01*
X151772102Y-78792870D01*
X151590665Y-78775000D01*
X150669335Y-78775000D01*
X150487898Y-78792870D01*
X150255099Y-78863489D01*
X150040551Y-78978167D01*
X149852498Y-79132498D01*
X149698167Y-79320551D01*
X149583489Y-79535099D01*
X149512870Y-79767898D01*
X149502499Y-79873199D01*
X142802794Y-79873199D01*
X142765998Y-79869575D01*
X142729202Y-79873199D01*
X142729193Y-79873199D01*
X142619111Y-79884041D01*
X142477867Y-79926887D01*
X142347696Y-79996465D01*
X142233601Y-80090101D01*
X142210136Y-80118693D01*
X142091189Y-80237640D01*
X142062603Y-80261100D01*
X142044300Y-80283402D01*
X142044300Y-80244796D01*
X142047924Y-80208000D01*
X142044300Y-80171204D01*
X142044300Y-80171194D01*
X142033458Y-80061112D01*
X141990612Y-79919868D01*
X141921034Y-79789697D01*
X141883937Y-79744494D01*
X141850861Y-79704190D01*
X141850854Y-79704183D01*
X141827398Y-79675602D01*
X141798817Y-79652146D01*
X141327862Y-79181193D01*
X141304398Y-79152602D01*
X141190303Y-79058966D01*
X141060132Y-78989388D01*
X140986819Y-78967149D01*
X140744300Y-78724630D01*
X140744300Y-77470000D01*
X149489025Y-77470000D01*
X149512870Y-77712102D01*
X149583489Y-77944901D01*
X149698167Y-78159449D01*
X149852498Y-78347502D01*
X150040551Y-78501833D01*
X150255099Y-78616511D01*
X150487898Y-78687130D01*
X150669335Y-78705000D01*
X151590665Y-78705000D01*
X151772102Y-78687130D01*
X152004901Y-78616511D01*
X152219449Y-78501833D01*
X152407502Y-78347502D01*
X152561833Y-78159449D01*
X152676511Y-77944901D01*
X152747130Y-77712102D01*
X152770975Y-77470000D01*
X152747130Y-77227898D01*
X152676511Y-76995099D01*
X152561833Y-76780551D01*
X152407502Y-76592498D01*
X152219449Y-76438167D01*
X152004901Y-76323489D01*
X151772102Y-76252870D01*
X151590665Y-76235000D01*
X150669335Y-76235000D01*
X150487898Y-76252870D01*
X150255099Y-76323489D01*
X150040551Y-76438167D01*
X149852498Y-76592498D01*
X149698167Y-76780551D01*
X149583489Y-76995099D01*
X149512870Y-77227898D01*
X149489025Y-77470000D01*
X140744300Y-77470000D01*
X140744300Y-77178072D01*
X140870000Y-77178072D01*
X140973157Y-77167912D01*
X141038250Y-77175000D01*
X141070497Y-77142753D01*
X141114180Y-77129502D01*
X141224494Y-77070537D01*
X141295280Y-77012445D01*
X141357657Y-77065208D01*
X141467082Y-77125806D01*
X141519223Y-77142473D01*
X141551750Y-77175000D01*
X141620000Y-77167568D01*
X141688250Y-77175000D01*
X141720777Y-77142473D01*
X141772918Y-77125806D01*
X141882343Y-77065208D01*
X141945000Y-77012208D01*
X142007657Y-77065208D01*
X142117082Y-77125806D01*
X142169223Y-77142473D01*
X142201750Y-77175000D01*
X142270000Y-77167568D01*
X142338250Y-77175000D01*
X142370777Y-77142473D01*
X142422918Y-77125806D01*
X142532343Y-77065208D01*
X142595000Y-77012208D01*
X142657657Y-77065208D01*
X142767082Y-77125806D01*
X142819223Y-77142473D01*
X142851750Y-77175000D01*
X142920000Y-77167568D01*
X142988250Y-77175000D01*
X143020777Y-77142473D01*
X143072918Y-77125806D01*
X143182343Y-77065208D01*
X143277844Y-76984426D01*
X143343000Y-76902582D01*
X143343000Y-77016250D01*
X143501750Y-77175000D01*
X143603773Y-77163891D01*
X143722918Y-77125806D01*
X143832343Y-77065208D01*
X143927844Y-76984426D01*
X144005750Y-76886566D01*
X144063067Y-76775387D01*
X144097593Y-76655162D01*
X144108001Y-76530512D01*
X144105000Y-76075750D01*
X143946250Y-75917000D01*
X143343000Y-75917000D01*
X143343000Y-75963750D01*
X143296250Y-75917000D01*
X141798000Y-75917000D01*
X141798000Y-75663000D01*
X143296250Y-75663000D01*
X143316250Y-75643000D01*
X143343000Y-75643000D01*
X143343000Y-75663000D01*
X143946250Y-75663000D01*
X144105000Y-75504250D01*
X144108001Y-75049488D01*
X144097593Y-74924838D01*
X144063067Y-74804613D01*
X144005750Y-74693434D01*
X143927844Y-74595574D01*
X143832343Y-74514792D01*
X143722918Y-74454194D01*
X143701664Y-74447400D01*
X149587604Y-74447400D01*
X149583489Y-74455099D01*
%TA.AperFunction,Conductor*%
D26*
G36*
X149583489Y-74455099D02*
G01*
X149512870Y-74687898D01*
X149489025Y-74930000D01*
X149512870Y-75172102D01*
X149583489Y-75404901D01*
X149698167Y-75619449D01*
X149852498Y-75807502D01*
X150040551Y-75961833D01*
X150255099Y-76076511D01*
X150487898Y-76147130D01*
X150669335Y-76165000D01*
X151590665Y-76165000D01*
X151772102Y-76147130D01*
X152004901Y-76076511D01*
X152219449Y-75961833D01*
X152407502Y-75807502D01*
X152561833Y-75619449D01*
X152676511Y-75404901D01*
X152747130Y-75172102D01*
X152770975Y-74930000D01*
X152747130Y-74687898D01*
X152676511Y-74455099D01*
X152672396Y-74447400D01*
X155380700Y-74447400D01*
X155380700Y-74911928D01*
X155380000Y-74911928D01*
X155255518Y-74924188D01*
X155135820Y-74960498D01*
X155025506Y-75019463D01*
X154928815Y-75098815D01*
X154849463Y-75195506D01*
X154790498Y-75305820D01*
X154754188Y-75425518D01*
X154741928Y-75550000D01*
X154741928Y-76850000D01*
X154754188Y-76974482D01*
X154790498Y-77094180D01*
X154849463Y-77204494D01*
X154928815Y-77301185D01*
X155025506Y-77380537D01*
X155135820Y-77439502D01*
X155236358Y-77470000D01*
X155135820Y-77500498D01*
X155025506Y-77559463D01*
X154928815Y-77638815D01*
X154849463Y-77735506D01*
X154790498Y-77845820D01*
X154754188Y-77965518D01*
X154741928Y-78090000D01*
X154741928Y-79390000D01*
X154754188Y-79514482D01*
X154790498Y-79634180D01*
X154849463Y-79744494D01*
X154928815Y-79841185D01*
X155025506Y-79920537D01*
X155135820Y-79979502D01*
X155236358Y-80010000D01*
X155135820Y-80040498D01*
X155025506Y-80099463D01*
X154928815Y-80178815D01*
X154849463Y-80275506D01*
X154790498Y-80385820D01*
X154754188Y-80505518D01*
X154741928Y-80630000D01*
X154741928Y-80919529D01*
X154657876Y-80894032D01*
X154547794Y-80883190D01*
X154547783Y-80883190D01*
X154510988Y-80879566D01*
X154474193Y-80883190D01*
X152411041Y-80883190D01*
X152561833Y-80699449D01*
X152676511Y-80484901D01*
X152747130Y-80252102D01*
X152770975Y-80010000D01*
X152747130Y-79767898D01*
X152676511Y-79535099D01*
X152561833Y-79320551D01*
X152407502Y-79132498D01*
X152219449Y-78978167D01*
X152004901Y-78863489D01*
X151772102Y-78792870D01*
X151590665Y-78775000D01*
X150669335Y-78775000D01*
X150487898Y-78792870D01*
X150255099Y-78863489D01*
X150040551Y-78978167D01*
X149852498Y-79132498D01*
X149698167Y-79320551D01*
X149583489Y-79535099D01*
X149512870Y-79767898D01*
X149502499Y-79873199D01*
X142802794Y-79873199D01*
X142765998Y-79869575D01*
X142729202Y-79873199D01*
X142729193Y-79873199D01*
X142619111Y-79884041D01*
X142477867Y-79926887D01*
X142347696Y-79996465D01*
X142233601Y-80090101D01*
X142210136Y-80118693D01*
X142091189Y-80237640D01*
X142062603Y-80261100D01*
X142044300Y-80283402D01*
X142044300Y-80244796D01*
X142047924Y-80208000D01*
X142044300Y-80171204D01*
X142044300Y-80171194D01*
X142033458Y-80061112D01*
X141990612Y-79919868D01*
X141921034Y-79789697D01*
X141883937Y-79744494D01*
X141850861Y-79704190D01*
X141850854Y-79704183D01*
X141827398Y-79675602D01*
X141798817Y-79652146D01*
X141327862Y-79181193D01*
X141304398Y-79152602D01*
X141190303Y-79058966D01*
X141060132Y-78989388D01*
X140986819Y-78967149D01*
X140744300Y-78724630D01*
X140744300Y-77470000D01*
X149489025Y-77470000D01*
X149512870Y-77712102D01*
X149583489Y-77944901D01*
X149698167Y-78159449D01*
X149852498Y-78347502D01*
X150040551Y-78501833D01*
X150255099Y-78616511D01*
X150487898Y-78687130D01*
X150669335Y-78705000D01*
X151590665Y-78705000D01*
X151772102Y-78687130D01*
X152004901Y-78616511D01*
X152219449Y-78501833D01*
X152407502Y-78347502D01*
X152561833Y-78159449D01*
X152676511Y-77944901D01*
X152747130Y-77712102D01*
X152770975Y-77470000D01*
X152747130Y-77227898D01*
X152676511Y-76995099D01*
X152561833Y-76780551D01*
X152407502Y-76592498D01*
X152219449Y-76438167D01*
X152004901Y-76323489D01*
X151772102Y-76252870D01*
X151590665Y-76235000D01*
X150669335Y-76235000D01*
X150487898Y-76252870D01*
X150255099Y-76323489D01*
X150040551Y-76438167D01*
X149852498Y-76592498D01*
X149698167Y-76780551D01*
X149583489Y-76995099D01*
X149512870Y-77227898D01*
X149489025Y-77470000D01*
X140744300Y-77470000D01*
X140744300Y-77178072D01*
X140870000Y-77178072D01*
X140973157Y-77167912D01*
X141038250Y-77175000D01*
X141070497Y-77142753D01*
X141114180Y-77129502D01*
X141224494Y-77070537D01*
X141295280Y-77012445D01*
X141357657Y-77065208D01*
X141467082Y-77125806D01*
X141519223Y-77142473D01*
X141551750Y-77175000D01*
X141620000Y-77167568D01*
X141688250Y-77175000D01*
X141720777Y-77142473D01*
X141772918Y-77125806D01*
X141882343Y-77065208D01*
X141945000Y-77012208D01*
X142007657Y-77065208D01*
X142117082Y-77125806D01*
X142169223Y-77142473D01*
X142201750Y-77175000D01*
X142270000Y-77167568D01*
X142338250Y-77175000D01*
X142370777Y-77142473D01*
X142422918Y-77125806D01*
X142532343Y-77065208D01*
X142595000Y-77012208D01*
X142657657Y-77065208D01*
X142767082Y-77125806D01*
X142819223Y-77142473D01*
X142851750Y-77175000D01*
X142920000Y-77167568D01*
X142988250Y-77175000D01*
X143020777Y-77142473D01*
X143072918Y-77125806D01*
X143182343Y-77065208D01*
X143277844Y-76984426D01*
X143343000Y-76902582D01*
X143343000Y-77016250D01*
X143501750Y-77175000D01*
X143603773Y-77163891D01*
X143722918Y-77125806D01*
X143832343Y-77065208D01*
X143927844Y-76984426D01*
X144005750Y-76886566D01*
X144063067Y-76775387D01*
X144097593Y-76655162D01*
X144108001Y-76530512D01*
X144105000Y-76075750D01*
X143946250Y-75917000D01*
X143343000Y-75917000D01*
X143343000Y-75963750D01*
X143296250Y-75917000D01*
X141798000Y-75917000D01*
X141798000Y-75663000D01*
X143296250Y-75663000D01*
X143316250Y-75643000D01*
X143343000Y-75643000D01*
X143343000Y-75663000D01*
X143946250Y-75663000D01*
X144105000Y-75504250D01*
X144108001Y-75049488D01*
X144097593Y-74924838D01*
X144063067Y-74804613D01*
X144005750Y-74693434D01*
X143927844Y-74595574D01*
X143832343Y-74514792D01*
X143722918Y-74454194D01*
X143701664Y-74447400D01*
X149587604Y-74447400D01*
X149583489Y-74455099D01*
G37*
%TD.AperFunction*%
%TD*%
M02*
