%TF.GenerationSoftware,KiCad,Pcbnew,(5.1.9)-1*%
%TF.CreationDate,2021-05-14T21:25:46-04:00*%
%TF.ProjectId,AtariWiiWifi,41746172-6957-4696-9957-6966692e6b69,rev?*%
%TF.SameCoordinates,Original*%
%TF.FileFunction,Legend,Top*%
%TF.FilePolarity,Positive*%
%FSLAX46Y46*%
G04 Gerber Fmt 4.6, Leading zero omitted, Abs format (unit mm)*
G04 Created by KiCad (PCBNEW (5.1.9)-1) date 2021-05-14 21:25:46*
%MOMM*%
%LPD*%
G01*
G04 APERTURE LIST*
%ADD10C,0.177800*%
%ADD11C,0.120000*%
%ADD12C,0.150000*%
G04 APERTURE END LIST*
D10*
X165133866Y-103142142D02*
X165133866Y-102537380D01*
X165496723Y-103263095D02*
X164226723Y-102839761D01*
X165496723Y-102416428D01*
X164650057Y-102174523D02*
X164650057Y-101690714D01*
X164226723Y-101993095D02*
X165315295Y-101993095D01*
X165436247Y-101932619D01*
X165496723Y-101811666D01*
X165496723Y-101690714D01*
X165496723Y-100723095D02*
X164831485Y-100723095D01*
X164710533Y-100783571D01*
X164650057Y-100904523D01*
X164650057Y-101146428D01*
X164710533Y-101267380D01*
X165436247Y-100723095D02*
X165496723Y-100844047D01*
X165496723Y-101146428D01*
X165436247Y-101267380D01*
X165315295Y-101327857D01*
X165194342Y-101327857D01*
X165073390Y-101267380D01*
X165012914Y-101146428D01*
X165012914Y-100844047D01*
X164952438Y-100723095D01*
X165496723Y-100118333D02*
X164650057Y-100118333D01*
X164891961Y-100118333D02*
X164771009Y-100057857D01*
X164710533Y-99997380D01*
X164650057Y-99876428D01*
X164650057Y-99755476D01*
X165496723Y-99332142D02*
X164650057Y-99332142D01*
X164226723Y-99332142D02*
X164287200Y-99392619D01*
X164347676Y-99332142D01*
X164287200Y-99271666D01*
X164226723Y-99332142D01*
X164347676Y-99332142D01*
X164831485Y-97759761D02*
X164831485Y-97336428D01*
X165496723Y-97155000D02*
X165496723Y-97759761D01*
X164226723Y-97759761D01*
X164226723Y-97155000D01*
X165436247Y-96671190D02*
X165496723Y-96489761D01*
X165496723Y-96187380D01*
X165436247Y-96066428D01*
X165375771Y-96005952D01*
X165254819Y-95945476D01*
X165133866Y-95945476D01*
X165012914Y-96005952D01*
X164952438Y-96066428D01*
X164891961Y-96187380D01*
X164831485Y-96429285D01*
X164771009Y-96550238D01*
X164710533Y-96610714D01*
X164589580Y-96671190D01*
X164468628Y-96671190D01*
X164347676Y-96610714D01*
X164287200Y-96550238D01*
X164226723Y-96429285D01*
X164226723Y-96126904D01*
X164287200Y-95945476D01*
X165496723Y-95401190D02*
X164226723Y-95401190D01*
X164226723Y-94917380D01*
X164287200Y-94796428D01*
X164347676Y-94735952D01*
X164468628Y-94675476D01*
X164650057Y-94675476D01*
X164771009Y-94735952D01*
X164831485Y-94796428D01*
X164891961Y-94917380D01*
X164891961Y-95401190D01*
X164226723Y-94252142D02*
X164226723Y-93465952D01*
X164710533Y-93889285D01*
X164710533Y-93707857D01*
X164771009Y-93586904D01*
X164831485Y-93526428D01*
X164952438Y-93465952D01*
X165254819Y-93465952D01*
X165375771Y-93526428D01*
X165436247Y-93586904D01*
X165496723Y-93707857D01*
X165496723Y-94070714D01*
X165436247Y-94191666D01*
X165375771Y-94252142D01*
X164347676Y-92982142D02*
X164287200Y-92921666D01*
X164226723Y-92800714D01*
X164226723Y-92498333D01*
X164287200Y-92377380D01*
X164347676Y-92316904D01*
X164468628Y-92256428D01*
X164589580Y-92256428D01*
X164771009Y-92316904D01*
X165496723Y-93042619D01*
X165496723Y-92256428D01*
X164226723Y-90865476D02*
X165496723Y-90563095D01*
X164589580Y-90321190D01*
X165496723Y-90079285D01*
X164226723Y-89776904D01*
X165496723Y-89293095D02*
X164650057Y-89293095D01*
X164226723Y-89293095D02*
X164287200Y-89353571D01*
X164347676Y-89293095D01*
X164287200Y-89232619D01*
X164226723Y-89293095D01*
X164347676Y-89293095D01*
X165496723Y-88688333D02*
X164650057Y-88688333D01*
X164891961Y-88688333D02*
X164771009Y-88627857D01*
X164710533Y-88567380D01*
X164650057Y-88446428D01*
X164650057Y-88325476D01*
X165436247Y-87418333D02*
X165496723Y-87539285D01*
X165496723Y-87781190D01*
X165436247Y-87902142D01*
X165315295Y-87962619D01*
X164831485Y-87962619D01*
X164710533Y-87902142D01*
X164650057Y-87781190D01*
X164650057Y-87539285D01*
X164710533Y-87418333D01*
X164831485Y-87357857D01*
X164952438Y-87357857D01*
X165073390Y-87962619D01*
X165496723Y-86632142D02*
X165436247Y-86753095D01*
X165315295Y-86813571D01*
X164226723Y-86813571D01*
X165436247Y-85664523D02*
X165496723Y-85785476D01*
X165496723Y-86027380D01*
X165436247Y-86148333D01*
X165315295Y-86208809D01*
X164831485Y-86208809D01*
X164710533Y-86148333D01*
X164650057Y-86027380D01*
X164650057Y-85785476D01*
X164710533Y-85664523D01*
X164831485Y-85604047D01*
X164952438Y-85604047D01*
X165073390Y-86208809D01*
X165436247Y-85120238D02*
X165496723Y-84999285D01*
X165496723Y-84757380D01*
X165436247Y-84636428D01*
X165315295Y-84575952D01*
X165254819Y-84575952D01*
X165133866Y-84636428D01*
X165073390Y-84757380D01*
X165073390Y-84938809D01*
X165012914Y-85059761D01*
X164891961Y-85120238D01*
X164831485Y-85120238D01*
X164710533Y-85059761D01*
X164650057Y-84938809D01*
X164650057Y-84757380D01*
X164710533Y-84636428D01*
X165436247Y-84092142D02*
X165496723Y-83971190D01*
X165496723Y-83729285D01*
X165436247Y-83608333D01*
X165315295Y-83547857D01*
X165254819Y-83547857D01*
X165133866Y-83608333D01*
X165073390Y-83729285D01*
X165073390Y-83910714D01*
X165012914Y-84031666D01*
X164891961Y-84092142D01*
X164831485Y-84092142D01*
X164710533Y-84031666D01*
X164650057Y-83910714D01*
X164650057Y-83729285D01*
X164710533Y-83608333D01*
X167579523Y-95068571D02*
X166974761Y-95491904D01*
X167579523Y-95794285D02*
X166309523Y-95794285D01*
X166309523Y-95310476D01*
X166370000Y-95189523D01*
X166430476Y-95129047D01*
X166551428Y-95068571D01*
X166732857Y-95068571D01*
X166853809Y-95129047D01*
X166914285Y-95189523D01*
X166974761Y-95310476D01*
X166974761Y-95794285D01*
X167519047Y-94040476D02*
X167579523Y-94161428D01*
X167579523Y-94403333D01*
X167519047Y-94524285D01*
X167398095Y-94584761D01*
X166914285Y-94584761D01*
X166793333Y-94524285D01*
X166732857Y-94403333D01*
X166732857Y-94161428D01*
X166793333Y-94040476D01*
X166914285Y-93980000D01*
X167035238Y-93980000D01*
X167156190Y-94584761D01*
X166732857Y-93556666D02*
X167579523Y-93254285D01*
X166732857Y-92951904D01*
X167579523Y-90835238D02*
X167579523Y-91560952D01*
X167579523Y-91198095D02*
X166309523Y-91198095D01*
X166490952Y-91319047D01*
X166611904Y-91440000D01*
X166672380Y-91560952D01*
X169662323Y-99664761D02*
X168815657Y-99664761D01*
X168936609Y-99664761D02*
X168876133Y-99604285D01*
X168815657Y-99483333D01*
X168815657Y-99301904D01*
X168876133Y-99180952D01*
X168997085Y-99120476D01*
X169662323Y-99120476D01*
X168997085Y-99120476D02*
X168876133Y-99060000D01*
X168815657Y-98939047D01*
X168815657Y-98757619D01*
X168876133Y-98636666D01*
X168997085Y-98576190D01*
X169662323Y-98576190D01*
X168815657Y-97427142D02*
X169662323Y-97427142D01*
X168815657Y-97971428D02*
X169480895Y-97971428D01*
X169601847Y-97910952D01*
X169662323Y-97790000D01*
X169662323Y-97608571D01*
X169601847Y-97487619D01*
X169541371Y-97427142D01*
X169662323Y-96640952D02*
X169601847Y-96761904D01*
X169480895Y-96822380D01*
X168392323Y-96822380D01*
X169601847Y-95612857D02*
X169662323Y-95733809D01*
X169662323Y-95975714D01*
X169601847Y-96096666D01*
X169541371Y-96157142D01*
X169420419Y-96217619D01*
X169057561Y-96217619D01*
X168936609Y-96157142D01*
X168876133Y-96096666D01*
X168815657Y-95975714D01*
X168815657Y-95733809D01*
X168876133Y-95612857D01*
X169662323Y-95068571D02*
X168815657Y-95068571D01*
X168936609Y-95068571D02*
X168876133Y-95008095D01*
X168815657Y-94887142D01*
X168815657Y-94705714D01*
X168876133Y-94584761D01*
X168997085Y-94524285D01*
X169662323Y-94524285D01*
X168997085Y-94524285D02*
X168876133Y-94463809D01*
X168815657Y-94342857D01*
X168815657Y-94161428D01*
X168876133Y-94040476D01*
X168997085Y-93980000D01*
X169662323Y-93980000D01*
X168815657Y-92830952D02*
X169662323Y-92830952D01*
X168815657Y-93375238D02*
X169480895Y-93375238D01*
X169601847Y-93314761D01*
X169662323Y-93193809D01*
X169662323Y-93012380D01*
X169601847Y-92891428D01*
X169541371Y-92830952D01*
X168513276Y-91319047D02*
X168452800Y-91258571D01*
X168392323Y-91137619D01*
X168392323Y-90835238D01*
X168452800Y-90714285D01*
X168513276Y-90653809D01*
X168634228Y-90593333D01*
X168755180Y-90593333D01*
X168936609Y-90653809D01*
X169662323Y-91379523D01*
X169662323Y-90593333D01*
X168392323Y-89807142D02*
X168392323Y-89686190D01*
X168452800Y-89565238D01*
X168513276Y-89504761D01*
X168634228Y-89444285D01*
X168876133Y-89383809D01*
X169178514Y-89383809D01*
X169420419Y-89444285D01*
X169541371Y-89504761D01*
X169601847Y-89565238D01*
X169662323Y-89686190D01*
X169662323Y-89807142D01*
X169601847Y-89928095D01*
X169541371Y-89988571D01*
X169420419Y-90049047D01*
X169178514Y-90109523D01*
X168876133Y-90109523D01*
X168634228Y-90049047D01*
X168513276Y-89988571D01*
X168452800Y-89928095D01*
X168392323Y-89807142D01*
X168513276Y-88900000D02*
X168452800Y-88839523D01*
X168392323Y-88718571D01*
X168392323Y-88416190D01*
X168452800Y-88295238D01*
X168513276Y-88234761D01*
X168634228Y-88174285D01*
X168755180Y-88174285D01*
X168936609Y-88234761D01*
X169662323Y-88960476D01*
X169662323Y-88174285D01*
X169662323Y-86964761D02*
X169662323Y-87690476D01*
X169662323Y-87327619D02*
X168392323Y-87327619D01*
X168573752Y-87448571D01*
X168694704Y-87569523D01*
X168755180Y-87690476D01*
D11*
%TO.C,C1*%
X135040000Y-87765000D02*
X135040000Y-88765000D01*
X136740000Y-88765000D02*
X136740000Y-87765000D01*
%TO.C,J1A1*%
X130870000Y-99000000D02*
X128210000Y-99000000D01*
X130870000Y-119380000D02*
X130870000Y-99000000D01*
X128210000Y-119380000D02*
X128210000Y-99000000D01*
X130870000Y-119380000D02*
X128210000Y-119380000D01*
X130870000Y-120650000D02*
X130870000Y-121980000D01*
X130870000Y-121980000D02*
X129540000Y-121980000D01*
%TO.C,J2A1*%
X130870000Y-94040000D02*
X129540000Y-94040000D01*
X130870000Y-92710000D02*
X130870000Y-94040000D01*
X130870000Y-91440000D02*
X128210000Y-91440000D01*
X128210000Y-91440000D02*
X128210000Y-71060000D01*
X130870000Y-91440000D02*
X130870000Y-71060000D01*
X130870000Y-71060000D02*
X128210000Y-71060000D01*
%TO.C,R1*%
X140220000Y-101845000D02*
X139020000Y-101845000D01*
X139020000Y-100085000D02*
X140220000Y-100085000D01*
%TO.C,R2*%
X159140000Y-102280000D02*
X159140000Y-101080000D01*
X160900000Y-101080000D02*
X160900000Y-102280000D01*
%TO.C,R3*%
X160900000Y-112430000D02*
X160900000Y-113630000D01*
X159140000Y-113630000D02*
X159140000Y-112430000D01*
%TO.C,R4*%
X160900000Y-106160000D02*
X160900000Y-107360000D01*
X159140000Y-107360000D02*
X159140000Y-106160000D01*
D12*
%TO.C,U1*%
X137580000Y-90385000D02*
X137605000Y-90385000D01*
X145630000Y-90385000D02*
X145605000Y-90385000D01*
X145630000Y-95035000D02*
X145605000Y-95035000D01*
X137530000Y-96110000D02*
X137530000Y-90385000D01*
X145630000Y-95035000D02*
X145630000Y-90385000D01*
%TO.C,U2*%
X138055000Y-73105000D02*
X144030000Y-73105000D01*
X139630000Y-78630000D02*
X144030000Y-78630000D01*
%TO.C,U3*%
X140040000Y-117025000D02*
X144440000Y-117025000D01*
X138465000Y-111500000D02*
X144440000Y-111500000D01*
%TO.C,U4*%
X167640000Y-118110000D02*
X175260000Y-118110000D01*
D11*
X166869999Y-116670000D02*
X175489999Y-116670000D01*
X166869999Y-116310000D02*
X166869999Y-116670000D01*
X158250000Y-116310000D02*
X166869999Y-116310000D01*
X158250000Y-116670000D02*
X158250000Y-116310000D01*
X149630000Y-116670000D02*
X158250000Y-116670000D01*
X149630001Y-68750000D02*
X149630000Y-116670000D01*
X175490000Y-68750000D02*
X149630001Y-68750000D01*
X175489999Y-116670000D02*
X175490000Y-68750000D01*
%TO.C,C2*%
X141740000Y-120865000D02*
X142740000Y-120865000D01*
X142740000Y-119165000D02*
X141740000Y-119165000D01*
%TO.C,C3*%
X140200000Y-97575000D02*
X139200000Y-97575000D01*
X139200000Y-99275000D02*
X140200000Y-99275000D01*
%TO.C,C4*%
X143010000Y-82130000D02*
X144010000Y-82130000D01*
X144010000Y-80430000D02*
X143010000Y-80430000D01*
%TO.C,C1*%
D12*
X134497142Y-88431666D02*
X134544761Y-88479285D01*
X134592380Y-88622142D01*
X134592380Y-88717380D01*
X134544761Y-88860238D01*
X134449523Y-88955476D01*
X134354285Y-89003095D01*
X134163809Y-89050714D01*
X134020952Y-89050714D01*
X133830476Y-89003095D01*
X133735238Y-88955476D01*
X133640000Y-88860238D01*
X133592380Y-88717380D01*
X133592380Y-88622142D01*
X133640000Y-88479285D01*
X133687619Y-88431666D01*
X134592380Y-87479285D02*
X134592380Y-88050714D01*
X134592380Y-87765000D02*
X133592380Y-87765000D01*
X133735238Y-87860238D01*
X133830476Y-87955476D01*
X133878095Y-88050714D01*
%TO.C,J1A1*%
X128301904Y-122432380D02*
X128301904Y-123146666D01*
X128254285Y-123289523D01*
X128159047Y-123384761D01*
X128016190Y-123432380D01*
X127920952Y-123432380D01*
X129301904Y-123432380D02*
X128730476Y-123432380D01*
X129016190Y-123432380D02*
X129016190Y-122432380D01*
X128920952Y-122575238D01*
X128825714Y-122670476D01*
X128730476Y-122718095D01*
X129682857Y-123146666D02*
X130159047Y-123146666D01*
X129587619Y-123432380D02*
X129920952Y-122432380D01*
X130254285Y-123432380D01*
X131111428Y-123432380D02*
X130540000Y-123432380D01*
X130825714Y-123432380D02*
X130825714Y-122432380D01*
X130730476Y-122575238D01*
X130635238Y-122670476D01*
X130540000Y-122718095D01*
%TO.C,J2A1*%
X128301904Y-94492380D02*
X128301904Y-95206666D01*
X128254285Y-95349523D01*
X128159047Y-95444761D01*
X128016190Y-95492380D01*
X127920952Y-95492380D01*
X128730476Y-94587619D02*
X128778095Y-94540000D01*
X128873333Y-94492380D01*
X129111428Y-94492380D01*
X129206666Y-94540000D01*
X129254285Y-94587619D01*
X129301904Y-94682857D01*
X129301904Y-94778095D01*
X129254285Y-94920952D01*
X128682857Y-95492380D01*
X129301904Y-95492380D01*
X129682857Y-95206666D02*
X130159047Y-95206666D01*
X129587619Y-95492380D02*
X129920952Y-94492380D01*
X130254285Y-95492380D01*
X131111428Y-95492380D02*
X130540000Y-95492380D01*
X130825714Y-95492380D02*
X130825714Y-94492380D01*
X130730476Y-94635238D01*
X130635238Y-94730476D01*
X130540000Y-94778095D01*
%TO.C,R1*%
X143343333Y-101417380D02*
X143010000Y-100941190D01*
X142771904Y-101417380D02*
X142771904Y-100417380D01*
X143152857Y-100417380D01*
X143248095Y-100465000D01*
X143295714Y-100512619D01*
X143343333Y-100607857D01*
X143343333Y-100750714D01*
X143295714Y-100845952D01*
X143248095Y-100893571D01*
X143152857Y-100941190D01*
X142771904Y-100941190D01*
X144295714Y-101417380D02*
X143724285Y-101417380D01*
X144010000Y-101417380D02*
X144010000Y-100417380D01*
X143914761Y-100560238D01*
X143819523Y-100655476D01*
X143724285Y-100703095D01*
%TO.C,R2*%
X158772380Y-101846666D02*
X158296190Y-102180000D01*
X158772380Y-102418095D02*
X157772380Y-102418095D01*
X157772380Y-102037142D01*
X157820000Y-101941904D01*
X157867619Y-101894285D01*
X157962857Y-101846666D01*
X158105714Y-101846666D01*
X158200952Y-101894285D01*
X158248571Y-101941904D01*
X158296190Y-102037142D01*
X158296190Y-102418095D01*
X157867619Y-101465714D02*
X157820000Y-101418095D01*
X157772380Y-101322857D01*
X157772380Y-101084761D01*
X157820000Y-100989523D01*
X157867619Y-100941904D01*
X157962857Y-100894285D01*
X158058095Y-100894285D01*
X158200952Y-100941904D01*
X158772380Y-101513333D01*
X158772380Y-100894285D01*
%TO.C,R3*%
X158772380Y-113196666D02*
X158296190Y-113530000D01*
X158772380Y-113768095D02*
X157772380Y-113768095D01*
X157772380Y-113387142D01*
X157820000Y-113291904D01*
X157867619Y-113244285D01*
X157962857Y-113196666D01*
X158105714Y-113196666D01*
X158200952Y-113244285D01*
X158248571Y-113291904D01*
X158296190Y-113387142D01*
X158296190Y-113768095D01*
X157772380Y-112863333D02*
X157772380Y-112244285D01*
X158153333Y-112577619D01*
X158153333Y-112434761D01*
X158200952Y-112339523D01*
X158248571Y-112291904D01*
X158343809Y-112244285D01*
X158581904Y-112244285D01*
X158677142Y-112291904D01*
X158724761Y-112339523D01*
X158772380Y-112434761D01*
X158772380Y-112720476D01*
X158724761Y-112815714D01*
X158677142Y-112863333D01*
%TO.C,R4*%
X162172380Y-106926666D02*
X161696190Y-107260000D01*
X162172380Y-107498095D02*
X161172380Y-107498095D01*
X161172380Y-107117142D01*
X161220000Y-107021904D01*
X161267619Y-106974285D01*
X161362857Y-106926666D01*
X161505714Y-106926666D01*
X161600952Y-106974285D01*
X161648571Y-107021904D01*
X161696190Y-107117142D01*
X161696190Y-107498095D01*
X161505714Y-106069523D02*
X162172380Y-106069523D01*
X161124761Y-106307619D02*
X161839047Y-106545714D01*
X161839047Y-105926666D01*
%TO.C,U1*%
X136107380Y-93471904D02*
X136916904Y-93471904D01*
X137012142Y-93424285D01*
X137059761Y-93376666D01*
X137107380Y-93281428D01*
X137107380Y-93090952D01*
X137059761Y-92995714D01*
X137012142Y-92948095D01*
X136916904Y-92900476D01*
X136107380Y-92900476D01*
X137107380Y-91900476D02*
X137107380Y-92471904D01*
X137107380Y-92186190D02*
X136107380Y-92186190D01*
X136250238Y-92281428D01*
X136345476Y-92376666D01*
X136393095Y-92471904D01*
%TO.C,U2*%
X141068095Y-71807380D02*
X141068095Y-72616904D01*
X141115714Y-72712142D01*
X141163333Y-72759761D01*
X141258571Y-72807380D01*
X141449047Y-72807380D01*
X141544285Y-72759761D01*
X141591904Y-72712142D01*
X141639523Y-72616904D01*
X141639523Y-71807380D01*
X142068095Y-71902619D02*
X142115714Y-71855000D01*
X142210952Y-71807380D01*
X142449047Y-71807380D01*
X142544285Y-71855000D01*
X142591904Y-71902619D01*
X142639523Y-71997857D01*
X142639523Y-72093095D01*
X142591904Y-72235952D01*
X142020476Y-72807380D01*
X142639523Y-72807380D01*
%TO.C,U3*%
X141478095Y-110202380D02*
X141478095Y-111011904D01*
X141525714Y-111107142D01*
X141573333Y-111154761D01*
X141668571Y-111202380D01*
X141859047Y-111202380D01*
X141954285Y-111154761D01*
X142001904Y-111107142D01*
X142049523Y-111011904D01*
X142049523Y-110202380D01*
X142430476Y-110202380D02*
X143049523Y-110202380D01*
X142716190Y-110583333D01*
X142859047Y-110583333D01*
X142954285Y-110630952D01*
X143001904Y-110678571D01*
X143049523Y-110773809D01*
X143049523Y-111011904D01*
X143001904Y-111107142D01*
X142954285Y-111154761D01*
X142859047Y-111202380D01*
X142573333Y-111202380D01*
X142478095Y-111154761D01*
X142430476Y-111107142D01*
%TO.C,U4*%
X161798095Y-117122380D02*
X161798095Y-117931904D01*
X161845714Y-118027142D01*
X161893333Y-118074761D01*
X161988571Y-118122380D01*
X162179047Y-118122380D01*
X162274285Y-118074761D01*
X162321904Y-118027142D01*
X162369523Y-117931904D01*
X162369523Y-117122380D01*
X163274285Y-117455714D02*
X163274285Y-118122380D01*
X163036190Y-117074761D02*
X162798095Y-117789047D01*
X163417142Y-117789047D01*
%TO.C,C2*%
X142073333Y-118622142D02*
X142025714Y-118669761D01*
X141882857Y-118717380D01*
X141787619Y-118717380D01*
X141644761Y-118669761D01*
X141549523Y-118574523D01*
X141501904Y-118479285D01*
X141454285Y-118288809D01*
X141454285Y-118145952D01*
X141501904Y-117955476D01*
X141549523Y-117860238D01*
X141644761Y-117765000D01*
X141787619Y-117717380D01*
X141882857Y-117717380D01*
X142025714Y-117765000D01*
X142073333Y-117812619D01*
X142454285Y-117812619D02*
X142501904Y-117765000D01*
X142597142Y-117717380D01*
X142835238Y-117717380D01*
X142930476Y-117765000D01*
X142978095Y-117812619D01*
X143025714Y-117907857D01*
X143025714Y-118003095D01*
X142978095Y-118145952D01*
X142406666Y-118717380D01*
X143025714Y-118717380D01*
%TO.C,C3*%
X143343333Y-98782142D02*
X143295714Y-98829761D01*
X143152857Y-98877380D01*
X143057619Y-98877380D01*
X142914761Y-98829761D01*
X142819523Y-98734523D01*
X142771904Y-98639285D01*
X142724285Y-98448809D01*
X142724285Y-98305952D01*
X142771904Y-98115476D01*
X142819523Y-98020238D01*
X142914761Y-97925000D01*
X143057619Y-97877380D01*
X143152857Y-97877380D01*
X143295714Y-97925000D01*
X143343333Y-97972619D01*
X143676666Y-97877380D02*
X144295714Y-97877380D01*
X143962380Y-98258333D01*
X144105238Y-98258333D01*
X144200476Y-98305952D01*
X144248095Y-98353571D01*
X144295714Y-98448809D01*
X144295714Y-98686904D01*
X144248095Y-98782142D01*
X144200476Y-98829761D01*
X144105238Y-98877380D01*
X143819523Y-98877380D01*
X143724285Y-98829761D01*
X143676666Y-98782142D01*
%TO.C,C4*%
X143343333Y-79887142D02*
X143295714Y-79934761D01*
X143152857Y-79982380D01*
X143057619Y-79982380D01*
X142914761Y-79934761D01*
X142819523Y-79839523D01*
X142771904Y-79744285D01*
X142724285Y-79553809D01*
X142724285Y-79410952D01*
X142771904Y-79220476D01*
X142819523Y-79125238D01*
X142914761Y-79030000D01*
X143057619Y-78982380D01*
X143152857Y-78982380D01*
X143295714Y-79030000D01*
X143343333Y-79077619D01*
X144200476Y-79315714D02*
X144200476Y-79982380D01*
X143962380Y-78934761D02*
X143724285Y-79649047D01*
X144343333Y-79649047D01*
%TD*%
M02*
