%TF.GenerationSoftware,KiCad,Pcbnew,(5.1.9)-1*%
%TF.CreationDate,2021-06-08T22:15:24-04:00*%
%TF.ProjectId,AtariWiiWifi,41746172-6957-4696-9957-6966692e6b69,rev?*%
%TF.SameCoordinates,Original*%
%TF.FileFunction,Copper,L2,Bot*%
%TF.FilePolarity,Positive*%
%FSLAX46Y46*%
G04 Gerber Fmt 4.6, Leading zero omitted, Abs format (unit mm)*
G04 Created by KiCad (PCBNEW (5.1.9)-1) date 2021-06-08 22:15:24*
%MOMM*%
%LPD*%
G01*
G04 APERTURE LIST*
%TA.AperFunction,ComponentPad*%
%ADD10R,1.700000X1.700000*%
%TD*%
%TA.AperFunction,ComponentPad*%
%ADD11O,1.700000X1.700000*%
%TD*%
%TA.AperFunction,ComponentPad*%
%ADD12O,2.000000X1.200000*%
%TD*%
%TA.AperFunction,ComponentPad*%
%ADD13R,2.000000X1.200000*%
%TD*%
%TA.AperFunction,ViaPad*%
%ADD14C,0.800000*%
%TD*%
%TA.AperFunction,Conductor*%
%ADD15C,0.228600*%
%TD*%
%TA.AperFunction,Conductor*%
%ADD16C,0.304800*%
%TD*%
%TA.AperFunction,Conductor*%
%ADD17C,0.254000*%
%TD*%
%TA.AperFunction,Conductor*%
%ADD18C,0.100000*%
%TD*%
G04 APERTURE END LIST*
D10*
%TO.P,J2A1,1*%
%TO.N,/J2_UP*%
X129540000Y-92710000D03*
D11*
%TO.P,J2A1,2*%
%TO.N,/J2_TRIG*%
X129540000Y-90170000D03*
%TO.P,J2A1,3*%
%TO.N,/J2_DOWN*%
X129540000Y-87630000D03*
%TO.P,J2A1,4*%
%TO.N,+5V*%
X129540000Y-85090000D03*
%TO.P,J2A1,5*%
%TO.N,/J2_LEFT*%
X129540000Y-82550000D03*
%TO.P,J2A1,6*%
%TO.N,GND*%
X129540000Y-80010000D03*
%TO.P,J2A1,7*%
%TO.N,/J2_RIGHT*%
X129540000Y-77470000D03*
%TO.P,J2A1,8*%
%TO.N,/J2_PotA*%
X129540000Y-74930000D03*
%TO.P,J2A1,9*%
%TO.N,/J2_PotB*%
X129540000Y-72390000D03*
%TD*%
%TO.P,J1A1,9*%
%TO.N,/J1_PotB*%
X129540000Y-100330000D03*
%TO.P,J1A1,8*%
%TO.N,/J1_PotA*%
X129540000Y-102870000D03*
%TO.P,J1A1,7*%
%TO.N,/J1_RIGHT*%
X129540000Y-105410000D03*
%TO.P,J1A1,6*%
%TO.N,GND*%
X129540000Y-107950000D03*
%TO.P,J1A1,5*%
%TO.N,/J1_LEFT*%
X129540000Y-110490000D03*
%TO.P,J1A1,4*%
%TO.N,+5V*%
X129540000Y-113030000D03*
%TO.P,J1A1,3*%
%TO.N,/J1_DOWN*%
X129540000Y-115570000D03*
%TO.P,J1A1,2*%
%TO.N,/J1_TRIG*%
X129540000Y-118110000D03*
D10*
%TO.P,J1A1,1*%
%TO.N,/J1_UP*%
X129540000Y-120650000D03*
%TD*%
D12*
%TO.P,U4,38*%
%TO.N,GND*%
X151130000Y-115570000D03*
D13*
%TO.P,U4,1*%
%TO.N,+3V3*%
X173990000Y-115570000D03*
D12*
%TO.P,U4,37*%
%TO.N,Net-(U4-Pad37)*%
X151130000Y-113030000D03*
%TO.P,U4,2*%
%TO.N,Net-(U4-Pad2)*%
X173990000Y-113030000D03*
%TO.P,U4,36*%
%TO.N,/SCL*%
X151130000Y-110490000D03*
%TO.P,U4,3*%
%TO.N,Net-(U4-Pad3)*%
X173990000Y-110490000D03*
%TO.P,U4,35*%
%TO.N,Net-(U4-Pad35)*%
X151130000Y-107950000D03*
%TO.P,U4,4*%
%TO.N,Net-(U4-Pad4)*%
X173990000Y-107950000D03*
%TO.P,U4,34*%
%TO.N,Net-(U4-Pad34)*%
X151130000Y-105410000D03*
%TO.P,U4,5*%
%TO.N,Net-(U4-Pad5)*%
X173990000Y-105410000D03*
%TO.P,U4,33*%
%TO.N,/SDA*%
X151130000Y-102870000D03*
%TO.P,U4,6*%
%TO.N,Net-(U4-Pad6)*%
X173990000Y-102870000D03*
%TO.P,U4,32*%
%TO.N,GND*%
X151130000Y-100330000D03*
%TO.P,U4,7*%
%TO.N,Net-(U4-Pad7)*%
X173990000Y-100330000D03*
%TO.P,U4,31*%
%TO.N,Net-(R2-Pad2)*%
X151130000Y-97790000D03*
%TO.P,U4,8*%
%TO.N,Net-(U4-Pad8)*%
X173990000Y-97790000D03*
%TO.P,U4,30*%
%TO.N,Net-(U4-Pad30)*%
X151130000Y-95250000D03*
%TO.P,U4,9*%
%TO.N,Net-(U4-Pad9)*%
X173990000Y-95250000D03*
%TO.P,U4,29*%
%TO.N,Net-(U4-Pad29)*%
X151130000Y-92710000D03*
%TO.P,U4,10*%
%TO.N,Net-(U4-Pad10)*%
X173990000Y-92710000D03*
%TO.P,U4,28*%
%TO.N,Net-(U4-Pad28)*%
X151130000Y-90170000D03*
%TO.P,U4,11*%
%TO.N,Net-(U4-Pad11)*%
X173990000Y-90170000D03*
%TO.P,U4,27*%
%TO.N,Net-(U4-Pad27)*%
X151130000Y-87630000D03*
%TO.P,U4,12*%
%TO.N,Net-(U4-Pad12)*%
X173990000Y-87630000D03*
%TO.P,U4,26*%
%TO.N,Net-(U4-Pad26)*%
X151130000Y-85090000D03*
%TO.P,U4,13*%
%TO.N,Net-(U4-Pad13)*%
X173990000Y-85090000D03*
%TO.P,U4,25*%
%TO.N,Net-(U4-Pad25)*%
X151130000Y-82550000D03*
%TO.P,U4,14*%
%TO.N,GND*%
X173990000Y-82550000D03*
%TO.P,U4,24*%
%TO.N,Net-(U4-Pad24)*%
X151130000Y-80010000D03*
%TO.P,U4,15*%
%TO.N,Net-(U4-Pad15)*%
X173990000Y-80010000D03*
%TO.P,U4,23*%
%TO.N,Net-(U4-Pad23)*%
X151130000Y-77470000D03*
%TO.P,U4,16*%
%TO.N,Net-(U4-Pad16)*%
X173990000Y-77470000D03*
%TO.P,U4,22*%
%TO.N,Net-(U4-Pad22)*%
X151130000Y-74930000D03*
%TO.P,U4,17*%
%TO.N,Net-(U4-Pad17)*%
X173990000Y-74930000D03*
%TO.P,U4,21*%
%TO.N,Net-(U4-Pad21)*%
X151130000Y-72390000D03*
%TO.P,U4,18*%
%TO.N,Net-(U4-Pad18)*%
X173990000Y-72390000D03*
%TO.P,U4,20*%
%TO.N,Net-(U4-Pad20)*%
X151130000Y-69850000D03*
%TO.P,U4,19*%
%TO.N,Net-(J3-Pad1)*%
X173990000Y-69850000D03*
%TD*%
D11*
%TO.P,J3,2*%
%TO.N,+5V*%
X142875000Y-70485000D03*
D10*
%TO.P,J3,1*%
%TO.N,Net-(J3-Pad1)*%
X145415000Y-70485000D03*
%TD*%
D14*
%TO.N,/J1_RIGHT*%
X140970000Y-104775000D03*
%TO.N,GND*%
X144145000Y-100330000D03*
X151130000Y-118110000D03*
X147320000Y-93980000D03*
%TO.N,/J2_TRIG*%
X143510000Y-91440000D03*
%TO.N,/J2_RIGHT*%
X144145000Y-83820000D03*
%TO.N,/J2_LEFT*%
X144145000Y-85725000D03*
%TO.N,/J2_DOWN*%
X144219378Y-87069378D03*
%TO.N,/J2_UP*%
X144145000Y-92710000D03*
%TO.N,+3V3*%
X138430000Y-102870000D03*
X157480000Y-102870000D03*
%TO.N,Net-(R2-Pad2)*%
X135890000Y-95885000D03*
%TO.N,/SCL*%
X145415000Y-110490000D03*
%TO.N,/SDA*%
X143510004Y-110490000D03*
%TO.N,+5V*%
X136525000Y-113665000D03*
X147320000Y-113665000D03*
%TD*%
D15*
%TO.N,/J1_RIGHT*%
X140335000Y-105410000D02*
X140970000Y-104775000D01*
X129540000Y-105410000D02*
X140335000Y-105410000D01*
D16*
%TO.N,+5V*%
X128334399Y-111824399D02*
X129540000Y-113030000D01*
X128334399Y-86295601D02*
X128334399Y-111824399D01*
X129540000Y-85090000D02*
X128334399Y-86295601D01*
%TO.N,GND*%
X173990000Y-82550000D02*
X165735000Y-82550000D01*
X165735000Y-82550000D02*
X162560000Y-85725000D01*
X162560000Y-85725000D02*
X162560000Y-93345000D01*
X155575000Y-100330000D02*
X151130000Y-100330000D01*
X162560000Y-93345000D02*
X155575000Y-100330000D01*
X151130000Y-100330000D02*
X144145000Y-100330000D01*
X151130000Y-118110000D02*
X151130000Y-115570000D01*
X152485610Y-98974390D02*
X151130000Y-100330000D01*
X152485610Y-97394174D02*
X152485610Y-98974390D01*
X151925826Y-96834390D02*
X152485610Y-97394174D01*
X150174390Y-96834390D02*
X151925826Y-96834390D01*
X147320000Y-93980000D02*
X150174390Y-96834390D01*
X147955000Y-112395000D02*
X151130000Y-115570000D01*
X133985000Y-112395000D02*
X147955000Y-112395000D01*
X129540000Y-107950000D02*
X133985000Y-112395000D01*
D15*
%TO.N,/J2_TRIG*%
X130810000Y-91440000D02*
X129540000Y-90170000D01*
X143510000Y-91440000D02*
X130810000Y-91440000D01*
%TO.N,/J2_RIGHT*%
X144145000Y-83820000D02*
X140970000Y-80645000D01*
X132715000Y-80645000D02*
X129540000Y-77470000D01*
X140970000Y-80645000D02*
X132715000Y-80645000D01*
%TO.N,/J2_LEFT*%
X140970000Y-82550000D02*
X144145000Y-85725000D01*
X129540000Y-82550000D02*
X140970000Y-82550000D01*
%TO.N,/J2_DOWN*%
X143658756Y-87630000D02*
X144219378Y-87069378D01*
X129540000Y-87630000D02*
X143658756Y-87630000D01*
%TO.N,/J2_UP*%
X144145000Y-92710000D02*
X129540000Y-92710000D01*
D16*
%TO.N,+3V3*%
X156524390Y-101914390D02*
X157480000Y-102870000D01*
X139385610Y-101914390D02*
X156524390Y-101914390D01*
X138430000Y-102870000D02*
X139385610Y-101914390D01*
D15*
%TO.N,Net-(R2-Pad2)*%
X151130000Y-97790000D02*
X137795000Y-97790000D01*
X137795000Y-97790000D02*
X135890000Y-95885000D01*
D16*
%TO.N,/SCL*%
X145415000Y-110490000D02*
X151130000Y-110490000D01*
%TO.N,/SDA*%
X151130000Y-102870000D02*
X143510004Y-110489996D01*
X143510004Y-110489996D02*
X143510004Y-110490000D01*
D15*
%TO.N,+5V*%
X135890000Y-113030000D02*
X136525000Y-113665000D01*
X129540000Y-113030000D02*
X135890000Y-113030000D01*
X136525000Y-113665000D02*
X147320000Y-113665000D01*
%TD*%
D17*
%TO.N,GND*%
X177140000Y-123800000D02*
X125120000Y-123800000D01*
X125120000Y-86295601D01*
X127543191Y-86295601D01*
X127546999Y-86334264D01*
X127547000Y-111785726D01*
X127543191Y-111824399D01*
X127558394Y-111978756D01*
X127603417Y-112127181D01*
X127676534Y-112263971D01*
X127774931Y-112383868D01*
X127804972Y-112408522D01*
X128092362Y-112695912D01*
X128055000Y-112883740D01*
X128055000Y-113176260D01*
X128112068Y-113463158D01*
X128224010Y-113733411D01*
X128386525Y-113976632D01*
X128593368Y-114183475D01*
X128767760Y-114300000D01*
X128593368Y-114416525D01*
X128386525Y-114623368D01*
X128224010Y-114866589D01*
X128112068Y-115136842D01*
X128055000Y-115423740D01*
X128055000Y-115716260D01*
X128112068Y-116003158D01*
X128224010Y-116273411D01*
X128386525Y-116516632D01*
X128593368Y-116723475D01*
X128767760Y-116840000D01*
X128593368Y-116956525D01*
X128386525Y-117163368D01*
X128224010Y-117406589D01*
X128112068Y-117676842D01*
X128055000Y-117963740D01*
X128055000Y-118256260D01*
X128112068Y-118543158D01*
X128224010Y-118813411D01*
X128386525Y-119056632D01*
X128518380Y-119188487D01*
X128445820Y-119210498D01*
X128335506Y-119269463D01*
X128238815Y-119348815D01*
X128159463Y-119445506D01*
X128100498Y-119555820D01*
X128064188Y-119675518D01*
X128051928Y-119800000D01*
X128051928Y-121500000D01*
X128064188Y-121624482D01*
X128100498Y-121744180D01*
X128159463Y-121854494D01*
X128238815Y-121951185D01*
X128335506Y-122030537D01*
X128445820Y-122089502D01*
X128565518Y-122125812D01*
X128690000Y-122138072D01*
X130390000Y-122138072D01*
X130514482Y-122125812D01*
X130634180Y-122089502D01*
X130744494Y-122030537D01*
X130841185Y-121951185D01*
X130920537Y-121854494D01*
X130979502Y-121744180D01*
X131015812Y-121624482D01*
X131028072Y-121500000D01*
X131028072Y-120429872D01*
X133020000Y-120429872D01*
X133020000Y-120870128D01*
X133105890Y-121301925D01*
X133274369Y-121708669D01*
X133518962Y-122074729D01*
X133830271Y-122386038D01*
X134196331Y-122630631D01*
X134603075Y-122799110D01*
X135034872Y-122885000D01*
X135475128Y-122885000D01*
X135906925Y-122799110D01*
X136313669Y-122630631D01*
X136679729Y-122386038D01*
X136991038Y-122074729D01*
X137235631Y-121708669D01*
X137404110Y-121301925D01*
X137490000Y-120870128D01*
X137490000Y-120429872D01*
X166040000Y-120429872D01*
X166040000Y-120870128D01*
X166125890Y-121301925D01*
X166294369Y-121708669D01*
X166538962Y-122074729D01*
X166850271Y-122386038D01*
X167216331Y-122630631D01*
X167623075Y-122799110D01*
X168054872Y-122885000D01*
X168495128Y-122885000D01*
X168926925Y-122799110D01*
X169333669Y-122630631D01*
X169699729Y-122386038D01*
X170011038Y-122074729D01*
X170255631Y-121708669D01*
X170424110Y-121301925D01*
X170510000Y-120870128D01*
X170510000Y-120429872D01*
X170424110Y-119998075D01*
X170255631Y-119591331D01*
X170011038Y-119225271D01*
X169699729Y-118913962D01*
X169333669Y-118669369D01*
X168926925Y-118500890D01*
X168495128Y-118415000D01*
X168054872Y-118415000D01*
X167623075Y-118500890D01*
X167216331Y-118669369D01*
X166850271Y-118913962D01*
X166538962Y-119225271D01*
X166294369Y-119591331D01*
X166125890Y-119998075D01*
X166040000Y-120429872D01*
X137490000Y-120429872D01*
X137404110Y-119998075D01*
X137235631Y-119591331D01*
X136991038Y-119225271D01*
X136679729Y-118913962D01*
X136313669Y-118669369D01*
X135906925Y-118500890D01*
X135475128Y-118415000D01*
X135034872Y-118415000D01*
X134603075Y-118500890D01*
X134196331Y-118669369D01*
X133830271Y-118913962D01*
X133518962Y-119225271D01*
X133274369Y-119591331D01*
X133105890Y-119998075D01*
X133020000Y-120429872D01*
X131028072Y-120429872D01*
X131028072Y-119800000D01*
X131015812Y-119675518D01*
X130979502Y-119555820D01*
X130920537Y-119445506D01*
X130841185Y-119348815D01*
X130744494Y-119269463D01*
X130634180Y-119210498D01*
X130561620Y-119188487D01*
X130693475Y-119056632D01*
X130855990Y-118813411D01*
X130967932Y-118543158D01*
X131025000Y-118256260D01*
X131025000Y-117963740D01*
X130967932Y-117676842D01*
X130855990Y-117406589D01*
X130693475Y-117163368D01*
X130486632Y-116956525D01*
X130312240Y-116840000D01*
X130486632Y-116723475D01*
X130693475Y-116516632D01*
X130855990Y-116273411D01*
X130967932Y-116003158D01*
X130990916Y-115887609D01*
X149536538Y-115887609D01*
X149540409Y-115925282D01*
X149632579Y-116150533D01*
X149766922Y-116353474D01*
X149938275Y-116526307D01*
X150140054Y-116662390D01*
X150364504Y-116756493D01*
X150603000Y-116805000D01*
X151003000Y-116805000D01*
X151003000Y-115697000D01*
X151257000Y-115697000D01*
X151257000Y-116805000D01*
X151657000Y-116805000D01*
X151895496Y-116756493D01*
X152119946Y-116662390D01*
X152321725Y-116526307D01*
X152493078Y-116353474D01*
X152627421Y-116150533D01*
X152719591Y-115925282D01*
X152723462Y-115887609D01*
X152598731Y-115697000D01*
X151257000Y-115697000D01*
X151003000Y-115697000D01*
X149661269Y-115697000D01*
X149536538Y-115887609D01*
X130990916Y-115887609D01*
X131025000Y-115716260D01*
X131025000Y-115423740D01*
X130990917Y-115252391D01*
X149536538Y-115252391D01*
X149661269Y-115443000D01*
X151003000Y-115443000D01*
X151003000Y-114335000D01*
X151257000Y-114335000D01*
X151257000Y-115443000D01*
X152598731Y-115443000D01*
X152723462Y-115252391D01*
X152719591Y-115214718D01*
X152627421Y-114989467D01*
X152614535Y-114970000D01*
X172351928Y-114970000D01*
X172351928Y-116170000D01*
X172364188Y-116294482D01*
X172400498Y-116414180D01*
X172459463Y-116524494D01*
X172538815Y-116621185D01*
X172635506Y-116700537D01*
X172745820Y-116759502D01*
X172865518Y-116795812D01*
X172990000Y-116808072D01*
X174990000Y-116808072D01*
X175114482Y-116795812D01*
X175234180Y-116759502D01*
X175344494Y-116700537D01*
X175441185Y-116621185D01*
X175520537Y-116524494D01*
X175579502Y-116414180D01*
X175615812Y-116294482D01*
X175628072Y-116170000D01*
X175628072Y-114970000D01*
X175615812Y-114845518D01*
X175579502Y-114725820D01*
X175520537Y-114615506D01*
X175441185Y-114518815D01*
X175344494Y-114439463D01*
X175234180Y-114380498D01*
X175114482Y-114344188D01*
X174990000Y-114331928D01*
X172990000Y-114331928D01*
X172865518Y-114344188D01*
X172745820Y-114380498D01*
X172635506Y-114439463D01*
X172538815Y-114518815D01*
X172459463Y-114615506D01*
X172400498Y-114725820D01*
X172364188Y-114845518D01*
X172351928Y-114970000D01*
X152614535Y-114970000D01*
X152493078Y-114786526D01*
X152321725Y-114613693D01*
X152119946Y-114477610D01*
X151895496Y-114383507D01*
X151657000Y-114335000D01*
X151257000Y-114335000D01*
X151003000Y-114335000D01*
X150603000Y-114335000D01*
X150364504Y-114383507D01*
X150140054Y-114477610D01*
X149938275Y-114613693D01*
X149766922Y-114786526D01*
X149632579Y-114989467D01*
X149540409Y-115214718D01*
X149536538Y-115252391D01*
X130990917Y-115252391D01*
X130967932Y-115136842D01*
X130855990Y-114866589D01*
X130693475Y-114623368D01*
X130486632Y-114416525D01*
X130312240Y-114300000D01*
X130486632Y-114183475D01*
X130693475Y-113976632D01*
X130825328Y-113779300D01*
X135492459Y-113779300D01*
X135529774Y-113966898D01*
X135607795Y-114155256D01*
X135721063Y-114324774D01*
X135865226Y-114468937D01*
X136034744Y-114582205D01*
X136223102Y-114660226D01*
X136423061Y-114700000D01*
X136626939Y-114700000D01*
X136826898Y-114660226D01*
X137015256Y-114582205D01*
X137184774Y-114468937D01*
X137239411Y-114414300D01*
X146605589Y-114414300D01*
X146660226Y-114468937D01*
X146829744Y-114582205D01*
X147018102Y-114660226D01*
X147218061Y-114700000D01*
X147421939Y-114700000D01*
X147621898Y-114660226D01*
X147810256Y-114582205D01*
X147979774Y-114468937D01*
X148123937Y-114324774D01*
X148237205Y-114155256D01*
X148315226Y-113966898D01*
X148355000Y-113766939D01*
X148355000Y-113563061D01*
X148315226Y-113363102D01*
X148237205Y-113174744D01*
X148140491Y-113030000D01*
X149489025Y-113030000D01*
X149512870Y-113272102D01*
X149583489Y-113504901D01*
X149698167Y-113719449D01*
X149852498Y-113907502D01*
X150040551Y-114061833D01*
X150255099Y-114176511D01*
X150487898Y-114247130D01*
X150669335Y-114265000D01*
X151590665Y-114265000D01*
X151772102Y-114247130D01*
X152004901Y-114176511D01*
X152219449Y-114061833D01*
X152407502Y-113907502D01*
X152561833Y-113719449D01*
X152676511Y-113504901D01*
X152747130Y-113272102D01*
X152770975Y-113030000D01*
X172349025Y-113030000D01*
X172372870Y-113272102D01*
X172443489Y-113504901D01*
X172558167Y-113719449D01*
X172712498Y-113907502D01*
X172900551Y-114061833D01*
X173115099Y-114176511D01*
X173347898Y-114247130D01*
X173529335Y-114265000D01*
X174450665Y-114265000D01*
X174632102Y-114247130D01*
X174864901Y-114176511D01*
X175079449Y-114061833D01*
X175267502Y-113907502D01*
X175421833Y-113719449D01*
X175536511Y-113504901D01*
X175607130Y-113272102D01*
X175630975Y-113030000D01*
X175607130Y-112787898D01*
X175536511Y-112555099D01*
X175421833Y-112340551D01*
X175267502Y-112152498D01*
X175079449Y-111998167D01*
X174864901Y-111883489D01*
X174632102Y-111812870D01*
X174450665Y-111795000D01*
X173529335Y-111795000D01*
X173347898Y-111812870D01*
X173115099Y-111883489D01*
X172900551Y-111998167D01*
X172712498Y-112152498D01*
X172558167Y-112340551D01*
X172443489Y-112555099D01*
X172372870Y-112787898D01*
X172349025Y-113030000D01*
X152770975Y-113030000D01*
X152747130Y-112787898D01*
X152676511Y-112555099D01*
X152561833Y-112340551D01*
X152407502Y-112152498D01*
X152219449Y-111998167D01*
X152004901Y-111883489D01*
X151772102Y-111812870D01*
X151590665Y-111795000D01*
X150669335Y-111795000D01*
X150487898Y-111812870D01*
X150255099Y-111883489D01*
X150040551Y-111998167D01*
X149852498Y-112152498D01*
X149698167Y-112340551D01*
X149583489Y-112555099D01*
X149512870Y-112787898D01*
X149489025Y-113030000D01*
X148140491Y-113030000D01*
X148123937Y-113005226D01*
X147979774Y-112861063D01*
X147810256Y-112747795D01*
X147621898Y-112669774D01*
X147421939Y-112630000D01*
X147218061Y-112630000D01*
X147018102Y-112669774D01*
X146829744Y-112747795D01*
X146660226Y-112861063D01*
X146605589Y-112915700D01*
X137239411Y-112915700D01*
X137184774Y-112861063D01*
X137015256Y-112747795D01*
X136826898Y-112669774D01*
X136626939Y-112630000D01*
X136549669Y-112630000D01*
X136445862Y-112526193D01*
X136422398Y-112497602D01*
X136308303Y-112403966D01*
X136178132Y-112334388D01*
X136036888Y-112291542D01*
X135926806Y-112280700D01*
X135926795Y-112280700D01*
X135890000Y-112277076D01*
X135853205Y-112280700D01*
X130825328Y-112280700D01*
X130693475Y-112083368D01*
X130486632Y-111876525D01*
X130312240Y-111760000D01*
X130486632Y-111643475D01*
X130693475Y-111436632D01*
X130855990Y-111193411D01*
X130967932Y-110923158D01*
X131025000Y-110636260D01*
X131025000Y-110343740D01*
X130967932Y-110056842D01*
X130855990Y-109786589D01*
X130693475Y-109543368D01*
X130486632Y-109336525D01*
X130304466Y-109214805D01*
X130421355Y-109145178D01*
X130637588Y-108950269D01*
X130811641Y-108716920D01*
X130936825Y-108454099D01*
X130981476Y-108306890D01*
X130860155Y-108077000D01*
X129667000Y-108077000D01*
X129667000Y-108097000D01*
X129413000Y-108097000D01*
X129413000Y-108077000D01*
X129393000Y-108077000D01*
X129393000Y-107823000D01*
X129413000Y-107823000D01*
X129413000Y-107803000D01*
X129667000Y-107803000D01*
X129667000Y-107823000D01*
X130860155Y-107823000D01*
X130981476Y-107593110D01*
X130936825Y-107445901D01*
X130811641Y-107183080D01*
X130637588Y-106949731D01*
X130421355Y-106754822D01*
X130304466Y-106685195D01*
X130486632Y-106563475D01*
X130693475Y-106356632D01*
X130825328Y-106159300D01*
X140298205Y-106159300D01*
X140335000Y-106162924D01*
X140371795Y-106159300D01*
X140371806Y-106159300D01*
X140481888Y-106148458D01*
X140623132Y-106105612D01*
X140753303Y-106036034D01*
X140867398Y-105942398D01*
X140890862Y-105913807D01*
X140994669Y-105810000D01*
X141071939Y-105810000D01*
X141271898Y-105770226D01*
X141460256Y-105692205D01*
X141629774Y-105578937D01*
X141773937Y-105434774D01*
X141887205Y-105265256D01*
X141965226Y-105076898D01*
X142005000Y-104876939D01*
X142005000Y-104673061D01*
X141965226Y-104473102D01*
X141887205Y-104284744D01*
X141773937Y-104115226D01*
X141629774Y-103971063D01*
X141460256Y-103857795D01*
X141271898Y-103779774D01*
X141071939Y-103740000D01*
X140868061Y-103740000D01*
X140668102Y-103779774D01*
X140479744Y-103857795D01*
X140310226Y-103971063D01*
X140166063Y-104115226D01*
X140052795Y-104284744D01*
X139974774Y-104473102D01*
X139937459Y-104660700D01*
X130825328Y-104660700D01*
X130693475Y-104463368D01*
X130486632Y-104256525D01*
X130312240Y-104140000D01*
X130486632Y-104023475D01*
X130693475Y-103816632D01*
X130855990Y-103573411D01*
X130967932Y-103303158D01*
X131025000Y-103016260D01*
X131025000Y-102768061D01*
X137395000Y-102768061D01*
X137395000Y-102971939D01*
X137434774Y-103171898D01*
X137512795Y-103360256D01*
X137626063Y-103529774D01*
X137770226Y-103673937D01*
X137939744Y-103787205D01*
X138128102Y-103865226D01*
X138328061Y-103905000D01*
X138531939Y-103905000D01*
X138731898Y-103865226D01*
X138920256Y-103787205D01*
X139089774Y-103673937D01*
X139233937Y-103529774D01*
X139347205Y-103360256D01*
X139425226Y-103171898D01*
X139465000Y-102971939D01*
X139465000Y-102948551D01*
X139711761Y-102701790D01*
X149505592Y-102701790D01*
X149489025Y-102870000D01*
X149512870Y-103112102D01*
X149573727Y-103312721D01*
X143431450Y-109455000D01*
X143408065Y-109455000D01*
X143208106Y-109494774D01*
X143019748Y-109572795D01*
X142850230Y-109686063D01*
X142706067Y-109830226D01*
X142592799Y-109999744D01*
X142514778Y-110188102D01*
X142475004Y-110388061D01*
X142475004Y-110591939D01*
X142514778Y-110791898D01*
X142592799Y-110980256D01*
X142706067Y-111149774D01*
X142850230Y-111293937D01*
X143019748Y-111407205D01*
X143208106Y-111485226D01*
X143408065Y-111525000D01*
X143611943Y-111525000D01*
X143811902Y-111485226D01*
X144000260Y-111407205D01*
X144169778Y-111293937D01*
X144313941Y-111149774D01*
X144427209Y-110980256D01*
X144462502Y-110895052D01*
X144497795Y-110980256D01*
X144611063Y-111149774D01*
X144755226Y-111293937D01*
X144924744Y-111407205D01*
X145113102Y-111485226D01*
X145313061Y-111525000D01*
X145516939Y-111525000D01*
X145716898Y-111485226D01*
X145905256Y-111407205D01*
X146074774Y-111293937D01*
X146091311Y-111277400D01*
X149778553Y-111277400D01*
X149852498Y-111367502D01*
X150040551Y-111521833D01*
X150255099Y-111636511D01*
X150487898Y-111707130D01*
X150669335Y-111725000D01*
X151590665Y-111725000D01*
X151772102Y-111707130D01*
X152004901Y-111636511D01*
X152219449Y-111521833D01*
X152407502Y-111367502D01*
X152561833Y-111179449D01*
X152676511Y-110964901D01*
X152747130Y-110732102D01*
X152770975Y-110490000D01*
X172349025Y-110490000D01*
X172372870Y-110732102D01*
X172443489Y-110964901D01*
X172558167Y-111179449D01*
X172712498Y-111367502D01*
X172900551Y-111521833D01*
X173115099Y-111636511D01*
X173347898Y-111707130D01*
X173529335Y-111725000D01*
X174450665Y-111725000D01*
X174632102Y-111707130D01*
X174864901Y-111636511D01*
X175079449Y-111521833D01*
X175267502Y-111367502D01*
X175421833Y-111179449D01*
X175536511Y-110964901D01*
X175607130Y-110732102D01*
X175630975Y-110490000D01*
X175607130Y-110247898D01*
X175536511Y-110015099D01*
X175421833Y-109800551D01*
X175267502Y-109612498D01*
X175079449Y-109458167D01*
X174864901Y-109343489D01*
X174632102Y-109272870D01*
X174450665Y-109255000D01*
X173529335Y-109255000D01*
X173347898Y-109272870D01*
X173115099Y-109343489D01*
X172900551Y-109458167D01*
X172712498Y-109612498D01*
X172558167Y-109800551D01*
X172443489Y-110015099D01*
X172372870Y-110247898D01*
X172349025Y-110490000D01*
X152770975Y-110490000D01*
X152747130Y-110247898D01*
X152676511Y-110015099D01*
X152561833Y-109800551D01*
X152407502Y-109612498D01*
X152219449Y-109458167D01*
X152004901Y-109343489D01*
X151772102Y-109272870D01*
X151590665Y-109255000D01*
X150669335Y-109255000D01*
X150487898Y-109272870D01*
X150255099Y-109343489D01*
X150040551Y-109458167D01*
X149852498Y-109612498D01*
X149778553Y-109702600D01*
X146091311Y-109702600D01*
X146074774Y-109686063D01*
X145905256Y-109572795D01*
X145716898Y-109494774D01*
X145635056Y-109478495D01*
X147163551Y-107950000D01*
X149489025Y-107950000D01*
X149512870Y-108192102D01*
X149583489Y-108424901D01*
X149698167Y-108639449D01*
X149852498Y-108827502D01*
X150040551Y-108981833D01*
X150255099Y-109096511D01*
X150487898Y-109167130D01*
X150669335Y-109185000D01*
X151590665Y-109185000D01*
X151772102Y-109167130D01*
X152004901Y-109096511D01*
X152219449Y-108981833D01*
X152407502Y-108827502D01*
X152561833Y-108639449D01*
X152676511Y-108424901D01*
X152747130Y-108192102D01*
X152770975Y-107950000D01*
X172349025Y-107950000D01*
X172372870Y-108192102D01*
X172443489Y-108424901D01*
X172558167Y-108639449D01*
X172712498Y-108827502D01*
X172900551Y-108981833D01*
X173115099Y-109096511D01*
X173347898Y-109167130D01*
X173529335Y-109185000D01*
X174450665Y-109185000D01*
X174632102Y-109167130D01*
X174864901Y-109096511D01*
X175079449Y-108981833D01*
X175267502Y-108827502D01*
X175421833Y-108639449D01*
X175536511Y-108424901D01*
X175607130Y-108192102D01*
X175630975Y-107950000D01*
X175607130Y-107707898D01*
X175536511Y-107475099D01*
X175421833Y-107260551D01*
X175267502Y-107072498D01*
X175079449Y-106918167D01*
X174864901Y-106803489D01*
X174632102Y-106732870D01*
X174450665Y-106715000D01*
X173529335Y-106715000D01*
X173347898Y-106732870D01*
X173115099Y-106803489D01*
X172900551Y-106918167D01*
X172712498Y-107072498D01*
X172558167Y-107260551D01*
X172443489Y-107475099D01*
X172372870Y-107707898D01*
X172349025Y-107950000D01*
X152770975Y-107950000D01*
X152747130Y-107707898D01*
X152676511Y-107475099D01*
X152561833Y-107260551D01*
X152407502Y-107072498D01*
X152219449Y-106918167D01*
X152004901Y-106803489D01*
X151772102Y-106732870D01*
X151590665Y-106715000D01*
X150669335Y-106715000D01*
X150487898Y-106732870D01*
X150255099Y-106803489D01*
X150040551Y-106918167D01*
X149852498Y-107072498D01*
X149698167Y-107260551D01*
X149583489Y-107475099D01*
X149512870Y-107707898D01*
X149489025Y-107950000D01*
X147163551Y-107950000D01*
X149508260Y-105605292D01*
X149512870Y-105652102D01*
X149583489Y-105884901D01*
X149698167Y-106099449D01*
X149852498Y-106287502D01*
X150040551Y-106441833D01*
X150255099Y-106556511D01*
X150487898Y-106627130D01*
X150669335Y-106645000D01*
X151590665Y-106645000D01*
X151772102Y-106627130D01*
X152004901Y-106556511D01*
X152219449Y-106441833D01*
X152407502Y-106287502D01*
X152561833Y-106099449D01*
X152676511Y-105884901D01*
X152747130Y-105652102D01*
X152770975Y-105410000D01*
X172349025Y-105410000D01*
X172372870Y-105652102D01*
X172443489Y-105884901D01*
X172558167Y-106099449D01*
X172712498Y-106287502D01*
X172900551Y-106441833D01*
X173115099Y-106556511D01*
X173347898Y-106627130D01*
X173529335Y-106645000D01*
X174450665Y-106645000D01*
X174632102Y-106627130D01*
X174864901Y-106556511D01*
X175079449Y-106441833D01*
X175267502Y-106287502D01*
X175421833Y-106099449D01*
X175536511Y-105884901D01*
X175607130Y-105652102D01*
X175630975Y-105410000D01*
X175607130Y-105167898D01*
X175536511Y-104935099D01*
X175421833Y-104720551D01*
X175267502Y-104532498D01*
X175079449Y-104378167D01*
X174864901Y-104263489D01*
X174632102Y-104192870D01*
X174450665Y-104175000D01*
X173529335Y-104175000D01*
X173347898Y-104192870D01*
X173115099Y-104263489D01*
X172900551Y-104378167D01*
X172712498Y-104532498D01*
X172558167Y-104720551D01*
X172443489Y-104935099D01*
X172372870Y-105167898D01*
X172349025Y-105410000D01*
X152770975Y-105410000D01*
X152747130Y-105167898D01*
X152676511Y-104935099D01*
X152561833Y-104720551D01*
X152407502Y-104532498D01*
X152219449Y-104378167D01*
X152004901Y-104263489D01*
X151772102Y-104192870D01*
X151590665Y-104175000D01*
X150938552Y-104175000D01*
X151008552Y-104105000D01*
X151590665Y-104105000D01*
X151772102Y-104087130D01*
X152004901Y-104016511D01*
X152219449Y-103901833D01*
X152407502Y-103747502D01*
X152561833Y-103559449D01*
X152676511Y-103344901D01*
X152747130Y-103112102D01*
X152770975Y-102870000D01*
X152754408Y-102701790D01*
X156198239Y-102701790D01*
X156445000Y-102948551D01*
X156445000Y-102971939D01*
X156484774Y-103171898D01*
X156562795Y-103360256D01*
X156676063Y-103529774D01*
X156820226Y-103673937D01*
X156989744Y-103787205D01*
X157178102Y-103865226D01*
X157378061Y-103905000D01*
X157581939Y-103905000D01*
X157781898Y-103865226D01*
X157970256Y-103787205D01*
X158139774Y-103673937D01*
X158283937Y-103529774D01*
X158397205Y-103360256D01*
X158475226Y-103171898D01*
X158515000Y-102971939D01*
X158515000Y-102870000D01*
X172349025Y-102870000D01*
X172372870Y-103112102D01*
X172443489Y-103344901D01*
X172558167Y-103559449D01*
X172712498Y-103747502D01*
X172900551Y-103901833D01*
X173115099Y-104016511D01*
X173347898Y-104087130D01*
X173529335Y-104105000D01*
X174450665Y-104105000D01*
X174632102Y-104087130D01*
X174864901Y-104016511D01*
X175079449Y-103901833D01*
X175267502Y-103747502D01*
X175421833Y-103559449D01*
X175536511Y-103344901D01*
X175607130Y-103112102D01*
X175630975Y-102870000D01*
X175607130Y-102627898D01*
X175536511Y-102395099D01*
X175421833Y-102180551D01*
X175267502Y-101992498D01*
X175079449Y-101838167D01*
X174864901Y-101723489D01*
X174632102Y-101652870D01*
X174450665Y-101635000D01*
X173529335Y-101635000D01*
X173347898Y-101652870D01*
X173115099Y-101723489D01*
X172900551Y-101838167D01*
X172712498Y-101992498D01*
X172558167Y-102180551D01*
X172443489Y-102395099D01*
X172372870Y-102627898D01*
X172349025Y-102870000D01*
X158515000Y-102870000D01*
X158515000Y-102768061D01*
X158475226Y-102568102D01*
X158397205Y-102379744D01*
X158283937Y-102210226D01*
X158139774Y-102066063D01*
X157970256Y-101952795D01*
X157781898Y-101874774D01*
X157581939Y-101835000D01*
X157558551Y-101835000D01*
X157108517Y-101384967D01*
X157083859Y-101354921D01*
X156963962Y-101256524D01*
X156827173Y-101183408D01*
X156678747Y-101138384D01*
X156563063Y-101126990D01*
X156563053Y-101126990D01*
X156524390Y-101123182D01*
X156485727Y-101126990D01*
X152479678Y-101126990D01*
X152493078Y-101113474D01*
X152627421Y-100910533D01*
X152719591Y-100685282D01*
X152723462Y-100647609D01*
X152598731Y-100457000D01*
X151257000Y-100457000D01*
X151257000Y-100477000D01*
X151003000Y-100477000D01*
X151003000Y-100457000D01*
X149661269Y-100457000D01*
X149536538Y-100647609D01*
X149540409Y-100685282D01*
X149632579Y-100910533D01*
X149766922Y-101113474D01*
X149780322Y-101126990D01*
X139424275Y-101126990D01*
X139385610Y-101123182D01*
X139346945Y-101126990D01*
X139346937Y-101126990D01*
X139231253Y-101138384D01*
X139082827Y-101183408D01*
X138946038Y-101256524D01*
X138856180Y-101330268D01*
X138856177Y-101330271D01*
X138826141Y-101354921D01*
X138801491Y-101384957D01*
X138351449Y-101835000D01*
X138328061Y-101835000D01*
X138128102Y-101874774D01*
X137939744Y-101952795D01*
X137770226Y-102066063D01*
X137626063Y-102210226D01*
X137512795Y-102379744D01*
X137434774Y-102568102D01*
X137395000Y-102768061D01*
X131025000Y-102768061D01*
X131025000Y-102723740D01*
X130967932Y-102436842D01*
X130855990Y-102166589D01*
X130693475Y-101923368D01*
X130486632Y-101716525D01*
X130312240Y-101600000D01*
X130486632Y-101483475D01*
X130693475Y-101276632D01*
X130855990Y-101033411D01*
X130967932Y-100763158D01*
X131025000Y-100476260D01*
X131025000Y-100330000D01*
X172349025Y-100330000D01*
X172372870Y-100572102D01*
X172443489Y-100804901D01*
X172558167Y-101019449D01*
X172712498Y-101207502D01*
X172900551Y-101361833D01*
X173115099Y-101476511D01*
X173347898Y-101547130D01*
X173529335Y-101565000D01*
X174450665Y-101565000D01*
X174632102Y-101547130D01*
X174864901Y-101476511D01*
X175079449Y-101361833D01*
X175267502Y-101207502D01*
X175421833Y-101019449D01*
X175536511Y-100804901D01*
X175607130Y-100572102D01*
X175630975Y-100330000D01*
X175607130Y-100087898D01*
X175536511Y-99855099D01*
X175421833Y-99640551D01*
X175267502Y-99452498D01*
X175079449Y-99298167D01*
X174864901Y-99183489D01*
X174632102Y-99112870D01*
X174450665Y-99095000D01*
X173529335Y-99095000D01*
X173347898Y-99112870D01*
X173115099Y-99183489D01*
X172900551Y-99298167D01*
X172712498Y-99452498D01*
X172558167Y-99640551D01*
X172443489Y-99855099D01*
X172372870Y-100087898D01*
X172349025Y-100330000D01*
X131025000Y-100330000D01*
X131025000Y-100183740D01*
X130990917Y-100012391D01*
X149536538Y-100012391D01*
X149661269Y-100203000D01*
X151003000Y-100203000D01*
X151003000Y-99095000D01*
X151257000Y-99095000D01*
X151257000Y-100203000D01*
X152598731Y-100203000D01*
X152723462Y-100012391D01*
X152719591Y-99974718D01*
X152627421Y-99749467D01*
X152493078Y-99546526D01*
X152321725Y-99373693D01*
X152119946Y-99237610D01*
X151895496Y-99143507D01*
X151657000Y-99095000D01*
X151257000Y-99095000D01*
X151003000Y-99095000D01*
X150603000Y-99095000D01*
X150364504Y-99143507D01*
X150140054Y-99237610D01*
X149938275Y-99373693D01*
X149766922Y-99546526D01*
X149632579Y-99749467D01*
X149540409Y-99974718D01*
X149536538Y-100012391D01*
X130990917Y-100012391D01*
X130967932Y-99896842D01*
X130855990Y-99626589D01*
X130693475Y-99383368D01*
X130486632Y-99176525D01*
X130243411Y-99014010D01*
X129973158Y-98902068D01*
X129686260Y-98845000D01*
X129393740Y-98845000D01*
X129121799Y-98899093D01*
X129121799Y-95783061D01*
X134855000Y-95783061D01*
X134855000Y-95986939D01*
X134894774Y-96186898D01*
X134972795Y-96375256D01*
X135086063Y-96544774D01*
X135230226Y-96688937D01*
X135399744Y-96802205D01*
X135588102Y-96880226D01*
X135788061Y-96920000D01*
X135865331Y-96920000D01*
X137239141Y-98293811D01*
X137262602Y-98322398D01*
X137291188Y-98345858D01*
X137291190Y-98345860D01*
X137376696Y-98416034D01*
X137495338Y-98479449D01*
X137506868Y-98485612D01*
X137648112Y-98528458D01*
X137758194Y-98539300D01*
X137758204Y-98539300D01*
X137795000Y-98542924D01*
X137831796Y-98539300D01*
X149747285Y-98539300D01*
X149852498Y-98667502D01*
X150040551Y-98821833D01*
X150255099Y-98936511D01*
X150487898Y-99007130D01*
X150669335Y-99025000D01*
X151590665Y-99025000D01*
X151772102Y-99007130D01*
X152004901Y-98936511D01*
X152219449Y-98821833D01*
X152407502Y-98667502D01*
X152561833Y-98479449D01*
X152676511Y-98264901D01*
X152747130Y-98032102D01*
X152770975Y-97790000D01*
X172349025Y-97790000D01*
X172372870Y-98032102D01*
X172443489Y-98264901D01*
X172558167Y-98479449D01*
X172712498Y-98667502D01*
X172900551Y-98821833D01*
X173115099Y-98936511D01*
X173347898Y-99007130D01*
X173529335Y-99025000D01*
X174450665Y-99025000D01*
X174632102Y-99007130D01*
X174864901Y-98936511D01*
X175079449Y-98821833D01*
X175267502Y-98667502D01*
X175421833Y-98479449D01*
X175536511Y-98264901D01*
X175607130Y-98032102D01*
X175630975Y-97790000D01*
X175607130Y-97547898D01*
X175536511Y-97315099D01*
X175421833Y-97100551D01*
X175267502Y-96912498D01*
X175079449Y-96758167D01*
X174864901Y-96643489D01*
X174632102Y-96572870D01*
X174450665Y-96555000D01*
X173529335Y-96555000D01*
X173347898Y-96572870D01*
X173115099Y-96643489D01*
X172900551Y-96758167D01*
X172712498Y-96912498D01*
X172558167Y-97100551D01*
X172443489Y-97315099D01*
X172372870Y-97547898D01*
X172349025Y-97790000D01*
X152770975Y-97790000D01*
X152747130Y-97547898D01*
X152676511Y-97315099D01*
X152561833Y-97100551D01*
X152407502Y-96912498D01*
X152219449Y-96758167D01*
X152004901Y-96643489D01*
X151772102Y-96572870D01*
X151590665Y-96555000D01*
X150669335Y-96555000D01*
X150487898Y-96572870D01*
X150255099Y-96643489D01*
X150040551Y-96758167D01*
X149852498Y-96912498D01*
X149747285Y-97040700D01*
X138105370Y-97040700D01*
X136925000Y-95860331D01*
X136925000Y-95783061D01*
X136885226Y-95583102D01*
X136807205Y-95394744D01*
X136710491Y-95250000D01*
X149489025Y-95250000D01*
X149512870Y-95492102D01*
X149583489Y-95724901D01*
X149698167Y-95939449D01*
X149852498Y-96127502D01*
X150040551Y-96281833D01*
X150255099Y-96396511D01*
X150487898Y-96467130D01*
X150669335Y-96485000D01*
X151590665Y-96485000D01*
X151772102Y-96467130D01*
X152004901Y-96396511D01*
X152219449Y-96281833D01*
X152407502Y-96127502D01*
X152561833Y-95939449D01*
X152676511Y-95724901D01*
X152747130Y-95492102D01*
X152770975Y-95250000D01*
X172349025Y-95250000D01*
X172372870Y-95492102D01*
X172443489Y-95724901D01*
X172558167Y-95939449D01*
X172712498Y-96127502D01*
X172900551Y-96281833D01*
X173115099Y-96396511D01*
X173347898Y-96467130D01*
X173529335Y-96485000D01*
X174450665Y-96485000D01*
X174632102Y-96467130D01*
X174864901Y-96396511D01*
X175079449Y-96281833D01*
X175267502Y-96127502D01*
X175421833Y-95939449D01*
X175536511Y-95724901D01*
X175607130Y-95492102D01*
X175630975Y-95250000D01*
X175607130Y-95007898D01*
X175536511Y-94775099D01*
X175421833Y-94560551D01*
X175267502Y-94372498D01*
X175079449Y-94218167D01*
X174864901Y-94103489D01*
X174632102Y-94032870D01*
X174450665Y-94015000D01*
X173529335Y-94015000D01*
X173347898Y-94032870D01*
X173115099Y-94103489D01*
X172900551Y-94218167D01*
X172712498Y-94372498D01*
X172558167Y-94560551D01*
X172443489Y-94775099D01*
X172372870Y-95007898D01*
X172349025Y-95250000D01*
X152770975Y-95250000D01*
X152747130Y-95007898D01*
X152676511Y-94775099D01*
X152561833Y-94560551D01*
X152407502Y-94372498D01*
X152219449Y-94218167D01*
X152004901Y-94103489D01*
X151772102Y-94032870D01*
X151590665Y-94015000D01*
X150669335Y-94015000D01*
X150487898Y-94032870D01*
X150255099Y-94103489D01*
X150040551Y-94218167D01*
X149852498Y-94372498D01*
X149698167Y-94560551D01*
X149583489Y-94775099D01*
X149512870Y-95007898D01*
X149489025Y-95250000D01*
X136710491Y-95250000D01*
X136693937Y-95225226D01*
X136549774Y-95081063D01*
X136380256Y-94967795D01*
X136191898Y-94889774D01*
X135991939Y-94850000D01*
X135788061Y-94850000D01*
X135588102Y-94889774D01*
X135399744Y-94967795D01*
X135230226Y-95081063D01*
X135086063Y-95225226D01*
X134972795Y-95394744D01*
X134894774Y-95583102D01*
X134855000Y-95783061D01*
X129121799Y-95783061D01*
X129121799Y-94198072D01*
X130390000Y-94198072D01*
X130514482Y-94185812D01*
X130634180Y-94149502D01*
X130744494Y-94090537D01*
X130841185Y-94011185D01*
X130920537Y-93914494D01*
X130979502Y-93804180D01*
X131015812Y-93684482D01*
X131028072Y-93560000D01*
X131028072Y-93459300D01*
X143430589Y-93459300D01*
X143485226Y-93513937D01*
X143654744Y-93627205D01*
X143843102Y-93705226D01*
X144043061Y-93745000D01*
X144246939Y-93745000D01*
X144446898Y-93705226D01*
X144635256Y-93627205D01*
X144804774Y-93513937D01*
X144948937Y-93369774D01*
X145062205Y-93200256D01*
X145140226Y-93011898D01*
X145180000Y-92811939D01*
X145180000Y-92710000D01*
X149489025Y-92710000D01*
X149512870Y-92952102D01*
X149583489Y-93184901D01*
X149698167Y-93399449D01*
X149852498Y-93587502D01*
X150040551Y-93741833D01*
X150255099Y-93856511D01*
X150487898Y-93927130D01*
X150669335Y-93945000D01*
X151590665Y-93945000D01*
X151772102Y-93927130D01*
X152004901Y-93856511D01*
X152219449Y-93741833D01*
X152407502Y-93587502D01*
X152561833Y-93399449D01*
X152676511Y-93184901D01*
X152747130Y-92952102D01*
X152770975Y-92710000D01*
X172349025Y-92710000D01*
X172372870Y-92952102D01*
X172443489Y-93184901D01*
X172558167Y-93399449D01*
X172712498Y-93587502D01*
X172900551Y-93741833D01*
X173115099Y-93856511D01*
X173347898Y-93927130D01*
X173529335Y-93945000D01*
X174450665Y-93945000D01*
X174632102Y-93927130D01*
X174864901Y-93856511D01*
X175079449Y-93741833D01*
X175267502Y-93587502D01*
X175421833Y-93399449D01*
X175536511Y-93184901D01*
X175607130Y-92952102D01*
X175630975Y-92710000D01*
X175607130Y-92467898D01*
X175536511Y-92235099D01*
X175421833Y-92020551D01*
X175267502Y-91832498D01*
X175079449Y-91678167D01*
X174864901Y-91563489D01*
X174632102Y-91492870D01*
X174450665Y-91475000D01*
X173529335Y-91475000D01*
X173347898Y-91492870D01*
X173115099Y-91563489D01*
X172900551Y-91678167D01*
X172712498Y-91832498D01*
X172558167Y-92020551D01*
X172443489Y-92235099D01*
X172372870Y-92467898D01*
X172349025Y-92710000D01*
X152770975Y-92710000D01*
X152747130Y-92467898D01*
X152676511Y-92235099D01*
X152561833Y-92020551D01*
X152407502Y-91832498D01*
X152219449Y-91678167D01*
X152004901Y-91563489D01*
X151772102Y-91492870D01*
X151590665Y-91475000D01*
X150669335Y-91475000D01*
X150487898Y-91492870D01*
X150255099Y-91563489D01*
X150040551Y-91678167D01*
X149852498Y-91832498D01*
X149698167Y-92020551D01*
X149583489Y-92235099D01*
X149512870Y-92467898D01*
X149489025Y-92710000D01*
X145180000Y-92710000D01*
X145180000Y-92608061D01*
X145140226Y-92408102D01*
X145062205Y-92219744D01*
X144948937Y-92050226D01*
X144804774Y-91906063D01*
X144635256Y-91792795D01*
X144505771Y-91739160D01*
X144545000Y-91541939D01*
X144545000Y-91338061D01*
X144505226Y-91138102D01*
X144427205Y-90949744D01*
X144313937Y-90780226D01*
X144169774Y-90636063D01*
X144000256Y-90522795D01*
X143811898Y-90444774D01*
X143611939Y-90405000D01*
X143408061Y-90405000D01*
X143208102Y-90444774D01*
X143019744Y-90522795D01*
X142850226Y-90636063D01*
X142795589Y-90690700D01*
X131120370Y-90690700D01*
X130978699Y-90549029D01*
X131025000Y-90316260D01*
X131025000Y-90170000D01*
X149489025Y-90170000D01*
X149512870Y-90412102D01*
X149583489Y-90644901D01*
X149698167Y-90859449D01*
X149852498Y-91047502D01*
X150040551Y-91201833D01*
X150255099Y-91316511D01*
X150487898Y-91387130D01*
X150669335Y-91405000D01*
X151590665Y-91405000D01*
X151772102Y-91387130D01*
X152004901Y-91316511D01*
X152219449Y-91201833D01*
X152407502Y-91047502D01*
X152561833Y-90859449D01*
X152676511Y-90644901D01*
X152747130Y-90412102D01*
X152770975Y-90170000D01*
X172349025Y-90170000D01*
X172372870Y-90412102D01*
X172443489Y-90644901D01*
X172558167Y-90859449D01*
X172712498Y-91047502D01*
X172900551Y-91201833D01*
X173115099Y-91316511D01*
X173347898Y-91387130D01*
X173529335Y-91405000D01*
X174450665Y-91405000D01*
X174632102Y-91387130D01*
X174864901Y-91316511D01*
X175079449Y-91201833D01*
X175267502Y-91047502D01*
X175421833Y-90859449D01*
X175536511Y-90644901D01*
X175607130Y-90412102D01*
X175630975Y-90170000D01*
X175607130Y-89927898D01*
X175536511Y-89695099D01*
X175421833Y-89480551D01*
X175267502Y-89292498D01*
X175079449Y-89138167D01*
X174864901Y-89023489D01*
X174632102Y-88952870D01*
X174450665Y-88935000D01*
X173529335Y-88935000D01*
X173347898Y-88952870D01*
X173115099Y-89023489D01*
X172900551Y-89138167D01*
X172712498Y-89292498D01*
X172558167Y-89480551D01*
X172443489Y-89695099D01*
X172372870Y-89927898D01*
X172349025Y-90170000D01*
X152770975Y-90170000D01*
X152747130Y-89927898D01*
X152676511Y-89695099D01*
X152561833Y-89480551D01*
X152407502Y-89292498D01*
X152219449Y-89138167D01*
X152004901Y-89023489D01*
X151772102Y-88952870D01*
X151590665Y-88935000D01*
X150669335Y-88935000D01*
X150487898Y-88952870D01*
X150255099Y-89023489D01*
X150040551Y-89138167D01*
X149852498Y-89292498D01*
X149698167Y-89480551D01*
X149583489Y-89695099D01*
X149512870Y-89927898D01*
X149489025Y-90170000D01*
X131025000Y-90170000D01*
X131025000Y-90023740D01*
X130967932Y-89736842D01*
X130855990Y-89466589D01*
X130693475Y-89223368D01*
X130486632Y-89016525D01*
X130312240Y-88900000D01*
X130486632Y-88783475D01*
X130693475Y-88576632D01*
X130825328Y-88379300D01*
X143621961Y-88379300D01*
X143658756Y-88382924D01*
X143695551Y-88379300D01*
X143695562Y-88379300D01*
X143805644Y-88368458D01*
X143946888Y-88325612D01*
X144077059Y-88256034D01*
X144191154Y-88162398D01*
X144214619Y-88133806D01*
X144244047Y-88104378D01*
X144321317Y-88104378D01*
X144521276Y-88064604D01*
X144709634Y-87986583D01*
X144879152Y-87873315D01*
X145023315Y-87729152D01*
X145089566Y-87630000D01*
X149489025Y-87630000D01*
X149512870Y-87872102D01*
X149583489Y-88104901D01*
X149698167Y-88319449D01*
X149852498Y-88507502D01*
X150040551Y-88661833D01*
X150255099Y-88776511D01*
X150487898Y-88847130D01*
X150669335Y-88865000D01*
X151590665Y-88865000D01*
X151772102Y-88847130D01*
X152004901Y-88776511D01*
X152219449Y-88661833D01*
X152407502Y-88507502D01*
X152561833Y-88319449D01*
X152676511Y-88104901D01*
X152747130Y-87872102D01*
X152770975Y-87630000D01*
X172349025Y-87630000D01*
X172372870Y-87872102D01*
X172443489Y-88104901D01*
X172558167Y-88319449D01*
X172712498Y-88507502D01*
X172900551Y-88661833D01*
X173115099Y-88776511D01*
X173347898Y-88847130D01*
X173529335Y-88865000D01*
X174450665Y-88865000D01*
X174632102Y-88847130D01*
X174864901Y-88776511D01*
X175079449Y-88661833D01*
X175267502Y-88507502D01*
X175421833Y-88319449D01*
X175536511Y-88104901D01*
X175607130Y-87872102D01*
X175630975Y-87630000D01*
X175607130Y-87387898D01*
X175536511Y-87155099D01*
X175421833Y-86940551D01*
X175267502Y-86752498D01*
X175079449Y-86598167D01*
X174864901Y-86483489D01*
X174632102Y-86412870D01*
X174450665Y-86395000D01*
X173529335Y-86395000D01*
X173347898Y-86412870D01*
X173115099Y-86483489D01*
X172900551Y-86598167D01*
X172712498Y-86752498D01*
X172558167Y-86940551D01*
X172443489Y-87155099D01*
X172372870Y-87387898D01*
X172349025Y-87630000D01*
X152770975Y-87630000D01*
X152747130Y-87387898D01*
X152676511Y-87155099D01*
X152561833Y-86940551D01*
X152407502Y-86752498D01*
X152219449Y-86598167D01*
X152004901Y-86483489D01*
X151772102Y-86412870D01*
X151590665Y-86395000D01*
X150669335Y-86395000D01*
X150487898Y-86412870D01*
X150255099Y-86483489D01*
X150040551Y-86598167D01*
X149852498Y-86752498D01*
X149698167Y-86940551D01*
X149583489Y-87155099D01*
X149512870Y-87387898D01*
X149489025Y-87630000D01*
X145089566Y-87630000D01*
X145136583Y-87559634D01*
X145214604Y-87371276D01*
X145254378Y-87171317D01*
X145254378Y-86967439D01*
X145214604Y-86767480D01*
X145136583Y-86579122D01*
X145023315Y-86409604D01*
X144968783Y-86355072D01*
X145062205Y-86215256D01*
X145140226Y-86026898D01*
X145180000Y-85826939D01*
X145180000Y-85623061D01*
X145140226Y-85423102D01*
X145062205Y-85234744D01*
X144965491Y-85090000D01*
X149489025Y-85090000D01*
X149512870Y-85332102D01*
X149583489Y-85564901D01*
X149698167Y-85779449D01*
X149852498Y-85967502D01*
X150040551Y-86121833D01*
X150255099Y-86236511D01*
X150487898Y-86307130D01*
X150669335Y-86325000D01*
X151590665Y-86325000D01*
X151772102Y-86307130D01*
X152004901Y-86236511D01*
X152219449Y-86121833D01*
X152407502Y-85967502D01*
X152561833Y-85779449D01*
X152676511Y-85564901D01*
X152747130Y-85332102D01*
X152770975Y-85090000D01*
X172349025Y-85090000D01*
X172372870Y-85332102D01*
X172443489Y-85564901D01*
X172558167Y-85779449D01*
X172712498Y-85967502D01*
X172900551Y-86121833D01*
X173115099Y-86236511D01*
X173347898Y-86307130D01*
X173529335Y-86325000D01*
X174450665Y-86325000D01*
X174632102Y-86307130D01*
X174864901Y-86236511D01*
X175079449Y-86121833D01*
X175267502Y-85967502D01*
X175421833Y-85779449D01*
X175536511Y-85564901D01*
X175607130Y-85332102D01*
X175630975Y-85090000D01*
X175607130Y-84847898D01*
X175536511Y-84615099D01*
X175421833Y-84400551D01*
X175267502Y-84212498D01*
X175079449Y-84058167D01*
X174864901Y-83943489D01*
X174632102Y-83872870D01*
X174450665Y-83855000D01*
X173529335Y-83855000D01*
X173347898Y-83872870D01*
X173115099Y-83943489D01*
X172900551Y-84058167D01*
X172712498Y-84212498D01*
X172558167Y-84400551D01*
X172443489Y-84615099D01*
X172372870Y-84847898D01*
X172349025Y-85090000D01*
X152770975Y-85090000D01*
X152747130Y-84847898D01*
X152676511Y-84615099D01*
X152561833Y-84400551D01*
X152407502Y-84212498D01*
X152219449Y-84058167D01*
X152004901Y-83943489D01*
X151772102Y-83872870D01*
X151590665Y-83855000D01*
X150669335Y-83855000D01*
X150487898Y-83872870D01*
X150255099Y-83943489D01*
X150040551Y-84058167D01*
X149852498Y-84212498D01*
X149698167Y-84400551D01*
X149583489Y-84615099D01*
X149512870Y-84847898D01*
X149489025Y-85090000D01*
X144965491Y-85090000D01*
X144948937Y-85065226D01*
X144804774Y-84921063D01*
X144635256Y-84807795D01*
X144550047Y-84772500D01*
X144635256Y-84737205D01*
X144804774Y-84623937D01*
X144948937Y-84479774D01*
X145062205Y-84310256D01*
X145140226Y-84121898D01*
X145180000Y-83921939D01*
X145180000Y-83718061D01*
X145140226Y-83518102D01*
X145062205Y-83329744D01*
X144948937Y-83160226D01*
X144804774Y-83016063D01*
X144635256Y-82902795D01*
X144446898Y-82824774D01*
X144246939Y-82785000D01*
X144169670Y-82785000D01*
X143934670Y-82550000D01*
X149489025Y-82550000D01*
X149512870Y-82792102D01*
X149583489Y-83024901D01*
X149698167Y-83239449D01*
X149852498Y-83427502D01*
X150040551Y-83581833D01*
X150255099Y-83696511D01*
X150487898Y-83767130D01*
X150669335Y-83785000D01*
X151590665Y-83785000D01*
X151772102Y-83767130D01*
X152004901Y-83696511D01*
X152219449Y-83581833D01*
X152407502Y-83427502D01*
X152561833Y-83239449D01*
X152676511Y-83024901D01*
X152724225Y-82867609D01*
X172396538Y-82867609D01*
X172400409Y-82905282D01*
X172492579Y-83130533D01*
X172626922Y-83333474D01*
X172798275Y-83506307D01*
X173000054Y-83642390D01*
X173224504Y-83736493D01*
X173463000Y-83785000D01*
X173863000Y-83785000D01*
X173863000Y-82677000D01*
X174117000Y-82677000D01*
X174117000Y-83785000D01*
X174517000Y-83785000D01*
X174755496Y-83736493D01*
X174979946Y-83642390D01*
X175181725Y-83506307D01*
X175353078Y-83333474D01*
X175487421Y-83130533D01*
X175579591Y-82905282D01*
X175583462Y-82867609D01*
X175458731Y-82677000D01*
X174117000Y-82677000D01*
X173863000Y-82677000D01*
X172521269Y-82677000D01*
X172396538Y-82867609D01*
X152724225Y-82867609D01*
X152747130Y-82792102D01*
X152770975Y-82550000D01*
X152747130Y-82307898D01*
X152724226Y-82232391D01*
X172396538Y-82232391D01*
X172521269Y-82423000D01*
X173863000Y-82423000D01*
X173863000Y-81315000D01*
X174117000Y-81315000D01*
X174117000Y-82423000D01*
X175458731Y-82423000D01*
X175583462Y-82232391D01*
X175579591Y-82194718D01*
X175487421Y-81969467D01*
X175353078Y-81766526D01*
X175181725Y-81593693D01*
X174979946Y-81457610D01*
X174755496Y-81363507D01*
X174517000Y-81315000D01*
X174117000Y-81315000D01*
X173863000Y-81315000D01*
X173463000Y-81315000D01*
X173224504Y-81363507D01*
X173000054Y-81457610D01*
X172798275Y-81593693D01*
X172626922Y-81766526D01*
X172492579Y-81969467D01*
X172400409Y-82194718D01*
X172396538Y-82232391D01*
X152724226Y-82232391D01*
X152676511Y-82075099D01*
X152561833Y-81860551D01*
X152407502Y-81672498D01*
X152219449Y-81518167D01*
X152004901Y-81403489D01*
X151772102Y-81332870D01*
X151590665Y-81315000D01*
X150669335Y-81315000D01*
X150487898Y-81332870D01*
X150255099Y-81403489D01*
X150040551Y-81518167D01*
X149852498Y-81672498D01*
X149698167Y-81860551D01*
X149583489Y-82075099D01*
X149512870Y-82307898D01*
X149489025Y-82550000D01*
X143934670Y-82550000D01*
X141525863Y-80141194D01*
X141502398Y-80112602D01*
X141388303Y-80018966D01*
X141371529Y-80010000D01*
X149489025Y-80010000D01*
X149512870Y-80252102D01*
X149583489Y-80484901D01*
X149698167Y-80699449D01*
X149852498Y-80887502D01*
X150040551Y-81041833D01*
X150255099Y-81156511D01*
X150487898Y-81227130D01*
X150669335Y-81245000D01*
X151590665Y-81245000D01*
X151772102Y-81227130D01*
X152004901Y-81156511D01*
X152219449Y-81041833D01*
X152407502Y-80887502D01*
X152561833Y-80699449D01*
X152676511Y-80484901D01*
X152747130Y-80252102D01*
X152770975Y-80010000D01*
X172349025Y-80010000D01*
X172372870Y-80252102D01*
X172443489Y-80484901D01*
X172558167Y-80699449D01*
X172712498Y-80887502D01*
X172900551Y-81041833D01*
X173115099Y-81156511D01*
X173347898Y-81227130D01*
X173529335Y-81245000D01*
X174450665Y-81245000D01*
X174632102Y-81227130D01*
X174864901Y-81156511D01*
X175079449Y-81041833D01*
X175267502Y-80887502D01*
X175421833Y-80699449D01*
X175536511Y-80484901D01*
X175607130Y-80252102D01*
X175630975Y-80010000D01*
X175607130Y-79767898D01*
X175536511Y-79535099D01*
X175421833Y-79320551D01*
X175267502Y-79132498D01*
X175079449Y-78978167D01*
X174864901Y-78863489D01*
X174632102Y-78792870D01*
X174450665Y-78775000D01*
X173529335Y-78775000D01*
X173347898Y-78792870D01*
X173115099Y-78863489D01*
X172900551Y-78978167D01*
X172712498Y-79132498D01*
X172558167Y-79320551D01*
X172443489Y-79535099D01*
X172372870Y-79767898D01*
X172349025Y-80010000D01*
X152770975Y-80010000D01*
X152747130Y-79767898D01*
X152676511Y-79535099D01*
X152561833Y-79320551D01*
X152407502Y-79132498D01*
X152219449Y-78978167D01*
X152004901Y-78863489D01*
X151772102Y-78792870D01*
X151590665Y-78775000D01*
X150669335Y-78775000D01*
X150487898Y-78792870D01*
X150255099Y-78863489D01*
X150040551Y-78978167D01*
X149852498Y-79132498D01*
X149698167Y-79320551D01*
X149583489Y-79535099D01*
X149512870Y-79767898D01*
X149489025Y-80010000D01*
X141371529Y-80010000D01*
X141258132Y-79949388D01*
X141116888Y-79906542D01*
X141006806Y-79895700D01*
X141006795Y-79895700D01*
X140970000Y-79892076D01*
X140933205Y-79895700D01*
X133025370Y-79895700D01*
X130978699Y-77849030D01*
X131025000Y-77616260D01*
X131025000Y-77470000D01*
X149489025Y-77470000D01*
X149512870Y-77712102D01*
X149583489Y-77944901D01*
X149698167Y-78159449D01*
X149852498Y-78347502D01*
X150040551Y-78501833D01*
X150255099Y-78616511D01*
X150487898Y-78687130D01*
X150669335Y-78705000D01*
X151590665Y-78705000D01*
X151772102Y-78687130D01*
X152004901Y-78616511D01*
X152219449Y-78501833D01*
X152407502Y-78347502D01*
X152561833Y-78159449D01*
X152676511Y-77944901D01*
X152747130Y-77712102D01*
X152770975Y-77470000D01*
X172349025Y-77470000D01*
X172372870Y-77712102D01*
X172443489Y-77944901D01*
X172558167Y-78159449D01*
X172712498Y-78347502D01*
X172900551Y-78501833D01*
X173115099Y-78616511D01*
X173347898Y-78687130D01*
X173529335Y-78705000D01*
X174450665Y-78705000D01*
X174632102Y-78687130D01*
X174864901Y-78616511D01*
X175079449Y-78501833D01*
X175267502Y-78347502D01*
X175421833Y-78159449D01*
X175536511Y-77944901D01*
X175607130Y-77712102D01*
X175630975Y-77470000D01*
X175607130Y-77227898D01*
X175536511Y-76995099D01*
X175421833Y-76780551D01*
X175267502Y-76592498D01*
X175079449Y-76438167D01*
X174864901Y-76323489D01*
X174632102Y-76252870D01*
X174450665Y-76235000D01*
X173529335Y-76235000D01*
X173347898Y-76252870D01*
X173115099Y-76323489D01*
X172900551Y-76438167D01*
X172712498Y-76592498D01*
X172558167Y-76780551D01*
X172443489Y-76995099D01*
X172372870Y-77227898D01*
X172349025Y-77470000D01*
X152770975Y-77470000D01*
X152747130Y-77227898D01*
X152676511Y-76995099D01*
X152561833Y-76780551D01*
X152407502Y-76592498D01*
X152219449Y-76438167D01*
X152004901Y-76323489D01*
X151772102Y-76252870D01*
X151590665Y-76235000D01*
X150669335Y-76235000D01*
X150487898Y-76252870D01*
X150255099Y-76323489D01*
X150040551Y-76438167D01*
X149852498Y-76592498D01*
X149698167Y-76780551D01*
X149583489Y-76995099D01*
X149512870Y-77227898D01*
X149489025Y-77470000D01*
X131025000Y-77470000D01*
X131025000Y-77323740D01*
X130967932Y-77036842D01*
X130855990Y-76766589D01*
X130693475Y-76523368D01*
X130486632Y-76316525D01*
X130312240Y-76200000D01*
X130486632Y-76083475D01*
X130693475Y-75876632D01*
X130855990Y-75633411D01*
X130967932Y-75363158D01*
X131025000Y-75076260D01*
X131025000Y-74930000D01*
X149489025Y-74930000D01*
X149512870Y-75172102D01*
X149583489Y-75404901D01*
X149698167Y-75619449D01*
X149852498Y-75807502D01*
X150040551Y-75961833D01*
X150255099Y-76076511D01*
X150487898Y-76147130D01*
X150669335Y-76165000D01*
X151590665Y-76165000D01*
X151772102Y-76147130D01*
X152004901Y-76076511D01*
X152219449Y-75961833D01*
X152407502Y-75807502D01*
X152561833Y-75619449D01*
X152676511Y-75404901D01*
X152747130Y-75172102D01*
X152770975Y-74930000D01*
X172349025Y-74930000D01*
X172372870Y-75172102D01*
X172443489Y-75404901D01*
X172558167Y-75619449D01*
X172712498Y-75807502D01*
X172900551Y-75961833D01*
X173115099Y-76076511D01*
X173347898Y-76147130D01*
X173529335Y-76165000D01*
X174450665Y-76165000D01*
X174632102Y-76147130D01*
X174864901Y-76076511D01*
X175079449Y-75961833D01*
X175267502Y-75807502D01*
X175421833Y-75619449D01*
X175536511Y-75404901D01*
X175607130Y-75172102D01*
X175630975Y-74930000D01*
X175607130Y-74687898D01*
X175536511Y-74455099D01*
X175421833Y-74240551D01*
X175267502Y-74052498D01*
X175079449Y-73898167D01*
X174864901Y-73783489D01*
X174632102Y-73712870D01*
X174450665Y-73695000D01*
X173529335Y-73695000D01*
X173347898Y-73712870D01*
X173115099Y-73783489D01*
X172900551Y-73898167D01*
X172712498Y-74052498D01*
X172558167Y-74240551D01*
X172443489Y-74455099D01*
X172372870Y-74687898D01*
X172349025Y-74930000D01*
X152770975Y-74930000D01*
X152747130Y-74687898D01*
X152676511Y-74455099D01*
X152561833Y-74240551D01*
X152407502Y-74052498D01*
X152219449Y-73898167D01*
X152004901Y-73783489D01*
X151772102Y-73712870D01*
X151590665Y-73695000D01*
X150669335Y-73695000D01*
X150487898Y-73712870D01*
X150255099Y-73783489D01*
X150040551Y-73898167D01*
X149852498Y-74052498D01*
X149698167Y-74240551D01*
X149583489Y-74455099D01*
X149512870Y-74687898D01*
X149489025Y-74930000D01*
X131025000Y-74930000D01*
X131025000Y-74783740D01*
X130967932Y-74496842D01*
X130855990Y-74226589D01*
X130693475Y-73983368D01*
X130486632Y-73776525D01*
X130312240Y-73660000D01*
X130486632Y-73543475D01*
X130693475Y-73336632D01*
X130855990Y-73093411D01*
X130967932Y-72823158D01*
X131025000Y-72536260D01*
X131025000Y-72243740D01*
X130967932Y-71956842D01*
X130855990Y-71686589D01*
X130693475Y-71443368D01*
X130486632Y-71236525D01*
X130243411Y-71074010D01*
X129973158Y-70962068D01*
X129686260Y-70905000D01*
X129393740Y-70905000D01*
X129106842Y-70962068D01*
X128836589Y-71074010D01*
X128593368Y-71236525D01*
X128386525Y-71443368D01*
X128224010Y-71686589D01*
X128112068Y-71956842D01*
X128055000Y-72243740D01*
X128055000Y-72536260D01*
X128112068Y-72823158D01*
X128224010Y-73093411D01*
X128386525Y-73336632D01*
X128593368Y-73543475D01*
X128767760Y-73660000D01*
X128593368Y-73776525D01*
X128386525Y-73983368D01*
X128224010Y-74226589D01*
X128112068Y-74496842D01*
X128055000Y-74783740D01*
X128055000Y-75076260D01*
X128112068Y-75363158D01*
X128224010Y-75633411D01*
X128386525Y-75876632D01*
X128593368Y-76083475D01*
X128767760Y-76200000D01*
X128593368Y-76316525D01*
X128386525Y-76523368D01*
X128224010Y-76766589D01*
X128112068Y-77036842D01*
X128055000Y-77323740D01*
X128055000Y-77616260D01*
X128112068Y-77903158D01*
X128224010Y-78173411D01*
X128386525Y-78416632D01*
X128593368Y-78623475D01*
X128775534Y-78745195D01*
X128658645Y-78814822D01*
X128442412Y-79009731D01*
X128268359Y-79243080D01*
X128143175Y-79505901D01*
X128098524Y-79653110D01*
X128219845Y-79883000D01*
X129413000Y-79883000D01*
X129413000Y-79863000D01*
X129667000Y-79863000D01*
X129667000Y-79883000D01*
X129687000Y-79883000D01*
X129687000Y-80137000D01*
X129667000Y-80137000D01*
X129667000Y-80157000D01*
X129413000Y-80157000D01*
X129413000Y-80137000D01*
X128219845Y-80137000D01*
X128098524Y-80366890D01*
X128143175Y-80514099D01*
X128268359Y-80776920D01*
X128442412Y-81010269D01*
X128658645Y-81205178D01*
X128775534Y-81274805D01*
X128593368Y-81396525D01*
X128386525Y-81603368D01*
X128224010Y-81846589D01*
X128112068Y-82116842D01*
X128055000Y-82403740D01*
X128055000Y-82696260D01*
X128112068Y-82983158D01*
X128224010Y-83253411D01*
X128386525Y-83496632D01*
X128593368Y-83703475D01*
X128767760Y-83820000D01*
X128593368Y-83936525D01*
X128386525Y-84143368D01*
X128224010Y-84386589D01*
X128112068Y-84656842D01*
X128055000Y-84943740D01*
X128055000Y-85236260D01*
X128092362Y-85424088D01*
X127804976Y-85711474D01*
X127774930Y-85736132D01*
X127676533Y-85856030D01*
X127603417Y-85992819D01*
X127558393Y-86141245D01*
X127546999Y-86256929D01*
X127546999Y-86256938D01*
X127543191Y-86295601D01*
X125120000Y-86295601D01*
X125120000Y-70899872D01*
X133020000Y-70899872D01*
X133020000Y-71340128D01*
X133105890Y-71771925D01*
X133274369Y-72178669D01*
X133518962Y-72544729D01*
X133830271Y-72856038D01*
X134196331Y-73100631D01*
X134603075Y-73269110D01*
X135034872Y-73355000D01*
X135475128Y-73355000D01*
X135906925Y-73269110D01*
X136313669Y-73100631D01*
X136679729Y-72856038D01*
X136991038Y-72544729D01*
X137094424Y-72390000D01*
X149489025Y-72390000D01*
X149512870Y-72632102D01*
X149583489Y-72864901D01*
X149698167Y-73079449D01*
X149852498Y-73267502D01*
X150040551Y-73421833D01*
X150255099Y-73536511D01*
X150487898Y-73607130D01*
X150669335Y-73625000D01*
X151590665Y-73625000D01*
X151772102Y-73607130D01*
X152004901Y-73536511D01*
X152219449Y-73421833D01*
X152407502Y-73267502D01*
X152561833Y-73079449D01*
X152676511Y-72864901D01*
X152747130Y-72632102D01*
X152770975Y-72390000D01*
X152747130Y-72147898D01*
X152676511Y-71915099D01*
X152561833Y-71700551D01*
X152407502Y-71512498D01*
X152219449Y-71358167D01*
X152004901Y-71243489D01*
X151772102Y-71172870D01*
X151590665Y-71155000D01*
X150669335Y-71155000D01*
X150487898Y-71172870D01*
X150255099Y-71243489D01*
X150040551Y-71358167D01*
X149852498Y-71512498D01*
X149698167Y-71700551D01*
X149583489Y-71915099D01*
X149512870Y-72147898D01*
X149489025Y-72390000D01*
X137094424Y-72390000D01*
X137235631Y-72178669D01*
X137404110Y-71771925D01*
X137490000Y-71340128D01*
X137490000Y-70899872D01*
X137404110Y-70468075D01*
X137350538Y-70338740D01*
X141390000Y-70338740D01*
X141390000Y-70631260D01*
X141447068Y-70918158D01*
X141559010Y-71188411D01*
X141721525Y-71431632D01*
X141928368Y-71638475D01*
X142171589Y-71800990D01*
X142441842Y-71912932D01*
X142728740Y-71970000D01*
X143021260Y-71970000D01*
X143308158Y-71912932D01*
X143578411Y-71800990D01*
X143821632Y-71638475D01*
X143953487Y-71506620D01*
X143975498Y-71579180D01*
X144034463Y-71689494D01*
X144113815Y-71786185D01*
X144210506Y-71865537D01*
X144320820Y-71924502D01*
X144440518Y-71960812D01*
X144565000Y-71973072D01*
X146265000Y-71973072D01*
X146389482Y-71960812D01*
X146509180Y-71924502D01*
X146619494Y-71865537D01*
X146716185Y-71786185D01*
X146795537Y-71689494D01*
X146854502Y-71579180D01*
X146890812Y-71459482D01*
X146903072Y-71335000D01*
X146903072Y-69850000D01*
X149489025Y-69850000D01*
X149512870Y-70092102D01*
X149583489Y-70324901D01*
X149698167Y-70539449D01*
X149852498Y-70727502D01*
X150040551Y-70881833D01*
X150255099Y-70996511D01*
X150487898Y-71067130D01*
X150669335Y-71085000D01*
X151590665Y-71085000D01*
X151772102Y-71067130D01*
X152004901Y-70996511D01*
X152185700Y-70899872D01*
X166040000Y-70899872D01*
X166040000Y-71340128D01*
X166125890Y-71771925D01*
X166294369Y-72178669D01*
X166538962Y-72544729D01*
X166850271Y-72856038D01*
X167216331Y-73100631D01*
X167623075Y-73269110D01*
X168054872Y-73355000D01*
X168495128Y-73355000D01*
X168926925Y-73269110D01*
X169333669Y-73100631D01*
X169699729Y-72856038D01*
X170011038Y-72544729D01*
X170114424Y-72390000D01*
X172349025Y-72390000D01*
X172372870Y-72632102D01*
X172443489Y-72864901D01*
X172558167Y-73079449D01*
X172712498Y-73267502D01*
X172900551Y-73421833D01*
X173115099Y-73536511D01*
X173347898Y-73607130D01*
X173529335Y-73625000D01*
X174450665Y-73625000D01*
X174632102Y-73607130D01*
X174864901Y-73536511D01*
X175079449Y-73421833D01*
X175267502Y-73267502D01*
X175421833Y-73079449D01*
X175536511Y-72864901D01*
X175607130Y-72632102D01*
X175630975Y-72390000D01*
X175607130Y-72147898D01*
X175536511Y-71915099D01*
X175421833Y-71700551D01*
X175267502Y-71512498D01*
X175079449Y-71358167D01*
X174864901Y-71243489D01*
X174632102Y-71172870D01*
X174450665Y-71155000D01*
X173529335Y-71155000D01*
X173347898Y-71172870D01*
X173115099Y-71243489D01*
X172900551Y-71358167D01*
X172712498Y-71512498D01*
X172558167Y-71700551D01*
X172443489Y-71915099D01*
X172372870Y-72147898D01*
X172349025Y-72390000D01*
X170114424Y-72390000D01*
X170255631Y-72178669D01*
X170424110Y-71771925D01*
X170510000Y-71340128D01*
X170510000Y-70899872D01*
X170424110Y-70468075D01*
X170255631Y-70061331D01*
X170114425Y-69850000D01*
X172349025Y-69850000D01*
X172372870Y-70092102D01*
X172443489Y-70324901D01*
X172558167Y-70539449D01*
X172712498Y-70727502D01*
X172900551Y-70881833D01*
X173115099Y-70996511D01*
X173347898Y-71067130D01*
X173529335Y-71085000D01*
X174450665Y-71085000D01*
X174632102Y-71067130D01*
X174864901Y-70996511D01*
X175079449Y-70881833D01*
X175267502Y-70727502D01*
X175421833Y-70539449D01*
X175536511Y-70324901D01*
X175607130Y-70092102D01*
X175630975Y-69850000D01*
X175607130Y-69607898D01*
X175536511Y-69375099D01*
X175421833Y-69160551D01*
X175267502Y-68972498D01*
X175079449Y-68818167D01*
X174864901Y-68703489D01*
X174632102Y-68632870D01*
X174450665Y-68615000D01*
X173529335Y-68615000D01*
X173347898Y-68632870D01*
X173115099Y-68703489D01*
X172900551Y-68818167D01*
X172712498Y-68972498D01*
X172558167Y-69160551D01*
X172443489Y-69375099D01*
X172372870Y-69607898D01*
X172349025Y-69850000D01*
X170114425Y-69850000D01*
X170011038Y-69695271D01*
X169699729Y-69383962D01*
X169333669Y-69139369D01*
X168926925Y-68970890D01*
X168495128Y-68885000D01*
X168054872Y-68885000D01*
X167623075Y-68970890D01*
X167216331Y-69139369D01*
X166850271Y-69383962D01*
X166538962Y-69695271D01*
X166294369Y-70061331D01*
X166125890Y-70468075D01*
X166040000Y-70899872D01*
X152185700Y-70899872D01*
X152219449Y-70881833D01*
X152407502Y-70727502D01*
X152561833Y-70539449D01*
X152676511Y-70324901D01*
X152747130Y-70092102D01*
X152770975Y-69850000D01*
X152747130Y-69607898D01*
X152676511Y-69375099D01*
X152561833Y-69160551D01*
X152407502Y-68972498D01*
X152219449Y-68818167D01*
X152004901Y-68703489D01*
X151772102Y-68632870D01*
X151590665Y-68615000D01*
X150669335Y-68615000D01*
X150487898Y-68632870D01*
X150255099Y-68703489D01*
X150040551Y-68818167D01*
X149852498Y-68972498D01*
X149698167Y-69160551D01*
X149583489Y-69375099D01*
X149512870Y-69607898D01*
X149489025Y-69850000D01*
X146903072Y-69850000D01*
X146903072Y-69635000D01*
X146890812Y-69510518D01*
X146854502Y-69390820D01*
X146795537Y-69280506D01*
X146716185Y-69183815D01*
X146619494Y-69104463D01*
X146509180Y-69045498D01*
X146389482Y-69009188D01*
X146265000Y-68996928D01*
X144565000Y-68996928D01*
X144440518Y-69009188D01*
X144320820Y-69045498D01*
X144210506Y-69104463D01*
X144113815Y-69183815D01*
X144034463Y-69280506D01*
X143975498Y-69390820D01*
X143953487Y-69463380D01*
X143821632Y-69331525D01*
X143578411Y-69169010D01*
X143308158Y-69057068D01*
X143021260Y-69000000D01*
X142728740Y-69000000D01*
X142441842Y-69057068D01*
X142171589Y-69169010D01*
X141928368Y-69331525D01*
X141721525Y-69538368D01*
X141559010Y-69781589D01*
X141447068Y-70051842D01*
X141390000Y-70338740D01*
X137350538Y-70338740D01*
X137235631Y-70061331D01*
X136991038Y-69695271D01*
X136679729Y-69383962D01*
X136313669Y-69139369D01*
X135906925Y-68970890D01*
X135475128Y-68885000D01*
X135034872Y-68885000D01*
X134603075Y-68970890D01*
X134196331Y-69139369D01*
X133830271Y-69383962D01*
X133518962Y-69695271D01*
X133274369Y-70061331D01*
X133105890Y-70468075D01*
X133020000Y-70899872D01*
X125120000Y-70899872D01*
X125120000Y-67970000D01*
X177140001Y-67970000D01*
X177140000Y-123800000D01*
%TA.AperFunction,Conductor*%
D18*
G36*
X177140000Y-123800000D02*
G01*
X125120000Y-123800000D01*
X125120000Y-86295601D01*
X127543191Y-86295601D01*
X127546999Y-86334264D01*
X127547000Y-111785726D01*
X127543191Y-111824399D01*
X127558394Y-111978756D01*
X127603417Y-112127181D01*
X127676534Y-112263971D01*
X127774931Y-112383868D01*
X127804972Y-112408522D01*
X128092362Y-112695912D01*
X128055000Y-112883740D01*
X128055000Y-113176260D01*
X128112068Y-113463158D01*
X128224010Y-113733411D01*
X128386525Y-113976632D01*
X128593368Y-114183475D01*
X128767760Y-114300000D01*
X128593368Y-114416525D01*
X128386525Y-114623368D01*
X128224010Y-114866589D01*
X128112068Y-115136842D01*
X128055000Y-115423740D01*
X128055000Y-115716260D01*
X128112068Y-116003158D01*
X128224010Y-116273411D01*
X128386525Y-116516632D01*
X128593368Y-116723475D01*
X128767760Y-116840000D01*
X128593368Y-116956525D01*
X128386525Y-117163368D01*
X128224010Y-117406589D01*
X128112068Y-117676842D01*
X128055000Y-117963740D01*
X128055000Y-118256260D01*
X128112068Y-118543158D01*
X128224010Y-118813411D01*
X128386525Y-119056632D01*
X128518380Y-119188487D01*
X128445820Y-119210498D01*
X128335506Y-119269463D01*
X128238815Y-119348815D01*
X128159463Y-119445506D01*
X128100498Y-119555820D01*
X128064188Y-119675518D01*
X128051928Y-119800000D01*
X128051928Y-121500000D01*
X128064188Y-121624482D01*
X128100498Y-121744180D01*
X128159463Y-121854494D01*
X128238815Y-121951185D01*
X128335506Y-122030537D01*
X128445820Y-122089502D01*
X128565518Y-122125812D01*
X128690000Y-122138072D01*
X130390000Y-122138072D01*
X130514482Y-122125812D01*
X130634180Y-122089502D01*
X130744494Y-122030537D01*
X130841185Y-121951185D01*
X130920537Y-121854494D01*
X130979502Y-121744180D01*
X131015812Y-121624482D01*
X131028072Y-121500000D01*
X131028072Y-120429872D01*
X133020000Y-120429872D01*
X133020000Y-120870128D01*
X133105890Y-121301925D01*
X133274369Y-121708669D01*
X133518962Y-122074729D01*
X133830271Y-122386038D01*
X134196331Y-122630631D01*
X134603075Y-122799110D01*
X135034872Y-122885000D01*
X135475128Y-122885000D01*
X135906925Y-122799110D01*
X136313669Y-122630631D01*
X136679729Y-122386038D01*
X136991038Y-122074729D01*
X137235631Y-121708669D01*
X137404110Y-121301925D01*
X137490000Y-120870128D01*
X137490000Y-120429872D01*
X166040000Y-120429872D01*
X166040000Y-120870128D01*
X166125890Y-121301925D01*
X166294369Y-121708669D01*
X166538962Y-122074729D01*
X166850271Y-122386038D01*
X167216331Y-122630631D01*
X167623075Y-122799110D01*
X168054872Y-122885000D01*
X168495128Y-122885000D01*
X168926925Y-122799110D01*
X169333669Y-122630631D01*
X169699729Y-122386038D01*
X170011038Y-122074729D01*
X170255631Y-121708669D01*
X170424110Y-121301925D01*
X170510000Y-120870128D01*
X170510000Y-120429872D01*
X170424110Y-119998075D01*
X170255631Y-119591331D01*
X170011038Y-119225271D01*
X169699729Y-118913962D01*
X169333669Y-118669369D01*
X168926925Y-118500890D01*
X168495128Y-118415000D01*
X168054872Y-118415000D01*
X167623075Y-118500890D01*
X167216331Y-118669369D01*
X166850271Y-118913962D01*
X166538962Y-119225271D01*
X166294369Y-119591331D01*
X166125890Y-119998075D01*
X166040000Y-120429872D01*
X137490000Y-120429872D01*
X137404110Y-119998075D01*
X137235631Y-119591331D01*
X136991038Y-119225271D01*
X136679729Y-118913962D01*
X136313669Y-118669369D01*
X135906925Y-118500890D01*
X135475128Y-118415000D01*
X135034872Y-118415000D01*
X134603075Y-118500890D01*
X134196331Y-118669369D01*
X133830271Y-118913962D01*
X133518962Y-119225271D01*
X133274369Y-119591331D01*
X133105890Y-119998075D01*
X133020000Y-120429872D01*
X131028072Y-120429872D01*
X131028072Y-119800000D01*
X131015812Y-119675518D01*
X130979502Y-119555820D01*
X130920537Y-119445506D01*
X130841185Y-119348815D01*
X130744494Y-119269463D01*
X130634180Y-119210498D01*
X130561620Y-119188487D01*
X130693475Y-119056632D01*
X130855990Y-118813411D01*
X130967932Y-118543158D01*
X131025000Y-118256260D01*
X131025000Y-117963740D01*
X130967932Y-117676842D01*
X130855990Y-117406589D01*
X130693475Y-117163368D01*
X130486632Y-116956525D01*
X130312240Y-116840000D01*
X130486632Y-116723475D01*
X130693475Y-116516632D01*
X130855990Y-116273411D01*
X130967932Y-116003158D01*
X130990916Y-115887609D01*
X149536538Y-115887609D01*
X149540409Y-115925282D01*
X149632579Y-116150533D01*
X149766922Y-116353474D01*
X149938275Y-116526307D01*
X150140054Y-116662390D01*
X150364504Y-116756493D01*
X150603000Y-116805000D01*
X151003000Y-116805000D01*
X151003000Y-115697000D01*
X151257000Y-115697000D01*
X151257000Y-116805000D01*
X151657000Y-116805000D01*
X151895496Y-116756493D01*
X152119946Y-116662390D01*
X152321725Y-116526307D01*
X152493078Y-116353474D01*
X152627421Y-116150533D01*
X152719591Y-115925282D01*
X152723462Y-115887609D01*
X152598731Y-115697000D01*
X151257000Y-115697000D01*
X151003000Y-115697000D01*
X149661269Y-115697000D01*
X149536538Y-115887609D01*
X130990916Y-115887609D01*
X131025000Y-115716260D01*
X131025000Y-115423740D01*
X130990917Y-115252391D01*
X149536538Y-115252391D01*
X149661269Y-115443000D01*
X151003000Y-115443000D01*
X151003000Y-114335000D01*
X151257000Y-114335000D01*
X151257000Y-115443000D01*
X152598731Y-115443000D01*
X152723462Y-115252391D01*
X152719591Y-115214718D01*
X152627421Y-114989467D01*
X152614535Y-114970000D01*
X172351928Y-114970000D01*
X172351928Y-116170000D01*
X172364188Y-116294482D01*
X172400498Y-116414180D01*
X172459463Y-116524494D01*
X172538815Y-116621185D01*
X172635506Y-116700537D01*
X172745820Y-116759502D01*
X172865518Y-116795812D01*
X172990000Y-116808072D01*
X174990000Y-116808072D01*
X175114482Y-116795812D01*
X175234180Y-116759502D01*
X175344494Y-116700537D01*
X175441185Y-116621185D01*
X175520537Y-116524494D01*
X175579502Y-116414180D01*
X175615812Y-116294482D01*
X175628072Y-116170000D01*
X175628072Y-114970000D01*
X175615812Y-114845518D01*
X175579502Y-114725820D01*
X175520537Y-114615506D01*
X175441185Y-114518815D01*
X175344494Y-114439463D01*
X175234180Y-114380498D01*
X175114482Y-114344188D01*
X174990000Y-114331928D01*
X172990000Y-114331928D01*
X172865518Y-114344188D01*
X172745820Y-114380498D01*
X172635506Y-114439463D01*
X172538815Y-114518815D01*
X172459463Y-114615506D01*
X172400498Y-114725820D01*
X172364188Y-114845518D01*
X172351928Y-114970000D01*
X152614535Y-114970000D01*
X152493078Y-114786526D01*
X152321725Y-114613693D01*
X152119946Y-114477610D01*
X151895496Y-114383507D01*
X151657000Y-114335000D01*
X151257000Y-114335000D01*
X151003000Y-114335000D01*
X150603000Y-114335000D01*
X150364504Y-114383507D01*
X150140054Y-114477610D01*
X149938275Y-114613693D01*
X149766922Y-114786526D01*
X149632579Y-114989467D01*
X149540409Y-115214718D01*
X149536538Y-115252391D01*
X130990917Y-115252391D01*
X130967932Y-115136842D01*
X130855990Y-114866589D01*
X130693475Y-114623368D01*
X130486632Y-114416525D01*
X130312240Y-114300000D01*
X130486632Y-114183475D01*
X130693475Y-113976632D01*
X130825328Y-113779300D01*
X135492459Y-113779300D01*
X135529774Y-113966898D01*
X135607795Y-114155256D01*
X135721063Y-114324774D01*
X135865226Y-114468937D01*
X136034744Y-114582205D01*
X136223102Y-114660226D01*
X136423061Y-114700000D01*
X136626939Y-114700000D01*
X136826898Y-114660226D01*
X137015256Y-114582205D01*
X137184774Y-114468937D01*
X137239411Y-114414300D01*
X146605589Y-114414300D01*
X146660226Y-114468937D01*
X146829744Y-114582205D01*
X147018102Y-114660226D01*
X147218061Y-114700000D01*
X147421939Y-114700000D01*
X147621898Y-114660226D01*
X147810256Y-114582205D01*
X147979774Y-114468937D01*
X148123937Y-114324774D01*
X148237205Y-114155256D01*
X148315226Y-113966898D01*
X148355000Y-113766939D01*
X148355000Y-113563061D01*
X148315226Y-113363102D01*
X148237205Y-113174744D01*
X148140491Y-113030000D01*
X149489025Y-113030000D01*
X149512870Y-113272102D01*
X149583489Y-113504901D01*
X149698167Y-113719449D01*
X149852498Y-113907502D01*
X150040551Y-114061833D01*
X150255099Y-114176511D01*
X150487898Y-114247130D01*
X150669335Y-114265000D01*
X151590665Y-114265000D01*
X151772102Y-114247130D01*
X152004901Y-114176511D01*
X152219449Y-114061833D01*
X152407502Y-113907502D01*
X152561833Y-113719449D01*
X152676511Y-113504901D01*
X152747130Y-113272102D01*
X152770975Y-113030000D01*
X172349025Y-113030000D01*
X172372870Y-113272102D01*
X172443489Y-113504901D01*
X172558167Y-113719449D01*
X172712498Y-113907502D01*
X172900551Y-114061833D01*
X173115099Y-114176511D01*
X173347898Y-114247130D01*
X173529335Y-114265000D01*
X174450665Y-114265000D01*
X174632102Y-114247130D01*
X174864901Y-114176511D01*
X175079449Y-114061833D01*
X175267502Y-113907502D01*
X175421833Y-113719449D01*
X175536511Y-113504901D01*
X175607130Y-113272102D01*
X175630975Y-113030000D01*
X175607130Y-112787898D01*
X175536511Y-112555099D01*
X175421833Y-112340551D01*
X175267502Y-112152498D01*
X175079449Y-111998167D01*
X174864901Y-111883489D01*
X174632102Y-111812870D01*
X174450665Y-111795000D01*
X173529335Y-111795000D01*
X173347898Y-111812870D01*
X173115099Y-111883489D01*
X172900551Y-111998167D01*
X172712498Y-112152498D01*
X172558167Y-112340551D01*
X172443489Y-112555099D01*
X172372870Y-112787898D01*
X172349025Y-113030000D01*
X152770975Y-113030000D01*
X152747130Y-112787898D01*
X152676511Y-112555099D01*
X152561833Y-112340551D01*
X152407502Y-112152498D01*
X152219449Y-111998167D01*
X152004901Y-111883489D01*
X151772102Y-111812870D01*
X151590665Y-111795000D01*
X150669335Y-111795000D01*
X150487898Y-111812870D01*
X150255099Y-111883489D01*
X150040551Y-111998167D01*
X149852498Y-112152498D01*
X149698167Y-112340551D01*
X149583489Y-112555099D01*
X149512870Y-112787898D01*
X149489025Y-113030000D01*
X148140491Y-113030000D01*
X148123937Y-113005226D01*
X147979774Y-112861063D01*
X147810256Y-112747795D01*
X147621898Y-112669774D01*
X147421939Y-112630000D01*
X147218061Y-112630000D01*
X147018102Y-112669774D01*
X146829744Y-112747795D01*
X146660226Y-112861063D01*
X146605589Y-112915700D01*
X137239411Y-112915700D01*
X137184774Y-112861063D01*
X137015256Y-112747795D01*
X136826898Y-112669774D01*
X136626939Y-112630000D01*
X136549669Y-112630000D01*
X136445862Y-112526193D01*
X136422398Y-112497602D01*
X136308303Y-112403966D01*
X136178132Y-112334388D01*
X136036888Y-112291542D01*
X135926806Y-112280700D01*
X135926795Y-112280700D01*
X135890000Y-112277076D01*
X135853205Y-112280700D01*
X130825328Y-112280700D01*
X130693475Y-112083368D01*
X130486632Y-111876525D01*
X130312240Y-111760000D01*
X130486632Y-111643475D01*
X130693475Y-111436632D01*
X130855990Y-111193411D01*
X130967932Y-110923158D01*
X131025000Y-110636260D01*
X131025000Y-110343740D01*
X130967932Y-110056842D01*
X130855990Y-109786589D01*
X130693475Y-109543368D01*
X130486632Y-109336525D01*
X130304466Y-109214805D01*
X130421355Y-109145178D01*
X130637588Y-108950269D01*
X130811641Y-108716920D01*
X130936825Y-108454099D01*
X130981476Y-108306890D01*
X130860155Y-108077000D01*
X129667000Y-108077000D01*
X129667000Y-108097000D01*
X129413000Y-108097000D01*
X129413000Y-108077000D01*
X129393000Y-108077000D01*
X129393000Y-107823000D01*
X129413000Y-107823000D01*
X129413000Y-107803000D01*
X129667000Y-107803000D01*
X129667000Y-107823000D01*
X130860155Y-107823000D01*
X130981476Y-107593110D01*
X130936825Y-107445901D01*
X130811641Y-107183080D01*
X130637588Y-106949731D01*
X130421355Y-106754822D01*
X130304466Y-106685195D01*
X130486632Y-106563475D01*
X130693475Y-106356632D01*
X130825328Y-106159300D01*
X140298205Y-106159300D01*
X140335000Y-106162924D01*
X140371795Y-106159300D01*
X140371806Y-106159300D01*
X140481888Y-106148458D01*
X140623132Y-106105612D01*
X140753303Y-106036034D01*
X140867398Y-105942398D01*
X140890862Y-105913807D01*
X140994669Y-105810000D01*
X141071939Y-105810000D01*
X141271898Y-105770226D01*
X141460256Y-105692205D01*
X141629774Y-105578937D01*
X141773937Y-105434774D01*
X141887205Y-105265256D01*
X141965226Y-105076898D01*
X142005000Y-104876939D01*
X142005000Y-104673061D01*
X141965226Y-104473102D01*
X141887205Y-104284744D01*
X141773937Y-104115226D01*
X141629774Y-103971063D01*
X141460256Y-103857795D01*
X141271898Y-103779774D01*
X141071939Y-103740000D01*
X140868061Y-103740000D01*
X140668102Y-103779774D01*
X140479744Y-103857795D01*
X140310226Y-103971063D01*
X140166063Y-104115226D01*
X140052795Y-104284744D01*
X139974774Y-104473102D01*
X139937459Y-104660700D01*
X130825328Y-104660700D01*
X130693475Y-104463368D01*
X130486632Y-104256525D01*
X130312240Y-104140000D01*
X130486632Y-104023475D01*
X130693475Y-103816632D01*
X130855990Y-103573411D01*
X130967932Y-103303158D01*
X131025000Y-103016260D01*
X131025000Y-102768061D01*
X137395000Y-102768061D01*
X137395000Y-102971939D01*
X137434774Y-103171898D01*
X137512795Y-103360256D01*
X137626063Y-103529774D01*
X137770226Y-103673937D01*
X137939744Y-103787205D01*
X138128102Y-103865226D01*
X138328061Y-103905000D01*
X138531939Y-103905000D01*
X138731898Y-103865226D01*
X138920256Y-103787205D01*
X139089774Y-103673937D01*
X139233937Y-103529774D01*
X139347205Y-103360256D01*
X139425226Y-103171898D01*
X139465000Y-102971939D01*
X139465000Y-102948551D01*
X139711761Y-102701790D01*
X149505592Y-102701790D01*
X149489025Y-102870000D01*
X149512870Y-103112102D01*
X149573727Y-103312721D01*
X143431450Y-109455000D01*
X143408065Y-109455000D01*
X143208106Y-109494774D01*
X143019748Y-109572795D01*
X142850230Y-109686063D01*
X142706067Y-109830226D01*
X142592799Y-109999744D01*
X142514778Y-110188102D01*
X142475004Y-110388061D01*
X142475004Y-110591939D01*
X142514778Y-110791898D01*
X142592799Y-110980256D01*
X142706067Y-111149774D01*
X142850230Y-111293937D01*
X143019748Y-111407205D01*
X143208106Y-111485226D01*
X143408065Y-111525000D01*
X143611943Y-111525000D01*
X143811902Y-111485226D01*
X144000260Y-111407205D01*
X144169778Y-111293937D01*
X144313941Y-111149774D01*
X144427209Y-110980256D01*
X144462502Y-110895052D01*
X144497795Y-110980256D01*
X144611063Y-111149774D01*
X144755226Y-111293937D01*
X144924744Y-111407205D01*
X145113102Y-111485226D01*
X145313061Y-111525000D01*
X145516939Y-111525000D01*
X145716898Y-111485226D01*
X145905256Y-111407205D01*
X146074774Y-111293937D01*
X146091311Y-111277400D01*
X149778553Y-111277400D01*
X149852498Y-111367502D01*
X150040551Y-111521833D01*
X150255099Y-111636511D01*
X150487898Y-111707130D01*
X150669335Y-111725000D01*
X151590665Y-111725000D01*
X151772102Y-111707130D01*
X152004901Y-111636511D01*
X152219449Y-111521833D01*
X152407502Y-111367502D01*
X152561833Y-111179449D01*
X152676511Y-110964901D01*
X152747130Y-110732102D01*
X152770975Y-110490000D01*
X172349025Y-110490000D01*
X172372870Y-110732102D01*
X172443489Y-110964901D01*
X172558167Y-111179449D01*
X172712498Y-111367502D01*
X172900551Y-111521833D01*
X173115099Y-111636511D01*
X173347898Y-111707130D01*
X173529335Y-111725000D01*
X174450665Y-111725000D01*
X174632102Y-111707130D01*
X174864901Y-111636511D01*
X175079449Y-111521833D01*
X175267502Y-111367502D01*
X175421833Y-111179449D01*
X175536511Y-110964901D01*
X175607130Y-110732102D01*
X175630975Y-110490000D01*
X175607130Y-110247898D01*
X175536511Y-110015099D01*
X175421833Y-109800551D01*
X175267502Y-109612498D01*
X175079449Y-109458167D01*
X174864901Y-109343489D01*
X174632102Y-109272870D01*
X174450665Y-109255000D01*
X173529335Y-109255000D01*
X173347898Y-109272870D01*
X173115099Y-109343489D01*
X172900551Y-109458167D01*
X172712498Y-109612498D01*
X172558167Y-109800551D01*
X172443489Y-110015099D01*
X172372870Y-110247898D01*
X172349025Y-110490000D01*
X152770975Y-110490000D01*
X152747130Y-110247898D01*
X152676511Y-110015099D01*
X152561833Y-109800551D01*
X152407502Y-109612498D01*
X152219449Y-109458167D01*
X152004901Y-109343489D01*
X151772102Y-109272870D01*
X151590665Y-109255000D01*
X150669335Y-109255000D01*
X150487898Y-109272870D01*
X150255099Y-109343489D01*
X150040551Y-109458167D01*
X149852498Y-109612498D01*
X149778553Y-109702600D01*
X146091311Y-109702600D01*
X146074774Y-109686063D01*
X145905256Y-109572795D01*
X145716898Y-109494774D01*
X145635056Y-109478495D01*
X147163551Y-107950000D01*
X149489025Y-107950000D01*
X149512870Y-108192102D01*
X149583489Y-108424901D01*
X149698167Y-108639449D01*
X149852498Y-108827502D01*
X150040551Y-108981833D01*
X150255099Y-109096511D01*
X150487898Y-109167130D01*
X150669335Y-109185000D01*
X151590665Y-109185000D01*
X151772102Y-109167130D01*
X152004901Y-109096511D01*
X152219449Y-108981833D01*
X152407502Y-108827502D01*
X152561833Y-108639449D01*
X152676511Y-108424901D01*
X152747130Y-108192102D01*
X152770975Y-107950000D01*
X172349025Y-107950000D01*
X172372870Y-108192102D01*
X172443489Y-108424901D01*
X172558167Y-108639449D01*
X172712498Y-108827502D01*
X172900551Y-108981833D01*
X173115099Y-109096511D01*
X173347898Y-109167130D01*
X173529335Y-109185000D01*
X174450665Y-109185000D01*
X174632102Y-109167130D01*
X174864901Y-109096511D01*
X175079449Y-108981833D01*
X175267502Y-108827502D01*
X175421833Y-108639449D01*
X175536511Y-108424901D01*
X175607130Y-108192102D01*
X175630975Y-107950000D01*
X175607130Y-107707898D01*
X175536511Y-107475099D01*
X175421833Y-107260551D01*
X175267502Y-107072498D01*
X175079449Y-106918167D01*
X174864901Y-106803489D01*
X174632102Y-106732870D01*
X174450665Y-106715000D01*
X173529335Y-106715000D01*
X173347898Y-106732870D01*
X173115099Y-106803489D01*
X172900551Y-106918167D01*
X172712498Y-107072498D01*
X172558167Y-107260551D01*
X172443489Y-107475099D01*
X172372870Y-107707898D01*
X172349025Y-107950000D01*
X152770975Y-107950000D01*
X152747130Y-107707898D01*
X152676511Y-107475099D01*
X152561833Y-107260551D01*
X152407502Y-107072498D01*
X152219449Y-106918167D01*
X152004901Y-106803489D01*
X151772102Y-106732870D01*
X151590665Y-106715000D01*
X150669335Y-106715000D01*
X150487898Y-106732870D01*
X150255099Y-106803489D01*
X150040551Y-106918167D01*
X149852498Y-107072498D01*
X149698167Y-107260551D01*
X149583489Y-107475099D01*
X149512870Y-107707898D01*
X149489025Y-107950000D01*
X147163551Y-107950000D01*
X149508260Y-105605292D01*
X149512870Y-105652102D01*
X149583489Y-105884901D01*
X149698167Y-106099449D01*
X149852498Y-106287502D01*
X150040551Y-106441833D01*
X150255099Y-106556511D01*
X150487898Y-106627130D01*
X150669335Y-106645000D01*
X151590665Y-106645000D01*
X151772102Y-106627130D01*
X152004901Y-106556511D01*
X152219449Y-106441833D01*
X152407502Y-106287502D01*
X152561833Y-106099449D01*
X152676511Y-105884901D01*
X152747130Y-105652102D01*
X152770975Y-105410000D01*
X172349025Y-105410000D01*
X172372870Y-105652102D01*
X172443489Y-105884901D01*
X172558167Y-106099449D01*
X172712498Y-106287502D01*
X172900551Y-106441833D01*
X173115099Y-106556511D01*
X173347898Y-106627130D01*
X173529335Y-106645000D01*
X174450665Y-106645000D01*
X174632102Y-106627130D01*
X174864901Y-106556511D01*
X175079449Y-106441833D01*
X175267502Y-106287502D01*
X175421833Y-106099449D01*
X175536511Y-105884901D01*
X175607130Y-105652102D01*
X175630975Y-105410000D01*
X175607130Y-105167898D01*
X175536511Y-104935099D01*
X175421833Y-104720551D01*
X175267502Y-104532498D01*
X175079449Y-104378167D01*
X174864901Y-104263489D01*
X174632102Y-104192870D01*
X174450665Y-104175000D01*
X173529335Y-104175000D01*
X173347898Y-104192870D01*
X173115099Y-104263489D01*
X172900551Y-104378167D01*
X172712498Y-104532498D01*
X172558167Y-104720551D01*
X172443489Y-104935099D01*
X172372870Y-105167898D01*
X172349025Y-105410000D01*
X152770975Y-105410000D01*
X152747130Y-105167898D01*
X152676511Y-104935099D01*
X152561833Y-104720551D01*
X152407502Y-104532498D01*
X152219449Y-104378167D01*
X152004901Y-104263489D01*
X151772102Y-104192870D01*
X151590665Y-104175000D01*
X150938552Y-104175000D01*
X151008552Y-104105000D01*
X151590665Y-104105000D01*
X151772102Y-104087130D01*
X152004901Y-104016511D01*
X152219449Y-103901833D01*
X152407502Y-103747502D01*
X152561833Y-103559449D01*
X152676511Y-103344901D01*
X152747130Y-103112102D01*
X152770975Y-102870000D01*
X152754408Y-102701790D01*
X156198239Y-102701790D01*
X156445000Y-102948551D01*
X156445000Y-102971939D01*
X156484774Y-103171898D01*
X156562795Y-103360256D01*
X156676063Y-103529774D01*
X156820226Y-103673937D01*
X156989744Y-103787205D01*
X157178102Y-103865226D01*
X157378061Y-103905000D01*
X157581939Y-103905000D01*
X157781898Y-103865226D01*
X157970256Y-103787205D01*
X158139774Y-103673937D01*
X158283937Y-103529774D01*
X158397205Y-103360256D01*
X158475226Y-103171898D01*
X158515000Y-102971939D01*
X158515000Y-102870000D01*
X172349025Y-102870000D01*
X172372870Y-103112102D01*
X172443489Y-103344901D01*
X172558167Y-103559449D01*
X172712498Y-103747502D01*
X172900551Y-103901833D01*
X173115099Y-104016511D01*
X173347898Y-104087130D01*
X173529335Y-104105000D01*
X174450665Y-104105000D01*
X174632102Y-104087130D01*
X174864901Y-104016511D01*
X175079449Y-103901833D01*
X175267502Y-103747502D01*
X175421833Y-103559449D01*
X175536511Y-103344901D01*
X175607130Y-103112102D01*
X175630975Y-102870000D01*
X175607130Y-102627898D01*
X175536511Y-102395099D01*
X175421833Y-102180551D01*
X175267502Y-101992498D01*
X175079449Y-101838167D01*
X174864901Y-101723489D01*
X174632102Y-101652870D01*
X174450665Y-101635000D01*
X173529335Y-101635000D01*
X173347898Y-101652870D01*
X173115099Y-101723489D01*
X172900551Y-101838167D01*
X172712498Y-101992498D01*
X172558167Y-102180551D01*
X172443489Y-102395099D01*
X172372870Y-102627898D01*
X172349025Y-102870000D01*
X158515000Y-102870000D01*
X158515000Y-102768061D01*
X158475226Y-102568102D01*
X158397205Y-102379744D01*
X158283937Y-102210226D01*
X158139774Y-102066063D01*
X157970256Y-101952795D01*
X157781898Y-101874774D01*
X157581939Y-101835000D01*
X157558551Y-101835000D01*
X157108517Y-101384967D01*
X157083859Y-101354921D01*
X156963962Y-101256524D01*
X156827173Y-101183408D01*
X156678747Y-101138384D01*
X156563063Y-101126990D01*
X156563053Y-101126990D01*
X156524390Y-101123182D01*
X156485727Y-101126990D01*
X152479678Y-101126990D01*
X152493078Y-101113474D01*
X152627421Y-100910533D01*
X152719591Y-100685282D01*
X152723462Y-100647609D01*
X152598731Y-100457000D01*
X151257000Y-100457000D01*
X151257000Y-100477000D01*
X151003000Y-100477000D01*
X151003000Y-100457000D01*
X149661269Y-100457000D01*
X149536538Y-100647609D01*
X149540409Y-100685282D01*
X149632579Y-100910533D01*
X149766922Y-101113474D01*
X149780322Y-101126990D01*
X139424275Y-101126990D01*
X139385610Y-101123182D01*
X139346945Y-101126990D01*
X139346937Y-101126990D01*
X139231253Y-101138384D01*
X139082827Y-101183408D01*
X138946038Y-101256524D01*
X138856180Y-101330268D01*
X138856177Y-101330271D01*
X138826141Y-101354921D01*
X138801491Y-101384957D01*
X138351449Y-101835000D01*
X138328061Y-101835000D01*
X138128102Y-101874774D01*
X137939744Y-101952795D01*
X137770226Y-102066063D01*
X137626063Y-102210226D01*
X137512795Y-102379744D01*
X137434774Y-102568102D01*
X137395000Y-102768061D01*
X131025000Y-102768061D01*
X131025000Y-102723740D01*
X130967932Y-102436842D01*
X130855990Y-102166589D01*
X130693475Y-101923368D01*
X130486632Y-101716525D01*
X130312240Y-101600000D01*
X130486632Y-101483475D01*
X130693475Y-101276632D01*
X130855990Y-101033411D01*
X130967932Y-100763158D01*
X131025000Y-100476260D01*
X131025000Y-100330000D01*
X172349025Y-100330000D01*
X172372870Y-100572102D01*
X172443489Y-100804901D01*
X172558167Y-101019449D01*
X172712498Y-101207502D01*
X172900551Y-101361833D01*
X173115099Y-101476511D01*
X173347898Y-101547130D01*
X173529335Y-101565000D01*
X174450665Y-101565000D01*
X174632102Y-101547130D01*
X174864901Y-101476511D01*
X175079449Y-101361833D01*
X175267502Y-101207502D01*
X175421833Y-101019449D01*
X175536511Y-100804901D01*
X175607130Y-100572102D01*
X175630975Y-100330000D01*
X175607130Y-100087898D01*
X175536511Y-99855099D01*
X175421833Y-99640551D01*
X175267502Y-99452498D01*
X175079449Y-99298167D01*
X174864901Y-99183489D01*
X174632102Y-99112870D01*
X174450665Y-99095000D01*
X173529335Y-99095000D01*
X173347898Y-99112870D01*
X173115099Y-99183489D01*
X172900551Y-99298167D01*
X172712498Y-99452498D01*
X172558167Y-99640551D01*
X172443489Y-99855099D01*
X172372870Y-100087898D01*
X172349025Y-100330000D01*
X131025000Y-100330000D01*
X131025000Y-100183740D01*
X130990917Y-100012391D01*
X149536538Y-100012391D01*
X149661269Y-100203000D01*
X151003000Y-100203000D01*
X151003000Y-99095000D01*
X151257000Y-99095000D01*
X151257000Y-100203000D01*
X152598731Y-100203000D01*
X152723462Y-100012391D01*
X152719591Y-99974718D01*
X152627421Y-99749467D01*
X152493078Y-99546526D01*
X152321725Y-99373693D01*
X152119946Y-99237610D01*
X151895496Y-99143507D01*
X151657000Y-99095000D01*
X151257000Y-99095000D01*
X151003000Y-99095000D01*
X150603000Y-99095000D01*
X150364504Y-99143507D01*
X150140054Y-99237610D01*
X149938275Y-99373693D01*
X149766922Y-99546526D01*
X149632579Y-99749467D01*
X149540409Y-99974718D01*
X149536538Y-100012391D01*
X130990917Y-100012391D01*
X130967932Y-99896842D01*
X130855990Y-99626589D01*
X130693475Y-99383368D01*
X130486632Y-99176525D01*
X130243411Y-99014010D01*
X129973158Y-98902068D01*
X129686260Y-98845000D01*
X129393740Y-98845000D01*
X129121799Y-98899093D01*
X129121799Y-95783061D01*
X134855000Y-95783061D01*
X134855000Y-95986939D01*
X134894774Y-96186898D01*
X134972795Y-96375256D01*
X135086063Y-96544774D01*
X135230226Y-96688937D01*
X135399744Y-96802205D01*
X135588102Y-96880226D01*
X135788061Y-96920000D01*
X135865331Y-96920000D01*
X137239141Y-98293811D01*
X137262602Y-98322398D01*
X137291188Y-98345858D01*
X137291190Y-98345860D01*
X137376696Y-98416034D01*
X137495338Y-98479449D01*
X137506868Y-98485612D01*
X137648112Y-98528458D01*
X137758194Y-98539300D01*
X137758204Y-98539300D01*
X137795000Y-98542924D01*
X137831796Y-98539300D01*
X149747285Y-98539300D01*
X149852498Y-98667502D01*
X150040551Y-98821833D01*
X150255099Y-98936511D01*
X150487898Y-99007130D01*
X150669335Y-99025000D01*
X151590665Y-99025000D01*
X151772102Y-99007130D01*
X152004901Y-98936511D01*
X152219449Y-98821833D01*
X152407502Y-98667502D01*
X152561833Y-98479449D01*
X152676511Y-98264901D01*
X152747130Y-98032102D01*
X152770975Y-97790000D01*
X172349025Y-97790000D01*
X172372870Y-98032102D01*
X172443489Y-98264901D01*
X172558167Y-98479449D01*
X172712498Y-98667502D01*
X172900551Y-98821833D01*
X173115099Y-98936511D01*
X173347898Y-99007130D01*
X173529335Y-99025000D01*
X174450665Y-99025000D01*
X174632102Y-99007130D01*
X174864901Y-98936511D01*
X175079449Y-98821833D01*
X175267502Y-98667502D01*
X175421833Y-98479449D01*
X175536511Y-98264901D01*
X175607130Y-98032102D01*
X175630975Y-97790000D01*
X175607130Y-97547898D01*
X175536511Y-97315099D01*
X175421833Y-97100551D01*
X175267502Y-96912498D01*
X175079449Y-96758167D01*
X174864901Y-96643489D01*
X174632102Y-96572870D01*
X174450665Y-96555000D01*
X173529335Y-96555000D01*
X173347898Y-96572870D01*
X173115099Y-96643489D01*
X172900551Y-96758167D01*
X172712498Y-96912498D01*
X172558167Y-97100551D01*
X172443489Y-97315099D01*
X172372870Y-97547898D01*
X172349025Y-97790000D01*
X152770975Y-97790000D01*
X152747130Y-97547898D01*
X152676511Y-97315099D01*
X152561833Y-97100551D01*
X152407502Y-96912498D01*
X152219449Y-96758167D01*
X152004901Y-96643489D01*
X151772102Y-96572870D01*
X151590665Y-96555000D01*
X150669335Y-96555000D01*
X150487898Y-96572870D01*
X150255099Y-96643489D01*
X150040551Y-96758167D01*
X149852498Y-96912498D01*
X149747285Y-97040700D01*
X138105370Y-97040700D01*
X136925000Y-95860331D01*
X136925000Y-95783061D01*
X136885226Y-95583102D01*
X136807205Y-95394744D01*
X136710491Y-95250000D01*
X149489025Y-95250000D01*
X149512870Y-95492102D01*
X149583489Y-95724901D01*
X149698167Y-95939449D01*
X149852498Y-96127502D01*
X150040551Y-96281833D01*
X150255099Y-96396511D01*
X150487898Y-96467130D01*
X150669335Y-96485000D01*
X151590665Y-96485000D01*
X151772102Y-96467130D01*
X152004901Y-96396511D01*
X152219449Y-96281833D01*
X152407502Y-96127502D01*
X152561833Y-95939449D01*
X152676511Y-95724901D01*
X152747130Y-95492102D01*
X152770975Y-95250000D01*
X172349025Y-95250000D01*
X172372870Y-95492102D01*
X172443489Y-95724901D01*
X172558167Y-95939449D01*
X172712498Y-96127502D01*
X172900551Y-96281833D01*
X173115099Y-96396511D01*
X173347898Y-96467130D01*
X173529335Y-96485000D01*
X174450665Y-96485000D01*
X174632102Y-96467130D01*
X174864901Y-96396511D01*
X175079449Y-96281833D01*
X175267502Y-96127502D01*
X175421833Y-95939449D01*
X175536511Y-95724901D01*
X175607130Y-95492102D01*
X175630975Y-95250000D01*
X175607130Y-95007898D01*
X175536511Y-94775099D01*
X175421833Y-94560551D01*
X175267502Y-94372498D01*
X175079449Y-94218167D01*
X174864901Y-94103489D01*
X174632102Y-94032870D01*
X174450665Y-94015000D01*
X173529335Y-94015000D01*
X173347898Y-94032870D01*
X173115099Y-94103489D01*
X172900551Y-94218167D01*
X172712498Y-94372498D01*
X172558167Y-94560551D01*
X172443489Y-94775099D01*
X172372870Y-95007898D01*
X172349025Y-95250000D01*
X152770975Y-95250000D01*
X152747130Y-95007898D01*
X152676511Y-94775099D01*
X152561833Y-94560551D01*
X152407502Y-94372498D01*
X152219449Y-94218167D01*
X152004901Y-94103489D01*
X151772102Y-94032870D01*
X151590665Y-94015000D01*
X150669335Y-94015000D01*
X150487898Y-94032870D01*
X150255099Y-94103489D01*
X150040551Y-94218167D01*
X149852498Y-94372498D01*
X149698167Y-94560551D01*
X149583489Y-94775099D01*
X149512870Y-95007898D01*
X149489025Y-95250000D01*
X136710491Y-95250000D01*
X136693937Y-95225226D01*
X136549774Y-95081063D01*
X136380256Y-94967795D01*
X136191898Y-94889774D01*
X135991939Y-94850000D01*
X135788061Y-94850000D01*
X135588102Y-94889774D01*
X135399744Y-94967795D01*
X135230226Y-95081063D01*
X135086063Y-95225226D01*
X134972795Y-95394744D01*
X134894774Y-95583102D01*
X134855000Y-95783061D01*
X129121799Y-95783061D01*
X129121799Y-94198072D01*
X130390000Y-94198072D01*
X130514482Y-94185812D01*
X130634180Y-94149502D01*
X130744494Y-94090537D01*
X130841185Y-94011185D01*
X130920537Y-93914494D01*
X130979502Y-93804180D01*
X131015812Y-93684482D01*
X131028072Y-93560000D01*
X131028072Y-93459300D01*
X143430589Y-93459300D01*
X143485226Y-93513937D01*
X143654744Y-93627205D01*
X143843102Y-93705226D01*
X144043061Y-93745000D01*
X144246939Y-93745000D01*
X144446898Y-93705226D01*
X144635256Y-93627205D01*
X144804774Y-93513937D01*
X144948937Y-93369774D01*
X145062205Y-93200256D01*
X145140226Y-93011898D01*
X145180000Y-92811939D01*
X145180000Y-92710000D01*
X149489025Y-92710000D01*
X149512870Y-92952102D01*
X149583489Y-93184901D01*
X149698167Y-93399449D01*
X149852498Y-93587502D01*
X150040551Y-93741833D01*
X150255099Y-93856511D01*
X150487898Y-93927130D01*
X150669335Y-93945000D01*
X151590665Y-93945000D01*
X151772102Y-93927130D01*
X152004901Y-93856511D01*
X152219449Y-93741833D01*
X152407502Y-93587502D01*
X152561833Y-93399449D01*
X152676511Y-93184901D01*
X152747130Y-92952102D01*
X152770975Y-92710000D01*
X172349025Y-92710000D01*
X172372870Y-92952102D01*
X172443489Y-93184901D01*
X172558167Y-93399449D01*
X172712498Y-93587502D01*
X172900551Y-93741833D01*
X173115099Y-93856511D01*
X173347898Y-93927130D01*
X173529335Y-93945000D01*
X174450665Y-93945000D01*
X174632102Y-93927130D01*
X174864901Y-93856511D01*
X175079449Y-93741833D01*
X175267502Y-93587502D01*
X175421833Y-93399449D01*
X175536511Y-93184901D01*
X175607130Y-92952102D01*
X175630975Y-92710000D01*
X175607130Y-92467898D01*
X175536511Y-92235099D01*
X175421833Y-92020551D01*
X175267502Y-91832498D01*
X175079449Y-91678167D01*
X174864901Y-91563489D01*
X174632102Y-91492870D01*
X174450665Y-91475000D01*
X173529335Y-91475000D01*
X173347898Y-91492870D01*
X173115099Y-91563489D01*
X172900551Y-91678167D01*
X172712498Y-91832498D01*
X172558167Y-92020551D01*
X172443489Y-92235099D01*
X172372870Y-92467898D01*
X172349025Y-92710000D01*
X152770975Y-92710000D01*
X152747130Y-92467898D01*
X152676511Y-92235099D01*
X152561833Y-92020551D01*
X152407502Y-91832498D01*
X152219449Y-91678167D01*
X152004901Y-91563489D01*
X151772102Y-91492870D01*
X151590665Y-91475000D01*
X150669335Y-91475000D01*
X150487898Y-91492870D01*
X150255099Y-91563489D01*
X150040551Y-91678167D01*
X149852498Y-91832498D01*
X149698167Y-92020551D01*
X149583489Y-92235099D01*
X149512870Y-92467898D01*
X149489025Y-92710000D01*
X145180000Y-92710000D01*
X145180000Y-92608061D01*
X145140226Y-92408102D01*
X145062205Y-92219744D01*
X144948937Y-92050226D01*
X144804774Y-91906063D01*
X144635256Y-91792795D01*
X144505771Y-91739160D01*
X144545000Y-91541939D01*
X144545000Y-91338061D01*
X144505226Y-91138102D01*
X144427205Y-90949744D01*
X144313937Y-90780226D01*
X144169774Y-90636063D01*
X144000256Y-90522795D01*
X143811898Y-90444774D01*
X143611939Y-90405000D01*
X143408061Y-90405000D01*
X143208102Y-90444774D01*
X143019744Y-90522795D01*
X142850226Y-90636063D01*
X142795589Y-90690700D01*
X131120370Y-90690700D01*
X130978699Y-90549029D01*
X131025000Y-90316260D01*
X131025000Y-90170000D01*
X149489025Y-90170000D01*
X149512870Y-90412102D01*
X149583489Y-90644901D01*
X149698167Y-90859449D01*
X149852498Y-91047502D01*
X150040551Y-91201833D01*
X150255099Y-91316511D01*
X150487898Y-91387130D01*
X150669335Y-91405000D01*
X151590665Y-91405000D01*
X151772102Y-91387130D01*
X152004901Y-91316511D01*
X152219449Y-91201833D01*
X152407502Y-91047502D01*
X152561833Y-90859449D01*
X152676511Y-90644901D01*
X152747130Y-90412102D01*
X152770975Y-90170000D01*
X172349025Y-90170000D01*
X172372870Y-90412102D01*
X172443489Y-90644901D01*
X172558167Y-90859449D01*
X172712498Y-91047502D01*
X172900551Y-91201833D01*
X173115099Y-91316511D01*
X173347898Y-91387130D01*
X173529335Y-91405000D01*
X174450665Y-91405000D01*
X174632102Y-91387130D01*
X174864901Y-91316511D01*
X175079449Y-91201833D01*
X175267502Y-91047502D01*
X175421833Y-90859449D01*
X175536511Y-90644901D01*
X175607130Y-90412102D01*
X175630975Y-90170000D01*
X175607130Y-89927898D01*
X175536511Y-89695099D01*
X175421833Y-89480551D01*
X175267502Y-89292498D01*
X175079449Y-89138167D01*
X174864901Y-89023489D01*
X174632102Y-88952870D01*
X174450665Y-88935000D01*
X173529335Y-88935000D01*
X173347898Y-88952870D01*
X173115099Y-89023489D01*
X172900551Y-89138167D01*
X172712498Y-89292498D01*
X172558167Y-89480551D01*
X172443489Y-89695099D01*
X172372870Y-89927898D01*
X172349025Y-90170000D01*
X152770975Y-90170000D01*
X152747130Y-89927898D01*
X152676511Y-89695099D01*
X152561833Y-89480551D01*
X152407502Y-89292498D01*
X152219449Y-89138167D01*
X152004901Y-89023489D01*
X151772102Y-88952870D01*
X151590665Y-88935000D01*
X150669335Y-88935000D01*
X150487898Y-88952870D01*
X150255099Y-89023489D01*
X150040551Y-89138167D01*
X149852498Y-89292498D01*
X149698167Y-89480551D01*
X149583489Y-89695099D01*
X149512870Y-89927898D01*
X149489025Y-90170000D01*
X131025000Y-90170000D01*
X131025000Y-90023740D01*
X130967932Y-89736842D01*
X130855990Y-89466589D01*
X130693475Y-89223368D01*
X130486632Y-89016525D01*
X130312240Y-88900000D01*
X130486632Y-88783475D01*
X130693475Y-88576632D01*
X130825328Y-88379300D01*
X143621961Y-88379300D01*
X143658756Y-88382924D01*
X143695551Y-88379300D01*
X143695562Y-88379300D01*
X143805644Y-88368458D01*
X143946888Y-88325612D01*
X144077059Y-88256034D01*
X144191154Y-88162398D01*
X144214619Y-88133806D01*
X144244047Y-88104378D01*
X144321317Y-88104378D01*
X144521276Y-88064604D01*
X144709634Y-87986583D01*
X144879152Y-87873315D01*
X145023315Y-87729152D01*
X145089566Y-87630000D01*
X149489025Y-87630000D01*
X149512870Y-87872102D01*
X149583489Y-88104901D01*
X149698167Y-88319449D01*
X149852498Y-88507502D01*
X150040551Y-88661833D01*
X150255099Y-88776511D01*
X150487898Y-88847130D01*
X150669335Y-88865000D01*
X151590665Y-88865000D01*
X151772102Y-88847130D01*
X152004901Y-88776511D01*
X152219449Y-88661833D01*
X152407502Y-88507502D01*
X152561833Y-88319449D01*
X152676511Y-88104901D01*
X152747130Y-87872102D01*
X152770975Y-87630000D01*
X172349025Y-87630000D01*
X172372870Y-87872102D01*
X172443489Y-88104901D01*
X172558167Y-88319449D01*
X172712498Y-88507502D01*
X172900551Y-88661833D01*
X173115099Y-88776511D01*
X173347898Y-88847130D01*
X173529335Y-88865000D01*
X174450665Y-88865000D01*
X174632102Y-88847130D01*
X174864901Y-88776511D01*
X175079449Y-88661833D01*
X175267502Y-88507502D01*
X175421833Y-88319449D01*
X175536511Y-88104901D01*
X175607130Y-87872102D01*
X175630975Y-87630000D01*
X175607130Y-87387898D01*
X175536511Y-87155099D01*
X175421833Y-86940551D01*
X175267502Y-86752498D01*
X175079449Y-86598167D01*
X174864901Y-86483489D01*
X174632102Y-86412870D01*
X174450665Y-86395000D01*
X173529335Y-86395000D01*
X173347898Y-86412870D01*
X173115099Y-86483489D01*
X172900551Y-86598167D01*
X172712498Y-86752498D01*
X172558167Y-86940551D01*
X172443489Y-87155099D01*
X172372870Y-87387898D01*
X172349025Y-87630000D01*
X152770975Y-87630000D01*
X152747130Y-87387898D01*
X152676511Y-87155099D01*
X152561833Y-86940551D01*
X152407502Y-86752498D01*
X152219449Y-86598167D01*
X152004901Y-86483489D01*
X151772102Y-86412870D01*
X151590665Y-86395000D01*
X150669335Y-86395000D01*
X150487898Y-86412870D01*
X150255099Y-86483489D01*
X150040551Y-86598167D01*
X149852498Y-86752498D01*
X149698167Y-86940551D01*
X149583489Y-87155099D01*
X149512870Y-87387898D01*
X149489025Y-87630000D01*
X145089566Y-87630000D01*
X145136583Y-87559634D01*
X145214604Y-87371276D01*
X145254378Y-87171317D01*
X145254378Y-86967439D01*
X145214604Y-86767480D01*
X145136583Y-86579122D01*
X145023315Y-86409604D01*
X144968783Y-86355072D01*
X145062205Y-86215256D01*
X145140226Y-86026898D01*
X145180000Y-85826939D01*
X145180000Y-85623061D01*
X145140226Y-85423102D01*
X145062205Y-85234744D01*
X144965491Y-85090000D01*
X149489025Y-85090000D01*
X149512870Y-85332102D01*
X149583489Y-85564901D01*
X149698167Y-85779449D01*
X149852498Y-85967502D01*
X150040551Y-86121833D01*
X150255099Y-86236511D01*
X150487898Y-86307130D01*
X150669335Y-86325000D01*
X151590665Y-86325000D01*
X151772102Y-86307130D01*
X152004901Y-86236511D01*
X152219449Y-86121833D01*
X152407502Y-85967502D01*
X152561833Y-85779449D01*
X152676511Y-85564901D01*
X152747130Y-85332102D01*
X152770975Y-85090000D01*
X172349025Y-85090000D01*
X172372870Y-85332102D01*
X172443489Y-85564901D01*
X172558167Y-85779449D01*
X172712498Y-85967502D01*
X172900551Y-86121833D01*
X173115099Y-86236511D01*
X173347898Y-86307130D01*
X173529335Y-86325000D01*
X174450665Y-86325000D01*
X174632102Y-86307130D01*
X174864901Y-86236511D01*
X175079449Y-86121833D01*
X175267502Y-85967502D01*
X175421833Y-85779449D01*
X175536511Y-85564901D01*
X175607130Y-85332102D01*
X175630975Y-85090000D01*
X175607130Y-84847898D01*
X175536511Y-84615099D01*
X175421833Y-84400551D01*
X175267502Y-84212498D01*
X175079449Y-84058167D01*
X174864901Y-83943489D01*
X174632102Y-83872870D01*
X174450665Y-83855000D01*
X173529335Y-83855000D01*
X173347898Y-83872870D01*
X173115099Y-83943489D01*
X172900551Y-84058167D01*
X172712498Y-84212498D01*
X172558167Y-84400551D01*
X172443489Y-84615099D01*
X172372870Y-84847898D01*
X172349025Y-85090000D01*
X152770975Y-85090000D01*
X152747130Y-84847898D01*
X152676511Y-84615099D01*
X152561833Y-84400551D01*
X152407502Y-84212498D01*
X152219449Y-84058167D01*
X152004901Y-83943489D01*
X151772102Y-83872870D01*
X151590665Y-83855000D01*
X150669335Y-83855000D01*
X150487898Y-83872870D01*
X150255099Y-83943489D01*
X150040551Y-84058167D01*
X149852498Y-84212498D01*
X149698167Y-84400551D01*
X149583489Y-84615099D01*
X149512870Y-84847898D01*
X149489025Y-85090000D01*
X144965491Y-85090000D01*
X144948937Y-85065226D01*
X144804774Y-84921063D01*
X144635256Y-84807795D01*
X144550047Y-84772500D01*
X144635256Y-84737205D01*
X144804774Y-84623937D01*
X144948937Y-84479774D01*
X145062205Y-84310256D01*
X145140226Y-84121898D01*
X145180000Y-83921939D01*
X145180000Y-83718061D01*
X145140226Y-83518102D01*
X145062205Y-83329744D01*
X144948937Y-83160226D01*
X144804774Y-83016063D01*
X144635256Y-82902795D01*
X144446898Y-82824774D01*
X144246939Y-82785000D01*
X144169670Y-82785000D01*
X143934670Y-82550000D01*
X149489025Y-82550000D01*
X149512870Y-82792102D01*
X149583489Y-83024901D01*
X149698167Y-83239449D01*
X149852498Y-83427502D01*
X150040551Y-83581833D01*
X150255099Y-83696511D01*
X150487898Y-83767130D01*
X150669335Y-83785000D01*
X151590665Y-83785000D01*
X151772102Y-83767130D01*
X152004901Y-83696511D01*
X152219449Y-83581833D01*
X152407502Y-83427502D01*
X152561833Y-83239449D01*
X152676511Y-83024901D01*
X152724225Y-82867609D01*
X172396538Y-82867609D01*
X172400409Y-82905282D01*
X172492579Y-83130533D01*
X172626922Y-83333474D01*
X172798275Y-83506307D01*
X173000054Y-83642390D01*
X173224504Y-83736493D01*
X173463000Y-83785000D01*
X173863000Y-83785000D01*
X173863000Y-82677000D01*
X174117000Y-82677000D01*
X174117000Y-83785000D01*
X174517000Y-83785000D01*
X174755496Y-83736493D01*
X174979946Y-83642390D01*
X175181725Y-83506307D01*
X175353078Y-83333474D01*
X175487421Y-83130533D01*
X175579591Y-82905282D01*
X175583462Y-82867609D01*
X175458731Y-82677000D01*
X174117000Y-82677000D01*
X173863000Y-82677000D01*
X172521269Y-82677000D01*
X172396538Y-82867609D01*
X152724225Y-82867609D01*
X152747130Y-82792102D01*
X152770975Y-82550000D01*
X152747130Y-82307898D01*
X152724226Y-82232391D01*
X172396538Y-82232391D01*
X172521269Y-82423000D01*
X173863000Y-82423000D01*
X173863000Y-81315000D01*
X174117000Y-81315000D01*
X174117000Y-82423000D01*
X175458731Y-82423000D01*
X175583462Y-82232391D01*
X175579591Y-82194718D01*
X175487421Y-81969467D01*
X175353078Y-81766526D01*
X175181725Y-81593693D01*
X174979946Y-81457610D01*
X174755496Y-81363507D01*
X174517000Y-81315000D01*
X174117000Y-81315000D01*
X173863000Y-81315000D01*
X173463000Y-81315000D01*
X173224504Y-81363507D01*
X173000054Y-81457610D01*
X172798275Y-81593693D01*
X172626922Y-81766526D01*
X172492579Y-81969467D01*
X172400409Y-82194718D01*
X172396538Y-82232391D01*
X152724226Y-82232391D01*
X152676511Y-82075099D01*
X152561833Y-81860551D01*
X152407502Y-81672498D01*
X152219449Y-81518167D01*
X152004901Y-81403489D01*
X151772102Y-81332870D01*
X151590665Y-81315000D01*
X150669335Y-81315000D01*
X150487898Y-81332870D01*
X150255099Y-81403489D01*
X150040551Y-81518167D01*
X149852498Y-81672498D01*
X149698167Y-81860551D01*
X149583489Y-82075099D01*
X149512870Y-82307898D01*
X149489025Y-82550000D01*
X143934670Y-82550000D01*
X141525863Y-80141194D01*
X141502398Y-80112602D01*
X141388303Y-80018966D01*
X141371529Y-80010000D01*
X149489025Y-80010000D01*
X149512870Y-80252102D01*
X149583489Y-80484901D01*
X149698167Y-80699449D01*
X149852498Y-80887502D01*
X150040551Y-81041833D01*
X150255099Y-81156511D01*
X150487898Y-81227130D01*
X150669335Y-81245000D01*
X151590665Y-81245000D01*
X151772102Y-81227130D01*
X152004901Y-81156511D01*
X152219449Y-81041833D01*
X152407502Y-80887502D01*
X152561833Y-80699449D01*
X152676511Y-80484901D01*
X152747130Y-80252102D01*
X152770975Y-80010000D01*
X172349025Y-80010000D01*
X172372870Y-80252102D01*
X172443489Y-80484901D01*
X172558167Y-80699449D01*
X172712498Y-80887502D01*
X172900551Y-81041833D01*
X173115099Y-81156511D01*
X173347898Y-81227130D01*
X173529335Y-81245000D01*
X174450665Y-81245000D01*
X174632102Y-81227130D01*
X174864901Y-81156511D01*
X175079449Y-81041833D01*
X175267502Y-80887502D01*
X175421833Y-80699449D01*
X175536511Y-80484901D01*
X175607130Y-80252102D01*
X175630975Y-80010000D01*
X175607130Y-79767898D01*
X175536511Y-79535099D01*
X175421833Y-79320551D01*
X175267502Y-79132498D01*
X175079449Y-78978167D01*
X174864901Y-78863489D01*
X174632102Y-78792870D01*
X174450665Y-78775000D01*
X173529335Y-78775000D01*
X173347898Y-78792870D01*
X173115099Y-78863489D01*
X172900551Y-78978167D01*
X172712498Y-79132498D01*
X172558167Y-79320551D01*
X172443489Y-79535099D01*
X172372870Y-79767898D01*
X172349025Y-80010000D01*
X152770975Y-80010000D01*
X152747130Y-79767898D01*
X152676511Y-79535099D01*
X152561833Y-79320551D01*
X152407502Y-79132498D01*
X152219449Y-78978167D01*
X152004901Y-78863489D01*
X151772102Y-78792870D01*
X151590665Y-78775000D01*
X150669335Y-78775000D01*
X150487898Y-78792870D01*
X150255099Y-78863489D01*
X150040551Y-78978167D01*
X149852498Y-79132498D01*
X149698167Y-79320551D01*
X149583489Y-79535099D01*
X149512870Y-79767898D01*
X149489025Y-80010000D01*
X141371529Y-80010000D01*
X141258132Y-79949388D01*
X141116888Y-79906542D01*
X141006806Y-79895700D01*
X141006795Y-79895700D01*
X140970000Y-79892076D01*
X140933205Y-79895700D01*
X133025370Y-79895700D01*
X130978699Y-77849030D01*
X131025000Y-77616260D01*
X131025000Y-77470000D01*
X149489025Y-77470000D01*
X149512870Y-77712102D01*
X149583489Y-77944901D01*
X149698167Y-78159449D01*
X149852498Y-78347502D01*
X150040551Y-78501833D01*
X150255099Y-78616511D01*
X150487898Y-78687130D01*
X150669335Y-78705000D01*
X151590665Y-78705000D01*
X151772102Y-78687130D01*
X152004901Y-78616511D01*
X152219449Y-78501833D01*
X152407502Y-78347502D01*
X152561833Y-78159449D01*
X152676511Y-77944901D01*
X152747130Y-77712102D01*
X152770975Y-77470000D01*
X172349025Y-77470000D01*
X172372870Y-77712102D01*
X172443489Y-77944901D01*
X172558167Y-78159449D01*
X172712498Y-78347502D01*
X172900551Y-78501833D01*
X173115099Y-78616511D01*
X173347898Y-78687130D01*
X173529335Y-78705000D01*
X174450665Y-78705000D01*
X174632102Y-78687130D01*
X174864901Y-78616511D01*
X175079449Y-78501833D01*
X175267502Y-78347502D01*
X175421833Y-78159449D01*
X175536511Y-77944901D01*
X175607130Y-77712102D01*
X175630975Y-77470000D01*
X175607130Y-77227898D01*
X175536511Y-76995099D01*
X175421833Y-76780551D01*
X175267502Y-76592498D01*
X175079449Y-76438167D01*
X174864901Y-76323489D01*
X174632102Y-76252870D01*
X174450665Y-76235000D01*
X173529335Y-76235000D01*
X173347898Y-76252870D01*
X173115099Y-76323489D01*
X172900551Y-76438167D01*
X172712498Y-76592498D01*
X172558167Y-76780551D01*
X172443489Y-76995099D01*
X172372870Y-77227898D01*
X172349025Y-77470000D01*
X152770975Y-77470000D01*
X152747130Y-77227898D01*
X152676511Y-76995099D01*
X152561833Y-76780551D01*
X152407502Y-76592498D01*
X152219449Y-76438167D01*
X152004901Y-76323489D01*
X151772102Y-76252870D01*
X151590665Y-76235000D01*
X150669335Y-76235000D01*
X150487898Y-76252870D01*
X150255099Y-76323489D01*
X150040551Y-76438167D01*
X149852498Y-76592498D01*
X149698167Y-76780551D01*
X149583489Y-76995099D01*
X149512870Y-77227898D01*
X149489025Y-77470000D01*
X131025000Y-77470000D01*
X131025000Y-77323740D01*
X130967932Y-77036842D01*
X130855990Y-76766589D01*
X130693475Y-76523368D01*
X130486632Y-76316525D01*
X130312240Y-76200000D01*
X130486632Y-76083475D01*
X130693475Y-75876632D01*
X130855990Y-75633411D01*
X130967932Y-75363158D01*
X131025000Y-75076260D01*
X131025000Y-74930000D01*
X149489025Y-74930000D01*
X149512870Y-75172102D01*
X149583489Y-75404901D01*
X149698167Y-75619449D01*
X149852498Y-75807502D01*
X150040551Y-75961833D01*
X150255099Y-76076511D01*
X150487898Y-76147130D01*
X150669335Y-76165000D01*
X151590665Y-76165000D01*
X151772102Y-76147130D01*
X152004901Y-76076511D01*
X152219449Y-75961833D01*
X152407502Y-75807502D01*
X152561833Y-75619449D01*
X152676511Y-75404901D01*
X152747130Y-75172102D01*
X152770975Y-74930000D01*
X172349025Y-74930000D01*
X172372870Y-75172102D01*
X172443489Y-75404901D01*
X172558167Y-75619449D01*
X172712498Y-75807502D01*
X172900551Y-75961833D01*
X173115099Y-76076511D01*
X173347898Y-76147130D01*
X173529335Y-76165000D01*
X174450665Y-76165000D01*
X174632102Y-76147130D01*
X174864901Y-76076511D01*
X175079449Y-75961833D01*
X175267502Y-75807502D01*
X175421833Y-75619449D01*
X175536511Y-75404901D01*
X175607130Y-75172102D01*
X175630975Y-74930000D01*
X175607130Y-74687898D01*
X175536511Y-74455099D01*
X175421833Y-74240551D01*
X175267502Y-74052498D01*
X175079449Y-73898167D01*
X174864901Y-73783489D01*
X174632102Y-73712870D01*
X174450665Y-73695000D01*
X173529335Y-73695000D01*
X173347898Y-73712870D01*
X173115099Y-73783489D01*
X172900551Y-73898167D01*
X172712498Y-74052498D01*
X172558167Y-74240551D01*
X172443489Y-74455099D01*
X172372870Y-74687898D01*
X172349025Y-74930000D01*
X152770975Y-74930000D01*
X152747130Y-74687898D01*
X152676511Y-74455099D01*
X152561833Y-74240551D01*
X152407502Y-74052498D01*
X152219449Y-73898167D01*
X152004901Y-73783489D01*
X151772102Y-73712870D01*
X151590665Y-73695000D01*
X150669335Y-73695000D01*
X150487898Y-73712870D01*
X150255099Y-73783489D01*
X150040551Y-73898167D01*
X149852498Y-74052498D01*
X149698167Y-74240551D01*
X149583489Y-74455099D01*
X149512870Y-74687898D01*
X149489025Y-74930000D01*
X131025000Y-74930000D01*
X131025000Y-74783740D01*
X130967932Y-74496842D01*
X130855990Y-74226589D01*
X130693475Y-73983368D01*
X130486632Y-73776525D01*
X130312240Y-73660000D01*
X130486632Y-73543475D01*
X130693475Y-73336632D01*
X130855990Y-73093411D01*
X130967932Y-72823158D01*
X131025000Y-72536260D01*
X131025000Y-72243740D01*
X130967932Y-71956842D01*
X130855990Y-71686589D01*
X130693475Y-71443368D01*
X130486632Y-71236525D01*
X130243411Y-71074010D01*
X129973158Y-70962068D01*
X129686260Y-70905000D01*
X129393740Y-70905000D01*
X129106842Y-70962068D01*
X128836589Y-71074010D01*
X128593368Y-71236525D01*
X128386525Y-71443368D01*
X128224010Y-71686589D01*
X128112068Y-71956842D01*
X128055000Y-72243740D01*
X128055000Y-72536260D01*
X128112068Y-72823158D01*
X128224010Y-73093411D01*
X128386525Y-73336632D01*
X128593368Y-73543475D01*
X128767760Y-73660000D01*
X128593368Y-73776525D01*
X128386525Y-73983368D01*
X128224010Y-74226589D01*
X128112068Y-74496842D01*
X128055000Y-74783740D01*
X128055000Y-75076260D01*
X128112068Y-75363158D01*
X128224010Y-75633411D01*
X128386525Y-75876632D01*
X128593368Y-76083475D01*
X128767760Y-76200000D01*
X128593368Y-76316525D01*
X128386525Y-76523368D01*
X128224010Y-76766589D01*
X128112068Y-77036842D01*
X128055000Y-77323740D01*
X128055000Y-77616260D01*
X128112068Y-77903158D01*
X128224010Y-78173411D01*
X128386525Y-78416632D01*
X128593368Y-78623475D01*
X128775534Y-78745195D01*
X128658645Y-78814822D01*
X128442412Y-79009731D01*
X128268359Y-79243080D01*
X128143175Y-79505901D01*
X128098524Y-79653110D01*
X128219845Y-79883000D01*
X129413000Y-79883000D01*
X129413000Y-79863000D01*
X129667000Y-79863000D01*
X129667000Y-79883000D01*
X129687000Y-79883000D01*
X129687000Y-80137000D01*
X129667000Y-80137000D01*
X129667000Y-80157000D01*
X129413000Y-80157000D01*
X129413000Y-80137000D01*
X128219845Y-80137000D01*
X128098524Y-80366890D01*
X128143175Y-80514099D01*
X128268359Y-80776920D01*
X128442412Y-81010269D01*
X128658645Y-81205178D01*
X128775534Y-81274805D01*
X128593368Y-81396525D01*
X128386525Y-81603368D01*
X128224010Y-81846589D01*
X128112068Y-82116842D01*
X128055000Y-82403740D01*
X128055000Y-82696260D01*
X128112068Y-82983158D01*
X128224010Y-83253411D01*
X128386525Y-83496632D01*
X128593368Y-83703475D01*
X128767760Y-83820000D01*
X128593368Y-83936525D01*
X128386525Y-84143368D01*
X128224010Y-84386589D01*
X128112068Y-84656842D01*
X128055000Y-84943740D01*
X128055000Y-85236260D01*
X128092362Y-85424088D01*
X127804976Y-85711474D01*
X127774930Y-85736132D01*
X127676533Y-85856030D01*
X127603417Y-85992819D01*
X127558393Y-86141245D01*
X127546999Y-86256929D01*
X127546999Y-86256938D01*
X127543191Y-86295601D01*
X125120000Y-86295601D01*
X125120000Y-70899872D01*
X133020000Y-70899872D01*
X133020000Y-71340128D01*
X133105890Y-71771925D01*
X133274369Y-72178669D01*
X133518962Y-72544729D01*
X133830271Y-72856038D01*
X134196331Y-73100631D01*
X134603075Y-73269110D01*
X135034872Y-73355000D01*
X135475128Y-73355000D01*
X135906925Y-73269110D01*
X136313669Y-73100631D01*
X136679729Y-72856038D01*
X136991038Y-72544729D01*
X137094424Y-72390000D01*
X149489025Y-72390000D01*
X149512870Y-72632102D01*
X149583489Y-72864901D01*
X149698167Y-73079449D01*
X149852498Y-73267502D01*
X150040551Y-73421833D01*
X150255099Y-73536511D01*
X150487898Y-73607130D01*
X150669335Y-73625000D01*
X151590665Y-73625000D01*
X151772102Y-73607130D01*
X152004901Y-73536511D01*
X152219449Y-73421833D01*
X152407502Y-73267502D01*
X152561833Y-73079449D01*
X152676511Y-72864901D01*
X152747130Y-72632102D01*
X152770975Y-72390000D01*
X152747130Y-72147898D01*
X152676511Y-71915099D01*
X152561833Y-71700551D01*
X152407502Y-71512498D01*
X152219449Y-71358167D01*
X152004901Y-71243489D01*
X151772102Y-71172870D01*
X151590665Y-71155000D01*
X150669335Y-71155000D01*
X150487898Y-71172870D01*
X150255099Y-71243489D01*
X150040551Y-71358167D01*
X149852498Y-71512498D01*
X149698167Y-71700551D01*
X149583489Y-71915099D01*
X149512870Y-72147898D01*
X149489025Y-72390000D01*
X137094424Y-72390000D01*
X137235631Y-72178669D01*
X137404110Y-71771925D01*
X137490000Y-71340128D01*
X137490000Y-70899872D01*
X137404110Y-70468075D01*
X137350538Y-70338740D01*
X141390000Y-70338740D01*
X141390000Y-70631260D01*
X141447068Y-70918158D01*
X141559010Y-71188411D01*
X141721525Y-71431632D01*
X141928368Y-71638475D01*
X142171589Y-71800990D01*
X142441842Y-71912932D01*
X142728740Y-71970000D01*
X143021260Y-71970000D01*
X143308158Y-71912932D01*
X143578411Y-71800990D01*
X143821632Y-71638475D01*
X143953487Y-71506620D01*
X143975498Y-71579180D01*
X144034463Y-71689494D01*
X144113815Y-71786185D01*
X144210506Y-71865537D01*
X144320820Y-71924502D01*
X144440518Y-71960812D01*
X144565000Y-71973072D01*
X146265000Y-71973072D01*
X146389482Y-71960812D01*
X146509180Y-71924502D01*
X146619494Y-71865537D01*
X146716185Y-71786185D01*
X146795537Y-71689494D01*
X146854502Y-71579180D01*
X146890812Y-71459482D01*
X146903072Y-71335000D01*
X146903072Y-69850000D01*
X149489025Y-69850000D01*
X149512870Y-70092102D01*
X149583489Y-70324901D01*
X149698167Y-70539449D01*
X149852498Y-70727502D01*
X150040551Y-70881833D01*
X150255099Y-70996511D01*
X150487898Y-71067130D01*
X150669335Y-71085000D01*
X151590665Y-71085000D01*
X151772102Y-71067130D01*
X152004901Y-70996511D01*
X152185700Y-70899872D01*
X166040000Y-70899872D01*
X166040000Y-71340128D01*
X166125890Y-71771925D01*
X166294369Y-72178669D01*
X166538962Y-72544729D01*
X166850271Y-72856038D01*
X167216331Y-73100631D01*
X167623075Y-73269110D01*
X168054872Y-73355000D01*
X168495128Y-73355000D01*
X168926925Y-73269110D01*
X169333669Y-73100631D01*
X169699729Y-72856038D01*
X170011038Y-72544729D01*
X170114424Y-72390000D01*
X172349025Y-72390000D01*
X172372870Y-72632102D01*
X172443489Y-72864901D01*
X172558167Y-73079449D01*
X172712498Y-73267502D01*
X172900551Y-73421833D01*
X173115099Y-73536511D01*
X173347898Y-73607130D01*
X173529335Y-73625000D01*
X174450665Y-73625000D01*
X174632102Y-73607130D01*
X174864901Y-73536511D01*
X175079449Y-73421833D01*
X175267502Y-73267502D01*
X175421833Y-73079449D01*
X175536511Y-72864901D01*
X175607130Y-72632102D01*
X175630975Y-72390000D01*
X175607130Y-72147898D01*
X175536511Y-71915099D01*
X175421833Y-71700551D01*
X175267502Y-71512498D01*
X175079449Y-71358167D01*
X174864901Y-71243489D01*
X174632102Y-71172870D01*
X174450665Y-71155000D01*
X173529335Y-71155000D01*
X173347898Y-71172870D01*
X173115099Y-71243489D01*
X172900551Y-71358167D01*
X172712498Y-71512498D01*
X172558167Y-71700551D01*
X172443489Y-71915099D01*
X172372870Y-72147898D01*
X172349025Y-72390000D01*
X170114424Y-72390000D01*
X170255631Y-72178669D01*
X170424110Y-71771925D01*
X170510000Y-71340128D01*
X170510000Y-70899872D01*
X170424110Y-70468075D01*
X170255631Y-70061331D01*
X170114425Y-69850000D01*
X172349025Y-69850000D01*
X172372870Y-70092102D01*
X172443489Y-70324901D01*
X172558167Y-70539449D01*
X172712498Y-70727502D01*
X172900551Y-70881833D01*
X173115099Y-70996511D01*
X173347898Y-71067130D01*
X173529335Y-71085000D01*
X174450665Y-71085000D01*
X174632102Y-71067130D01*
X174864901Y-70996511D01*
X175079449Y-70881833D01*
X175267502Y-70727502D01*
X175421833Y-70539449D01*
X175536511Y-70324901D01*
X175607130Y-70092102D01*
X175630975Y-69850000D01*
X175607130Y-69607898D01*
X175536511Y-69375099D01*
X175421833Y-69160551D01*
X175267502Y-68972498D01*
X175079449Y-68818167D01*
X174864901Y-68703489D01*
X174632102Y-68632870D01*
X174450665Y-68615000D01*
X173529335Y-68615000D01*
X173347898Y-68632870D01*
X173115099Y-68703489D01*
X172900551Y-68818167D01*
X172712498Y-68972498D01*
X172558167Y-69160551D01*
X172443489Y-69375099D01*
X172372870Y-69607898D01*
X172349025Y-69850000D01*
X170114425Y-69850000D01*
X170011038Y-69695271D01*
X169699729Y-69383962D01*
X169333669Y-69139369D01*
X168926925Y-68970890D01*
X168495128Y-68885000D01*
X168054872Y-68885000D01*
X167623075Y-68970890D01*
X167216331Y-69139369D01*
X166850271Y-69383962D01*
X166538962Y-69695271D01*
X166294369Y-70061331D01*
X166125890Y-70468075D01*
X166040000Y-70899872D01*
X152185700Y-70899872D01*
X152219449Y-70881833D01*
X152407502Y-70727502D01*
X152561833Y-70539449D01*
X152676511Y-70324901D01*
X152747130Y-70092102D01*
X152770975Y-69850000D01*
X152747130Y-69607898D01*
X152676511Y-69375099D01*
X152561833Y-69160551D01*
X152407502Y-68972498D01*
X152219449Y-68818167D01*
X152004901Y-68703489D01*
X151772102Y-68632870D01*
X151590665Y-68615000D01*
X150669335Y-68615000D01*
X150487898Y-68632870D01*
X150255099Y-68703489D01*
X150040551Y-68818167D01*
X149852498Y-68972498D01*
X149698167Y-69160551D01*
X149583489Y-69375099D01*
X149512870Y-69607898D01*
X149489025Y-69850000D01*
X146903072Y-69850000D01*
X146903072Y-69635000D01*
X146890812Y-69510518D01*
X146854502Y-69390820D01*
X146795537Y-69280506D01*
X146716185Y-69183815D01*
X146619494Y-69104463D01*
X146509180Y-69045498D01*
X146389482Y-69009188D01*
X146265000Y-68996928D01*
X144565000Y-68996928D01*
X144440518Y-69009188D01*
X144320820Y-69045498D01*
X144210506Y-69104463D01*
X144113815Y-69183815D01*
X144034463Y-69280506D01*
X143975498Y-69390820D01*
X143953487Y-69463380D01*
X143821632Y-69331525D01*
X143578411Y-69169010D01*
X143308158Y-69057068D01*
X143021260Y-69000000D01*
X142728740Y-69000000D01*
X142441842Y-69057068D01*
X142171589Y-69169010D01*
X141928368Y-69331525D01*
X141721525Y-69538368D01*
X141559010Y-69781589D01*
X141447068Y-70051842D01*
X141390000Y-70338740D01*
X137350538Y-70338740D01*
X137235631Y-70061331D01*
X136991038Y-69695271D01*
X136679729Y-69383962D01*
X136313669Y-69139369D01*
X135906925Y-68970890D01*
X135475128Y-68885000D01*
X135034872Y-68885000D01*
X134603075Y-68970890D01*
X134196331Y-69139369D01*
X133830271Y-69383962D01*
X133518962Y-69695271D01*
X133274369Y-70061331D01*
X133105890Y-70468075D01*
X133020000Y-70899872D01*
X125120000Y-70899872D01*
X125120000Y-67970000D01*
X177140001Y-67970000D01*
X177140000Y-123800000D01*
G37*
%TD.AperFunction*%
%TD*%
M02*
