%TF.GenerationSoftware,KiCad,Pcbnew,(5.1.9)-1*%
%TF.CreationDate,2021-06-08T22:15:24-04:00*%
%TF.ProjectId,AtariWiiWifi,41746172-6957-4696-9957-6966692e6b69,rev?*%
%TF.SameCoordinates,Original*%
%TF.FileFunction,Soldermask,Top*%
%TF.FilePolarity,Negative*%
%FSLAX46Y46*%
G04 Gerber Fmt 4.6, Leading zero omitted, Abs format (unit mm)*
G04 Created by KiCad (PCBNEW (5.1.9)-1) date 2021-06-08 22:15:24*
%MOMM*%
%LPD*%
G01*
G04 APERTURE LIST*
%ADD10R,1.700000X1.700000*%
%ADD11O,1.700000X1.700000*%
%ADD12C,3.200000*%
%ADD13R,1.250000X1.500000*%
%ADD14R,1.500000X1.300000*%
%ADD15R,1.300000X1.500000*%
%ADD16R,0.400000X1.100000*%
%ADD17R,1.500000X0.450000*%
%ADD18O,2.000000X1.200000*%
%ADD19R,2.000000X1.200000*%
%ADD20R,1.500000X1.250000*%
G04 APERTURE END LIST*
D10*
%TO.C,J2A1*%
X129540000Y-92710000D03*
D11*
X129540000Y-90170000D03*
X129540000Y-87630000D03*
X129540000Y-85090000D03*
X129540000Y-82550000D03*
X129540000Y-80010000D03*
X129540000Y-77470000D03*
X129540000Y-74930000D03*
X129540000Y-72390000D03*
%TD*%
D12*
%TO.C,REF\u002A\u002A*%
X135255000Y-71120000D03*
%TD*%
%TO.C,REF\u002A\u002A*%
X168275000Y-71120000D03*
%TD*%
%TO.C,REF\u002A\u002A*%
X135255000Y-120650000D03*
%TD*%
%TO.C,REF\u002A\u002A*%
X168275000Y-120650000D03*
%TD*%
D13*
%TO.C,C1*%
X135890000Y-87015000D03*
X135890000Y-89515000D03*
%TD*%
D11*
%TO.C,J1A1*%
X129540000Y-100330000D03*
X129540000Y-102870000D03*
X129540000Y-105410000D03*
X129540000Y-107950000D03*
X129540000Y-110490000D03*
X129540000Y-113030000D03*
X129540000Y-115570000D03*
X129540000Y-118110000D03*
D10*
X129540000Y-120650000D03*
%TD*%
D14*
%TO.C,R1*%
X140970000Y-100965000D03*
X138270000Y-100965000D03*
%TD*%
D15*
%TO.C,R2*%
X160020000Y-103030000D03*
X160020000Y-100330000D03*
%TD*%
%TO.C,R3*%
X160020000Y-111680000D03*
X160020000Y-114380000D03*
%TD*%
%TO.C,R4*%
X160020000Y-105410000D03*
X160020000Y-108110000D03*
%TD*%
D16*
%TO.C,U1*%
X138030000Y-89860000D03*
X138680000Y-89860000D03*
X139330000Y-89860000D03*
X139980000Y-89860000D03*
X140630000Y-89860000D03*
X141280000Y-89860000D03*
X141930000Y-89860000D03*
X142580000Y-89860000D03*
X143230000Y-89860000D03*
X143880000Y-89860000D03*
X144530000Y-89860000D03*
X145180000Y-89860000D03*
X145180000Y-95560000D03*
X144530000Y-95560000D03*
X143880000Y-95560000D03*
X143230000Y-95560000D03*
X142580000Y-95560000D03*
X141930000Y-95560000D03*
X141280000Y-95560000D03*
X140630000Y-95560000D03*
X139980000Y-95560000D03*
X139330000Y-95560000D03*
X138680000Y-95560000D03*
X138030000Y-95560000D03*
%TD*%
D17*
%TO.C,U2*%
X138880000Y-73630000D03*
X138880000Y-74280000D03*
X138880000Y-74930000D03*
X138880000Y-75580000D03*
X138880000Y-76230000D03*
X138880000Y-76880000D03*
X138880000Y-77530000D03*
X138880000Y-78180000D03*
X144780000Y-78180000D03*
X144780000Y-77530000D03*
X144780000Y-76880000D03*
X144780000Y-76230000D03*
X144780000Y-75580000D03*
X144780000Y-74930000D03*
X144780000Y-74280000D03*
X144780000Y-73630000D03*
%TD*%
%TO.C,U3*%
X145190000Y-112025000D03*
X145190000Y-112675000D03*
X145190000Y-113325000D03*
X145190000Y-113975000D03*
X145190000Y-114625000D03*
X145190000Y-115275000D03*
X145190000Y-115925000D03*
X145190000Y-116575000D03*
X139290000Y-116575000D03*
X139290000Y-115925000D03*
X139290000Y-115275000D03*
X139290000Y-114625000D03*
X139290000Y-113975000D03*
X139290000Y-113325000D03*
X139290000Y-112675000D03*
X139290000Y-112025000D03*
%TD*%
D18*
%TO.C,U4*%
X151130000Y-115570000D03*
D19*
X173990000Y-115570000D03*
D18*
X151130000Y-113030000D03*
X173990000Y-113030000D03*
X151130000Y-110490000D03*
X173990000Y-110490000D03*
X151130000Y-107950000D03*
X173990000Y-107950000D03*
X151130000Y-105410000D03*
X173990000Y-105410000D03*
X151130000Y-102870000D03*
X173990000Y-102870000D03*
X151130000Y-100330000D03*
X173990000Y-100330000D03*
X151130000Y-97790000D03*
X173990000Y-97790000D03*
X151130000Y-95250000D03*
X173990000Y-95250000D03*
X151130000Y-92710000D03*
X173990000Y-92710000D03*
X151130000Y-90170000D03*
X173990000Y-90170000D03*
X151130000Y-87630000D03*
X173990000Y-87630000D03*
X151130000Y-85090000D03*
X173990000Y-85090000D03*
X151130000Y-82550000D03*
X173990000Y-82550000D03*
X151130000Y-80010000D03*
X173990000Y-80010000D03*
X151130000Y-77470000D03*
X173990000Y-77470000D03*
X151130000Y-74930000D03*
X173990000Y-74930000D03*
X151130000Y-72390000D03*
X173990000Y-72390000D03*
X151130000Y-69850000D03*
X173990000Y-69850000D03*
%TD*%
D20*
%TO.C,C2*%
X140990000Y-120015000D03*
X143490000Y-120015000D03*
%TD*%
%TO.C,C3*%
X140950000Y-98425000D03*
X138450000Y-98425000D03*
%TD*%
%TO.C,C4*%
X142260000Y-81280000D03*
X144760000Y-81280000D03*
%TD*%
D11*
%TO.C,J3*%
X142875000Y-70485000D03*
D10*
X145415000Y-70485000D03*
%TD*%
M02*
