%TF.GenerationSoftware,KiCad,Pcbnew,(5.1.9)-1*%
%TF.CreationDate,2021-06-08T22:15:24-04:00*%
%TF.ProjectId,AtariWiiWifi,41746172-6957-4696-9957-6966692e6b69,rev?*%
%TF.SameCoordinates,Original*%
%TF.FileFunction,Paste,Top*%
%TF.FilePolarity,Positive*%
%FSLAX46Y46*%
G04 Gerber Fmt 4.6, Leading zero omitted, Abs format (unit mm)*
G04 Created by KiCad (PCBNEW (5.1.9)-1) date 2021-06-08 22:15:24*
%MOMM*%
%LPD*%
G01*
G04 APERTURE LIST*
%ADD10R,1.250000X1.500000*%
%ADD11R,1.500000X1.300000*%
%ADD12R,1.300000X1.500000*%
%ADD13R,0.400000X1.100000*%
%ADD14R,1.500000X0.450000*%
%ADD15R,1.500000X1.250000*%
G04 APERTURE END LIST*
D10*
%TO.C,C1*%
X135890000Y-87015000D03*
X135890000Y-89515000D03*
%TD*%
D11*
%TO.C,R1*%
X140970000Y-100965000D03*
X138270000Y-100965000D03*
%TD*%
D12*
%TO.C,R2*%
X160020000Y-103030000D03*
X160020000Y-100330000D03*
%TD*%
%TO.C,R3*%
X160020000Y-111680000D03*
X160020000Y-114380000D03*
%TD*%
%TO.C,R4*%
X160020000Y-105410000D03*
X160020000Y-108110000D03*
%TD*%
D13*
%TO.C,U1*%
X138030000Y-89860000D03*
X138680000Y-89860000D03*
X139330000Y-89860000D03*
X139980000Y-89860000D03*
X140630000Y-89860000D03*
X141280000Y-89860000D03*
X141930000Y-89860000D03*
X142580000Y-89860000D03*
X143230000Y-89860000D03*
X143880000Y-89860000D03*
X144530000Y-89860000D03*
X145180000Y-89860000D03*
X145180000Y-95560000D03*
X144530000Y-95560000D03*
X143880000Y-95560000D03*
X143230000Y-95560000D03*
X142580000Y-95560000D03*
X141930000Y-95560000D03*
X141280000Y-95560000D03*
X140630000Y-95560000D03*
X139980000Y-95560000D03*
X139330000Y-95560000D03*
X138680000Y-95560000D03*
X138030000Y-95560000D03*
%TD*%
D14*
%TO.C,U2*%
X138880000Y-73630000D03*
X138880000Y-74280000D03*
X138880000Y-74930000D03*
X138880000Y-75580000D03*
X138880000Y-76230000D03*
X138880000Y-76880000D03*
X138880000Y-77530000D03*
X138880000Y-78180000D03*
X144780000Y-78180000D03*
X144780000Y-77530000D03*
X144780000Y-76880000D03*
X144780000Y-76230000D03*
X144780000Y-75580000D03*
X144780000Y-74930000D03*
X144780000Y-74280000D03*
X144780000Y-73630000D03*
%TD*%
%TO.C,U3*%
X145190000Y-112025000D03*
X145190000Y-112675000D03*
X145190000Y-113325000D03*
X145190000Y-113975000D03*
X145190000Y-114625000D03*
X145190000Y-115275000D03*
X145190000Y-115925000D03*
X145190000Y-116575000D03*
X139290000Y-116575000D03*
X139290000Y-115925000D03*
X139290000Y-115275000D03*
X139290000Y-114625000D03*
X139290000Y-113975000D03*
X139290000Y-113325000D03*
X139290000Y-112675000D03*
X139290000Y-112025000D03*
%TD*%
D15*
%TO.C,C2*%
X140990000Y-120015000D03*
X143490000Y-120015000D03*
%TD*%
%TO.C,C3*%
X140950000Y-98425000D03*
X138450000Y-98425000D03*
%TD*%
%TO.C,C4*%
X142260000Y-81280000D03*
X144760000Y-81280000D03*
%TD*%
M02*
