%TF.GenerationSoftware,KiCad,Pcbnew,(5.1.9)-1*%
%TF.CreationDate,2021-06-08T22:15:24-04:00*%
%TF.ProjectId,AtariWiiWifi,41746172-6957-4696-9957-6966692e6b69,rev?*%
%TF.SameCoordinates,Original*%
%TF.FileFunction,Copper,L1,Top*%
%TF.FilePolarity,Positive*%
%FSLAX46Y46*%
G04 Gerber Fmt 4.6, Leading zero omitted, Abs format (unit mm)*
G04 Created by KiCad (PCBNEW (5.1.9)-1) date 2021-06-08 22:15:24*
%MOMM*%
%LPD*%
G01*
G04 APERTURE LIST*
%TA.AperFunction,ComponentPad*%
%ADD10R,1.700000X1.700000*%
%TD*%
%TA.AperFunction,ComponentPad*%
%ADD11O,1.700000X1.700000*%
%TD*%
%TA.AperFunction,SMDPad,CuDef*%
%ADD12R,1.250000X1.500000*%
%TD*%
%TA.AperFunction,SMDPad,CuDef*%
%ADD13R,1.500000X1.300000*%
%TD*%
%TA.AperFunction,SMDPad,CuDef*%
%ADD14R,1.300000X1.500000*%
%TD*%
%TA.AperFunction,SMDPad,CuDef*%
%ADD15R,0.400000X1.100000*%
%TD*%
%TA.AperFunction,SMDPad,CuDef*%
%ADD16R,1.500000X0.450000*%
%TD*%
%TA.AperFunction,ComponentPad*%
%ADD17O,2.000000X1.200000*%
%TD*%
%TA.AperFunction,ComponentPad*%
%ADD18R,2.000000X1.200000*%
%TD*%
%TA.AperFunction,SMDPad,CuDef*%
%ADD19R,1.500000X1.250000*%
%TD*%
%TA.AperFunction,ViaPad*%
%ADD20C,0.800000*%
%TD*%
%TA.AperFunction,Conductor*%
%ADD21C,0.228600*%
%TD*%
%TA.AperFunction,Conductor*%
%ADD22C,0.304800*%
%TD*%
%TA.AperFunction,Conductor*%
%ADD23C,0.254000*%
%TD*%
%TA.AperFunction,Conductor*%
%ADD24C,0.100000*%
%TD*%
G04 APERTURE END LIST*
D10*
%TO.P,J2A1,1*%
%TO.N,/J2_UP*%
X129540000Y-92710000D03*
D11*
%TO.P,J2A1,2*%
%TO.N,/J2_TRIG*%
X129540000Y-90170000D03*
%TO.P,J2A1,3*%
%TO.N,/J2_DOWN*%
X129540000Y-87630000D03*
%TO.P,J2A1,4*%
%TO.N,+5V*%
X129540000Y-85090000D03*
%TO.P,J2A1,5*%
%TO.N,/J2_LEFT*%
X129540000Y-82550000D03*
%TO.P,J2A1,6*%
%TO.N,GND*%
X129540000Y-80010000D03*
%TO.P,J2A1,7*%
%TO.N,/J2_RIGHT*%
X129540000Y-77470000D03*
%TO.P,J2A1,8*%
%TO.N,/J2_PotA*%
X129540000Y-74930000D03*
%TO.P,J2A1,9*%
%TO.N,/J2_PotB*%
X129540000Y-72390000D03*
%TD*%
D12*
%TO.P,C1,2*%
%TO.N,GND*%
X135890000Y-87015000D03*
%TO.P,C1,1*%
%TO.N,+5V*%
X135890000Y-89515000D03*
%TD*%
D11*
%TO.P,J1A1,9*%
%TO.N,/J1_PotB*%
X129540000Y-100330000D03*
%TO.P,J1A1,8*%
%TO.N,/J1_PotA*%
X129540000Y-102870000D03*
%TO.P,J1A1,7*%
%TO.N,/J1_RIGHT*%
X129540000Y-105410000D03*
%TO.P,J1A1,6*%
%TO.N,GND*%
X129540000Y-107950000D03*
%TO.P,J1A1,5*%
%TO.N,/J1_LEFT*%
X129540000Y-110490000D03*
%TO.P,J1A1,4*%
%TO.N,+5V*%
X129540000Y-113030000D03*
%TO.P,J1A1,3*%
%TO.N,/J1_DOWN*%
X129540000Y-115570000D03*
%TO.P,J1A1,2*%
%TO.N,/J1_TRIG*%
X129540000Y-118110000D03*
D10*
%TO.P,J1A1,1*%
%TO.N,/J1_UP*%
X129540000Y-120650000D03*
%TD*%
D13*
%TO.P,R1,2*%
%TO.N,Net-(R1-Pad2)*%
X140970000Y-100965000D03*
%TO.P,R1,1*%
%TO.N,+3V3*%
X138270000Y-100965000D03*
%TD*%
D14*
%TO.P,R2,1*%
%TO.N,+3V3*%
X160020000Y-103030000D03*
%TO.P,R2,2*%
%TO.N,Net-(R2-Pad2)*%
X160020000Y-100330000D03*
%TD*%
%TO.P,R3,2*%
%TO.N,/SCL*%
X160020000Y-111680000D03*
%TO.P,R3,1*%
%TO.N,+3V3*%
X160020000Y-114380000D03*
%TD*%
%TO.P,R4,1*%
%TO.N,+3V3*%
X160020000Y-105410000D03*
%TO.P,R4,2*%
%TO.N,/SDA*%
X160020000Y-108110000D03*
%TD*%
D15*
%TO.P,U1,24*%
%TO.N,+5V*%
X138030000Y-89860000D03*
%TO.P,U1,23*%
%TO.N,/SDA*%
X138680000Y-89860000D03*
%TO.P,U1,22*%
%TO.N,/SCL*%
X139330000Y-89860000D03*
%TO.P,U1,21*%
%TO.N,GND*%
X139980000Y-89860000D03*
%TO.P,U1,20*%
%TO.N,Net-(U1-Pad20)*%
X140630000Y-89860000D03*
%TO.P,U1,19*%
%TO.N,Net-(U1-Pad19)*%
X141280000Y-89860000D03*
%TO.P,U1,18*%
%TO.N,Net-(U1-Pad18)*%
X141930000Y-89860000D03*
%TO.P,U1,17*%
%TO.N,/J2_RIGHT*%
X142580000Y-89860000D03*
%TO.P,U1,16*%
%TO.N,/J2_LEFT*%
X143230000Y-89860000D03*
%TO.P,U1,15*%
%TO.N,/J2_DOWN*%
X143880000Y-89860000D03*
%TO.P,U1,14*%
%TO.N,/J2_TRIG*%
X144530000Y-89860000D03*
%TO.P,U1,13*%
%TO.N,/J2_UP*%
X145180000Y-89860000D03*
%TO.P,U1,12*%
%TO.N,GND*%
X145180000Y-95560000D03*
%TO.P,U1,11*%
%TO.N,Net-(U1-Pad11)*%
X144530000Y-95560000D03*
%TO.P,U1,10*%
%TO.N,Net-(U1-Pad10)*%
X143880000Y-95560000D03*
%TO.P,U1,9*%
%TO.N,Net-(U1-Pad9)*%
X143230000Y-95560000D03*
%TO.P,U1,8*%
%TO.N,/J1_RIGHT*%
X142580000Y-95560000D03*
%TO.P,U1,7*%
%TO.N,/J1_LEFT*%
X141930000Y-95560000D03*
%TO.P,U1,6*%
%TO.N,/J1_DOWN*%
X141280000Y-95560000D03*
%TO.P,U1,5*%
%TO.N,/J1_TRIG*%
X140630000Y-95560000D03*
%TO.P,U1,4*%
%TO.N,/J1_UP*%
X139980000Y-95560000D03*
%TO.P,U1,3*%
%TO.N,Net-(R1-Pad2)*%
X139330000Y-95560000D03*
%TO.P,U1,2*%
%TO.N,+3V3*%
X138680000Y-95560000D03*
%TO.P,U1,1*%
%TO.N,Net-(R2-Pad2)*%
X138030000Y-95560000D03*
%TD*%
D16*
%TO.P,U2,1*%
%TO.N,Net-(U2-Pad1)*%
X138880000Y-73630000D03*
%TO.P,U2,2*%
%TO.N,Net-(U2-Pad2)*%
X138880000Y-74280000D03*
%TO.P,U2,3*%
%TO.N,/J2_PotA*%
X138880000Y-74930000D03*
%TO.P,U2,4*%
%TO.N,+5V*%
X138880000Y-75580000D03*
%TO.P,U2,5*%
%TO.N,+3V3*%
X138880000Y-76230000D03*
%TO.P,U2,6*%
X138880000Y-76880000D03*
%TO.P,U2,7*%
%TO.N,/SCL*%
X138880000Y-77530000D03*
%TO.P,U2,8*%
%TO.N,/SDA*%
X138880000Y-78180000D03*
%TO.P,U2,9*%
%TO.N,GND*%
X144780000Y-78180000D03*
%TO.P,U2,10*%
X144780000Y-77530000D03*
%TO.P,U2,11*%
X144780000Y-76880000D03*
%TO.P,U2,12*%
X144780000Y-76230000D03*
%TO.P,U2,13*%
%TO.N,Net-(U2-Pad13)*%
X144780000Y-75580000D03*
%TO.P,U2,14*%
%TO.N,+5V*%
X144780000Y-74930000D03*
%TO.P,U2,15*%
%TO.N,/J2_PotB*%
X144780000Y-74280000D03*
%TO.P,U2,16*%
%TO.N,Net-(U2-Pad16)*%
X144780000Y-73630000D03*
%TD*%
%TO.P,U3,16*%
%TO.N,Net-(U3-Pad16)*%
X145190000Y-112025000D03*
%TO.P,U3,15*%
%TO.N,/J1_PotB*%
X145190000Y-112675000D03*
%TO.P,U3,14*%
%TO.N,+5V*%
X145190000Y-113325000D03*
%TO.P,U3,13*%
%TO.N,Net-(U3-Pad13)*%
X145190000Y-113975000D03*
%TO.P,U3,12*%
%TO.N,GND*%
X145190000Y-114625000D03*
%TO.P,U3,11*%
X145190000Y-115275000D03*
%TO.P,U3,10*%
%TO.N,+3V3*%
X145190000Y-115925000D03*
%TO.P,U3,9*%
X145190000Y-116575000D03*
%TO.P,U3,8*%
%TO.N,/SDA*%
X139290000Y-116575000D03*
%TO.P,U3,7*%
%TO.N,/SCL*%
X139290000Y-115925000D03*
%TO.P,U3,6*%
%TO.N,+3V3*%
X139290000Y-115275000D03*
%TO.P,U3,5*%
X139290000Y-114625000D03*
%TO.P,U3,4*%
%TO.N,+5V*%
X139290000Y-113975000D03*
%TO.P,U3,3*%
%TO.N,/J1_PotA*%
X139290000Y-113325000D03*
%TO.P,U3,2*%
%TO.N,Net-(U3-Pad2)*%
X139290000Y-112675000D03*
%TO.P,U3,1*%
%TO.N,Net-(U3-Pad1)*%
X139290000Y-112025000D03*
%TD*%
D17*
%TO.P,U4,38*%
%TO.N,GND*%
X151130000Y-115570000D03*
D18*
%TO.P,U4,1*%
%TO.N,+3V3*%
X173990000Y-115570000D03*
D17*
%TO.P,U4,37*%
%TO.N,Net-(U4-Pad37)*%
X151130000Y-113030000D03*
%TO.P,U4,2*%
%TO.N,Net-(U4-Pad2)*%
X173990000Y-113030000D03*
%TO.P,U4,36*%
%TO.N,/SCL*%
X151130000Y-110490000D03*
%TO.P,U4,3*%
%TO.N,Net-(U4-Pad3)*%
X173990000Y-110490000D03*
%TO.P,U4,35*%
%TO.N,Net-(U4-Pad35)*%
X151130000Y-107950000D03*
%TO.P,U4,4*%
%TO.N,Net-(U4-Pad4)*%
X173990000Y-107950000D03*
%TO.P,U4,34*%
%TO.N,Net-(U4-Pad34)*%
X151130000Y-105410000D03*
%TO.P,U4,5*%
%TO.N,Net-(U4-Pad5)*%
X173990000Y-105410000D03*
%TO.P,U4,33*%
%TO.N,/SDA*%
X151130000Y-102870000D03*
%TO.P,U4,6*%
%TO.N,Net-(U4-Pad6)*%
X173990000Y-102870000D03*
%TO.P,U4,32*%
%TO.N,GND*%
X151130000Y-100330000D03*
%TO.P,U4,7*%
%TO.N,Net-(U4-Pad7)*%
X173990000Y-100330000D03*
%TO.P,U4,31*%
%TO.N,Net-(R2-Pad2)*%
X151130000Y-97790000D03*
%TO.P,U4,8*%
%TO.N,Net-(U4-Pad8)*%
X173990000Y-97790000D03*
%TO.P,U4,30*%
%TO.N,Net-(U4-Pad30)*%
X151130000Y-95250000D03*
%TO.P,U4,9*%
%TO.N,Net-(U4-Pad9)*%
X173990000Y-95250000D03*
%TO.P,U4,29*%
%TO.N,Net-(U4-Pad29)*%
X151130000Y-92710000D03*
%TO.P,U4,10*%
%TO.N,Net-(U4-Pad10)*%
X173990000Y-92710000D03*
%TO.P,U4,28*%
%TO.N,Net-(U4-Pad28)*%
X151130000Y-90170000D03*
%TO.P,U4,11*%
%TO.N,Net-(U4-Pad11)*%
X173990000Y-90170000D03*
%TO.P,U4,27*%
%TO.N,Net-(U4-Pad27)*%
X151130000Y-87630000D03*
%TO.P,U4,12*%
%TO.N,Net-(U4-Pad12)*%
X173990000Y-87630000D03*
%TO.P,U4,26*%
%TO.N,Net-(U4-Pad26)*%
X151130000Y-85090000D03*
%TO.P,U4,13*%
%TO.N,Net-(U4-Pad13)*%
X173990000Y-85090000D03*
%TO.P,U4,25*%
%TO.N,Net-(U4-Pad25)*%
X151130000Y-82550000D03*
%TO.P,U4,14*%
%TO.N,GND*%
X173990000Y-82550000D03*
%TO.P,U4,24*%
%TO.N,Net-(U4-Pad24)*%
X151130000Y-80010000D03*
%TO.P,U4,15*%
%TO.N,Net-(U4-Pad15)*%
X173990000Y-80010000D03*
%TO.P,U4,23*%
%TO.N,Net-(U4-Pad23)*%
X151130000Y-77470000D03*
%TO.P,U4,16*%
%TO.N,Net-(U4-Pad16)*%
X173990000Y-77470000D03*
%TO.P,U4,22*%
%TO.N,Net-(U4-Pad22)*%
X151130000Y-74930000D03*
%TO.P,U4,17*%
%TO.N,Net-(U4-Pad17)*%
X173990000Y-74930000D03*
%TO.P,U4,21*%
%TO.N,Net-(U4-Pad21)*%
X151130000Y-72390000D03*
%TO.P,U4,18*%
%TO.N,Net-(U4-Pad18)*%
X173990000Y-72390000D03*
%TO.P,U4,20*%
%TO.N,Net-(U4-Pad20)*%
X151130000Y-69850000D03*
%TO.P,U4,19*%
%TO.N,Net-(J3-Pad1)*%
X173990000Y-69850000D03*
%TD*%
D19*
%TO.P,C2,1*%
%TO.N,+3V3*%
X140990000Y-120015000D03*
%TO.P,C2,2*%
%TO.N,GND*%
X143490000Y-120015000D03*
%TD*%
%TO.P,C3,2*%
%TO.N,GND*%
X140950000Y-98425000D03*
%TO.P,C3,1*%
%TO.N,+3V3*%
X138450000Y-98425000D03*
%TD*%
%TO.P,C4,1*%
%TO.N,+3V3*%
X142260000Y-81280000D03*
%TO.P,C4,2*%
%TO.N,GND*%
X144760000Y-81280000D03*
%TD*%
D11*
%TO.P,J3,2*%
%TO.N,+5V*%
X142875000Y-70485000D03*
D10*
%TO.P,J3,1*%
%TO.N,Net-(J3-Pad1)*%
X145415000Y-70485000D03*
%TD*%
D20*
%TO.N,/J1_RIGHT*%
X140970000Y-104775000D03*
%TO.N,GND*%
X144145000Y-100330000D03*
X151130000Y-118110000D03*
X147320000Y-93980000D03*
%TO.N,/J2_TRIG*%
X143510000Y-91440000D03*
%TO.N,/J2_RIGHT*%
X144145000Y-83820000D03*
%TO.N,/J2_LEFT*%
X144145000Y-85725000D03*
%TO.N,/J2_DOWN*%
X144219378Y-87069378D03*
%TO.N,/J2_UP*%
X144145000Y-92710000D03*
%TO.N,+3V3*%
X138430000Y-102870000D03*
X157480000Y-102870000D03*
%TO.N,Net-(R2-Pad2)*%
X135890000Y-95885000D03*
%TO.N,/SCL*%
X145415000Y-110490000D03*
%TO.N,/SDA*%
X143510004Y-110490000D03*
%TO.N,+5V*%
X136525000Y-113665000D03*
X147320000Y-113665000D03*
%TD*%
D21*
%TO.N,/J1_UP*%
X127431811Y-100710289D02*
X127431811Y-118541811D01*
X139891100Y-94692500D02*
X133449600Y-94692500D01*
X133449600Y-94692500D02*
X127431811Y-100710289D01*
X139980000Y-94781400D02*
X139891100Y-94692500D01*
X127431811Y-118541811D02*
X129540000Y-120650000D01*
X139980000Y-95560000D02*
X139980000Y-94781400D01*
%TO.N,/J1_DOWN*%
X131139310Y-117169310D02*
X129540000Y-115570000D01*
X130822862Y-122249310D02*
X131139310Y-121932862D01*
X127329310Y-122249310D02*
X130822862Y-122249310D01*
X126161811Y-100758947D02*
X126161811Y-121081811D01*
X133091878Y-93828880D02*
X126161811Y-100758947D01*
X140327480Y-93828880D02*
X133091878Y-93828880D01*
X131139310Y-121932862D02*
X131139310Y-117169310D01*
X141280000Y-94781400D02*
X140327480Y-93828880D01*
X126161811Y-121081811D02*
X127329310Y-122249310D01*
X141280000Y-95560000D02*
X141280000Y-94781400D01*
%TO.N,/J1_LEFT*%
X131571121Y-122111723D02*
X131571121Y-112521121D01*
X126491121Y-122681121D02*
X131001723Y-122681121D01*
X131571121Y-112521121D02*
X129540000Y-110490000D01*
X125730000Y-121920000D02*
X126491121Y-122681121D01*
X125730000Y-100580086D02*
X125730000Y-121920000D01*
X132913017Y-93397069D02*
X125730000Y-100580086D01*
X140545669Y-93397069D02*
X132913017Y-93397069D01*
X141930000Y-94781400D02*
X140545669Y-93397069D01*
X131001723Y-122681121D02*
X131571121Y-122111723D01*
X141930000Y-95560000D02*
X141930000Y-94781400D01*
%TO.N,/J1_RIGHT*%
X142580000Y-103165000D02*
X142580000Y-95560000D01*
X140970000Y-104775000D02*
X142580000Y-103165000D01*
%TO.N,/J1_PotB*%
X146257501Y-112586099D02*
X146257501Y-110270599D01*
X146168600Y-112675000D02*
X146257501Y-112586099D01*
X145190000Y-112675000D02*
X146168600Y-112675000D01*
X137160000Y-107950000D02*
X129540000Y-100330000D01*
X146257501Y-110270599D02*
X143936902Y-107950000D01*
X143936902Y-107950000D02*
X137160000Y-107950000D01*
%TO.N,/J1_TRIG*%
X130707500Y-119277500D02*
X129540000Y-118110000D01*
X130707500Y-121754001D02*
X130707500Y-119277500D01*
X130644001Y-121817500D02*
X130707500Y-121754001D01*
X128167500Y-121817500D02*
X130644001Y-121817500D01*
X126796811Y-120446811D02*
X128167500Y-121817500D01*
X126796811Y-100734618D02*
X126796811Y-120446811D01*
X133270739Y-94260690D02*
X126796811Y-100734618D01*
X140109290Y-94260690D02*
X133270739Y-94260690D01*
X140630000Y-94781400D02*
X140109290Y-94260690D01*
X140630000Y-95560000D02*
X140630000Y-94781400D01*
D22*
%TO.N,+5V*%
X129540000Y-85090000D02*
X133985000Y-89535000D01*
X136505000Y-89535000D02*
X136525000Y-89515000D01*
X133985000Y-89535000D02*
X136505000Y-89535000D01*
X137685000Y-89515000D02*
X138030000Y-89860000D01*
X136525000Y-89515000D02*
X137685000Y-89515000D01*
%TO.N,GND*%
X144780000Y-76230000D02*
X144780000Y-76880000D01*
X144780000Y-76880000D02*
X144780000Y-77530000D01*
X144780000Y-77530000D02*
X144780000Y-78180000D01*
X144780000Y-81260000D02*
X144760000Y-81280000D01*
X149225000Y-115570000D02*
X151130000Y-115570000D01*
X148930000Y-115275000D02*
X149225000Y-115570000D01*
X145190000Y-114625000D02*
X145190000Y-115275000D01*
X148295000Y-111643545D02*
X148295000Y-115275000D01*
X148295000Y-115275000D02*
X148930000Y-115275000D01*
X145190000Y-115275000D02*
X148295000Y-115275000D01*
X144945000Y-100330000D02*
X145180000Y-100095000D01*
X144145000Y-100330000D02*
X144945000Y-100330000D01*
X145180000Y-95560000D02*
X145180000Y-100095000D01*
X144145000Y-102718290D02*
X144145000Y-100330000D01*
X141332689Y-105530601D02*
X144145000Y-102718290D01*
X140214399Y-105137689D02*
X140607311Y-105530601D01*
X140607311Y-105530601D02*
X141332689Y-105530601D01*
X140214399Y-104412311D02*
X140214399Y-105137689D01*
X142110090Y-102516620D02*
X140214399Y-104412311D01*
X142110090Y-98530290D02*
X142110090Y-102516620D01*
X142004800Y-98425000D02*
X142110090Y-98530290D01*
X140950000Y-98425000D02*
X142004800Y-98425000D01*
X149225000Y-120015000D02*
X151130000Y-118110000D01*
X143490000Y-120015000D02*
X149225000Y-120015000D01*
X146805601Y-93465601D02*
X147320000Y-93980000D01*
X142913953Y-93465601D02*
X146805601Y-93465601D01*
X139980000Y-90531648D02*
X142913953Y-93465601D01*
X139980000Y-89860000D02*
X139980000Y-90531648D01*
X144780000Y-80010000D02*
X145735610Y-80965610D01*
X145735610Y-80965610D02*
X157165610Y-80965610D01*
X144780000Y-78180000D02*
X144780000Y-80010000D01*
X144780000Y-80010000D02*
X144780000Y-81260000D01*
X158750000Y-82550000D02*
X173990000Y-82550000D01*
X157165610Y-80965610D02*
X158750000Y-82550000D01*
X135890000Y-86360000D02*
X135890000Y-87015000D01*
X145180000Y-100095000D02*
X145180000Y-108528545D01*
X145180000Y-108528545D02*
X148295000Y-111643545D01*
D21*
%TO.N,/J1_PotA*%
X138393498Y-113325000D02*
X133985000Y-108916502D01*
X139290000Y-113325000D02*
X138393498Y-113325000D01*
X133985000Y-107315000D02*
X129540000Y-102870000D01*
X133985000Y-108916502D02*
X133985000Y-107315000D01*
%TO.N,/J2_PotA*%
X129540000Y-74930000D02*
X138880000Y-74930000D01*
%TO.N,/J2_TRIG*%
X144530000Y-90420000D02*
X143510000Y-91440000D01*
X144530000Y-89860000D02*
X144530000Y-90420000D01*
%TO.N,/J2_PotB*%
X141076502Y-74280000D02*
X144780000Y-74280000D01*
X139884001Y-73087499D02*
X141076502Y-74280000D01*
X137812499Y-73150999D02*
X137875999Y-73087499D01*
X137875999Y-73087499D02*
X139884001Y-73087499D01*
X137812499Y-73642501D02*
X137812499Y-73150999D01*
X136956810Y-74498190D02*
X137812499Y-73642501D01*
X131648190Y-74498190D02*
X136956810Y-74498190D01*
X129540000Y-72390000D02*
X131648190Y-74498190D01*
%TO.N,/J2_RIGHT*%
X142580000Y-85385000D02*
X144145000Y-83820000D01*
X142580000Y-89860000D02*
X142580000Y-85385000D01*
%TO.N,/J2_LEFT*%
X143230000Y-89860000D02*
X143230000Y-86640000D01*
X143230000Y-86640000D02*
X144145000Y-85725000D01*
%TO.N,/J2_DOWN*%
X143880000Y-87408756D02*
X144219378Y-87069378D01*
X143880000Y-89860000D02*
X143880000Y-87408756D01*
%TO.N,/J2_UP*%
X145180000Y-91675000D02*
X144145000Y-92710000D01*
X145180000Y-89860000D02*
X145180000Y-91675000D01*
%TO.N,Net-(R1-Pad2)*%
X139330000Y-96231502D02*
X139700000Y-96601502D01*
X139330000Y-95560000D02*
X139330000Y-96231502D01*
X139700000Y-96601502D02*
X139700000Y-100965000D01*
X139700000Y-100965000D02*
X140970000Y-100965000D01*
D22*
%TO.N,+3V3*%
X138880000Y-76230000D02*
X138880000Y-76880000D01*
X138880000Y-76880000D02*
X140380000Y-76880000D01*
X142260000Y-78760000D02*
X142260000Y-81280000D01*
X140380000Y-76880000D02*
X142260000Y-78760000D01*
X160020000Y-114380000D02*
X163910000Y-114380000D01*
X165100000Y-115570000D02*
X173990000Y-115570000D01*
X163910000Y-114380000D02*
X165100000Y-115570000D01*
X160020000Y-103030000D02*
X160020000Y-105410000D01*
X160020000Y-105410000D02*
X163910000Y-109300000D01*
X145190000Y-116575000D02*
X159650000Y-116575000D01*
X160020000Y-116205000D02*
X160020000Y-114380000D01*
X159650000Y-116575000D02*
X160020000Y-116205000D01*
X140990000Y-120015000D02*
X140990000Y-118090000D01*
X142505000Y-116575000D02*
X145190000Y-116575000D01*
X140990000Y-118090000D02*
X142505000Y-116575000D01*
X145190000Y-116575000D02*
X145190000Y-115925000D01*
X138184399Y-117209399D02*
X140990000Y-120015000D01*
X138184399Y-115325801D02*
X138184399Y-117209399D01*
X138235200Y-115275000D02*
X138184399Y-115325801D01*
X139290000Y-115275000D02*
X138235200Y-115275000D01*
X139290000Y-114625000D02*
X139290000Y-115275000D01*
X138680000Y-98195000D02*
X138680000Y-95560000D01*
X138450000Y-98425000D02*
X138680000Y-98195000D01*
X138270000Y-98605000D02*
X138450000Y-98425000D01*
X138270000Y-100965000D02*
X138270000Y-98605000D01*
X163910000Y-96118564D02*
X163910000Y-109775000D01*
X151925826Y-84134390D02*
X163910000Y-96118564D01*
X150962954Y-84134390D02*
X151925826Y-84134390D01*
X149089165Y-82260601D02*
X150962954Y-84134390D01*
X143240601Y-82260601D02*
X149089165Y-82260601D01*
X142260000Y-81280000D02*
X143240601Y-82260601D01*
X163910000Y-109775000D02*
X163910000Y-114380000D01*
X163910000Y-109300000D02*
X163910000Y-109775000D01*
X138270000Y-102710000D02*
X138430000Y-102870000D01*
X138270000Y-100965000D02*
X138270000Y-102710000D01*
X159860000Y-102870000D02*
X160020000Y-103030000D01*
X157480000Y-102870000D02*
X159860000Y-102870000D01*
D21*
%TO.N,Net-(R2-Pad2)*%
X151130000Y-97790000D02*
X159385000Y-97790000D01*
X160020000Y-98425000D02*
X160020000Y-100330000D01*
X159385000Y-97790000D02*
X160020000Y-98425000D01*
X136215000Y-95560000D02*
X135890000Y-95885000D01*
X138030000Y-95560000D02*
X136215000Y-95560000D01*
D22*
%TO.N,/SCL*%
X155495000Y-111680000D02*
X160020000Y-111680000D01*
X154305000Y-110490000D02*
X155495000Y-111680000D01*
X160895965Y-107004399D02*
X161290000Y-107398434D01*
X159085519Y-107004399D02*
X160895965Y-107004399D01*
X149774390Y-101514390D02*
X153595510Y-101514390D01*
X149774390Y-98045874D02*
X149774390Y-101514390D01*
X145874906Y-94146390D02*
X149774390Y-98045874D01*
X153595510Y-101514390D02*
X159085519Y-107004399D01*
X142876307Y-94146389D02*
X145874906Y-94146390D01*
X139330000Y-90600082D02*
X142876307Y-94146389D01*
X139330000Y-89860000D02*
X139330000Y-90600082D01*
X139934800Y-77530000D02*
X139985601Y-77580801D01*
X139760000Y-77530000D02*
X139934800Y-77530000D01*
X138880000Y-77530000D02*
X139760000Y-77530000D01*
X139330000Y-88621706D02*
X142055601Y-85896105D01*
X142055601Y-83635601D02*
X140063611Y-81643611D01*
X140063611Y-77833611D02*
X139760000Y-77530000D01*
X142055601Y-85896105D02*
X142055601Y-83635601D01*
X139330000Y-89860000D02*
X139330000Y-88621706D01*
X140063611Y-81643611D02*
X140063611Y-77833611D01*
X140344800Y-115925000D02*
X139290000Y-115925000D01*
X142240000Y-114029800D02*
X140344800Y-115925000D01*
X142240000Y-110641708D02*
X142240000Y-114029800D01*
X161290000Y-107398434D02*
X161290000Y-110410000D01*
X151130000Y-110490000D02*
X154305000Y-110490000D01*
X161290000Y-110410000D02*
X160020000Y-111680000D01*
X145415000Y-110490000D02*
X144510200Y-109585200D01*
X144510200Y-109585200D02*
X143296508Y-109585200D01*
X143296508Y-109585200D02*
X142240000Y-110641708D01*
%TO.N,/SDA*%
X153670000Y-102870000D02*
X151130000Y-102870000D01*
X158910000Y-108110000D02*
X153670000Y-102870000D01*
X146829918Y-102870000D02*
X151130000Y-102870000D01*
X146757459Y-95747377D02*
X146757459Y-102942459D01*
X145664481Y-94654399D02*
X146757459Y-95747377D01*
X142619599Y-94654399D02*
X145664481Y-94654399D01*
X138680000Y-90714800D02*
X142619599Y-94654399D01*
X138680000Y-89860000D02*
X138680000Y-90714800D01*
X146757459Y-102942459D02*
X146829918Y-102870000D01*
X139555601Y-78855601D02*
X139555601Y-86504399D01*
X138880000Y-78180000D02*
X139555601Y-78855601D01*
X138680000Y-87380000D02*
X138680000Y-89860000D01*
X139555601Y-86504399D02*
X138680000Y-87380000D01*
X142875000Y-114383434D02*
X142875000Y-111125004D01*
X140683434Y-116575000D02*
X142875000Y-114383434D01*
X139290000Y-116575000D02*
X140683434Y-116575000D01*
X160020000Y-108110000D02*
X158910000Y-108110000D01*
X142875000Y-111125004D02*
X143510000Y-110490004D01*
X143510000Y-110490004D02*
X143510004Y-110490000D01*
D21*
%TO.N,+5V*%
X137901400Y-75580000D02*
X138880000Y-75580000D01*
X137812499Y-75668901D02*
X137901400Y-75580000D01*
X137812499Y-89642499D02*
X137812499Y-75668901D01*
X138030000Y-89860000D02*
X137812499Y-89642499D01*
X138880000Y-75580000D02*
X140955000Y-75580000D01*
X141605000Y-74930000D02*
X144780000Y-74930000D01*
X140955000Y-75580000D02*
X141605000Y-74930000D01*
X146685000Y-74295000D02*
X146050000Y-74930000D01*
X146685000Y-73025000D02*
X146685000Y-74295000D01*
X146050000Y-74930000D02*
X144780000Y-74930000D01*
X146050000Y-72390000D02*
X146685000Y-73025000D01*
X142875000Y-72390000D02*
X146050000Y-72390000D01*
X142875000Y-70485000D02*
X142875000Y-72390000D01*
X136835000Y-113975000D02*
X139290000Y-113975000D01*
X136525000Y-113665000D02*
X136835000Y-113975000D01*
X146980000Y-113325000D02*
X145190000Y-113325000D01*
X147320000Y-113665000D02*
X146980000Y-113325000D01*
%TO.N,Net-(J3-Pad1)*%
X173990000Y-70485000D02*
X173990000Y-69850000D01*
X169545000Y-74930000D02*
X173990000Y-70485000D01*
X166370000Y-74930000D02*
X169545000Y-74930000D01*
X162912490Y-71472490D02*
X166370000Y-74930000D01*
X151054935Y-71472490D02*
X162912490Y-71472490D01*
X150067445Y-70485000D02*
X151054935Y-71472490D01*
X145415000Y-70485000D02*
X150067445Y-70485000D01*
%TD*%
D23*
%TO.N,GND*%
X177140000Y-123800000D02*
X125120000Y-123800000D01*
X125120000Y-122357840D01*
X125174140Y-122423809D01*
X125197603Y-122452398D01*
X125226189Y-122475858D01*
X125935267Y-123184937D01*
X125958723Y-123213519D01*
X125987304Y-123236975D01*
X125987311Y-123236982D01*
X126072818Y-123307155D01*
X126202989Y-123376733D01*
X126344233Y-123419579D01*
X126454315Y-123430421D01*
X126454323Y-123430421D01*
X126491121Y-123434045D01*
X126527919Y-123430421D01*
X130964928Y-123430421D01*
X131001723Y-123434045D01*
X131038518Y-123430421D01*
X131038529Y-123430421D01*
X131148611Y-123419579D01*
X131289855Y-123376733D01*
X131420026Y-123307155D01*
X131534121Y-123213519D01*
X131557586Y-123184927D01*
X132074933Y-122667581D01*
X132103519Y-122644121D01*
X132197155Y-122530026D01*
X132266733Y-122399855D01*
X132309579Y-122258611D01*
X132320421Y-122148529D01*
X132320421Y-122148520D01*
X132324045Y-122111724D01*
X132320421Y-122074928D01*
X132320421Y-120429872D01*
X133020000Y-120429872D01*
X133020000Y-120870128D01*
X133105890Y-121301925D01*
X133274369Y-121708669D01*
X133518962Y-122074729D01*
X133830271Y-122386038D01*
X134196331Y-122630631D01*
X134603075Y-122799110D01*
X135034872Y-122885000D01*
X135475128Y-122885000D01*
X135906925Y-122799110D01*
X136313669Y-122630631D01*
X136679729Y-122386038D01*
X136991038Y-122074729D01*
X137235631Y-121708669D01*
X137404110Y-121301925D01*
X137490000Y-120870128D01*
X137490000Y-120429872D01*
X137404110Y-119998075D01*
X137235631Y-119591331D01*
X136991038Y-119225271D01*
X136679729Y-118913962D01*
X136313669Y-118669369D01*
X135906925Y-118500890D01*
X135475128Y-118415000D01*
X135034872Y-118415000D01*
X134603075Y-118500890D01*
X134196331Y-118669369D01*
X133830271Y-118913962D01*
X133518962Y-119225271D01*
X133274369Y-119591331D01*
X133105890Y-119998075D01*
X133020000Y-120429872D01*
X132320421Y-120429872D01*
X132320421Y-112557917D01*
X132324045Y-112521121D01*
X132320421Y-112484325D01*
X132320421Y-112484315D01*
X132309579Y-112374233D01*
X132266733Y-112232989D01*
X132218420Y-112142602D01*
X132197155Y-112102817D01*
X132126981Y-112017311D01*
X132126979Y-112017309D01*
X132103519Y-111988723D01*
X132074932Y-111965262D01*
X130978699Y-110869029D01*
X131025000Y-110636260D01*
X131025000Y-110343740D01*
X130967932Y-110056842D01*
X130855990Y-109786589D01*
X130693475Y-109543368D01*
X130486632Y-109336525D01*
X130304466Y-109214805D01*
X130421355Y-109145178D01*
X130637588Y-108950269D01*
X130811641Y-108716920D01*
X130936825Y-108454099D01*
X130981476Y-108306890D01*
X130860155Y-108077000D01*
X129667000Y-108077000D01*
X129667000Y-108097000D01*
X129413000Y-108097000D01*
X129413000Y-108077000D01*
X129393000Y-108077000D01*
X129393000Y-107823000D01*
X129413000Y-107823000D01*
X129413000Y-107803000D01*
X129667000Y-107803000D01*
X129667000Y-107823000D01*
X130860155Y-107823000D01*
X130981476Y-107593110D01*
X130936825Y-107445901D01*
X130811641Y-107183080D01*
X130637588Y-106949731D01*
X130421355Y-106754822D01*
X130304466Y-106685195D01*
X130486632Y-106563475D01*
X130693475Y-106356632D01*
X130855990Y-106113411D01*
X130967932Y-105843158D01*
X131025000Y-105556260D01*
X131025000Y-105414669D01*
X133235701Y-107625371D01*
X133235700Y-108879706D01*
X133232076Y-108916502D01*
X133235700Y-108953297D01*
X133235700Y-108953307D01*
X133246542Y-109063389D01*
X133289388Y-109204633D01*
X133358966Y-109334805D01*
X133408412Y-109395055D01*
X133452602Y-109448900D01*
X133481194Y-109472365D01*
X136641779Y-112632952D01*
X136626939Y-112630000D01*
X136423061Y-112630000D01*
X136223102Y-112669774D01*
X136034744Y-112747795D01*
X135865226Y-112861063D01*
X135721063Y-113005226D01*
X135607795Y-113174744D01*
X135529774Y-113363102D01*
X135490000Y-113563061D01*
X135490000Y-113766939D01*
X135529774Y-113966898D01*
X135607795Y-114155256D01*
X135721063Y-114324774D01*
X135865226Y-114468937D01*
X136034744Y-114582205D01*
X136223102Y-114660226D01*
X136423061Y-114700000D01*
X136626939Y-114700000D01*
X136637090Y-114697981D01*
X136688112Y-114713458D01*
X136798194Y-114724300D01*
X136798203Y-114724300D01*
X136834999Y-114727924D01*
X136871795Y-114724300D01*
X137668534Y-114724300D01*
X137652832Y-114743433D01*
X137624930Y-114766332D01*
X137526533Y-114886230D01*
X137453417Y-115023019D01*
X137408393Y-115171445D01*
X137396999Y-115287129D01*
X137396999Y-115287138D01*
X137393191Y-115325801D01*
X137396999Y-115364464D01*
X137397000Y-117170726D01*
X137393191Y-117209399D01*
X137408394Y-117363756D01*
X137453417Y-117512181D01*
X137488386Y-117577602D01*
X137526534Y-117648971D01*
X137624931Y-117768868D01*
X137654972Y-117793522D01*
X139601928Y-119740479D01*
X139601928Y-120640000D01*
X139614188Y-120764482D01*
X139650498Y-120884180D01*
X139709463Y-120994494D01*
X139788815Y-121091185D01*
X139885506Y-121170537D01*
X139995820Y-121229502D01*
X140115518Y-121265812D01*
X140240000Y-121278072D01*
X141740000Y-121278072D01*
X141864482Y-121265812D01*
X141984180Y-121229502D01*
X142094494Y-121170537D01*
X142191185Y-121091185D01*
X142240000Y-121031704D01*
X142288815Y-121091185D01*
X142385506Y-121170537D01*
X142495820Y-121229502D01*
X142615518Y-121265812D01*
X142740000Y-121278072D01*
X143204250Y-121275000D01*
X143363000Y-121116250D01*
X143363000Y-120142000D01*
X143617000Y-120142000D01*
X143617000Y-121116250D01*
X143775750Y-121275000D01*
X144240000Y-121278072D01*
X144364482Y-121265812D01*
X144484180Y-121229502D01*
X144594494Y-121170537D01*
X144691185Y-121091185D01*
X144770537Y-120994494D01*
X144829502Y-120884180D01*
X144865812Y-120764482D01*
X144878072Y-120640000D01*
X144876170Y-120429872D01*
X166040000Y-120429872D01*
X166040000Y-120870128D01*
X166125890Y-121301925D01*
X166294369Y-121708669D01*
X166538962Y-122074729D01*
X166850271Y-122386038D01*
X167216331Y-122630631D01*
X167623075Y-122799110D01*
X168054872Y-122885000D01*
X168495128Y-122885000D01*
X168926925Y-122799110D01*
X169333669Y-122630631D01*
X169699729Y-122386038D01*
X170011038Y-122074729D01*
X170255631Y-121708669D01*
X170424110Y-121301925D01*
X170510000Y-120870128D01*
X170510000Y-120429872D01*
X170424110Y-119998075D01*
X170255631Y-119591331D01*
X170011038Y-119225271D01*
X169699729Y-118913962D01*
X169333669Y-118669369D01*
X168926925Y-118500890D01*
X168495128Y-118415000D01*
X168054872Y-118415000D01*
X167623075Y-118500890D01*
X167216331Y-118669369D01*
X166850271Y-118913962D01*
X166538962Y-119225271D01*
X166294369Y-119591331D01*
X166125890Y-119998075D01*
X166040000Y-120429872D01*
X144876170Y-120429872D01*
X144875000Y-120300750D01*
X144716250Y-120142000D01*
X143617000Y-120142000D01*
X143363000Y-120142000D01*
X143343000Y-120142000D01*
X143343000Y-119888000D01*
X143363000Y-119888000D01*
X143363000Y-118913750D01*
X143617000Y-118913750D01*
X143617000Y-119888000D01*
X144716250Y-119888000D01*
X144875000Y-119729250D01*
X144878072Y-119390000D01*
X144865812Y-119265518D01*
X144829502Y-119145820D01*
X144770537Y-119035506D01*
X144691185Y-118938815D01*
X144594494Y-118859463D01*
X144484180Y-118800498D01*
X144364482Y-118764188D01*
X144240000Y-118751928D01*
X143775750Y-118755000D01*
X143617000Y-118913750D01*
X143363000Y-118913750D01*
X143204250Y-118755000D01*
X142740000Y-118751928D01*
X142615518Y-118764188D01*
X142495820Y-118800498D01*
X142385506Y-118859463D01*
X142288815Y-118938815D01*
X142240000Y-118998296D01*
X142191185Y-118938815D01*
X142094494Y-118859463D01*
X141984180Y-118800498D01*
X141864482Y-118764188D01*
X141777400Y-118755611D01*
X141777400Y-118416150D01*
X142831152Y-117362400D01*
X144145117Y-117362400D01*
X144195820Y-117389502D01*
X144315518Y-117425812D01*
X144440000Y-117438072D01*
X145940000Y-117438072D01*
X146064482Y-117425812D01*
X146184180Y-117389502D01*
X146234883Y-117362400D01*
X159611337Y-117362400D01*
X159650000Y-117366208D01*
X159688663Y-117362400D01*
X159688673Y-117362400D01*
X159804357Y-117351006D01*
X159952783Y-117305982D01*
X160089572Y-117232866D01*
X160209469Y-117134469D01*
X160234128Y-117104422D01*
X160549423Y-116789127D01*
X160579469Y-116764469D01*
X160677866Y-116644572D01*
X160750982Y-116507783D01*
X160796006Y-116359357D01*
X160807400Y-116243673D01*
X160807400Y-116243664D01*
X160811208Y-116205001D01*
X160807400Y-116166338D01*
X160807400Y-115751893D01*
X160914180Y-115719502D01*
X161024494Y-115660537D01*
X161121185Y-115581185D01*
X161200537Y-115484494D01*
X161259502Y-115374180D01*
X161295812Y-115254482D01*
X161304389Y-115167400D01*
X163583850Y-115167400D01*
X164515881Y-116099433D01*
X164540531Y-116129469D01*
X164570567Y-116154119D01*
X164570569Y-116154121D01*
X164589918Y-116170000D01*
X164660428Y-116227866D01*
X164797217Y-116300982D01*
X164945643Y-116346006D01*
X165061327Y-116357400D01*
X165061336Y-116357400D01*
X165099999Y-116361208D01*
X165138662Y-116357400D01*
X172383274Y-116357400D01*
X172400498Y-116414180D01*
X172459463Y-116524494D01*
X172538815Y-116621185D01*
X172635506Y-116700537D01*
X172745820Y-116759502D01*
X172865518Y-116795812D01*
X172990000Y-116808072D01*
X174990000Y-116808072D01*
X175114482Y-116795812D01*
X175234180Y-116759502D01*
X175344494Y-116700537D01*
X175441185Y-116621185D01*
X175520537Y-116524494D01*
X175579502Y-116414180D01*
X175615812Y-116294482D01*
X175628072Y-116170000D01*
X175628072Y-114970000D01*
X175615812Y-114845518D01*
X175579502Y-114725820D01*
X175520537Y-114615506D01*
X175441185Y-114518815D01*
X175344494Y-114439463D01*
X175234180Y-114380498D01*
X175114482Y-114344188D01*
X174990000Y-114331928D01*
X172990000Y-114331928D01*
X172865518Y-114344188D01*
X172745820Y-114380498D01*
X172635506Y-114439463D01*
X172538815Y-114518815D01*
X172459463Y-114615506D01*
X172400498Y-114725820D01*
X172383274Y-114782600D01*
X165426152Y-114782600D01*
X164697400Y-114053850D01*
X164697400Y-113030000D01*
X172349025Y-113030000D01*
X172372870Y-113272102D01*
X172443489Y-113504901D01*
X172558167Y-113719449D01*
X172712498Y-113907502D01*
X172900551Y-114061833D01*
X173115099Y-114176511D01*
X173347898Y-114247130D01*
X173529335Y-114265000D01*
X174450665Y-114265000D01*
X174632102Y-114247130D01*
X174864901Y-114176511D01*
X175079449Y-114061833D01*
X175267502Y-113907502D01*
X175421833Y-113719449D01*
X175536511Y-113504901D01*
X175607130Y-113272102D01*
X175630975Y-113030000D01*
X175607130Y-112787898D01*
X175536511Y-112555099D01*
X175421833Y-112340551D01*
X175267502Y-112152498D01*
X175079449Y-111998167D01*
X174864901Y-111883489D01*
X174632102Y-111812870D01*
X174450665Y-111795000D01*
X173529335Y-111795000D01*
X173347898Y-111812870D01*
X173115099Y-111883489D01*
X172900551Y-111998167D01*
X172712498Y-112152498D01*
X172558167Y-112340551D01*
X172443489Y-112555099D01*
X172372870Y-112787898D01*
X172349025Y-113030000D01*
X164697400Y-113030000D01*
X164697400Y-110490000D01*
X172349025Y-110490000D01*
X172372870Y-110732102D01*
X172443489Y-110964901D01*
X172558167Y-111179449D01*
X172712498Y-111367502D01*
X172900551Y-111521833D01*
X173115099Y-111636511D01*
X173347898Y-111707130D01*
X173529335Y-111725000D01*
X174450665Y-111725000D01*
X174632102Y-111707130D01*
X174864901Y-111636511D01*
X175079449Y-111521833D01*
X175267502Y-111367502D01*
X175421833Y-111179449D01*
X175536511Y-110964901D01*
X175607130Y-110732102D01*
X175630975Y-110490000D01*
X175607130Y-110247898D01*
X175536511Y-110015099D01*
X175421833Y-109800551D01*
X175267502Y-109612498D01*
X175079449Y-109458167D01*
X174864901Y-109343489D01*
X174632102Y-109272870D01*
X174450665Y-109255000D01*
X173529335Y-109255000D01*
X173347898Y-109272870D01*
X173115099Y-109343489D01*
X172900551Y-109458167D01*
X172712498Y-109612498D01*
X172558167Y-109800551D01*
X172443489Y-110015099D01*
X172372870Y-110247898D01*
X172349025Y-110490000D01*
X164697400Y-110490000D01*
X164697400Y-109338665D01*
X164701208Y-109300000D01*
X164697400Y-109261335D01*
X164697400Y-107950000D01*
X172349025Y-107950000D01*
X172372870Y-108192102D01*
X172443489Y-108424901D01*
X172558167Y-108639449D01*
X172712498Y-108827502D01*
X172900551Y-108981833D01*
X173115099Y-109096511D01*
X173347898Y-109167130D01*
X173529335Y-109185000D01*
X174450665Y-109185000D01*
X174632102Y-109167130D01*
X174864901Y-109096511D01*
X175079449Y-108981833D01*
X175267502Y-108827502D01*
X175421833Y-108639449D01*
X175536511Y-108424901D01*
X175607130Y-108192102D01*
X175630975Y-107950000D01*
X175607130Y-107707898D01*
X175536511Y-107475099D01*
X175421833Y-107260551D01*
X175267502Y-107072498D01*
X175079449Y-106918167D01*
X174864901Y-106803489D01*
X174632102Y-106732870D01*
X174450665Y-106715000D01*
X173529335Y-106715000D01*
X173347898Y-106732870D01*
X173115099Y-106803489D01*
X172900551Y-106918167D01*
X172712498Y-107072498D01*
X172558167Y-107260551D01*
X172443489Y-107475099D01*
X172372870Y-107707898D01*
X172349025Y-107950000D01*
X164697400Y-107950000D01*
X164697400Y-105410000D01*
X172349025Y-105410000D01*
X172372870Y-105652102D01*
X172443489Y-105884901D01*
X172558167Y-106099449D01*
X172712498Y-106287502D01*
X172900551Y-106441833D01*
X173115099Y-106556511D01*
X173347898Y-106627130D01*
X173529335Y-106645000D01*
X174450665Y-106645000D01*
X174632102Y-106627130D01*
X174864901Y-106556511D01*
X175079449Y-106441833D01*
X175267502Y-106287502D01*
X175421833Y-106099449D01*
X175536511Y-105884901D01*
X175607130Y-105652102D01*
X175630975Y-105410000D01*
X175607130Y-105167898D01*
X175536511Y-104935099D01*
X175421833Y-104720551D01*
X175267502Y-104532498D01*
X175079449Y-104378167D01*
X174864901Y-104263489D01*
X174632102Y-104192870D01*
X174450665Y-104175000D01*
X173529335Y-104175000D01*
X173347898Y-104192870D01*
X173115099Y-104263489D01*
X172900551Y-104378167D01*
X172712498Y-104532498D01*
X172558167Y-104720551D01*
X172443489Y-104935099D01*
X172372870Y-105167898D01*
X172349025Y-105410000D01*
X164697400Y-105410000D01*
X164697400Y-102870000D01*
X172349025Y-102870000D01*
X172372870Y-103112102D01*
X172443489Y-103344901D01*
X172558167Y-103559449D01*
X172712498Y-103747502D01*
X172900551Y-103901833D01*
X173115099Y-104016511D01*
X173347898Y-104087130D01*
X173529335Y-104105000D01*
X174450665Y-104105000D01*
X174632102Y-104087130D01*
X174864901Y-104016511D01*
X175079449Y-103901833D01*
X175267502Y-103747502D01*
X175421833Y-103559449D01*
X175536511Y-103344901D01*
X175607130Y-103112102D01*
X175630975Y-102870000D01*
X175607130Y-102627898D01*
X175536511Y-102395099D01*
X175421833Y-102180551D01*
X175267502Y-101992498D01*
X175079449Y-101838167D01*
X174864901Y-101723489D01*
X174632102Y-101652870D01*
X174450665Y-101635000D01*
X173529335Y-101635000D01*
X173347898Y-101652870D01*
X173115099Y-101723489D01*
X172900551Y-101838167D01*
X172712498Y-101992498D01*
X172558167Y-102180551D01*
X172443489Y-102395099D01*
X172372870Y-102627898D01*
X172349025Y-102870000D01*
X164697400Y-102870000D01*
X164697400Y-100330000D01*
X172349025Y-100330000D01*
X172372870Y-100572102D01*
X172443489Y-100804901D01*
X172558167Y-101019449D01*
X172712498Y-101207502D01*
X172900551Y-101361833D01*
X173115099Y-101476511D01*
X173347898Y-101547130D01*
X173529335Y-101565000D01*
X174450665Y-101565000D01*
X174632102Y-101547130D01*
X174864901Y-101476511D01*
X175079449Y-101361833D01*
X175267502Y-101207502D01*
X175421833Y-101019449D01*
X175536511Y-100804901D01*
X175607130Y-100572102D01*
X175630975Y-100330000D01*
X175607130Y-100087898D01*
X175536511Y-99855099D01*
X175421833Y-99640551D01*
X175267502Y-99452498D01*
X175079449Y-99298167D01*
X174864901Y-99183489D01*
X174632102Y-99112870D01*
X174450665Y-99095000D01*
X173529335Y-99095000D01*
X173347898Y-99112870D01*
X173115099Y-99183489D01*
X172900551Y-99298167D01*
X172712498Y-99452498D01*
X172558167Y-99640551D01*
X172443489Y-99855099D01*
X172372870Y-100087898D01*
X172349025Y-100330000D01*
X164697400Y-100330000D01*
X164697400Y-97790000D01*
X172349025Y-97790000D01*
X172372870Y-98032102D01*
X172443489Y-98264901D01*
X172558167Y-98479449D01*
X172712498Y-98667502D01*
X172900551Y-98821833D01*
X173115099Y-98936511D01*
X173347898Y-99007130D01*
X173529335Y-99025000D01*
X174450665Y-99025000D01*
X174632102Y-99007130D01*
X174864901Y-98936511D01*
X175079449Y-98821833D01*
X175267502Y-98667502D01*
X175421833Y-98479449D01*
X175536511Y-98264901D01*
X175607130Y-98032102D01*
X175630975Y-97790000D01*
X175607130Y-97547898D01*
X175536511Y-97315099D01*
X175421833Y-97100551D01*
X175267502Y-96912498D01*
X175079449Y-96758167D01*
X174864901Y-96643489D01*
X174632102Y-96572870D01*
X174450665Y-96555000D01*
X173529335Y-96555000D01*
X173347898Y-96572870D01*
X173115099Y-96643489D01*
X172900551Y-96758167D01*
X172712498Y-96912498D01*
X172558167Y-97100551D01*
X172443489Y-97315099D01*
X172372870Y-97547898D01*
X172349025Y-97790000D01*
X164697400Y-97790000D01*
X164697400Y-96157226D01*
X164701208Y-96118563D01*
X164697400Y-96079900D01*
X164697400Y-96079891D01*
X164686006Y-95964207D01*
X164640982Y-95815781D01*
X164567866Y-95678992D01*
X164546222Y-95652619D01*
X164494121Y-95589133D01*
X164494119Y-95589131D01*
X164469469Y-95559095D01*
X164439435Y-95534447D01*
X164154988Y-95250000D01*
X172349025Y-95250000D01*
X172372870Y-95492102D01*
X172443489Y-95724901D01*
X172558167Y-95939449D01*
X172712498Y-96127502D01*
X172900551Y-96281833D01*
X173115099Y-96396511D01*
X173347898Y-96467130D01*
X173529335Y-96485000D01*
X174450665Y-96485000D01*
X174632102Y-96467130D01*
X174864901Y-96396511D01*
X175079449Y-96281833D01*
X175267502Y-96127502D01*
X175421833Y-95939449D01*
X175536511Y-95724901D01*
X175607130Y-95492102D01*
X175630975Y-95250000D01*
X175607130Y-95007898D01*
X175536511Y-94775099D01*
X175421833Y-94560551D01*
X175267502Y-94372498D01*
X175079449Y-94218167D01*
X174864901Y-94103489D01*
X174632102Y-94032870D01*
X174450665Y-94015000D01*
X173529335Y-94015000D01*
X173347898Y-94032870D01*
X173115099Y-94103489D01*
X172900551Y-94218167D01*
X172712498Y-94372498D01*
X172558167Y-94560551D01*
X172443489Y-94775099D01*
X172372870Y-95007898D01*
X172349025Y-95250000D01*
X164154988Y-95250000D01*
X161614988Y-92710000D01*
X172349025Y-92710000D01*
X172372870Y-92952102D01*
X172443489Y-93184901D01*
X172558167Y-93399449D01*
X172712498Y-93587502D01*
X172900551Y-93741833D01*
X173115099Y-93856511D01*
X173347898Y-93927130D01*
X173529335Y-93945000D01*
X174450665Y-93945000D01*
X174632102Y-93927130D01*
X174864901Y-93856511D01*
X175079449Y-93741833D01*
X175267502Y-93587502D01*
X175421833Y-93399449D01*
X175536511Y-93184901D01*
X175607130Y-92952102D01*
X175630975Y-92710000D01*
X175607130Y-92467898D01*
X175536511Y-92235099D01*
X175421833Y-92020551D01*
X175267502Y-91832498D01*
X175079449Y-91678167D01*
X174864901Y-91563489D01*
X174632102Y-91492870D01*
X174450665Y-91475000D01*
X173529335Y-91475000D01*
X173347898Y-91492870D01*
X173115099Y-91563489D01*
X172900551Y-91678167D01*
X172712498Y-91832498D01*
X172558167Y-92020551D01*
X172443489Y-92235099D01*
X172372870Y-92467898D01*
X172349025Y-92710000D01*
X161614988Y-92710000D01*
X159074988Y-90170000D01*
X172349025Y-90170000D01*
X172372870Y-90412102D01*
X172443489Y-90644901D01*
X172558167Y-90859449D01*
X172712498Y-91047502D01*
X172900551Y-91201833D01*
X173115099Y-91316511D01*
X173347898Y-91387130D01*
X173529335Y-91405000D01*
X174450665Y-91405000D01*
X174632102Y-91387130D01*
X174864901Y-91316511D01*
X175079449Y-91201833D01*
X175267502Y-91047502D01*
X175421833Y-90859449D01*
X175536511Y-90644901D01*
X175607130Y-90412102D01*
X175630975Y-90170000D01*
X175607130Y-89927898D01*
X175536511Y-89695099D01*
X175421833Y-89480551D01*
X175267502Y-89292498D01*
X175079449Y-89138167D01*
X174864901Y-89023489D01*
X174632102Y-88952870D01*
X174450665Y-88935000D01*
X173529335Y-88935000D01*
X173347898Y-88952870D01*
X173115099Y-89023489D01*
X172900551Y-89138167D01*
X172712498Y-89292498D01*
X172558167Y-89480551D01*
X172443489Y-89695099D01*
X172372870Y-89927898D01*
X172349025Y-90170000D01*
X159074988Y-90170000D01*
X156534988Y-87630000D01*
X172349025Y-87630000D01*
X172372870Y-87872102D01*
X172443489Y-88104901D01*
X172558167Y-88319449D01*
X172712498Y-88507502D01*
X172900551Y-88661833D01*
X173115099Y-88776511D01*
X173347898Y-88847130D01*
X173529335Y-88865000D01*
X174450665Y-88865000D01*
X174632102Y-88847130D01*
X174864901Y-88776511D01*
X175079449Y-88661833D01*
X175267502Y-88507502D01*
X175421833Y-88319449D01*
X175536511Y-88104901D01*
X175607130Y-87872102D01*
X175630975Y-87630000D01*
X175607130Y-87387898D01*
X175536511Y-87155099D01*
X175421833Y-86940551D01*
X175267502Y-86752498D01*
X175079449Y-86598167D01*
X174864901Y-86483489D01*
X174632102Y-86412870D01*
X174450665Y-86395000D01*
X173529335Y-86395000D01*
X173347898Y-86412870D01*
X173115099Y-86483489D01*
X172900551Y-86598167D01*
X172712498Y-86752498D01*
X172558167Y-86940551D01*
X172443489Y-87155099D01*
X172372870Y-87387898D01*
X172349025Y-87630000D01*
X156534988Y-87630000D01*
X153994987Y-85090000D01*
X172349025Y-85090000D01*
X172372870Y-85332102D01*
X172443489Y-85564901D01*
X172558167Y-85779449D01*
X172712498Y-85967502D01*
X172900551Y-86121833D01*
X173115099Y-86236511D01*
X173347898Y-86307130D01*
X173529335Y-86325000D01*
X174450665Y-86325000D01*
X174632102Y-86307130D01*
X174864901Y-86236511D01*
X175079449Y-86121833D01*
X175267502Y-85967502D01*
X175421833Y-85779449D01*
X175536511Y-85564901D01*
X175607130Y-85332102D01*
X175630975Y-85090000D01*
X175607130Y-84847898D01*
X175536511Y-84615099D01*
X175421833Y-84400551D01*
X175267502Y-84212498D01*
X175079449Y-84058167D01*
X174864901Y-83943489D01*
X174632102Y-83872870D01*
X174450665Y-83855000D01*
X173529335Y-83855000D01*
X173347898Y-83872870D01*
X173115099Y-83943489D01*
X172900551Y-84058167D01*
X172712498Y-84212498D01*
X172558167Y-84400551D01*
X172443489Y-84615099D01*
X172372870Y-84847898D01*
X172349025Y-85090000D01*
X153994987Y-85090000D01*
X152509954Y-83604968D01*
X152485295Y-83574921D01*
X152365398Y-83476524D01*
X152354722Y-83470817D01*
X152407502Y-83427502D01*
X152561833Y-83239449D01*
X152676511Y-83024901D01*
X152724225Y-82867609D01*
X172396538Y-82867609D01*
X172400409Y-82905282D01*
X172492579Y-83130533D01*
X172626922Y-83333474D01*
X172798275Y-83506307D01*
X173000054Y-83642390D01*
X173224504Y-83736493D01*
X173463000Y-83785000D01*
X173863000Y-83785000D01*
X173863000Y-82677000D01*
X174117000Y-82677000D01*
X174117000Y-83785000D01*
X174517000Y-83785000D01*
X174755496Y-83736493D01*
X174979946Y-83642390D01*
X175181725Y-83506307D01*
X175353078Y-83333474D01*
X175487421Y-83130533D01*
X175579591Y-82905282D01*
X175583462Y-82867609D01*
X175458731Y-82677000D01*
X174117000Y-82677000D01*
X173863000Y-82677000D01*
X172521269Y-82677000D01*
X172396538Y-82867609D01*
X152724225Y-82867609D01*
X152747130Y-82792102D01*
X152770975Y-82550000D01*
X152747130Y-82307898D01*
X152724226Y-82232391D01*
X172396538Y-82232391D01*
X172521269Y-82423000D01*
X173863000Y-82423000D01*
X173863000Y-81315000D01*
X174117000Y-81315000D01*
X174117000Y-82423000D01*
X175458731Y-82423000D01*
X175583462Y-82232391D01*
X175579591Y-82194718D01*
X175487421Y-81969467D01*
X175353078Y-81766526D01*
X175181725Y-81593693D01*
X174979946Y-81457610D01*
X174755496Y-81363507D01*
X174517000Y-81315000D01*
X174117000Y-81315000D01*
X173863000Y-81315000D01*
X173463000Y-81315000D01*
X173224504Y-81363507D01*
X173000054Y-81457610D01*
X172798275Y-81593693D01*
X172626922Y-81766526D01*
X172492579Y-81969467D01*
X172400409Y-82194718D01*
X172396538Y-82232391D01*
X152724226Y-82232391D01*
X152676511Y-82075099D01*
X152561833Y-81860551D01*
X152407502Y-81672498D01*
X152219449Y-81518167D01*
X152004901Y-81403489D01*
X151772102Y-81332870D01*
X151590665Y-81315000D01*
X150669335Y-81315000D01*
X150487898Y-81332870D01*
X150255099Y-81403489D01*
X150040551Y-81518167D01*
X149852498Y-81672498D01*
X149745270Y-81803156D01*
X149673293Y-81731179D01*
X149648634Y-81701132D01*
X149528737Y-81602735D01*
X149391948Y-81529619D01*
X149243522Y-81484595D01*
X149127838Y-81473201D01*
X149127828Y-81473201D01*
X149089165Y-81469393D01*
X149050502Y-81473201D01*
X146052451Y-81473201D01*
X145986250Y-81407000D01*
X144887000Y-81407000D01*
X144887000Y-81427000D01*
X144633000Y-81427000D01*
X144633000Y-81407000D01*
X144613000Y-81407000D01*
X144613000Y-81153000D01*
X144633000Y-81153000D01*
X144633000Y-80178750D01*
X144887000Y-80178750D01*
X144887000Y-81153000D01*
X145986250Y-81153000D01*
X146145000Y-80994250D01*
X146148072Y-80655000D01*
X146135812Y-80530518D01*
X146099502Y-80410820D01*
X146040537Y-80300506D01*
X145961185Y-80203815D01*
X145864494Y-80124463D01*
X145754180Y-80065498D01*
X145634482Y-80029188D01*
X145510000Y-80016928D01*
X145045750Y-80020000D01*
X144887000Y-80178750D01*
X144633000Y-80178750D01*
X144474250Y-80020000D01*
X144010000Y-80016928D01*
X143885518Y-80029188D01*
X143765820Y-80065498D01*
X143655506Y-80124463D01*
X143558815Y-80203815D01*
X143510000Y-80263296D01*
X143461185Y-80203815D01*
X143364494Y-80124463D01*
X143254180Y-80065498D01*
X143134482Y-80029188D01*
X143047400Y-80020611D01*
X143047400Y-80010000D01*
X149489025Y-80010000D01*
X149512870Y-80252102D01*
X149583489Y-80484901D01*
X149698167Y-80699449D01*
X149852498Y-80887502D01*
X150040551Y-81041833D01*
X150255099Y-81156511D01*
X150487898Y-81227130D01*
X150669335Y-81245000D01*
X151590665Y-81245000D01*
X151772102Y-81227130D01*
X152004901Y-81156511D01*
X152219449Y-81041833D01*
X152407502Y-80887502D01*
X152561833Y-80699449D01*
X152676511Y-80484901D01*
X152747130Y-80252102D01*
X152770975Y-80010000D01*
X172349025Y-80010000D01*
X172372870Y-80252102D01*
X172443489Y-80484901D01*
X172558167Y-80699449D01*
X172712498Y-80887502D01*
X172900551Y-81041833D01*
X173115099Y-81156511D01*
X173347898Y-81227130D01*
X173529335Y-81245000D01*
X174450665Y-81245000D01*
X174632102Y-81227130D01*
X174864901Y-81156511D01*
X175079449Y-81041833D01*
X175267502Y-80887502D01*
X175421833Y-80699449D01*
X175536511Y-80484901D01*
X175607130Y-80252102D01*
X175630975Y-80010000D01*
X175607130Y-79767898D01*
X175536511Y-79535099D01*
X175421833Y-79320551D01*
X175267502Y-79132498D01*
X175079449Y-78978167D01*
X174864901Y-78863489D01*
X174632102Y-78792870D01*
X174450665Y-78775000D01*
X173529335Y-78775000D01*
X173347898Y-78792870D01*
X173115099Y-78863489D01*
X172900551Y-78978167D01*
X172712498Y-79132498D01*
X172558167Y-79320551D01*
X172443489Y-79535099D01*
X172372870Y-79767898D01*
X172349025Y-80010000D01*
X152770975Y-80010000D01*
X152747130Y-79767898D01*
X152676511Y-79535099D01*
X152561833Y-79320551D01*
X152407502Y-79132498D01*
X152219449Y-78978167D01*
X152004901Y-78863489D01*
X151772102Y-78792870D01*
X151590665Y-78775000D01*
X150669335Y-78775000D01*
X150487898Y-78792870D01*
X150255099Y-78863489D01*
X150040551Y-78978167D01*
X149852498Y-79132498D01*
X149698167Y-79320551D01*
X149583489Y-79535099D01*
X149512870Y-79767898D01*
X149489025Y-80010000D01*
X143047400Y-80010000D01*
X143047400Y-78798662D01*
X143051208Y-78759999D01*
X143047400Y-78721336D01*
X143047400Y-78721327D01*
X143036006Y-78605643D01*
X142990982Y-78457217D01*
X142917866Y-78320428D01*
X142850766Y-78238666D01*
X142844121Y-78230569D01*
X142844119Y-78230567D01*
X142819469Y-78200531D01*
X142789434Y-78175882D01*
X140964127Y-76350577D01*
X140949168Y-76332350D01*
X140955000Y-76332924D01*
X140991795Y-76329300D01*
X140991806Y-76329300D01*
X141101888Y-76318458D01*
X141243132Y-76275612D01*
X141373303Y-76206034D01*
X141487398Y-76112398D01*
X141510862Y-76083807D01*
X141915370Y-75679300D01*
X143391928Y-75679300D01*
X143391928Y-75805000D01*
X143402088Y-75908157D01*
X143395000Y-75973250D01*
X143427247Y-76005497D01*
X143440498Y-76049180D01*
X143499463Y-76159494D01*
X143557555Y-76230280D01*
X143504792Y-76292657D01*
X143444194Y-76402082D01*
X143427527Y-76454223D01*
X143395000Y-76486750D01*
X143402432Y-76555000D01*
X143395000Y-76623250D01*
X143427527Y-76655777D01*
X143444194Y-76707918D01*
X143504792Y-76817343D01*
X143557792Y-76880000D01*
X143504792Y-76942657D01*
X143444194Y-77052082D01*
X143427527Y-77104223D01*
X143395000Y-77136750D01*
X143402432Y-77205000D01*
X143395000Y-77273250D01*
X143427527Y-77305777D01*
X143444194Y-77357918D01*
X143504792Y-77467343D01*
X143557792Y-77530000D01*
X143504792Y-77592657D01*
X143444194Y-77702082D01*
X143427527Y-77754223D01*
X143395000Y-77786750D01*
X143402432Y-77855000D01*
X143395000Y-77923250D01*
X143427527Y-77955777D01*
X143444194Y-78007918D01*
X143504792Y-78117343D01*
X143585574Y-78212844D01*
X143667418Y-78278000D01*
X143553750Y-78278000D01*
X143395000Y-78436750D01*
X143406109Y-78538773D01*
X143444194Y-78657918D01*
X143504792Y-78767343D01*
X143585574Y-78862844D01*
X143683434Y-78940750D01*
X143794613Y-78998067D01*
X143914838Y-79032593D01*
X144039488Y-79043001D01*
X144494250Y-79040000D01*
X144653000Y-78881250D01*
X144653000Y-78278000D01*
X144606250Y-78278000D01*
X144653000Y-78231250D01*
X144653000Y-76733000D01*
X144907000Y-76733000D01*
X144907000Y-78231250D01*
X144953750Y-78278000D01*
X144907000Y-78278000D01*
X144907000Y-78881250D01*
X145065750Y-79040000D01*
X145520512Y-79043001D01*
X145645162Y-79032593D01*
X145765387Y-78998067D01*
X145876566Y-78940750D01*
X145974426Y-78862844D01*
X146055208Y-78767343D01*
X146115806Y-78657918D01*
X146153891Y-78538773D01*
X146165000Y-78436750D01*
X146006250Y-78278000D01*
X145892582Y-78278000D01*
X145974426Y-78212844D01*
X146055208Y-78117343D01*
X146115806Y-78007918D01*
X146132473Y-77955777D01*
X146165000Y-77923250D01*
X146157568Y-77855000D01*
X146165000Y-77786750D01*
X146132473Y-77754223D01*
X146115806Y-77702082D01*
X146055208Y-77592657D01*
X146002208Y-77530000D01*
X146052960Y-77470000D01*
X149489025Y-77470000D01*
X149512870Y-77712102D01*
X149583489Y-77944901D01*
X149698167Y-78159449D01*
X149852498Y-78347502D01*
X150040551Y-78501833D01*
X150255099Y-78616511D01*
X150487898Y-78687130D01*
X150669335Y-78705000D01*
X151590665Y-78705000D01*
X151772102Y-78687130D01*
X152004901Y-78616511D01*
X152219449Y-78501833D01*
X152407502Y-78347502D01*
X152561833Y-78159449D01*
X152676511Y-77944901D01*
X152747130Y-77712102D01*
X152770975Y-77470000D01*
X172349025Y-77470000D01*
X172372870Y-77712102D01*
X172443489Y-77944901D01*
X172558167Y-78159449D01*
X172712498Y-78347502D01*
X172900551Y-78501833D01*
X173115099Y-78616511D01*
X173347898Y-78687130D01*
X173529335Y-78705000D01*
X174450665Y-78705000D01*
X174632102Y-78687130D01*
X174864901Y-78616511D01*
X175079449Y-78501833D01*
X175267502Y-78347502D01*
X175421833Y-78159449D01*
X175536511Y-77944901D01*
X175607130Y-77712102D01*
X175630975Y-77470000D01*
X175607130Y-77227898D01*
X175536511Y-76995099D01*
X175421833Y-76780551D01*
X175267502Y-76592498D01*
X175079449Y-76438167D01*
X174864901Y-76323489D01*
X174632102Y-76252870D01*
X174450665Y-76235000D01*
X173529335Y-76235000D01*
X173347898Y-76252870D01*
X173115099Y-76323489D01*
X172900551Y-76438167D01*
X172712498Y-76592498D01*
X172558167Y-76780551D01*
X172443489Y-76995099D01*
X172372870Y-77227898D01*
X172349025Y-77470000D01*
X152770975Y-77470000D01*
X152747130Y-77227898D01*
X152676511Y-76995099D01*
X152561833Y-76780551D01*
X152407502Y-76592498D01*
X152219449Y-76438167D01*
X152004901Y-76323489D01*
X151772102Y-76252870D01*
X151590665Y-76235000D01*
X150669335Y-76235000D01*
X150487898Y-76252870D01*
X150255099Y-76323489D01*
X150040551Y-76438167D01*
X149852498Y-76592498D01*
X149698167Y-76780551D01*
X149583489Y-76995099D01*
X149512870Y-77227898D01*
X149489025Y-77470000D01*
X146052960Y-77470000D01*
X146055208Y-77467343D01*
X146115806Y-77357918D01*
X146132473Y-77305777D01*
X146165000Y-77273250D01*
X146157568Y-77205000D01*
X146165000Y-77136750D01*
X146132473Y-77104223D01*
X146115806Y-77052082D01*
X146055208Y-76942657D01*
X146002208Y-76880000D01*
X146055208Y-76817343D01*
X146115806Y-76707918D01*
X146132473Y-76655777D01*
X146165000Y-76623250D01*
X146157568Y-76555000D01*
X146165000Y-76486750D01*
X146132473Y-76454223D01*
X146115806Y-76402082D01*
X146055208Y-76292657D01*
X146002445Y-76230280D01*
X146060537Y-76159494D01*
X146119502Y-76049180D01*
X146132753Y-76005497D01*
X146165000Y-75973250D01*
X146157912Y-75908157D01*
X146168072Y-75805000D01*
X146168072Y-75671296D01*
X146196888Y-75668458D01*
X146338132Y-75625612D01*
X146468303Y-75556034D01*
X146582398Y-75462398D01*
X146605862Y-75433807D01*
X147109670Y-74930000D01*
X149489025Y-74930000D01*
X149512870Y-75172102D01*
X149583489Y-75404901D01*
X149698167Y-75619449D01*
X149852498Y-75807502D01*
X150040551Y-75961833D01*
X150255099Y-76076511D01*
X150487898Y-76147130D01*
X150669335Y-76165000D01*
X151590665Y-76165000D01*
X151772102Y-76147130D01*
X152004901Y-76076511D01*
X152219449Y-75961833D01*
X152407502Y-75807502D01*
X152561833Y-75619449D01*
X152676511Y-75404901D01*
X152747130Y-75172102D01*
X152770975Y-74930000D01*
X152747130Y-74687898D01*
X152676511Y-74455099D01*
X152561833Y-74240551D01*
X152407502Y-74052498D01*
X152219449Y-73898167D01*
X152004901Y-73783489D01*
X151772102Y-73712870D01*
X151590665Y-73695000D01*
X150669335Y-73695000D01*
X150487898Y-73712870D01*
X150255099Y-73783489D01*
X150040551Y-73898167D01*
X149852498Y-74052498D01*
X149698167Y-74240551D01*
X149583489Y-74455099D01*
X149512870Y-74687898D01*
X149489025Y-74930000D01*
X147109670Y-74930000D01*
X147188816Y-74850855D01*
X147217398Y-74827398D01*
X147240854Y-74798817D01*
X147240861Y-74798810D01*
X147311034Y-74713303D01*
X147380612Y-74583132D01*
X147423458Y-74441888D01*
X147425004Y-74426190D01*
X147434300Y-74331806D01*
X147434300Y-74331798D01*
X147437924Y-74295000D01*
X147434300Y-74258202D01*
X147434300Y-73061798D01*
X147437924Y-73025000D01*
X147434300Y-72988202D01*
X147434300Y-72988194D01*
X147423458Y-72878112D01*
X147380612Y-72736868D01*
X147311034Y-72606697D01*
X147240861Y-72521190D01*
X147240854Y-72521183D01*
X147217398Y-72492602D01*
X147188817Y-72469147D01*
X146605862Y-71886193D01*
X146598236Y-71876900D01*
X146619494Y-71865537D01*
X146716185Y-71786185D01*
X146795537Y-71689494D01*
X146854502Y-71579180D01*
X146890812Y-71459482D01*
X146903072Y-71335000D01*
X146903072Y-71234300D01*
X149757076Y-71234300D01*
X149952886Y-71430111D01*
X149852498Y-71512498D01*
X149698167Y-71700551D01*
X149583489Y-71915099D01*
X149512870Y-72147898D01*
X149489025Y-72390000D01*
X149512870Y-72632102D01*
X149583489Y-72864901D01*
X149698167Y-73079449D01*
X149852498Y-73267502D01*
X150040551Y-73421833D01*
X150255099Y-73536511D01*
X150487898Y-73607130D01*
X150669335Y-73625000D01*
X151590665Y-73625000D01*
X151772102Y-73607130D01*
X152004901Y-73536511D01*
X152219449Y-73421833D01*
X152407502Y-73267502D01*
X152561833Y-73079449D01*
X152676511Y-72864901D01*
X152747130Y-72632102D01*
X152770975Y-72390000D01*
X152754408Y-72221790D01*
X162602121Y-72221790D01*
X165814146Y-75433817D01*
X165837602Y-75462398D01*
X165866183Y-75485854D01*
X165866190Y-75485861D01*
X165940879Y-75547156D01*
X165951697Y-75556034D01*
X166081868Y-75625612D01*
X166223112Y-75668458D01*
X166333194Y-75679300D01*
X166333202Y-75679300D01*
X166370000Y-75682924D01*
X166406798Y-75679300D01*
X169508205Y-75679300D01*
X169545000Y-75682924D01*
X169581795Y-75679300D01*
X169581806Y-75679300D01*
X169691888Y-75668458D01*
X169833132Y-75625612D01*
X169963303Y-75556034D01*
X170077398Y-75462398D01*
X170100863Y-75433806D01*
X170604669Y-74930000D01*
X172349025Y-74930000D01*
X172372870Y-75172102D01*
X172443489Y-75404901D01*
X172558167Y-75619449D01*
X172712498Y-75807502D01*
X172900551Y-75961833D01*
X173115099Y-76076511D01*
X173347898Y-76147130D01*
X173529335Y-76165000D01*
X174450665Y-76165000D01*
X174632102Y-76147130D01*
X174864901Y-76076511D01*
X175079449Y-75961833D01*
X175267502Y-75807502D01*
X175421833Y-75619449D01*
X175536511Y-75404901D01*
X175607130Y-75172102D01*
X175630975Y-74930000D01*
X175607130Y-74687898D01*
X175536511Y-74455099D01*
X175421833Y-74240551D01*
X175267502Y-74052498D01*
X175079449Y-73898167D01*
X174864901Y-73783489D01*
X174632102Y-73712870D01*
X174450665Y-73695000D01*
X173529335Y-73695000D01*
X173347898Y-73712870D01*
X173115099Y-73783489D01*
X172900551Y-73898167D01*
X172712498Y-74052498D01*
X172558167Y-74240551D01*
X172443489Y-74455099D01*
X172372870Y-74687898D01*
X172349025Y-74930000D01*
X170604669Y-74930000D01*
X172522308Y-73012361D01*
X172558167Y-73079449D01*
X172712498Y-73267502D01*
X172900551Y-73421833D01*
X173115099Y-73536511D01*
X173347898Y-73607130D01*
X173529335Y-73625000D01*
X174450665Y-73625000D01*
X174632102Y-73607130D01*
X174864901Y-73536511D01*
X175079449Y-73421833D01*
X175267502Y-73267502D01*
X175421833Y-73079449D01*
X175536511Y-72864901D01*
X175607130Y-72632102D01*
X175630975Y-72390000D01*
X175607130Y-72147898D01*
X175536511Y-71915099D01*
X175421833Y-71700551D01*
X175267502Y-71512498D01*
X175079449Y-71358167D01*
X174864901Y-71243489D01*
X174632102Y-71172870D01*
X174450665Y-71155000D01*
X174379670Y-71155000D01*
X174449670Y-71085000D01*
X174450665Y-71085000D01*
X174632102Y-71067130D01*
X174864901Y-70996511D01*
X175079449Y-70881833D01*
X175267502Y-70727502D01*
X175421833Y-70539449D01*
X175536511Y-70324901D01*
X175607130Y-70092102D01*
X175630975Y-69850000D01*
X175607130Y-69607898D01*
X175536511Y-69375099D01*
X175421833Y-69160551D01*
X175267502Y-68972498D01*
X175079449Y-68818167D01*
X174864901Y-68703489D01*
X174632102Y-68632870D01*
X174450665Y-68615000D01*
X173529335Y-68615000D01*
X173347898Y-68632870D01*
X173115099Y-68703489D01*
X172900551Y-68818167D01*
X172712498Y-68972498D01*
X172558167Y-69160551D01*
X172443489Y-69375099D01*
X172372870Y-69607898D01*
X172349025Y-69850000D01*
X172372870Y-70092102D01*
X172443489Y-70324901D01*
X172558167Y-70539449D01*
X172701378Y-70713952D01*
X169234631Y-74180700D01*
X166680371Y-74180700D01*
X163468353Y-70968684D01*
X163444888Y-70940092D01*
X163395881Y-70899872D01*
X166040000Y-70899872D01*
X166040000Y-71340128D01*
X166125890Y-71771925D01*
X166294369Y-72178669D01*
X166538962Y-72544729D01*
X166850271Y-72856038D01*
X167216331Y-73100631D01*
X167623075Y-73269110D01*
X168054872Y-73355000D01*
X168495128Y-73355000D01*
X168926925Y-73269110D01*
X169333669Y-73100631D01*
X169699729Y-72856038D01*
X170011038Y-72544729D01*
X170255631Y-72178669D01*
X170424110Y-71771925D01*
X170510000Y-71340128D01*
X170510000Y-70899872D01*
X170424110Y-70468075D01*
X170255631Y-70061331D01*
X170011038Y-69695271D01*
X169699729Y-69383962D01*
X169333669Y-69139369D01*
X168926925Y-68970890D01*
X168495128Y-68885000D01*
X168054872Y-68885000D01*
X167623075Y-68970890D01*
X167216331Y-69139369D01*
X166850271Y-69383962D01*
X166538962Y-69695271D01*
X166294369Y-70061331D01*
X166125890Y-70468075D01*
X166040000Y-70899872D01*
X163395881Y-70899872D01*
X163330793Y-70846456D01*
X163200622Y-70776878D01*
X163059378Y-70734032D01*
X162949296Y-70723190D01*
X162949285Y-70723190D01*
X162912490Y-70719566D01*
X162875695Y-70723190D01*
X152411041Y-70723190D01*
X152561833Y-70539449D01*
X152676511Y-70324901D01*
X152747130Y-70092102D01*
X152770975Y-69850000D01*
X152747130Y-69607898D01*
X152676511Y-69375099D01*
X152561833Y-69160551D01*
X152407502Y-68972498D01*
X152219449Y-68818167D01*
X152004901Y-68703489D01*
X151772102Y-68632870D01*
X151590665Y-68615000D01*
X150669335Y-68615000D01*
X150487898Y-68632870D01*
X150255099Y-68703489D01*
X150040551Y-68818167D01*
X149852498Y-68972498D01*
X149698167Y-69160551D01*
X149583489Y-69375099D01*
X149512870Y-69607898D01*
X149500283Y-69735700D01*
X146903072Y-69735700D01*
X146903072Y-69635000D01*
X146890812Y-69510518D01*
X146854502Y-69390820D01*
X146795537Y-69280506D01*
X146716185Y-69183815D01*
X146619494Y-69104463D01*
X146509180Y-69045498D01*
X146389482Y-69009188D01*
X146265000Y-68996928D01*
X144565000Y-68996928D01*
X144440518Y-69009188D01*
X144320820Y-69045498D01*
X144210506Y-69104463D01*
X144113815Y-69183815D01*
X144034463Y-69280506D01*
X143975498Y-69390820D01*
X143953487Y-69463380D01*
X143821632Y-69331525D01*
X143578411Y-69169010D01*
X143308158Y-69057068D01*
X143021260Y-69000000D01*
X142728740Y-69000000D01*
X142441842Y-69057068D01*
X142171589Y-69169010D01*
X141928368Y-69331525D01*
X141721525Y-69538368D01*
X141559010Y-69781589D01*
X141447068Y-70051842D01*
X141390000Y-70338740D01*
X141390000Y-70631260D01*
X141447068Y-70918158D01*
X141559010Y-71188411D01*
X141721525Y-71431632D01*
X141928368Y-71638475D01*
X142125701Y-71770328D01*
X142125701Y-72353184D01*
X142122075Y-72390000D01*
X142136542Y-72536888D01*
X142179388Y-72678132D01*
X142248966Y-72808303D01*
X142342602Y-72922398D01*
X142456697Y-73016034D01*
X142586868Y-73085612D01*
X142728112Y-73128458D01*
X142838194Y-73139300D01*
X142875000Y-73142925D01*
X142911806Y-73139300D01*
X143452001Y-73139300D01*
X143440498Y-73160820D01*
X143404188Y-73280518D01*
X143391928Y-73405000D01*
X143391928Y-73530700D01*
X141386872Y-73530700D01*
X140439864Y-72583693D01*
X140416399Y-72555101D01*
X140302304Y-72461465D01*
X140172133Y-72391887D01*
X140030889Y-72349041D01*
X139920807Y-72338199D01*
X139920796Y-72338199D01*
X139884001Y-72334575D01*
X139847206Y-72338199D01*
X137912797Y-72338199D01*
X137875999Y-72334575D01*
X137839201Y-72338199D01*
X137839193Y-72338199D01*
X137729111Y-72349041D01*
X137587867Y-72391887D01*
X137457696Y-72461465D01*
X137419756Y-72492602D01*
X137372190Y-72531638D01*
X137372189Y-72531639D01*
X137343601Y-72555101D01*
X137320138Y-72583690D01*
X137308686Y-72595143D01*
X137280102Y-72618601D01*
X137186465Y-72732696D01*
X137116887Y-72862867D01*
X137074041Y-73004111D01*
X137063199Y-73114193D01*
X137063199Y-73114204D01*
X137059575Y-73150999D01*
X137063199Y-73187794D01*
X137063199Y-73332131D01*
X136646441Y-73748890D01*
X131958560Y-73748890D01*
X130978699Y-72769029D01*
X131025000Y-72536260D01*
X131025000Y-72243740D01*
X130967932Y-71956842D01*
X130855990Y-71686589D01*
X130693475Y-71443368D01*
X130486632Y-71236525D01*
X130243411Y-71074010D01*
X129973158Y-70962068D01*
X129686260Y-70905000D01*
X129393740Y-70905000D01*
X129106842Y-70962068D01*
X128836589Y-71074010D01*
X128593368Y-71236525D01*
X128386525Y-71443368D01*
X128224010Y-71686589D01*
X128112068Y-71956842D01*
X128055000Y-72243740D01*
X128055000Y-72536260D01*
X128112068Y-72823158D01*
X128224010Y-73093411D01*
X128386525Y-73336632D01*
X128593368Y-73543475D01*
X128767760Y-73660000D01*
X128593368Y-73776525D01*
X128386525Y-73983368D01*
X128224010Y-74226589D01*
X128112068Y-74496842D01*
X128055000Y-74783740D01*
X128055000Y-75076260D01*
X128112068Y-75363158D01*
X128224010Y-75633411D01*
X128386525Y-75876632D01*
X128593368Y-76083475D01*
X128767760Y-76200000D01*
X128593368Y-76316525D01*
X128386525Y-76523368D01*
X128224010Y-76766589D01*
X128112068Y-77036842D01*
X128055000Y-77323740D01*
X128055000Y-77616260D01*
X128112068Y-77903158D01*
X128224010Y-78173411D01*
X128386525Y-78416632D01*
X128593368Y-78623475D01*
X128775534Y-78745195D01*
X128658645Y-78814822D01*
X128442412Y-79009731D01*
X128268359Y-79243080D01*
X128143175Y-79505901D01*
X128098524Y-79653110D01*
X128219845Y-79883000D01*
X129413000Y-79883000D01*
X129413000Y-79863000D01*
X129667000Y-79863000D01*
X129667000Y-79883000D01*
X130860155Y-79883000D01*
X130981476Y-79653110D01*
X130936825Y-79505901D01*
X130811641Y-79243080D01*
X130637588Y-79009731D01*
X130421355Y-78814822D01*
X130304466Y-78745195D01*
X130486632Y-78623475D01*
X130693475Y-78416632D01*
X130855990Y-78173411D01*
X130967932Y-77903158D01*
X131025000Y-77616260D01*
X131025000Y-77323740D01*
X130967932Y-77036842D01*
X130855990Y-76766589D01*
X130693475Y-76523368D01*
X130486632Y-76316525D01*
X130312240Y-76200000D01*
X130486632Y-76083475D01*
X130693475Y-75876632D01*
X130825328Y-75679300D01*
X137060599Y-75679300D01*
X137063200Y-75705706D01*
X137063199Y-85943549D01*
X137045537Y-85910506D01*
X136966185Y-85813815D01*
X136869494Y-85734463D01*
X136759180Y-85675498D01*
X136639482Y-85639188D01*
X136515000Y-85626928D01*
X136175750Y-85630000D01*
X136017000Y-85788750D01*
X136017000Y-86888000D01*
X136037000Y-86888000D01*
X136037000Y-87142000D01*
X136017000Y-87142000D01*
X136017000Y-87162000D01*
X135763000Y-87162000D01*
X135763000Y-87142000D01*
X134788750Y-87142000D01*
X134630000Y-87300750D01*
X134626928Y-87765000D01*
X134639188Y-87889482D01*
X134675498Y-88009180D01*
X134734463Y-88119494D01*
X134813815Y-88216185D01*
X134873296Y-88265000D01*
X134813815Y-88313815D01*
X134734463Y-88410506D01*
X134675498Y-88520820D01*
X134639188Y-88640518D01*
X134628642Y-88747600D01*
X134311152Y-88747600D01*
X131828551Y-86265000D01*
X134626928Y-86265000D01*
X134630000Y-86729250D01*
X134788750Y-86888000D01*
X135763000Y-86888000D01*
X135763000Y-85788750D01*
X135604250Y-85630000D01*
X135265000Y-85626928D01*
X135140518Y-85639188D01*
X135020820Y-85675498D01*
X134910506Y-85734463D01*
X134813815Y-85813815D01*
X134734463Y-85910506D01*
X134675498Y-86020820D01*
X134639188Y-86140518D01*
X134626928Y-86265000D01*
X131828551Y-86265000D01*
X130987638Y-85424088D01*
X131025000Y-85236260D01*
X131025000Y-84943740D01*
X130967932Y-84656842D01*
X130855990Y-84386589D01*
X130693475Y-84143368D01*
X130486632Y-83936525D01*
X130312240Y-83820000D01*
X130486632Y-83703475D01*
X130693475Y-83496632D01*
X130855990Y-83253411D01*
X130967932Y-82983158D01*
X131025000Y-82696260D01*
X131025000Y-82403740D01*
X130967932Y-82116842D01*
X130855990Y-81846589D01*
X130693475Y-81603368D01*
X130486632Y-81396525D01*
X130304466Y-81274805D01*
X130421355Y-81205178D01*
X130637588Y-81010269D01*
X130811641Y-80776920D01*
X130936825Y-80514099D01*
X130981476Y-80366890D01*
X130860155Y-80137000D01*
X129667000Y-80137000D01*
X129667000Y-80157000D01*
X129413000Y-80157000D01*
X129413000Y-80137000D01*
X128219845Y-80137000D01*
X128098524Y-80366890D01*
X128143175Y-80514099D01*
X128268359Y-80776920D01*
X128442412Y-81010269D01*
X128658645Y-81205178D01*
X128775534Y-81274805D01*
X128593368Y-81396525D01*
X128386525Y-81603368D01*
X128224010Y-81846589D01*
X128112068Y-82116842D01*
X128055000Y-82403740D01*
X128055000Y-82696260D01*
X128112068Y-82983158D01*
X128224010Y-83253411D01*
X128386525Y-83496632D01*
X128593368Y-83703475D01*
X128767760Y-83820000D01*
X128593368Y-83936525D01*
X128386525Y-84143368D01*
X128224010Y-84386589D01*
X128112068Y-84656842D01*
X128055000Y-84943740D01*
X128055000Y-85236260D01*
X128112068Y-85523158D01*
X128224010Y-85793411D01*
X128386525Y-86036632D01*
X128593368Y-86243475D01*
X128767760Y-86360000D01*
X128593368Y-86476525D01*
X128386525Y-86683368D01*
X128224010Y-86926589D01*
X128112068Y-87196842D01*
X128055000Y-87483740D01*
X128055000Y-87776260D01*
X128112068Y-88063158D01*
X128224010Y-88333411D01*
X128386525Y-88576632D01*
X128593368Y-88783475D01*
X128767760Y-88900000D01*
X128593368Y-89016525D01*
X128386525Y-89223368D01*
X128224010Y-89466589D01*
X128112068Y-89736842D01*
X128055000Y-90023740D01*
X128055000Y-90316260D01*
X128112068Y-90603158D01*
X128224010Y-90873411D01*
X128386525Y-91116632D01*
X128518380Y-91248487D01*
X128445820Y-91270498D01*
X128335506Y-91329463D01*
X128238815Y-91408815D01*
X128159463Y-91505506D01*
X128100498Y-91615820D01*
X128064188Y-91735518D01*
X128051928Y-91860000D01*
X128051928Y-93560000D01*
X128064188Y-93684482D01*
X128100498Y-93804180D01*
X128159463Y-93914494D01*
X128238815Y-94011185D01*
X128335506Y-94090537D01*
X128445820Y-94149502D01*
X128565518Y-94185812D01*
X128690000Y-94198072D01*
X130390000Y-94198072D01*
X130514482Y-94185812D01*
X130634180Y-94149502D01*
X130744494Y-94090537D01*
X130841185Y-94011185D01*
X130920537Y-93914494D01*
X130979502Y-93804180D01*
X131015812Y-93684482D01*
X131028072Y-93560000D01*
X131028072Y-91860000D01*
X131015812Y-91735518D01*
X130979502Y-91615820D01*
X130920537Y-91505506D01*
X130841185Y-91408815D01*
X130744494Y-91329463D01*
X130634180Y-91270498D01*
X130561620Y-91248487D01*
X130693475Y-91116632D01*
X130855990Y-90873411D01*
X130967932Y-90603158D01*
X131025000Y-90316260D01*
X131025000Y-90023740D01*
X130967932Y-89736842D01*
X130855990Y-89466589D01*
X130693475Y-89223368D01*
X130486632Y-89016525D01*
X130312240Y-88900000D01*
X130486632Y-88783475D01*
X130693475Y-88576632D01*
X130855990Y-88333411D01*
X130967932Y-88063158D01*
X131025000Y-87776260D01*
X131025000Y-87688551D01*
X133400881Y-90064433D01*
X133425531Y-90094469D01*
X133455567Y-90119119D01*
X133455569Y-90119121D01*
X133508772Y-90162783D01*
X133545428Y-90192866D01*
X133682217Y-90265982D01*
X133830643Y-90311006D01*
X133946327Y-90322400D01*
X133946336Y-90322400D01*
X133984999Y-90326208D01*
X134023662Y-90322400D01*
X134632581Y-90322400D01*
X134639188Y-90389482D01*
X134675498Y-90509180D01*
X134734463Y-90619494D01*
X134813815Y-90716185D01*
X134910506Y-90795537D01*
X135020820Y-90854502D01*
X135140518Y-90890812D01*
X135265000Y-90903072D01*
X136515000Y-90903072D01*
X136639482Y-90890812D01*
X136759180Y-90854502D01*
X136869494Y-90795537D01*
X136966185Y-90716185D01*
X137045537Y-90619494D01*
X137104502Y-90509180D01*
X137140812Y-90389482D01*
X137149389Y-90302400D01*
X137191928Y-90302400D01*
X137191928Y-90410000D01*
X137204188Y-90534482D01*
X137240498Y-90654180D01*
X137299463Y-90764494D01*
X137378815Y-90861185D01*
X137475506Y-90940537D01*
X137585820Y-90999502D01*
X137705518Y-91035812D01*
X137830000Y-91048072D01*
X137965316Y-91048072D01*
X138001417Y-91115612D01*
X138022135Y-91154372D01*
X138120532Y-91274269D01*
X138150573Y-91298923D01*
X139499418Y-92647769D01*
X132949812Y-92647769D01*
X132913016Y-92644145D01*
X132876220Y-92647769D01*
X132876211Y-92647769D01*
X132766129Y-92658611D01*
X132624885Y-92701457D01*
X132494713Y-92771035D01*
X132409207Y-92841209D01*
X132380619Y-92864671D01*
X132357158Y-92893258D01*
X125226194Y-100024223D01*
X125197602Y-100047688D01*
X125164603Y-100087898D01*
X125120000Y-100142246D01*
X125120000Y-70899872D01*
X133020000Y-70899872D01*
X133020000Y-71340128D01*
X133105890Y-71771925D01*
X133274369Y-72178669D01*
X133518962Y-72544729D01*
X133830271Y-72856038D01*
X134196331Y-73100631D01*
X134603075Y-73269110D01*
X135034872Y-73355000D01*
X135475128Y-73355000D01*
X135906925Y-73269110D01*
X136313669Y-73100631D01*
X136679729Y-72856038D01*
X136991038Y-72544729D01*
X137235631Y-72178669D01*
X137404110Y-71771925D01*
X137490000Y-71340128D01*
X137490000Y-70899872D01*
X137404110Y-70468075D01*
X137235631Y-70061331D01*
X136991038Y-69695271D01*
X136679729Y-69383962D01*
X136313669Y-69139369D01*
X135906925Y-68970890D01*
X135475128Y-68885000D01*
X135034872Y-68885000D01*
X134603075Y-68970890D01*
X134196331Y-69139369D01*
X133830271Y-69383962D01*
X133518962Y-69695271D01*
X133274369Y-70061331D01*
X133105890Y-70468075D01*
X133020000Y-70899872D01*
X125120000Y-70899872D01*
X125120000Y-67970000D01*
X177140001Y-67970000D01*
X177140000Y-123800000D01*
%TA.AperFunction,Conductor*%
D24*
G36*
X177140000Y-123800000D02*
G01*
X125120000Y-123800000D01*
X125120000Y-122357840D01*
X125174140Y-122423809D01*
X125197603Y-122452398D01*
X125226189Y-122475858D01*
X125935267Y-123184937D01*
X125958723Y-123213519D01*
X125987304Y-123236975D01*
X125987311Y-123236982D01*
X126072818Y-123307155D01*
X126202989Y-123376733D01*
X126344233Y-123419579D01*
X126454315Y-123430421D01*
X126454323Y-123430421D01*
X126491121Y-123434045D01*
X126527919Y-123430421D01*
X130964928Y-123430421D01*
X131001723Y-123434045D01*
X131038518Y-123430421D01*
X131038529Y-123430421D01*
X131148611Y-123419579D01*
X131289855Y-123376733D01*
X131420026Y-123307155D01*
X131534121Y-123213519D01*
X131557586Y-123184927D01*
X132074933Y-122667581D01*
X132103519Y-122644121D01*
X132197155Y-122530026D01*
X132266733Y-122399855D01*
X132309579Y-122258611D01*
X132320421Y-122148529D01*
X132320421Y-122148520D01*
X132324045Y-122111724D01*
X132320421Y-122074928D01*
X132320421Y-120429872D01*
X133020000Y-120429872D01*
X133020000Y-120870128D01*
X133105890Y-121301925D01*
X133274369Y-121708669D01*
X133518962Y-122074729D01*
X133830271Y-122386038D01*
X134196331Y-122630631D01*
X134603075Y-122799110D01*
X135034872Y-122885000D01*
X135475128Y-122885000D01*
X135906925Y-122799110D01*
X136313669Y-122630631D01*
X136679729Y-122386038D01*
X136991038Y-122074729D01*
X137235631Y-121708669D01*
X137404110Y-121301925D01*
X137490000Y-120870128D01*
X137490000Y-120429872D01*
X137404110Y-119998075D01*
X137235631Y-119591331D01*
X136991038Y-119225271D01*
X136679729Y-118913962D01*
X136313669Y-118669369D01*
X135906925Y-118500890D01*
X135475128Y-118415000D01*
X135034872Y-118415000D01*
X134603075Y-118500890D01*
X134196331Y-118669369D01*
X133830271Y-118913962D01*
X133518962Y-119225271D01*
X133274369Y-119591331D01*
X133105890Y-119998075D01*
X133020000Y-120429872D01*
X132320421Y-120429872D01*
X132320421Y-112557917D01*
X132324045Y-112521121D01*
X132320421Y-112484325D01*
X132320421Y-112484315D01*
X132309579Y-112374233D01*
X132266733Y-112232989D01*
X132218420Y-112142602D01*
X132197155Y-112102817D01*
X132126981Y-112017311D01*
X132126979Y-112017309D01*
X132103519Y-111988723D01*
X132074932Y-111965262D01*
X130978699Y-110869029D01*
X131025000Y-110636260D01*
X131025000Y-110343740D01*
X130967932Y-110056842D01*
X130855990Y-109786589D01*
X130693475Y-109543368D01*
X130486632Y-109336525D01*
X130304466Y-109214805D01*
X130421355Y-109145178D01*
X130637588Y-108950269D01*
X130811641Y-108716920D01*
X130936825Y-108454099D01*
X130981476Y-108306890D01*
X130860155Y-108077000D01*
X129667000Y-108077000D01*
X129667000Y-108097000D01*
X129413000Y-108097000D01*
X129413000Y-108077000D01*
X129393000Y-108077000D01*
X129393000Y-107823000D01*
X129413000Y-107823000D01*
X129413000Y-107803000D01*
X129667000Y-107803000D01*
X129667000Y-107823000D01*
X130860155Y-107823000D01*
X130981476Y-107593110D01*
X130936825Y-107445901D01*
X130811641Y-107183080D01*
X130637588Y-106949731D01*
X130421355Y-106754822D01*
X130304466Y-106685195D01*
X130486632Y-106563475D01*
X130693475Y-106356632D01*
X130855990Y-106113411D01*
X130967932Y-105843158D01*
X131025000Y-105556260D01*
X131025000Y-105414669D01*
X133235701Y-107625371D01*
X133235700Y-108879706D01*
X133232076Y-108916502D01*
X133235700Y-108953297D01*
X133235700Y-108953307D01*
X133246542Y-109063389D01*
X133289388Y-109204633D01*
X133358966Y-109334805D01*
X133408412Y-109395055D01*
X133452602Y-109448900D01*
X133481194Y-109472365D01*
X136641779Y-112632952D01*
X136626939Y-112630000D01*
X136423061Y-112630000D01*
X136223102Y-112669774D01*
X136034744Y-112747795D01*
X135865226Y-112861063D01*
X135721063Y-113005226D01*
X135607795Y-113174744D01*
X135529774Y-113363102D01*
X135490000Y-113563061D01*
X135490000Y-113766939D01*
X135529774Y-113966898D01*
X135607795Y-114155256D01*
X135721063Y-114324774D01*
X135865226Y-114468937D01*
X136034744Y-114582205D01*
X136223102Y-114660226D01*
X136423061Y-114700000D01*
X136626939Y-114700000D01*
X136637090Y-114697981D01*
X136688112Y-114713458D01*
X136798194Y-114724300D01*
X136798203Y-114724300D01*
X136834999Y-114727924D01*
X136871795Y-114724300D01*
X137668534Y-114724300D01*
X137652832Y-114743433D01*
X137624930Y-114766332D01*
X137526533Y-114886230D01*
X137453417Y-115023019D01*
X137408393Y-115171445D01*
X137396999Y-115287129D01*
X137396999Y-115287138D01*
X137393191Y-115325801D01*
X137396999Y-115364464D01*
X137397000Y-117170726D01*
X137393191Y-117209399D01*
X137408394Y-117363756D01*
X137453417Y-117512181D01*
X137488386Y-117577602D01*
X137526534Y-117648971D01*
X137624931Y-117768868D01*
X137654972Y-117793522D01*
X139601928Y-119740479D01*
X139601928Y-120640000D01*
X139614188Y-120764482D01*
X139650498Y-120884180D01*
X139709463Y-120994494D01*
X139788815Y-121091185D01*
X139885506Y-121170537D01*
X139995820Y-121229502D01*
X140115518Y-121265812D01*
X140240000Y-121278072D01*
X141740000Y-121278072D01*
X141864482Y-121265812D01*
X141984180Y-121229502D01*
X142094494Y-121170537D01*
X142191185Y-121091185D01*
X142240000Y-121031704D01*
X142288815Y-121091185D01*
X142385506Y-121170537D01*
X142495820Y-121229502D01*
X142615518Y-121265812D01*
X142740000Y-121278072D01*
X143204250Y-121275000D01*
X143363000Y-121116250D01*
X143363000Y-120142000D01*
X143617000Y-120142000D01*
X143617000Y-121116250D01*
X143775750Y-121275000D01*
X144240000Y-121278072D01*
X144364482Y-121265812D01*
X144484180Y-121229502D01*
X144594494Y-121170537D01*
X144691185Y-121091185D01*
X144770537Y-120994494D01*
X144829502Y-120884180D01*
X144865812Y-120764482D01*
X144878072Y-120640000D01*
X144876170Y-120429872D01*
X166040000Y-120429872D01*
X166040000Y-120870128D01*
X166125890Y-121301925D01*
X166294369Y-121708669D01*
X166538962Y-122074729D01*
X166850271Y-122386038D01*
X167216331Y-122630631D01*
X167623075Y-122799110D01*
X168054872Y-122885000D01*
X168495128Y-122885000D01*
X168926925Y-122799110D01*
X169333669Y-122630631D01*
X169699729Y-122386038D01*
X170011038Y-122074729D01*
X170255631Y-121708669D01*
X170424110Y-121301925D01*
X170510000Y-120870128D01*
X170510000Y-120429872D01*
X170424110Y-119998075D01*
X170255631Y-119591331D01*
X170011038Y-119225271D01*
X169699729Y-118913962D01*
X169333669Y-118669369D01*
X168926925Y-118500890D01*
X168495128Y-118415000D01*
X168054872Y-118415000D01*
X167623075Y-118500890D01*
X167216331Y-118669369D01*
X166850271Y-118913962D01*
X166538962Y-119225271D01*
X166294369Y-119591331D01*
X166125890Y-119998075D01*
X166040000Y-120429872D01*
X144876170Y-120429872D01*
X144875000Y-120300750D01*
X144716250Y-120142000D01*
X143617000Y-120142000D01*
X143363000Y-120142000D01*
X143343000Y-120142000D01*
X143343000Y-119888000D01*
X143363000Y-119888000D01*
X143363000Y-118913750D01*
X143617000Y-118913750D01*
X143617000Y-119888000D01*
X144716250Y-119888000D01*
X144875000Y-119729250D01*
X144878072Y-119390000D01*
X144865812Y-119265518D01*
X144829502Y-119145820D01*
X144770537Y-119035506D01*
X144691185Y-118938815D01*
X144594494Y-118859463D01*
X144484180Y-118800498D01*
X144364482Y-118764188D01*
X144240000Y-118751928D01*
X143775750Y-118755000D01*
X143617000Y-118913750D01*
X143363000Y-118913750D01*
X143204250Y-118755000D01*
X142740000Y-118751928D01*
X142615518Y-118764188D01*
X142495820Y-118800498D01*
X142385506Y-118859463D01*
X142288815Y-118938815D01*
X142240000Y-118998296D01*
X142191185Y-118938815D01*
X142094494Y-118859463D01*
X141984180Y-118800498D01*
X141864482Y-118764188D01*
X141777400Y-118755611D01*
X141777400Y-118416150D01*
X142831152Y-117362400D01*
X144145117Y-117362400D01*
X144195820Y-117389502D01*
X144315518Y-117425812D01*
X144440000Y-117438072D01*
X145940000Y-117438072D01*
X146064482Y-117425812D01*
X146184180Y-117389502D01*
X146234883Y-117362400D01*
X159611337Y-117362400D01*
X159650000Y-117366208D01*
X159688663Y-117362400D01*
X159688673Y-117362400D01*
X159804357Y-117351006D01*
X159952783Y-117305982D01*
X160089572Y-117232866D01*
X160209469Y-117134469D01*
X160234128Y-117104422D01*
X160549423Y-116789127D01*
X160579469Y-116764469D01*
X160677866Y-116644572D01*
X160750982Y-116507783D01*
X160796006Y-116359357D01*
X160807400Y-116243673D01*
X160807400Y-116243664D01*
X160811208Y-116205001D01*
X160807400Y-116166338D01*
X160807400Y-115751893D01*
X160914180Y-115719502D01*
X161024494Y-115660537D01*
X161121185Y-115581185D01*
X161200537Y-115484494D01*
X161259502Y-115374180D01*
X161295812Y-115254482D01*
X161304389Y-115167400D01*
X163583850Y-115167400D01*
X164515881Y-116099433D01*
X164540531Y-116129469D01*
X164570567Y-116154119D01*
X164570569Y-116154121D01*
X164589918Y-116170000D01*
X164660428Y-116227866D01*
X164797217Y-116300982D01*
X164945643Y-116346006D01*
X165061327Y-116357400D01*
X165061336Y-116357400D01*
X165099999Y-116361208D01*
X165138662Y-116357400D01*
X172383274Y-116357400D01*
X172400498Y-116414180D01*
X172459463Y-116524494D01*
X172538815Y-116621185D01*
X172635506Y-116700537D01*
X172745820Y-116759502D01*
X172865518Y-116795812D01*
X172990000Y-116808072D01*
X174990000Y-116808072D01*
X175114482Y-116795812D01*
X175234180Y-116759502D01*
X175344494Y-116700537D01*
X175441185Y-116621185D01*
X175520537Y-116524494D01*
X175579502Y-116414180D01*
X175615812Y-116294482D01*
X175628072Y-116170000D01*
X175628072Y-114970000D01*
X175615812Y-114845518D01*
X175579502Y-114725820D01*
X175520537Y-114615506D01*
X175441185Y-114518815D01*
X175344494Y-114439463D01*
X175234180Y-114380498D01*
X175114482Y-114344188D01*
X174990000Y-114331928D01*
X172990000Y-114331928D01*
X172865518Y-114344188D01*
X172745820Y-114380498D01*
X172635506Y-114439463D01*
X172538815Y-114518815D01*
X172459463Y-114615506D01*
X172400498Y-114725820D01*
X172383274Y-114782600D01*
X165426152Y-114782600D01*
X164697400Y-114053850D01*
X164697400Y-113030000D01*
X172349025Y-113030000D01*
X172372870Y-113272102D01*
X172443489Y-113504901D01*
X172558167Y-113719449D01*
X172712498Y-113907502D01*
X172900551Y-114061833D01*
X173115099Y-114176511D01*
X173347898Y-114247130D01*
X173529335Y-114265000D01*
X174450665Y-114265000D01*
X174632102Y-114247130D01*
X174864901Y-114176511D01*
X175079449Y-114061833D01*
X175267502Y-113907502D01*
X175421833Y-113719449D01*
X175536511Y-113504901D01*
X175607130Y-113272102D01*
X175630975Y-113030000D01*
X175607130Y-112787898D01*
X175536511Y-112555099D01*
X175421833Y-112340551D01*
X175267502Y-112152498D01*
X175079449Y-111998167D01*
X174864901Y-111883489D01*
X174632102Y-111812870D01*
X174450665Y-111795000D01*
X173529335Y-111795000D01*
X173347898Y-111812870D01*
X173115099Y-111883489D01*
X172900551Y-111998167D01*
X172712498Y-112152498D01*
X172558167Y-112340551D01*
X172443489Y-112555099D01*
X172372870Y-112787898D01*
X172349025Y-113030000D01*
X164697400Y-113030000D01*
X164697400Y-110490000D01*
X172349025Y-110490000D01*
X172372870Y-110732102D01*
X172443489Y-110964901D01*
X172558167Y-111179449D01*
X172712498Y-111367502D01*
X172900551Y-111521833D01*
X173115099Y-111636511D01*
X173347898Y-111707130D01*
X173529335Y-111725000D01*
X174450665Y-111725000D01*
X174632102Y-111707130D01*
X174864901Y-111636511D01*
X175079449Y-111521833D01*
X175267502Y-111367502D01*
X175421833Y-111179449D01*
X175536511Y-110964901D01*
X175607130Y-110732102D01*
X175630975Y-110490000D01*
X175607130Y-110247898D01*
X175536511Y-110015099D01*
X175421833Y-109800551D01*
X175267502Y-109612498D01*
X175079449Y-109458167D01*
X174864901Y-109343489D01*
X174632102Y-109272870D01*
X174450665Y-109255000D01*
X173529335Y-109255000D01*
X173347898Y-109272870D01*
X173115099Y-109343489D01*
X172900551Y-109458167D01*
X172712498Y-109612498D01*
X172558167Y-109800551D01*
X172443489Y-110015099D01*
X172372870Y-110247898D01*
X172349025Y-110490000D01*
X164697400Y-110490000D01*
X164697400Y-109338665D01*
X164701208Y-109300000D01*
X164697400Y-109261335D01*
X164697400Y-107950000D01*
X172349025Y-107950000D01*
X172372870Y-108192102D01*
X172443489Y-108424901D01*
X172558167Y-108639449D01*
X172712498Y-108827502D01*
X172900551Y-108981833D01*
X173115099Y-109096511D01*
X173347898Y-109167130D01*
X173529335Y-109185000D01*
X174450665Y-109185000D01*
X174632102Y-109167130D01*
X174864901Y-109096511D01*
X175079449Y-108981833D01*
X175267502Y-108827502D01*
X175421833Y-108639449D01*
X175536511Y-108424901D01*
X175607130Y-108192102D01*
X175630975Y-107950000D01*
X175607130Y-107707898D01*
X175536511Y-107475099D01*
X175421833Y-107260551D01*
X175267502Y-107072498D01*
X175079449Y-106918167D01*
X174864901Y-106803489D01*
X174632102Y-106732870D01*
X174450665Y-106715000D01*
X173529335Y-106715000D01*
X173347898Y-106732870D01*
X173115099Y-106803489D01*
X172900551Y-106918167D01*
X172712498Y-107072498D01*
X172558167Y-107260551D01*
X172443489Y-107475099D01*
X172372870Y-107707898D01*
X172349025Y-107950000D01*
X164697400Y-107950000D01*
X164697400Y-105410000D01*
X172349025Y-105410000D01*
X172372870Y-105652102D01*
X172443489Y-105884901D01*
X172558167Y-106099449D01*
X172712498Y-106287502D01*
X172900551Y-106441833D01*
X173115099Y-106556511D01*
X173347898Y-106627130D01*
X173529335Y-106645000D01*
X174450665Y-106645000D01*
X174632102Y-106627130D01*
X174864901Y-106556511D01*
X175079449Y-106441833D01*
X175267502Y-106287502D01*
X175421833Y-106099449D01*
X175536511Y-105884901D01*
X175607130Y-105652102D01*
X175630975Y-105410000D01*
X175607130Y-105167898D01*
X175536511Y-104935099D01*
X175421833Y-104720551D01*
X175267502Y-104532498D01*
X175079449Y-104378167D01*
X174864901Y-104263489D01*
X174632102Y-104192870D01*
X174450665Y-104175000D01*
X173529335Y-104175000D01*
X173347898Y-104192870D01*
X173115099Y-104263489D01*
X172900551Y-104378167D01*
X172712498Y-104532498D01*
X172558167Y-104720551D01*
X172443489Y-104935099D01*
X172372870Y-105167898D01*
X172349025Y-105410000D01*
X164697400Y-105410000D01*
X164697400Y-102870000D01*
X172349025Y-102870000D01*
X172372870Y-103112102D01*
X172443489Y-103344901D01*
X172558167Y-103559449D01*
X172712498Y-103747502D01*
X172900551Y-103901833D01*
X173115099Y-104016511D01*
X173347898Y-104087130D01*
X173529335Y-104105000D01*
X174450665Y-104105000D01*
X174632102Y-104087130D01*
X174864901Y-104016511D01*
X175079449Y-103901833D01*
X175267502Y-103747502D01*
X175421833Y-103559449D01*
X175536511Y-103344901D01*
X175607130Y-103112102D01*
X175630975Y-102870000D01*
X175607130Y-102627898D01*
X175536511Y-102395099D01*
X175421833Y-102180551D01*
X175267502Y-101992498D01*
X175079449Y-101838167D01*
X174864901Y-101723489D01*
X174632102Y-101652870D01*
X174450665Y-101635000D01*
X173529335Y-101635000D01*
X173347898Y-101652870D01*
X173115099Y-101723489D01*
X172900551Y-101838167D01*
X172712498Y-101992498D01*
X172558167Y-102180551D01*
X172443489Y-102395099D01*
X172372870Y-102627898D01*
X172349025Y-102870000D01*
X164697400Y-102870000D01*
X164697400Y-100330000D01*
X172349025Y-100330000D01*
X172372870Y-100572102D01*
X172443489Y-100804901D01*
X172558167Y-101019449D01*
X172712498Y-101207502D01*
X172900551Y-101361833D01*
X173115099Y-101476511D01*
X173347898Y-101547130D01*
X173529335Y-101565000D01*
X174450665Y-101565000D01*
X174632102Y-101547130D01*
X174864901Y-101476511D01*
X175079449Y-101361833D01*
X175267502Y-101207502D01*
X175421833Y-101019449D01*
X175536511Y-100804901D01*
X175607130Y-100572102D01*
X175630975Y-100330000D01*
X175607130Y-100087898D01*
X175536511Y-99855099D01*
X175421833Y-99640551D01*
X175267502Y-99452498D01*
X175079449Y-99298167D01*
X174864901Y-99183489D01*
X174632102Y-99112870D01*
X174450665Y-99095000D01*
X173529335Y-99095000D01*
X173347898Y-99112870D01*
X173115099Y-99183489D01*
X172900551Y-99298167D01*
X172712498Y-99452498D01*
X172558167Y-99640551D01*
X172443489Y-99855099D01*
X172372870Y-100087898D01*
X172349025Y-100330000D01*
X164697400Y-100330000D01*
X164697400Y-97790000D01*
X172349025Y-97790000D01*
X172372870Y-98032102D01*
X172443489Y-98264901D01*
X172558167Y-98479449D01*
X172712498Y-98667502D01*
X172900551Y-98821833D01*
X173115099Y-98936511D01*
X173347898Y-99007130D01*
X173529335Y-99025000D01*
X174450665Y-99025000D01*
X174632102Y-99007130D01*
X174864901Y-98936511D01*
X175079449Y-98821833D01*
X175267502Y-98667502D01*
X175421833Y-98479449D01*
X175536511Y-98264901D01*
X175607130Y-98032102D01*
X175630975Y-97790000D01*
X175607130Y-97547898D01*
X175536511Y-97315099D01*
X175421833Y-97100551D01*
X175267502Y-96912498D01*
X175079449Y-96758167D01*
X174864901Y-96643489D01*
X174632102Y-96572870D01*
X174450665Y-96555000D01*
X173529335Y-96555000D01*
X173347898Y-96572870D01*
X173115099Y-96643489D01*
X172900551Y-96758167D01*
X172712498Y-96912498D01*
X172558167Y-97100551D01*
X172443489Y-97315099D01*
X172372870Y-97547898D01*
X172349025Y-97790000D01*
X164697400Y-97790000D01*
X164697400Y-96157226D01*
X164701208Y-96118563D01*
X164697400Y-96079900D01*
X164697400Y-96079891D01*
X164686006Y-95964207D01*
X164640982Y-95815781D01*
X164567866Y-95678992D01*
X164546222Y-95652619D01*
X164494121Y-95589133D01*
X164494119Y-95589131D01*
X164469469Y-95559095D01*
X164439435Y-95534447D01*
X164154988Y-95250000D01*
X172349025Y-95250000D01*
X172372870Y-95492102D01*
X172443489Y-95724901D01*
X172558167Y-95939449D01*
X172712498Y-96127502D01*
X172900551Y-96281833D01*
X173115099Y-96396511D01*
X173347898Y-96467130D01*
X173529335Y-96485000D01*
X174450665Y-96485000D01*
X174632102Y-96467130D01*
X174864901Y-96396511D01*
X175079449Y-96281833D01*
X175267502Y-96127502D01*
X175421833Y-95939449D01*
X175536511Y-95724901D01*
X175607130Y-95492102D01*
X175630975Y-95250000D01*
X175607130Y-95007898D01*
X175536511Y-94775099D01*
X175421833Y-94560551D01*
X175267502Y-94372498D01*
X175079449Y-94218167D01*
X174864901Y-94103489D01*
X174632102Y-94032870D01*
X174450665Y-94015000D01*
X173529335Y-94015000D01*
X173347898Y-94032870D01*
X173115099Y-94103489D01*
X172900551Y-94218167D01*
X172712498Y-94372498D01*
X172558167Y-94560551D01*
X172443489Y-94775099D01*
X172372870Y-95007898D01*
X172349025Y-95250000D01*
X164154988Y-95250000D01*
X161614988Y-92710000D01*
X172349025Y-92710000D01*
X172372870Y-92952102D01*
X172443489Y-93184901D01*
X172558167Y-93399449D01*
X172712498Y-93587502D01*
X172900551Y-93741833D01*
X173115099Y-93856511D01*
X173347898Y-93927130D01*
X173529335Y-93945000D01*
X174450665Y-93945000D01*
X174632102Y-93927130D01*
X174864901Y-93856511D01*
X175079449Y-93741833D01*
X175267502Y-93587502D01*
X175421833Y-93399449D01*
X175536511Y-93184901D01*
X175607130Y-92952102D01*
X175630975Y-92710000D01*
X175607130Y-92467898D01*
X175536511Y-92235099D01*
X175421833Y-92020551D01*
X175267502Y-91832498D01*
X175079449Y-91678167D01*
X174864901Y-91563489D01*
X174632102Y-91492870D01*
X174450665Y-91475000D01*
X173529335Y-91475000D01*
X173347898Y-91492870D01*
X173115099Y-91563489D01*
X172900551Y-91678167D01*
X172712498Y-91832498D01*
X172558167Y-92020551D01*
X172443489Y-92235099D01*
X172372870Y-92467898D01*
X172349025Y-92710000D01*
X161614988Y-92710000D01*
X159074988Y-90170000D01*
X172349025Y-90170000D01*
X172372870Y-90412102D01*
X172443489Y-90644901D01*
X172558167Y-90859449D01*
X172712498Y-91047502D01*
X172900551Y-91201833D01*
X173115099Y-91316511D01*
X173347898Y-91387130D01*
X173529335Y-91405000D01*
X174450665Y-91405000D01*
X174632102Y-91387130D01*
X174864901Y-91316511D01*
X175079449Y-91201833D01*
X175267502Y-91047502D01*
X175421833Y-90859449D01*
X175536511Y-90644901D01*
X175607130Y-90412102D01*
X175630975Y-90170000D01*
X175607130Y-89927898D01*
X175536511Y-89695099D01*
X175421833Y-89480551D01*
X175267502Y-89292498D01*
X175079449Y-89138167D01*
X174864901Y-89023489D01*
X174632102Y-88952870D01*
X174450665Y-88935000D01*
X173529335Y-88935000D01*
X173347898Y-88952870D01*
X173115099Y-89023489D01*
X172900551Y-89138167D01*
X172712498Y-89292498D01*
X172558167Y-89480551D01*
X172443489Y-89695099D01*
X172372870Y-89927898D01*
X172349025Y-90170000D01*
X159074988Y-90170000D01*
X156534988Y-87630000D01*
X172349025Y-87630000D01*
X172372870Y-87872102D01*
X172443489Y-88104901D01*
X172558167Y-88319449D01*
X172712498Y-88507502D01*
X172900551Y-88661833D01*
X173115099Y-88776511D01*
X173347898Y-88847130D01*
X173529335Y-88865000D01*
X174450665Y-88865000D01*
X174632102Y-88847130D01*
X174864901Y-88776511D01*
X175079449Y-88661833D01*
X175267502Y-88507502D01*
X175421833Y-88319449D01*
X175536511Y-88104901D01*
X175607130Y-87872102D01*
X175630975Y-87630000D01*
X175607130Y-87387898D01*
X175536511Y-87155099D01*
X175421833Y-86940551D01*
X175267502Y-86752498D01*
X175079449Y-86598167D01*
X174864901Y-86483489D01*
X174632102Y-86412870D01*
X174450665Y-86395000D01*
X173529335Y-86395000D01*
X173347898Y-86412870D01*
X173115099Y-86483489D01*
X172900551Y-86598167D01*
X172712498Y-86752498D01*
X172558167Y-86940551D01*
X172443489Y-87155099D01*
X172372870Y-87387898D01*
X172349025Y-87630000D01*
X156534988Y-87630000D01*
X153994987Y-85090000D01*
X172349025Y-85090000D01*
X172372870Y-85332102D01*
X172443489Y-85564901D01*
X172558167Y-85779449D01*
X172712498Y-85967502D01*
X172900551Y-86121833D01*
X173115099Y-86236511D01*
X173347898Y-86307130D01*
X173529335Y-86325000D01*
X174450665Y-86325000D01*
X174632102Y-86307130D01*
X174864901Y-86236511D01*
X175079449Y-86121833D01*
X175267502Y-85967502D01*
X175421833Y-85779449D01*
X175536511Y-85564901D01*
X175607130Y-85332102D01*
X175630975Y-85090000D01*
X175607130Y-84847898D01*
X175536511Y-84615099D01*
X175421833Y-84400551D01*
X175267502Y-84212498D01*
X175079449Y-84058167D01*
X174864901Y-83943489D01*
X174632102Y-83872870D01*
X174450665Y-83855000D01*
X173529335Y-83855000D01*
X173347898Y-83872870D01*
X173115099Y-83943489D01*
X172900551Y-84058167D01*
X172712498Y-84212498D01*
X172558167Y-84400551D01*
X172443489Y-84615099D01*
X172372870Y-84847898D01*
X172349025Y-85090000D01*
X153994987Y-85090000D01*
X152509954Y-83604968D01*
X152485295Y-83574921D01*
X152365398Y-83476524D01*
X152354722Y-83470817D01*
X152407502Y-83427502D01*
X152561833Y-83239449D01*
X152676511Y-83024901D01*
X152724225Y-82867609D01*
X172396538Y-82867609D01*
X172400409Y-82905282D01*
X172492579Y-83130533D01*
X172626922Y-83333474D01*
X172798275Y-83506307D01*
X173000054Y-83642390D01*
X173224504Y-83736493D01*
X173463000Y-83785000D01*
X173863000Y-83785000D01*
X173863000Y-82677000D01*
X174117000Y-82677000D01*
X174117000Y-83785000D01*
X174517000Y-83785000D01*
X174755496Y-83736493D01*
X174979946Y-83642390D01*
X175181725Y-83506307D01*
X175353078Y-83333474D01*
X175487421Y-83130533D01*
X175579591Y-82905282D01*
X175583462Y-82867609D01*
X175458731Y-82677000D01*
X174117000Y-82677000D01*
X173863000Y-82677000D01*
X172521269Y-82677000D01*
X172396538Y-82867609D01*
X152724225Y-82867609D01*
X152747130Y-82792102D01*
X152770975Y-82550000D01*
X152747130Y-82307898D01*
X152724226Y-82232391D01*
X172396538Y-82232391D01*
X172521269Y-82423000D01*
X173863000Y-82423000D01*
X173863000Y-81315000D01*
X174117000Y-81315000D01*
X174117000Y-82423000D01*
X175458731Y-82423000D01*
X175583462Y-82232391D01*
X175579591Y-82194718D01*
X175487421Y-81969467D01*
X175353078Y-81766526D01*
X175181725Y-81593693D01*
X174979946Y-81457610D01*
X174755496Y-81363507D01*
X174517000Y-81315000D01*
X174117000Y-81315000D01*
X173863000Y-81315000D01*
X173463000Y-81315000D01*
X173224504Y-81363507D01*
X173000054Y-81457610D01*
X172798275Y-81593693D01*
X172626922Y-81766526D01*
X172492579Y-81969467D01*
X172400409Y-82194718D01*
X172396538Y-82232391D01*
X152724226Y-82232391D01*
X152676511Y-82075099D01*
X152561833Y-81860551D01*
X152407502Y-81672498D01*
X152219449Y-81518167D01*
X152004901Y-81403489D01*
X151772102Y-81332870D01*
X151590665Y-81315000D01*
X150669335Y-81315000D01*
X150487898Y-81332870D01*
X150255099Y-81403489D01*
X150040551Y-81518167D01*
X149852498Y-81672498D01*
X149745270Y-81803156D01*
X149673293Y-81731179D01*
X149648634Y-81701132D01*
X149528737Y-81602735D01*
X149391948Y-81529619D01*
X149243522Y-81484595D01*
X149127838Y-81473201D01*
X149127828Y-81473201D01*
X149089165Y-81469393D01*
X149050502Y-81473201D01*
X146052451Y-81473201D01*
X145986250Y-81407000D01*
X144887000Y-81407000D01*
X144887000Y-81427000D01*
X144633000Y-81427000D01*
X144633000Y-81407000D01*
X144613000Y-81407000D01*
X144613000Y-81153000D01*
X144633000Y-81153000D01*
X144633000Y-80178750D01*
X144887000Y-80178750D01*
X144887000Y-81153000D01*
X145986250Y-81153000D01*
X146145000Y-80994250D01*
X146148072Y-80655000D01*
X146135812Y-80530518D01*
X146099502Y-80410820D01*
X146040537Y-80300506D01*
X145961185Y-80203815D01*
X145864494Y-80124463D01*
X145754180Y-80065498D01*
X145634482Y-80029188D01*
X145510000Y-80016928D01*
X145045750Y-80020000D01*
X144887000Y-80178750D01*
X144633000Y-80178750D01*
X144474250Y-80020000D01*
X144010000Y-80016928D01*
X143885518Y-80029188D01*
X143765820Y-80065498D01*
X143655506Y-80124463D01*
X143558815Y-80203815D01*
X143510000Y-80263296D01*
X143461185Y-80203815D01*
X143364494Y-80124463D01*
X143254180Y-80065498D01*
X143134482Y-80029188D01*
X143047400Y-80020611D01*
X143047400Y-80010000D01*
X149489025Y-80010000D01*
X149512870Y-80252102D01*
X149583489Y-80484901D01*
X149698167Y-80699449D01*
X149852498Y-80887502D01*
X150040551Y-81041833D01*
X150255099Y-81156511D01*
X150487898Y-81227130D01*
X150669335Y-81245000D01*
X151590665Y-81245000D01*
X151772102Y-81227130D01*
X152004901Y-81156511D01*
X152219449Y-81041833D01*
X152407502Y-80887502D01*
X152561833Y-80699449D01*
X152676511Y-80484901D01*
X152747130Y-80252102D01*
X152770975Y-80010000D01*
X172349025Y-80010000D01*
X172372870Y-80252102D01*
X172443489Y-80484901D01*
X172558167Y-80699449D01*
X172712498Y-80887502D01*
X172900551Y-81041833D01*
X173115099Y-81156511D01*
X173347898Y-81227130D01*
X173529335Y-81245000D01*
X174450665Y-81245000D01*
X174632102Y-81227130D01*
X174864901Y-81156511D01*
X175079449Y-81041833D01*
X175267502Y-80887502D01*
X175421833Y-80699449D01*
X175536511Y-80484901D01*
X175607130Y-80252102D01*
X175630975Y-80010000D01*
X175607130Y-79767898D01*
X175536511Y-79535099D01*
X175421833Y-79320551D01*
X175267502Y-79132498D01*
X175079449Y-78978167D01*
X174864901Y-78863489D01*
X174632102Y-78792870D01*
X174450665Y-78775000D01*
X173529335Y-78775000D01*
X173347898Y-78792870D01*
X173115099Y-78863489D01*
X172900551Y-78978167D01*
X172712498Y-79132498D01*
X172558167Y-79320551D01*
X172443489Y-79535099D01*
X172372870Y-79767898D01*
X172349025Y-80010000D01*
X152770975Y-80010000D01*
X152747130Y-79767898D01*
X152676511Y-79535099D01*
X152561833Y-79320551D01*
X152407502Y-79132498D01*
X152219449Y-78978167D01*
X152004901Y-78863489D01*
X151772102Y-78792870D01*
X151590665Y-78775000D01*
X150669335Y-78775000D01*
X150487898Y-78792870D01*
X150255099Y-78863489D01*
X150040551Y-78978167D01*
X149852498Y-79132498D01*
X149698167Y-79320551D01*
X149583489Y-79535099D01*
X149512870Y-79767898D01*
X149489025Y-80010000D01*
X143047400Y-80010000D01*
X143047400Y-78798662D01*
X143051208Y-78759999D01*
X143047400Y-78721336D01*
X143047400Y-78721327D01*
X143036006Y-78605643D01*
X142990982Y-78457217D01*
X142917866Y-78320428D01*
X142850766Y-78238666D01*
X142844121Y-78230569D01*
X142844119Y-78230567D01*
X142819469Y-78200531D01*
X142789434Y-78175882D01*
X140964127Y-76350577D01*
X140949168Y-76332350D01*
X140955000Y-76332924D01*
X140991795Y-76329300D01*
X140991806Y-76329300D01*
X141101888Y-76318458D01*
X141243132Y-76275612D01*
X141373303Y-76206034D01*
X141487398Y-76112398D01*
X141510862Y-76083807D01*
X141915370Y-75679300D01*
X143391928Y-75679300D01*
X143391928Y-75805000D01*
X143402088Y-75908157D01*
X143395000Y-75973250D01*
X143427247Y-76005497D01*
X143440498Y-76049180D01*
X143499463Y-76159494D01*
X143557555Y-76230280D01*
X143504792Y-76292657D01*
X143444194Y-76402082D01*
X143427527Y-76454223D01*
X143395000Y-76486750D01*
X143402432Y-76555000D01*
X143395000Y-76623250D01*
X143427527Y-76655777D01*
X143444194Y-76707918D01*
X143504792Y-76817343D01*
X143557792Y-76880000D01*
X143504792Y-76942657D01*
X143444194Y-77052082D01*
X143427527Y-77104223D01*
X143395000Y-77136750D01*
X143402432Y-77205000D01*
X143395000Y-77273250D01*
X143427527Y-77305777D01*
X143444194Y-77357918D01*
X143504792Y-77467343D01*
X143557792Y-77530000D01*
X143504792Y-77592657D01*
X143444194Y-77702082D01*
X143427527Y-77754223D01*
X143395000Y-77786750D01*
X143402432Y-77855000D01*
X143395000Y-77923250D01*
X143427527Y-77955777D01*
X143444194Y-78007918D01*
X143504792Y-78117343D01*
X143585574Y-78212844D01*
X143667418Y-78278000D01*
X143553750Y-78278000D01*
X143395000Y-78436750D01*
X143406109Y-78538773D01*
X143444194Y-78657918D01*
X143504792Y-78767343D01*
X143585574Y-78862844D01*
X143683434Y-78940750D01*
X143794613Y-78998067D01*
X143914838Y-79032593D01*
X144039488Y-79043001D01*
X144494250Y-79040000D01*
X144653000Y-78881250D01*
X144653000Y-78278000D01*
X144606250Y-78278000D01*
X144653000Y-78231250D01*
X144653000Y-76733000D01*
X144907000Y-76733000D01*
X144907000Y-78231250D01*
X144953750Y-78278000D01*
X144907000Y-78278000D01*
X144907000Y-78881250D01*
X145065750Y-79040000D01*
X145520512Y-79043001D01*
X145645162Y-79032593D01*
X145765387Y-78998067D01*
X145876566Y-78940750D01*
X145974426Y-78862844D01*
X146055208Y-78767343D01*
X146115806Y-78657918D01*
X146153891Y-78538773D01*
X146165000Y-78436750D01*
X146006250Y-78278000D01*
X145892582Y-78278000D01*
X145974426Y-78212844D01*
X146055208Y-78117343D01*
X146115806Y-78007918D01*
X146132473Y-77955777D01*
X146165000Y-77923250D01*
X146157568Y-77855000D01*
X146165000Y-77786750D01*
X146132473Y-77754223D01*
X146115806Y-77702082D01*
X146055208Y-77592657D01*
X146002208Y-77530000D01*
X146052960Y-77470000D01*
X149489025Y-77470000D01*
X149512870Y-77712102D01*
X149583489Y-77944901D01*
X149698167Y-78159449D01*
X149852498Y-78347502D01*
X150040551Y-78501833D01*
X150255099Y-78616511D01*
X150487898Y-78687130D01*
X150669335Y-78705000D01*
X151590665Y-78705000D01*
X151772102Y-78687130D01*
X152004901Y-78616511D01*
X152219449Y-78501833D01*
X152407502Y-78347502D01*
X152561833Y-78159449D01*
X152676511Y-77944901D01*
X152747130Y-77712102D01*
X152770975Y-77470000D01*
X172349025Y-77470000D01*
X172372870Y-77712102D01*
X172443489Y-77944901D01*
X172558167Y-78159449D01*
X172712498Y-78347502D01*
X172900551Y-78501833D01*
X173115099Y-78616511D01*
X173347898Y-78687130D01*
X173529335Y-78705000D01*
X174450665Y-78705000D01*
X174632102Y-78687130D01*
X174864901Y-78616511D01*
X175079449Y-78501833D01*
X175267502Y-78347502D01*
X175421833Y-78159449D01*
X175536511Y-77944901D01*
X175607130Y-77712102D01*
X175630975Y-77470000D01*
X175607130Y-77227898D01*
X175536511Y-76995099D01*
X175421833Y-76780551D01*
X175267502Y-76592498D01*
X175079449Y-76438167D01*
X174864901Y-76323489D01*
X174632102Y-76252870D01*
X174450665Y-76235000D01*
X173529335Y-76235000D01*
X173347898Y-76252870D01*
X173115099Y-76323489D01*
X172900551Y-76438167D01*
X172712498Y-76592498D01*
X172558167Y-76780551D01*
X172443489Y-76995099D01*
X172372870Y-77227898D01*
X172349025Y-77470000D01*
X152770975Y-77470000D01*
X152747130Y-77227898D01*
X152676511Y-76995099D01*
X152561833Y-76780551D01*
X152407502Y-76592498D01*
X152219449Y-76438167D01*
X152004901Y-76323489D01*
X151772102Y-76252870D01*
X151590665Y-76235000D01*
X150669335Y-76235000D01*
X150487898Y-76252870D01*
X150255099Y-76323489D01*
X150040551Y-76438167D01*
X149852498Y-76592498D01*
X149698167Y-76780551D01*
X149583489Y-76995099D01*
X149512870Y-77227898D01*
X149489025Y-77470000D01*
X146052960Y-77470000D01*
X146055208Y-77467343D01*
X146115806Y-77357918D01*
X146132473Y-77305777D01*
X146165000Y-77273250D01*
X146157568Y-77205000D01*
X146165000Y-77136750D01*
X146132473Y-77104223D01*
X146115806Y-77052082D01*
X146055208Y-76942657D01*
X146002208Y-76880000D01*
X146055208Y-76817343D01*
X146115806Y-76707918D01*
X146132473Y-76655777D01*
X146165000Y-76623250D01*
X146157568Y-76555000D01*
X146165000Y-76486750D01*
X146132473Y-76454223D01*
X146115806Y-76402082D01*
X146055208Y-76292657D01*
X146002445Y-76230280D01*
X146060537Y-76159494D01*
X146119502Y-76049180D01*
X146132753Y-76005497D01*
X146165000Y-75973250D01*
X146157912Y-75908157D01*
X146168072Y-75805000D01*
X146168072Y-75671296D01*
X146196888Y-75668458D01*
X146338132Y-75625612D01*
X146468303Y-75556034D01*
X146582398Y-75462398D01*
X146605862Y-75433807D01*
X147109670Y-74930000D01*
X149489025Y-74930000D01*
X149512870Y-75172102D01*
X149583489Y-75404901D01*
X149698167Y-75619449D01*
X149852498Y-75807502D01*
X150040551Y-75961833D01*
X150255099Y-76076511D01*
X150487898Y-76147130D01*
X150669335Y-76165000D01*
X151590665Y-76165000D01*
X151772102Y-76147130D01*
X152004901Y-76076511D01*
X152219449Y-75961833D01*
X152407502Y-75807502D01*
X152561833Y-75619449D01*
X152676511Y-75404901D01*
X152747130Y-75172102D01*
X152770975Y-74930000D01*
X152747130Y-74687898D01*
X152676511Y-74455099D01*
X152561833Y-74240551D01*
X152407502Y-74052498D01*
X152219449Y-73898167D01*
X152004901Y-73783489D01*
X151772102Y-73712870D01*
X151590665Y-73695000D01*
X150669335Y-73695000D01*
X150487898Y-73712870D01*
X150255099Y-73783489D01*
X150040551Y-73898167D01*
X149852498Y-74052498D01*
X149698167Y-74240551D01*
X149583489Y-74455099D01*
X149512870Y-74687898D01*
X149489025Y-74930000D01*
X147109670Y-74930000D01*
X147188816Y-74850855D01*
X147217398Y-74827398D01*
X147240854Y-74798817D01*
X147240861Y-74798810D01*
X147311034Y-74713303D01*
X147380612Y-74583132D01*
X147423458Y-74441888D01*
X147425004Y-74426190D01*
X147434300Y-74331806D01*
X147434300Y-74331798D01*
X147437924Y-74295000D01*
X147434300Y-74258202D01*
X147434300Y-73061798D01*
X147437924Y-73025000D01*
X147434300Y-72988202D01*
X147434300Y-72988194D01*
X147423458Y-72878112D01*
X147380612Y-72736868D01*
X147311034Y-72606697D01*
X147240861Y-72521190D01*
X147240854Y-72521183D01*
X147217398Y-72492602D01*
X147188817Y-72469147D01*
X146605862Y-71886193D01*
X146598236Y-71876900D01*
X146619494Y-71865537D01*
X146716185Y-71786185D01*
X146795537Y-71689494D01*
X146854502Y-71579180D01*
X146890812Y-71459482D01*
X146903072Y-71335000D01*
X146903072Y-71234300D01*
X149757076Y-71234300D01*
X149952886Y-71430111D01*
X149852498Y-71512498D01*
X149698167Y-71700551D01*
X149583489Y-71915099D01*
X149512870Y-72147898D01*
X149489025Y-72390000D01*
X149512870Y-72632102D01*
X149583489Y-72864901D01*
X149698167Y-73079449D01*
X149852498Y-73267502D01*
X150040551Y-73421833D01*
X150255099Y-73536511D01*
X150487898Y-73607130D01*
X150669335Y-73625000D01*
X151590665Y-73625000D01*
X151772102Y-73607130D01*
X152004901Y-73536511D01*
X152219449Y-73421833D01*
X152407502Y-73267502D01*
X152561833Y-73079449D01*
X152676511Y-72864901D01*
X152747130Y-72632102D01*
X152770975Y-72390000D01*
X152754408Y-72221790D01*
X162602121Y-72221790D01*
X165814146Y-75433817D01*
X165837602Y-75462398D01*
X165866183Y-75485854D01*
X165866190Y-75485861D01*
X165940879Y-75547156D01*
X165951697Y-75556034D01*
X166081868Y-75625612D01*
X166223112Y-75668458D01*
X166333194Y-75679300D01*
X166333202Y-75679300D01*
X166370000Y-75682924D01*
X166406798Y-75679300D01*
X169508205Y-75679300D01*
X169545000Y-75682924D01*
X169581795Y-75679300D01*
X169581806Y-75679300D01*
X169691888Y-75668458D01*
X169833132Y-75625612D01*
X169963303Y-75556034D01*
X170077398Y-75462398D01*
X170100863Y-75433806D01*
X170604669Y-74930000D01*
X172349025Y-74930000D01*
X172372870Y-75172102D01*
X172443489Y-75404901D01*
X172558167Y-75619449D01*
X172712498Y-75807502D01*
X172900551Y-75961833D01*
X173115099Y-76076511D01*
X173347898Y-76147130D01*
X173529335Y-76165000D01*
X174450665Y-76165000D01*
X174632102Y-76147130D01*
X174864901Y-76076511D01*
X175079449Y-75961833D01*
X175267502Y-75807502D01*
X175421833Y-75619449D01*
X175536511Y-75404901D01*
X175607130Y-75172102D01*
X175630975Y-74930000D01*
X175607130Y-74687898D01*
X175536511Y-74455099D01*
X175421833Y-74240551D01*
X175267502Y-74052498D01*
X175079449Y-73898167D01*
X174864901Y-73783489D01*
X174632102Y-73712870D01*
X174450665Y-73695000D01*
X173529335Y-73695000D01*
X173347898Y-73712870D01*
X173115099Y-73783489D01*
X172900551Y-73898167D01*
X172712498Y-74052498D01*
X172558167Y-74240551D01*
X172443489Y-74455099D01*
X172372870Y-74687898D01*
X172349025Y-74930000D01*
X170604669Y-74930000D01*
X172522308Y-73012361D01*
X172558167Y-73079449D01*
X172712498Y-73267502D01*
X172900551Y-73421833D01*
X173115099Y-73536511D01*
X173347898Y-73607130D01*
X173529335Y-73625000D01*
X174450665Y-73625000D01*
X174632102Y-73607130D01*
X174864901Y-73536511D01*
X175079449Y-73421833D01*
X175267502Y-73267502D01*
X175421833Y-73079449D01*
X175536511Y-72864901D01*
X175607130Y-72632102D01*
X175630975Y-72390000D01*
X175607130Y-72147898D01*
X175536511Y-71915099D01*
X175421833Y-71700551D01*
X175267502Y-71512498D01*
X175079449Y-71358167D01*
X174864901Y-71243489D01*
X174632102Y-71172870D01*
X174450665Y-71155000D01*
X174379670Y-71155000D01*
X174449670Y-71085000D01*
X174450665Y-71085000D01*
X174632102Y-71067130D01*
X174864901Y-70996511D01*
X175079449Y-70881833D01*
X175267502Y-70727502D01*
X175421833Y-70539449D01*
X175536511Y-70324901D01*
X175607130Y-70092102D01*
X175630975Y-69850000D01*
X175607130Y-69607898D01*
X175536511Y-69375099D01*
X175421833Y-69160551D01*
X175267502Y-68972498D01*
X175079449Y-68818167D01*
X174864901Y-68703489D01*
X174632102Y-68632870D01*
X174450665Y-68615000D01*
X173529335Y-68615000D01*
X173347898Y-68632870D01*
X173115099Y-68703489D01*
X172900551Y-68818167D01*
X172712498Y-68972498D01*
X172558167Y-69160551D01*
X172443489Y-69375099D01*
X172372870Y-69607898D01*
X172349025Y-69850000D01*
X172372870Y-70092102D01*
X172443489Y-70324901D01*
X172558167Y-70539449D01*
X172701378Y-70713952D01*
X169234631Y-74180700D01*
X166680371Y-74180700D01*
X163468353Y-70968684D01*
X163444888Y-70940092D01*
X163395881Y-70899872D01*
X166040000Y-70899872D01*
X166040000Y-71340128D01*
X166125890Y-71771925D01*
X166294369Y-72178669D01*
X166538962Y-72544729D01*
X166850271Y-72856038D01*
X167216331Y-73100631D01*
X167623075Y-73269110D01*
X168054872Y-73355000D01*
X168495128Y-73355000D01*
X168926925Y-73269110D01*
X169333669Y-73100631D01*
X169699729Y-72856038D01*
X170011038Y-72544729D01*
X170255631Y-72178669D01*
X170424110Y-71771925D01*
X170510000Y-71340128D01*
X170510000Y-70899872D01*
X170424110Y-70468075D01*
X170255631Y-70061331D01*
X170011038Y-69695271D01*
X169699729Y-69383962D01*
X169333669Y-69139369D01*
X168926925Y-68970890D01*
X168495128Y-68885000D01*
X168054872Y-68885000D01*
X167623075Y-68970890D01*
X167216331Y-69139369D01*
X166850271Y-69383962D01*
X166538962Y-69695271D01*
X166294369Y-70061331D01*
X166125890Y-70468075D01*
X166040000Y-70899872D01*
X163395881Y-70899872D01*
X163330793Y-70846456D01*
X163200622Y-70776878D01*
X163059378Y-70734032D01*
X162949296Y-70723190D01*
X162949285Y-70723190D01*
X162912490Y-70719566D01*
X162875695Y-70723190D01*
X152411041Y-70723190D01*
X152561833Y-70539449D01*
X152676511Y-70324901D01*
X152747130Y-70092102D01*
X152770975Y-69850000D01*
X152747130Y-69607898D01*
X152676511Y-69375099D01*
X152561833Y-69160551D01*
X152407502Y-68972498D01*
X152219449Y-68818167D01*
X152004901Y-68703489D01*
X151772102Y-68632870D01*
X151590665Y-68615000D01*
X150669335Y-68615000D01*
X150487898Y-68632870D01*
X150255099Y-68703489D01*
X150040551Y-68818167D01*
X149852498Y-68972498D01*
X149698167Y-69160551D01*
X149583489Y-69375099D01*
X149512870Y-69607898D01*
X149500283Y-69735700D01*
X146903072Y-69735700D01*
X146903072Y-69635000D01*
X146890812Y-69510518D01*
X146854502Y-69390820D01*
X146795537Y-69280506D01*
X146716185Y-69183815D01*
X146619494Y-69104463D01*
X146509180Y-69045498D01*
X146389482Y-69009188D01*
X146265000Y-68996928D01*
X144565000Y-68996928D01*
X144440518Y-69009188D01*
X144320820Y-69045498D01*
X144210506Y-69104463D01*
X144113815Y-69183815D01*
X144034463Y-69280506D01*
X143975498Y-69390820D01*
X143953487Y-69463380D01*
X143821632Y-69331525D01*
X143578411Y-69169010D01*
X143308158Y-69057068D01*
X143021260Y-69000000D01*
X142728740Y-69000000D01*
X142441842Y-69057068D01*
X142171589Y-69169010D01*
X141928368Y-69331525D01*
X141721525Y-69538368D01*
X141559010Y-69781589D01*
X141447068Y-70051842D01*
X141390000Y-70338740D01*
X141390000Y-70631260D01*
X141447068Y-70918158D01*
X141559010Y-71188411D01*
X141721525Y-71431632D01*
X141928368Y-71638475D01*
X142125701Y-71770328D01*
X142125701Y-72353184D01*
X142122075Y-72390000D01*
X142136542Y-72536888D01*
X142179388Y-72678132D01*
X142248966Y-72808303D01*
X142342602Y-72922398D01*
X142456697Y-73016034D01*
X142586868Y-73085612D01*
X142728112Y-73128458D01*
X142838194Y-73139300D01*
X142875000Y-73142925D01*
X142911806Y-73139300D01*
X143452001Y-73139300D01*
X143440498Y-73160820D01*
X143404188Y-73280518D01*
X143391928Y-73405000D01*
X143391928Y-73530700D01*
X141386872Y-73530700D01*
X140439864Y-72583693D01*
X140416399Y-72555101D01*
X140302304Y-72461465D01*
X140172133Y-72391887D01*
X140030889Y-72349041D01*
X139920807Y-72338199D01*
X139920796Y-72338199D01*
X139884001Y-72334575D01*
X139847206Y-72338199D01*
X137912797Y-72338199D01*
X137875999Y-72334575D01*
X137839201Y-72338199D01*
X137839193Y-72338199D01*
X137729111Y-72349041D01*
X137587867Y-72391887D01*
X137457696Y-72461465D01*
X137419756Y-72492602D01*
X137372190Y-72531638D01*
X137372189Y-72531639D01*
X137343601Y-72555101D01*
X137320138Y-72583690D01*
X137308686Y-72595143D01*
X137280102Y-72618601D01*
X137186465Y-72732696D01*
X137116887Y-72862867D01*
X137074041Y-73004111D01*
X137063199Y-73114193D01*
X137063199Y-73114204D01*
X137059575Y-73150999D01*
X137063199Y-73187794D01*
X137063199Y-73332131D01*
X136646441Y-73748890D01*
X131958560Y-73748890D01*
X130978699Y-72769029D01*
X131025000Y-72536260D01*
X131025000Y-72243740D01*
X130967932Y-71956842D01*
X130855990Y-71686589D01*
X130693475Y-71443368D01*
X130486632Y-71236525D01*
X130243411Y-71074010D01*
X129973158Y-70962068D01*
X129686260Y-70905000D01*
X129393740Y-70905000D01*
X129106842Y-70962068D01*
X128836589Y-71074010D01*
X128593368Y-71236525D01*
X128386525Y-71443368D01*
X128224010Y-71686589D01*
X128112068Y-71956842D01*
X128055000Y-72243740D01*
X128055000Y-72536260D01*
X128112068Y-72823158D01*
X128224010Y-73093411D01*
X128386525Y-73336632D01*
X128593368Y-73543475D01*
X128767760Y-73660000D01*
X128593368Y-73776525D01*
X128386525Y-73983368D01*
X128224010Y-74226589D01*
X128112068Y-74496842D01*
X128055000Y-74783740D01*
X128055000Y-75076260D01*
X128112068Y-75363158D01*
X128224010Y-75633411D01*
X128386525Y-75876632D01*
X128593368Y-76083475D01*
X128767760Y-76200000D01*
X128593368Y-76316525D01*
X128386525Y-76523368D01*
X128224010Y-76766589D01*
X128112068Y-77036842D01*
X128055000Y-77323740D01*
X128055000Y-77616260D01*
X128112068Y-77903158D01*
X128224010Y-78173411D01*
X128386525Y-78416632D01*
X128593368Y-78623475D01*
X128775534Y-78745195D01*
X128658645Y-78814822D01*
X128442412Y-79009731D01*
X128268359Y-79243080D01*
X128143175Y-79505901D01*
X128098524Y-79653110D01*
X128219845Y-79883000D01*
X129413000Y-79883000D01*
X129413000Y-79863000D01*
X129667000Y-79863000D01*
X129667000Y-79883000D01*
X130860155Y-79883000D01*
X130981476Y-79653110D01*
X130936825Y-79505901D01*
X130811641Y-79243080D01*
X130637588Y-79009731D01*
X130421355Y-78814822D01*
X130304466Y-78745195D01*
X130486632Y-78623475D01*
X130693475Y-78416632D01*
X130855990Y-78173411D01*
X130967932Y-77903158D01*
X131025000Y-77616260D01*
X131025000Y-77323740D01*
X130967932Y-77036842D01*
X130855990Y-76766589D01*
X130693475Y-76523368D01*
X130486632Y-76316525D01*
X130312240Y-76200000D01*
X130486632Y-76083475D01*
X130693475Y-75876632D01*
X130825328Y-75679300D01*
X137060599Y-75679300D01*
X137063200Y-75705706D01*
X137063199Y-85943549D01*
X137045537Y-85910506D01*
X136966185Y-85813815D01*
X136869494Y-85734463D01*
X136759180Y-85675498D01*
X136639482Y-85639188D01*
X136515000Y-85626928D01*
X136175750Y-85630000D01*
X136017000Y-85788750D01*
X136017000Y-86888000D01*
X136037000Y-86888000D01*
X136037000Y-87142000D01*
X136017000Y-87142000D01*
X136017000Y-87162000D01*
X135763000Y-87162000D01*
X135763000Y-87142000D01*
X134788750Y-87142000D01*
X134630000Y-87300750D01*
X134626928Y-87765000D01*
X134639188Y-87889482D01*
X134675498Y-88009180D01*
X134734463Y-88119494D01*
X134813815Y-88216185D01*
X134873296Y-88265000D01*
X134813815Y-88313815D01*
X134734463Y-88410506D01*
X134675498Y-88520820D01*
X134639188Y-88640518D01*
X134628642Y-88747600D01*
X134311152Y-88747600D01*
X131828551Y-86265000D01*
X134626928Y-86265000D01*
X134630000Y-86729250D01*
X134788750Y-86888000D01*
X135763000Y-86888000D01*
X135763000Y-85788750D01*
X135604250Y-85630000D01*
X135265000Y-85626928D01*
X135140518Y-85639188D01*
X135020820Y-85675498D01*
X134910506Y-85734463D01*
X134813815Y-85813815D01*
X134734463Y-85910506D01*
X134675498Y-86020820D01*
X134639188Y-86140518D01*
X134626928Y-86265000D01*
X131828551Y-86265000D01*
X130987638Y-85424088D01*
X131025000Y-85236260D01*
X131025000Y-84943740D01*
X130967932Y-84656842D01*
X130855990Y-84386589D01*
X130693475Y-84143368D01*
X130486632Y-83936525D01*
X130312240Y-83820000D01*
X130486632Y-83703475D01*
X130693475Y-83496632D01*
X130855990Y-83253411D01*
X130967932Y-82983158D01*
X131025000Y-82696260D01*
X131025000Y-82403740D01*
X130967932Y-82116842D01*
X130855990Y-81846589D01*
X130693475Y-81603368D01*
X130486632Y-81396525D01*
X130304466Y-81274805D01*
X130421355Y-81205178D01*
X130637588Y-81010269D01*
X130811641Y-80776920D01*
X130936825Y-80514099D01*
X130981476Y-80366890D01*
X130860155Y-80137000D01*
X129667000Y-80137000D01*
X129667000Y-80157000D01*
X129413000Y-80157000D01*
X129413000Y-80137000D01*
X128219845Y-80137000D01*
X128098524Y-80366890D01*
X128143175Y-80514099D01*
X128268359Y-80776920D01*
X128442412Y-81010269D01*
X128658645Y-81205178D01*
X128775534Y-81274805D01*
X128593368Y-81396525D01*
X128386525Y-81603368D01*
X128224010Y-81846589D01*
X128112068Y-82116842D01*
X128055000Y-82403740D01*
X128055000Y-82696260D01*
X128112068Y-82983158D01*
X128224010Y-83253411D01*
X128386525Y-83496632D01*
X128593368Y-83703475D01*
X128767760Y-83820000D01*
X128593368Y-83936525D01*
X128386525Y-84143368D01*
X128224010Y-84386589D01*
X128112068Y-84656842D01*
X128055000Y-84943740D01*
X128055000Y-85236260D01*
X128112068Y-85523158D01*
X128224010Y-85793411D01*
X128386525Y-86036632D01*
X128593368Y-86243475D01*
X128767760Y-86360000D01*
X128593368Y-86476525D01*
X128386525Y-86683368D01*
X128224010Y-86926589D01*
X128112068Y-87196842D01*
X128055000Y-87483740D01*
X128055000Y-87776260D01*
X128112068Y-88063158D01*
X128224010Y-88333411D01*
X128386525Y-88576632D01*
X128593368Y-88783475D01*
X128767760Y-88900000D01*
X128593368Y-89016525D01*
X128386525Y-89223368D01*
X128224010Y-89466589D01*
X128112068Y-89736842D01*
X128055000Y-90023740D01*
X128055000Y-90316260D01*
X128112068Y-90603158D01*
X128224010Y-90873411D01*
X128386525Y-91116632D01*
X128518380Y-91248487D01*
X128445820Y-91270498D01*
X128335506Y-91329463D01*
X128238815Y-91408815D01*
X128159463Y-91505506D01*
X128100498Y-91615820D01*
X128064188Y-91735518D01*
X128051928Y-91860000D01*
X128051928Y-93560000D01*
X128064188Y-93684482D01*
X128100498Y-93804180D01*
X128159463Y-93914494D01*
X128238815Y-94011185D01*
X128335506Y-94090537D01*
X128445820Y-94149502D01*
X128565518Y-94185812D01*
X128690000Y-94198072D01*
X130390000Y-94198072D01*
X130514482Y-94185812D01*
X130634180Y-94149502D01*
X130744494Y-94090537D01*
X130841185Y-94011185D01*
X130920537Y-93914494D01*
X130979502Y-93804180D01*
X131015812Y-93684482D01*
X131028072Y-93560000D01*
X131028072Y-91860000D01*
X131015812Y-91735518D01*
X130979502Y-91615820D01*
X130920537Y-91505506D01*
X130841185Y-91408815D01*
X130744494Y-91329463D01*
X130634180Y-91270498D01*
X130561620Y-91248487D01*
X130693475Y-91116632D01*
X130855990Y-90873411D01*
X130967932Y-90603158D01*
X131025000Y-90316260D01*
X131025000Y-90023740D01*
X130967932Y-89736842D01*
X130855990Y-89466589D01*
X130693475Y-89223368D01*
X130486632Y-89016525D01*
X130312240Y-88900000D01*
X130486632Y-88783475D01*
X130693475Y-88576632D01*
X130855990Y-88333411D01*
X130967932Y-88063158D01*
X131025000Y-87776260D01*
X131025000Y-87688551D01*
X133400881Y-90064433D01*
X133425531Y-90094469D01*
X133455567Y-90119119D01*
X133455569Y-90119121D01*
X133508772Y-90162783D01*
X133545428Y-90192866D01*
X133682217Y-90265982D01*
X133830643Y-90311006D01*
X133946327Y-90322400D01*
X133946336Y-90322400D01*
X133984999Y-90326208D01*
X134023662Y-90322400D01*
X134632581Y-90322400D01*
X134639188Y-90389482D01*
X134675498Y-90509180D01*
X134734463Y-90619494D01*
X134813815Y-90716185D01*
X134910506Y-90795537D01*
X135020820Y-90854502D01*
X135140518Y-90890812D01*
X135265000Y-90903072D01*
X136515000Y-90903072D01*
X136639482Y-90890812D01*
X136759180Y-90854502D01*
X136869494Y-90795537D01*
X136966185Y-90716185D01*
X137045537Y-90619494D01*
X137104502Y-90509180D01*
X137140812Y-90389482D01*
X137149389Y-90302400D01*
X137191928Y-90302400D01*
X137191928Y-90410000D01*
X137204188Y-90534482D01*
X137240498Y-90654180D01*
X137299463Y-90764494D01*
X137378815Y-90861185D01*
X137475506Y-90940537D01*
X137585820Y-90999502D01*
X137705518Y-91035812D01*
X137830000Y-91048072D01*
X137965316Y-91048072D01*
X138001417Y-91115612D01*
X138022135Y-91154372D01*
X138120532Y-91274269D01*
X138150573Y-91298923D01*
X139499418Y-92647769D01*
X132949812Y-92647769D01*
X132913016Y-92644145D01*
X132876220Y-92647769D01*
X132876211Y-92647769D01*
X132766129Y-92658611D01*
X132624885Y-92701457D01*
X132494713Y-92771035D01*
X132409207Y-92841209D01*
X132380619Y-92864671D01*
X132357158Y-92893258D01*
X125226194Y-100024223D01*
X125197602Y-100047688D01*
X125164603Y-100087898D01*
X125120000Y-100142246D01*
X125120000Y-70899872D01*
X133020000Y-70899872D01*
X133020000Y-71340128D01*
X133105890Y-71771925D01*
X133274369Y-72178669D01*
X133518962Y-72544729D01*
X133830271Y-72856038D01*
X134196331Y-73100631D01*
X134603075Y-73269110D01*
X135034872Y-73355000D01*
X135475128Y-73355000D01*
X135906925Y-73269110D01*
X136313669Y-73100631D01*
X136679729Y-72856038D01*
X136991038Y-72544729D01*
X137235631Y-72178669D01*
X137404110Y-71771925D01*
X137490000Y-71340128D01*
X137490000Y-70899872D01*
X137404110Y-70468075D01*
X137235631Y-70061331D01*
X136991038Y-69695271D01*
X136679729Y-69383962D01*
X136313669Y-69139369D01*
X135906925Y-68970890D01*
X135475128Y-68885000D01*
X135034872Y-68885000D01*
X134603075Y-68970890D01*
X134196331Y-69139369D01*
X133830271Y-69383962D01*
X133518962Y-69695271D01*
X133274369Y-70061331D01*
X133105890Y-70468075D01*
X133020000Y-70899872D01*
X125120000Y-70899872D01*
X125120000Y-67970000D01*
X177140001Y-67970000D01*
X177140000Y-123800000D01*
G37*
%TD.AperFunction*%
D23*
X134894774Y-95583102D02*
X134855000Y-95783061D01*
X134855000Y-95986939D01*
X134894774Y-96186898D01*
X134972795Y-96375256D01*
X135086063Y-96544774D01*
X135230226Y-96688937D01*
X135399744Y-96802205D01*
X135588102Y-96880226D01*
X135788061Y-96920000D01*
X135991939Y-96920000D01*
X136191898Y-96880226D01*
X136380256Y-96802205D01*
X136549774Y-96688937D01*
X136693937Y-96544774D01*
X136807205Y-96375256D01*
X136834525Y-96309300D01*
X137226884Y-96309300D01*
X137240498Y-96354180D01*
X137299463Y-96464494D01*
X137378815Y-96561185D01*
X137475506Y-96640537D01*
X137585820Y-96699502D01*
X137705518Y-96735812D01*
X137830000Y-96748072D01*
X137892601Y-96748072D01*
X137892600Y-97161928D01*
X137700000Y-97161928D01*
X137575518Y-97174188D01*
X137455820Y-97210498D01*
X137345506Y-97269463D01*
X137248815Y-97348815D01*
X137169463Y-97445506D01*
X137110498Y-97555820D01*
X137074188Y-97675518D01*
X137061928Y-97800000D01*
X137061928Y-99050000D01*
X137074188Y-99174482D01*
X137110498Y-99294180D01*
X137169463Y-99404494D01*
X137248815Y-99501185D01*
X137345506Y-99580537D01*
X137455820Y-99639502D01*
X137482601Y-99647626D01*
X137482601Y-99680611D01*
X137395518Y-99689188D01*
X137275820Y-99725498D01*
X137165506Y-99784463D01*
X137068815Y-99863815D01*
X136989463Y-99960506D01*
X136930498Y-100070820D01*
X136894188Y-100190518D01*
X136881928Y-100315000D01*
X136881928Y-101615000D01*
X136894188Y-101739482D01*
X136930498Y-101859180D01*
X136989463Y-101969494D01*
X137068815Y-102066185D01*
X137165506Y-102145537D01*
X137275820Y-102204502D01*
X137395518Y-102240812D01*
X137482601Y-102249389D01*
X137482601Y-102452639D01*
X137434774Y-102568102D01*
X137395000Y-102768061D01*
X137395000Y-102971939D01*
X137434774Y-103171898D01*
X137512795Y-103360256D01*
X137626063Y-103529774D01*
X137770226Y-103673937D01*
X137939744Y-103787205D01*
X138128102Y-103865226D01*
X138328061Y-103905000D01*
X138531939Y-103905000D01*
X138731898Y-103865226D01*
X138920256Y-103787205D01*
X139089774Y-103673937D01*
X139233937Y-103529774D01*
X139347205Y-103360256D01*
X139425226Y-103171898D01*
X139465000Y-102971939D01*
X139465000Y-102768061D01*
X139425226Y-102568102D01*
X139347205Y-102379744D01*
X139235854Y-102213095D01*
X139264180Y-102204502D01*
X139374494Y-102145537D01*
X139471185Y-102066185D01*
X139550537Y-101969494D01*
X139609502Y-101859180D01*
X139620000Y-101824573D01*
X139630498Y-101859180D01*
X139689463Y-101969494D01*
X139768815Y-102066185D01*
X139865506Y-102145537D01*
X139975820Y-102204502D01*
X140095518Y-102240812D01*
X140220000Y-102253072D01*
X141720000Y-102253072D01*
X141830700Y-102242169D01*
X141830700Y-102854630D01*
X140945331Y-103740000D01*
X140868061Y-103740000D01*
X140668102Y-103779774D01*
X140479744Y-103857795D01*
X140310226Y-103971063D01*
X140166063Y-104115226D01*
X140052795Y-104284744D01*
X139974774Y-104473102D01*
X139935000Y-104673061D01*
X139935000Y-104876939D01*
X139974774Y-105076898D01*
X140052795Y-105265256D01*
X140166063Y-105434774D01*
X140310226Y-105578937D01*
X140479744Y-105692205D01*
X140668102Y-105770226D01*
X140868061Y-105810000D01*
X141071939Y-105810000D01*
X141271898Y-105770226D01*
X141460256Y-105692205D01*
X141629774Y-105578937D01*
X141773937Y-105434774D01*
X141790490Y-105410000D01*
X149489025Y-105410000D01*
X149512870Y-105652102D01*
X149583489Y-105884901D01*
X149698167Y-106099449D01*
X149852498Y-106287502D01*
X150040551Y-106441833D01*
X150255099Y-106556511D01*
X150487898Y-106627130D01*
X150669335Y-106645000D01*
X151590665Y-106645000D01*
X151772102Y-106627130D01*
X152004901Y-106556511D01*
X152219449Y-106441833D01*
X152407502Y-106287502D01*
X152561833Y-106099449D01*
X152676511Y-105884901D01*
X152747130Y-105652102D01*
X152770975Y-105410000D01*
X152747130Y-105167898D01*
X152676511Y-104935099D01*
X152561833Y-104720551D01*
X152407502Y-104532498D01*
X152219449Y-104378167D01*
X152004901Y-104263489D01*
X151772102Y-104192870D01*
X151590665Y-104175000D01*
X150669335Y-104175000D01*
X150487898Y-104192870D01*
X150255099Y-104263489D01*
X150040551Y-104378167D01*
X149852498Y-104532498D01*
X149698167Y-104720551D01*
X149583489Y-104935099D01*
X149512870Y-105167898D01*
X149489025Y-105410000D01*
X141790490Y-105410000D01*
X141887205Y-105265256D01*
X141965226Y-105076898D01*
X142005000Y-104876939D01*
X142005000Y-104799669D01*
X143083812Y-103720857D01*
X143112398Y-103697398D01*
X143154575Y-103646006D01*
X143206034Y-103583304D01*
X143275612Y-103453132D01*
X143282790Y-103429469D01*
X143318458Y-103311888D01*
X143329300Y-103201806D01*
X143329300Y-103201796D01*
X143332924Y-103165000D01*
X143329300Y-103128204D01*
X143329300Y-96748072D01*
X143430000Y-96748072D01*
X143554482Y-96735812D01*
X143555000Y-96735655D01*
X143555518Y-96735812D01*
X143680000Y-96748072D01*
X144080000Y-96748072D01*
X144204482Y-96735812D01*
X144205000Y-96735655D01*
X144205518Y-96735812D01*
X144330000Y-96748072D01*
X144730000Y-96748072D01*
X144854482Y-96735812D01*
X144857446Y-96734913D01*
X144948250Y-96745000D01*
X145016218Y-96677032D01*
X145084494Y-96640537D01*
X145181185Y-96561185D01*
X145253000Y-96473678D01*
X145253000Y-96586250D01*
X145411750Y-96745000D01*
X145515911Y-96733429D01*
X145634925Y-96694935D01*
X145744142Y-96633963D01*
X145839365Y-96552854D01*
X145916935Y-96454727D01*
X145970059Y-96350810D01*
X145970060Y-102903786D01*
X145966251Y-102942459D01*
X145981454Y-103096816D01*
X146026477Y-103245241D01*
X146099594Y-103382031D01*
X146197990Y-103501928D01*
X146231921Y-103529774D01*
X146317888Y-103600325D01*
X146454677Y-103673441D01*
X146603103Y-103718465D01*
X146757459Y-103733668D01*
X146911816Y-103718465D01*
X147060242Y-103673441D01*
X147090252Y-103657400D01*
X149778553Y-103657400D01*
X149852498Y-103747502D01*
X150040551Y-103901833D01*
X150255099Y-104016511D01*
X150487898Y-104087130D01*
X150669335Y-104105000D01*
X151590665Y-104105000D01*
X151772102Y-104087130D01*
X152004901Y-104016511D01*
X152219449Y-103901833D01*
X152407502Y-103747502D01*
X152481447Y-103657400D01*
X153343850Y-103657400D01*
X158325877Y-108639428D01*
X158350531Y-108669469D01*
X158470428Y-108767866D01*
X158607217Y-108840982D01*
X158733838Y-108879392D01*
X158744188Y-108984482D01*
X158780498Y-109104180D01*
X158839463Y-109214494D01*
X158918815Y-109311185D01*
X159015506Y-109390537D01*
X159125820Y-109449502D01*
X159245518Y-109485812D01*
X159370000Y-109498072D01*
X160502601Y-109498072D01*
X160502601Y-110083848D01*
X160294521Y-110291928D01*
X159370000Y-110291928D01*
X159245518Y-110304188D01*
X159125820Y-110340498D01*
X159015506Y-110399463D01*
X158918815Y-110478815D01*
X158839463Y-110575506D01*
X158780498Y-110685820D01*
X158744188Y-110805518D01*
X158735611Y-110892600D01*
X155821152Y-110892600D01*
X154889125Y-109960575D01*
X154864469Y-109930531D01*
X154744572Y-109832134D01*
X154607783Y-109759018D01*
X154459357Y-109713994D01*
X154343673Y-109702600D01*
X154343663Y-109702600D01*
X154305000Y-109698792D01*
X154266337Y-109702600D01*
X152481447Y-109702600D01*
X152407502Y-109612498D01*
X152219449Y-109458167D01*
X152004901Y-109343489D01*
X151772102Y-109272870D01*
X151590665Y-109255000D01*
X150669335Y-109255000D01*
X150487898Y-109272870D01*
X150255099Y-109343489D01*
X150040551Y-109458167D01*
X149852498Y-109612498D01*
X149698167Y-109800551D01*
X149583489Y-110015099D01*
X149512870Y-110247898D01*
X149489025Y-110490000D01*
X149512870Y-110732102D01*
X149583489Y-110964901D01*
X149698167Y-111179449D01*
X149852498Y-111367502D01*
X150040551Y-111521833D01*
X150255099Y-111636511D01*
X150487898Y-111707130D01*
X150669335Y-111725000D01*
X151590665Y-111725000D01*
X151772102Y-111707130D01*
X152004901Y-111636511D01*
X152219449Y-111521833D01*
X152407502Y-111367502D01*
X152481447Y-111277400D01*
X153978850Y-111277400D01*
X154910881Y-112209433D01*
X154935531Y-112239469D01*
X154965567Y-112264119D01*
X154965569Y-112264121D01*
X155006812Y-112297968D01*
X155055428Y-112337866D01*
X155192217Y-112410982D01*
X155340643Y-112456006D01*
X155456327Y-112467400D01*
X155456336Y-112467400D01*
X155494999Y-112471208D01*
X155533662Y-112467400D01*
X158735611Y-112467400D01*
X158744188Y-112554482D01*
X158780498Y-112674180D01*
X158839463Y-112784494D01*
X158918815Y-112881185D01*
X159015506Y-112960537D01*
X159125820Y-113019502D01*
X159160427Y-113030000D01*
X159125820Y-113040498D01*
X159015506Y-113099463D01*
X158918815Y-113178815D01*
X158839463Y-113275506D01*
X158780498Y-113385820D01*
X158744188Y-113505518D01*
X158731928Y-113630000D01*
X158731928Y-115130000D01*
X158744188Y-115254482D01*
X158780498Y-115374180D01*
X158839463Y-115484494D01*
X158918815Y-115581185D01*
X159015506Y-115660537D01*
X159125820Y-115719502D01*
X159232600Y-115751893D01*
X159232600Y-115787600D01*
X152658018Y-115787600D01*
X152598731Y-115697000D01*
X151257000Y-115697000D01*
X151257000Y-115717000D01*
X151003000Y-115717000D01*
X151003000Y-115697000D01*
X149661269Y-115697000D01*
X149601982Y-115787600D01*
X146578072Y-115787600D01*
X146578072Y-115700000D01*
X146567912Y-115596843D01*
X146575000Y-115531750D01*
X146542753Y-115499503D01*
X146529502Y-115455820D01*
X146470537Y-115345506D01*
X146412445Y-115274720D01*
X146431332Y-115252391D01*
X149536538Y-115252391D01*
X149661269Y-115443000D01*
X151003000Y-115443000D01*
X151003000Y-114335000D01*
X151257000Y-114335000D01*
X151257000Y-115443000D01*
X152598731Y-115443000D01*
X152723462Y-115252391D01*
X152719591Y-115214718D01*
X152627421Y-114989467D01*
X152493078Y-114786526D01*
X152321725Y-114613693D01*
X152119946Y-114477610D01*
X151895496Y-114383507D01*
X151657000Y-114335000D01*
X151257000Y-114335000D01*
X151003000Y-114335000D01*
X150603000Y-114335000D01*
X150364504Y-114383507D01*
X150140054Y-114477610D01*
X149938275Y-114613693D01*
X149766922Y-114786526D01*
X149632579Y-114989467D01*
X149540409Y-115214718D01*
X149536538Y-115252391D01*
X146431332Y-115252391D01*
X146465208Y-115212343D01*
X146525806Y-115102918D01*
X146542473Y-115050777D01*
X146575000Y-115018250D01*
X146567568Y-114950000D01*
X146575000Y-114881750D01*
X146542473Y-114849223D01*
X146525806Y-114797082D01*
X146465208Y-114687657D01*
X146412445Y-114625280D01*
X146470537Y-114554494D01*
X146529502Y-114444180D01*
X146542753Y-114400497D01*
X146567270Y-114375981D01*
X146660226Y-114468937D01*
X146829744Y-114582205D01*
X147018102Y-114660226D01*
X147218061Y-114700000D01*
X147421939Y-114700000D01*
X147621898Y-114660226D01*
X147810256Y-114582205D01*
X147979774Y-114468937D01*
X148123937Y-114324774D01*
X148237205Y-114155256D01*
X148315226Y-113966898D01*
X148355000Y-113766939D01*
X148355000Y-113563061D01*
X148315226Y-113363102D01*
X148237205Y-113174744D01*
X148140491Y-113030000D01*
X149489025Y-113030000D01*
X149512870Y-113272102D01*
X149583489Y-113504901D01*
X149698167Y-113719449D01*
X149852498Y-113907502D01*
X150040551Y-114061833D01*
X150255099Y-114176511D01*
X150487898Y-114247130D01*
X150669335Y-114265000D01*
X151590665Y-114265000D01*
X151772102Y-114247130D01*
X152004901Y-114176511D01*
X152219449Y-114061833D01*
X152407502Y-113907502D01*
X152561833Y-113719449D01*
X152676511Y-113504901D01*
X152747130Y-113272102D01*
X152770975Y-113030000D01*
X152747130Y-112787898D01*
X152676511Y-112555099D01*
X152561833Y-112340551D01*
X152407502Y-112152498D01*
X152219449Y-111998167D01*
X152004901Y-111883489D01*
X151772102Y-111812870D01*
X151590665Y-111795000D01*
X150669335Y-111795000D01*
X150487898Y-111812870D01*
X150255099Y-111883489D01*
X150040551Y-111998167D01*
X149852498Y-112152498D01*
X149698167Y-112340551D01*
X149583489Y-112555099D01*
X149512870Y-112787898D01*
X149489025Y-113030000D01*
X148140491Y-113030000D01*
X148123937Y-113005226D01*
X147979774Y-112861063D01*
X147810256Y-112747795D01*
X147621898Y-112669774D01*
X147421939Y-112630000D01*
X147269277Y-112630000D01*
X147268132Y-112629388D01*
X147126888Y-112586542D01*
X147016806Y-112575700D01*
X147016795Y-112575700D01*
X147009328Y-112574965D01*
X147006801Y-112549304D01*
X147006801Y-110307397D01*
X147010425Y-110270599D01*
X147006801Y-110233801D01*
X147006801Y-110233793D01*
X146995959Y-110123711D01*
X146953113Y-109982467D01*
X146883535Y-109852296D01*
X146813362Y-109766789D01*
X146813355Y-109766782D01*
X146789899Y-109738201D01*
X146761318Y-109714745D01*
X144996572Y-107950000D01*
X149489025Y-107950000D01*
X149512870Y-108192102D01*
X149583489Y-108424901D01*
X149698167Y-108639449D01*
X149852498Y-108827502D01*
X150040551Y-108981833D01*
X150255099Y-109096511D01*
X150487898Y-109167130D01*
X150669335Y-109185000D01*
X151590665Y-109185000D01*
X151772102Y-109167130D01*
X152004901Y-109096511D01*
X152219449Y-108981833D01*
X152407502Y-108827502D01*
X152561833Y-108639449D01*
X152676511Y-108424901D01*
X152747130Y-108192102D01*
X152770975Y-107950000D01*
X152747130Y-107707898D01*
X152676511Y-107475099D01*
X152561833Y-107260551D01*
X152407502Y-107072498D01*
X152219449Y-106918167D01*
X152004901Y-106803489D01*
X151772102Y-106732870D01*
X151590665Y-106715000D01*
X150669335Y-106715000D01*
X150487898Y-106732870D01*
X150255099Y-106803489D01*
X150040551Y-106918167D01*
X149852498Y-107072498D01*
X149698167Y-107260551D01*
X149583489Y-107475099D01*
X149512870Y-107707898D01*
X149489025Y-107950000D01*
X144996572Y-107950000D01*
X144492765Y-107446194D01*
X144469300Y-107417602D01*
X144355205Y-107323966D01*
X144225034Y-107254388D01*
X144083790Y-107211542D01*
X143973708Y-107200700D01*
X143973697Y-107200700D01*
X143936902Y-107197076D01*
X143900107Y-107200700D01*
X137470370Y-107200700D01*
X130978699Y-100709030D01*
X131025000Y-100476260D01*
X131025000Y-100183740D01*
X130967932Y-99896842D01*
X130855990Y-99626589D01*
X130693475Y-99383368D01*
X130486632Y-99176525D01*
X130243411Y-99014010D01*
X130204060Y-98997710D01*
X133759971Y-95441800D01*
X134953304Y-95441800D01*
X134894774Y-95583102D01*
%TA.AperFunction,Conductor*%
D24*
G36*
X134894774Y-95583102D02*
G01*
X134855000Y-95783061D01*
X134855000Y-95986939D01*
X134894774Y-96186898D01*
X134972795Y-96375256D01*
X135086063Y-96544774D01*
X135230226Y-96688937D01*
X135399744Y-96802205D01*
X135588102Y-96880226D01*
X135788061Y-96920000D01*
X135991939Y-96920000D01*
X136191898Y-96880226D01*
X136380256Y-96802205D01*
X136549774Y-96688937D01*
X136693937Y-96544774D01*
X136807205Y-96375256D01*
X136834525Y-96309300D01*
X137226884Y-96309300D01*
X137240498Y-96354180D01*
X137299463Y-96464494D01*
X137378815Y-96561185D01*
X137475506Y-96640537D01*
X137585820Y-96699502D01*
X137705518Y-96735812D01*
X137830000Y-96748072D01*
X137892601Y-96748072D01*
X137892600Y-97161928D01*
X137700000Y-97161928D01*
X137575518Y-97174188D01*
X137455820Y-97210498D01*
X137345506Y-97269463D01*
X137248815Y-97348815D01*
X137169463Y-97445506D01*
X137110498Y-97555820D01*
X137074188Y-97675518D01*
X137061928Y-97800000D01*
X137061928Y-99050000D01*
X137074188Y-99174482D01*
X137110498Y-99294180D01*
X137169463Y-99404494D01*
X137248815Y-99501185D01*
X137345506Y-99580537D01*
X137455820Y-99639502D01*
X137482601Y-99647626D01*
X137482601Y-99680611D01*
X137395518Y-99689188D01*
X137275820Y-99725498D01*
X137165506Y-99784463D01*
X137068815Y-99863815D01*
X136989463Y-99960506D01*
X136930498Y-100070820D01*
X136894188Y-100190518D01*
X136881928Y-100315000D01*
X136881928Y-101615000D01*
X136894188Y-101739482D01*
X136930498Y-101859180D01*
X136989463Y-101969494D01*
X137068815Y-102066185D01*
X137165506Y-102145537D01*
X137275820Y-102204502D01*
X137395518Y-102240812D01*
X137482601Y-102249389D01*
X137482601Y-102452639D01*
X137434774Y-102568102D01*
X137395000Y-102768061D01*
X137395000Y-102971939D01*
X137434774Y-103171898D01*
X137512795Y-103360256D01*
X137626063Y-103529774D01*
X137770226Y-103673937D01*
X137939744Y-103787205D01*
X138128102Y-103865226D01*
X138328061Y-103905000D01*
X138531939Y-103905000D01*
X138731898Y-103865226D01*
X138920256Y-103787205D01*
X139089774Y-103673937D01*
X139233937Y-103529774D01*
X139347205Y-103360256D01*
X139425226Y-103171898D01*
X139465000Y-102971939D01*
X139465000Y-102768061D01*
X139425226Y-102568102D01*
X139347205Y-102379744D01*
X139235854Y-102213095D01*
X139264180Y-102204502D01*
X139374494Y-102145537D01*
X139471185Y-102066185D01*
X139550537Y-101969494D01*
X139609502Y-101859180D01*
X139620000Y-101824573D01*
X139630498Y-101859180D01*
X139689463Y-101969494D01*
X139768815Y-102066185D01*
X139865506Y-102145537D01*
X139975820Y-102204502D01*
X140095518Y-102240812D01*
X140220000Y-102253072D01*
X141720000Y-102253072D01*
X141830700Y-102242169D01*
X141830700Y-102854630D01*
X140945331Y-103740000D01*
X140868061Y-103740000D01*
X140668102Y-103779774D01*
X140479744Y-103857795D01*
X140310226Y-103971063D01*
X140166063Y-104115226D01*
X140052795Y-104284744D01*
X139974774Y-104473102D01*
X139935000Y-104673061D01*
X139935000Y-104876939D01*
X139974774Y-105076898D01*
X140052795Y-105265256D01*
X140166063Y-105434774D01*
X140310226Y-105578937D01*
X140479744Y-105692205D01*
X140668102Y-105770226D01*
X140868061Y-105810000D01*
X141071939Y-105810000D01*
X141271898Y-105770226D01*
X141460256Y-105692205D01*
X141629774Y-105578937D01*
X141773937Y-105434774D01*
X141790490Y-105410000D01*
X149489025Y-105410000D01*
X149512870Y-105652102D01*
X149583489Y-105884901D01*
X149698167Y-106099449D01*
X149852498Y-106287502D01*
X150040551Y-106441833D01*
X150255099Y-106556511D01*
X150487898Y-106627130D01*
X150669335Y-106645000D01*
X151590665Y-106645000D01*
X151772102Y-106627130D01*
X152004901Y-106556511D01*
X152219449Y-106441833D01*
X152407502Y-106287502D01*
X152561833Y-106099449D01*
X152676511Y-105884901D01*
X152747130Y-105652102D01*
X152770975Y-105410000D01*
X152747130Y-105167898D01*
X152676511Y-104935099D01*
X152561833Y-104720551D01*
X152407502Y-104532498D01*
X152219449Y-104378167D01*
X152004901Y-104263489D01*
X151772102Y-104192870D01*
X151590665Y-104175000D01*
X150669335Y-104175000D01*
X150487898Y-104192870D01*
X150255099Y-104263489D01*
X150040551Y-104378167D01*
X149852498Y-104532498D01*
X149698167Y-104720551D01*
X149583489Y-104935099D01*
X149512870Y-105167898D01*
X149489025Y-105410000D01*
X141790490Y-105410000D01*
X141887205Y-105265256D01*
X141965226Y-105076898D01*
X142005000Y-104876939D01*
X142005000Y-104799669D01*
X143083812Y-103720857D01*
X143112398Y-103697398D01*
X143154575Y-103646006D01*
X143206034Y-103583304D01*
X143275612Y-103453132D01*
X143282790Y-103429469D01*
X143318458Y-103311888D01*
X143329300Y-103201806D01*
X143329300Y-103201796D01*
X143332924Y-103165000D01*
X143329300Y-103128204D01*
X143329300Y-96748072D01*
X143430000Y-96748072D01*
X143554482Y-96735812D01*
X143555000Y-96735655D01*
X143555518Y-96735812D01*
X143680000Y-96748072D01*
X144080000Y-96748072D01*
X144204482Y-96735812D01*
X144205000Y-96735655D01*
X144205518Y-96735812D01*
X144330000Y-96748072D01*
X144730000Y-96748072D01*
X144854482Y-96735812D01*
X144857446Y-96734913D01*
X144948250Y-96745000D01*
X145016218Y-96677032D01*
X145084494Y-96640537D01*
X145181185Y-96561185D01*
X145253000Y-96473678D01*
X145253000Y-96586250D01*
X145411750Y-96745000D01*
X145515911Y-96733429D01*
X145634925Y-96694935D01*
X145744142Y-96633963D01*
X145839365Y-96552854D01*
X145916935Y-96454727D01*
X145970059Y-96350810D01*
X145970060Y-102903786D01*
X145966251Y-102942459D01*
X145981454Y-103096816D01*
X146026477Y-103245241D01*
X146099594Y-103382031D01*
X146197990Y-103501928D01*
X146231921Y-103529774D01*
X146317888Y-103600325D01*
X146454677Y-103673441D01*
X146603103Y-103718465D01*
X146757459Y-103733668D01*
X146911816Y-103718465D01*
X147060242Y-103673441D01*
X147090252Y-103657400D01*
X149778553Y-103657400D01*
X149852498Y-103747502D01*
X150040551Y-103901833D01*
X150255099Y-104016511D01*
X150487898Y-104087130D01*
X150669335Y-104105000D01*
X151590665Y-104105000D01*
X151772102Y-104087130D01*
X152004901Y-104016511D01*
X152219449Y-103901833D01*
X152407502Y-103747502D01*
X152481447Y-103657400D01*
X153343850Y-103657400D01*
X158325877Y-108639428D01*
X158350531Y-108669469D01*
X158470428Y-108767866D01*
X158607217Y-108840982D01*
X158733838Y-108879392D01*
X158744188Y-108984482D01*
X158780498Y-109104180D01*
X158839463Y-109214494D01*
X158918815Y-109311185D01*
X159015506Y-109390537D01*
X159125820Y-109449502D01*
X159245518Y-109485812D01*
X159370000Y-109498072D01*
X160502601Y-109498072D01*
X160502601Y-110083848D01*
X160294521Y-110291928D01*
X159370000Y-110291928D01*
X159245518Y-110304188D01*
X159125820Y-110340498D01*
X159015506Y-110399463D01*
X158918815Y-110478815D01*
X158839463Y-110575506D01*
X158780498Y-110685820D01*
X158744188Y-110805518D01*
X158735611Y-110892600D01*
X155821152Y-110892600D01*
X154889125Y-109960575D01*
X154864469Y-109930531D01*
X154744572Y-109832134D01*
X154607783Y-109759018D01*
X154459357Y-109713994D01*
X154343673Y-109702600D01*
X154343663Y-109702600D01*
X154305000Y-109698792D01*
X154266337Y-109702600D01*
X152481447Y-109702600D01*
X152407502Y-109612498D01*
X152219449Y-109458167D01*
X152004901Y-109343489D01*
X151772102Y-109272870D01*
X151590665Y-109255000D01*
X150669335Y-109255000D01*
X150487898Y-109272870D01*
X150255099Y-109343489D01*
X150040551Y-109458167D01*
X149852498Y-109612498D01*
X149698167Y-109800551D01*
X149583489Y-110015099D01*
X149512870Y-110247898D01*
X149489025Y-110490000D01*
X149512870Y-110732102D01*
X149583489Y-110964901D01*
X149698167Y-111179449D01*
X149852498Y-111367502D01*
X150040551Y-111521833D01*
X150255099Y-111636511D01*
X150487898Y-111707130D01*
X150669335Y-111725000D01*
X151590665Y-111725000D01*
X151772102Y-111707130D01*
X152004901Y-111636511D01*
X152219449Y-111521833D01*
X152407502Y-111367502D01*
X152481447Y-111277400D01*
X153978850Y-111277400D01*
X154910881Y-112209433D01*
X154935531Y-112239469D01*
X154965567Y-112264119D01*
X154965569Y-112264121D01*
X155006812Y-112297968D01*
X155055428Y-112337866D01*
X155192217Y-112410982D01*
X155340643Y-112456006D01*
X155456327Y-112467400D01*
X155456336Y-112467400D01*
X155494999Y-112471208D01*
X155533662Y-112467400D01*
X158735611Y-112467400D01*
X158744188Y-112554482D01*
X158780498Y-112674180D01*
X158839463Y-112784494D01*
X158918815Y-112881185D01*
X159015506Y-112960537D01*
X159125820Y-113019502D01*
X159160427Y-113030000D01*
X159125820Y-113040498D01*
X159015506Y-113099463D01*
X158918815Y-113178815D01*
X158839463Y-113275506D01*
X158780498Y-113385820D01*
X158744188Y-113505518D01*
X158731928Y-113630000D01*
X158731928Y-115130000D01*
X158744188Y-115254482D01*
X158780498Y-115374180D01*
X158839463Y-115484494D01*
X158918815Y-115581185D01*
X159015506Y-115660537D01*
X159125820Y-115719502D01*
X159232600Y-115751893D01*
X159232600Y-115787600D01*
X152658018Y-115787600D01*
X152598731Y-115697000D01*
X151257000Y-115697000D01*
X151257000Y-115717000D01*
X151003000Y-115717000D01*
X151003000Y-115697000D01*
X149661269Y-115697000D01*
X149601982Y-115787600D01*
X146578072Y-115787600D01*
X146578072Y-115700000D01*
X146567912Y-115596843D01*
X146575000Y-115531750D01*
X146542753Y-115499503D01*
X146529502Y-115455820D01*
X146470537Y-115345506D01*
X146412445Y-115274720D01*
X146431332Y-115252391D01*
X149536538Y-115252391D01*
X149661269Y-115443000D01*
X151003000Y-115443000D01*
X151003000Y-114335000D01*
X151257000Y-114335000D01*
X151257000Y-115443000D01*
X152598731Y-115443000D01*
X152723462Y-115252391D01*
X152719591Y-115214718D01*
X152627421Y-114989467D01*
X152493078Y-114786526D01*
X152321725Y-114613693D01*
X152119946Y-114477610D01*
X151895496Y-114383507D01*
X151657000Y-114335000D01*
X151257000Y-114335000D01*
X151003000Y-114335000D01*
X150603000Y-114335000D01*
X150364504Y-114383507D01*
X150140054Y-114477610D01*
X149938275Y-114613693D01*
X149766922Y-114786526D01*
X149632579Y-114989467D01*
X149540409Y-115214718D01*
X149536538Y-115252391D01*
X146431332Y-115252391D01*
X146465208Y-115212343D01*
X146525806Y-115102918D01*
X146542473Y-115050777D01*
X146575000Y-115018250D01*
X146567568Y-114950000D01*
X146575000Y-114881750D01*
X146542473Y-114849223D01*
X146525806Y-114797082D01*
X146465208Y-114687657D01*
X146412445Y-114625280D01*
X146470537Y-114554494D01*
X146529502Y-114444180D01*
X146542753Y-114400497D01*
X146567270Y-114375981D01*
X146660226Y-114468937D01*
X146829744Y-114582205D01*
X147018102Y-114660226D01*
X147218061Y-114700000D01*
X147421939Y-114700000D01*
X147621898Y-114660226D01*
X147810256Y-114582205D01*
X147979774Y-114468937D01*
X148123937Y-114324774D01*
X148237205Y-114155256D01*
X148315226Y-113966898D01*
X148355000Y-113766939D01*
X148355000Y-113563061D01*
X148315226Y-113363102D01*
X148237205Y-113174744D01*
X148140491Y-113030000D01*
X149489025Y-113030000D01*
X149512870Y-113272102D01*
X149583489Y-113504901D01*
X149698167Y-113719449D01*
X149852498Y-113907502D01*
X150040551Y-114061833D01*
X150255099Y-114176511D01*
X150487898Y-114247130D01*
X150669335Y-114265000D01*
X151590665Y-114265000D01*
X151772102Y-114247130D01*
X152004901Y-114176511D01*
X152219449Y-114061833D01*
X152407502Y-113907502D01*
X152561833Y-113719449D01*
X152676511Y-113504901D01*
X152747130Y-113272102D01*
X152770975Y-113030000D01*
X152747130Y-112787898D01*
X152676511Y-112555099D01*
X152561833Y-112340551D01*
X152407502Y-112152498D01*
X152219449Y-111998167D01*
X152004901Y-111883489D01*
X151772102Y-111812870D01*
X151590665Y-111795000D01*
X150669335Y-111795000D01*
X150487898Y-111812870D01*
X150255099Y-111883489D01*
X150040551Y-111998167D01*
X149852498Y-112152498D01*
X149698167Y-112340551D01*
X149583489Y-112555099D01*
X149512870Y-112787898D01*
X149489025Y-113030000D01*
X148140491Y-113030000D01*
X148123937Y-113005226D01*
X147979774Y-112861063D01*
X147810256Y-112747795D01*
X147621898Y-112669774D01*
X147421939Y-112630000D01*
X147269277Y-112630000D01*
X147268132Y-112629388D01*
X147126888Y-112586542D01*
X147016806Y-112575700D01*
X147016795Y-112575700D01*
X147009328Y-112574965D01*
X147006801Y-112549304D01*
X147006801Y-110307397D01*
X147010425Y-110270599D01*
X147006801Y-110233801D01*
X147006801Y-110233793D01*
X146995959Y-110123711D01*
X146953113Y-109982467D01*
X146883535Y-109852296D01*
X146813362Y-109766789D01*
X146813355Y-109766782D01*
X146789899Y-109738201D01*
X146761318Y-109714745D01*
X144996572Y-107950000D01*
X149489025Y-107950000D01*
X149512870Y-108192102D01*
X149583489Y-108424901D01*
X149698167Y-108639449D01*
X149852498Y-108827502D01*
X150040551Y-108981833D01*
X150255099Y-109096511D01*
X150487898Y-109167130D01*
X150669335Y-109185000D01*
X151590665Y-109185000D01*
X151772102Y-109167130D01*
X152004901Y-109096511D01*
X152219449Y-108981833D01*
X152407502Y-108827502D01*
X152561833Y-108639449D01*
X152676511Y-108424901D01*
X152747130Y-108192102D01*
X152770975Y-107950000D01*
X152747130Y-107707898D01*
X152676511Y-107475099D01*
X152561833Y-107260551D01*
X152407502Y-107072498D01*
X152219449Y-106918167D01*
X152004901Y-106803489D01*
X151772102Y-106732870D01*
X151590665Y-106715000D01*
X150669335Y-106715000D01*
X150487898Y-106732870D01*
X150255099Y-106803489D01*
X150040551Y-106918167D01*
X149852498Y-107072498D01*
X149698167Y-107260551D01*
X149583489Y-107475099D01*
X149512870Y-107707898D01*
X149489025Y-107950000D01*
X144996572Y-107950000D01*
X144492765Y-107446194D01*
X144469300Y-107417602D01*
X144355205Y-107323966D01*
X144225034Y-107254388D01*
X144083790Y-107211542D01*
X143973708Y-107200700D01*
X143973697Y-107200700D01*
X143936902Y-107197076D01*
X143900107Y-107200700D01*
X137470370Y-107200700D01*
X130978699Y-100709030D01*
X131025000Y-100476260D01*
X131025000Y-100183740D01*
X130967932Y-99896842D01*
X130855990Y-99626589D01*
X130693475Y-99383368D01*
X130486632Y-99176525D01*
X130243411Y-99014010D01*
X130204060Y-98997710D01*
X133759971Y-95441800D01*
X134953304Y-95441800D01*
X134894774Y-95583102D01*
G37*
%TD.AperFunction*%
D23*
X149893699Y-84178685D02*
X149852498Y-84212498D01*
X149698167Y-84400551D01*
X149583489Y-84615099D01*
X149512870Y-84847898D01*
X149489025Y-85090000D01*
X149512870Y-85332102D01*
X149583489Y-85564901D01*
X149698167Y-85779449D01*
X149852498Y-85967502D01*
X150040551Y-86121833D01*
X150255099Y-86236511D01*
X150487898Y-86307130D01*
X150669335Y-86325000D01*
X151590665Y-86325000D01*
X151772102Y-86307130D01*
X152004901Y-86236511D01*
X152219449Y-86121833D01*
X152407502Y-85967502D01*
X152514730Y-85836844D01*
X163122600Y-96444716D01*
X163122601Y-107399050D01*
X161308072Y-105584522D01*
X161308072Y-104660000D01*
X161295812Y-104535518D01*
X161259502Y-104415820D01*
X161200537Y-104305506D01*
X161130364Y-104220000D01*
X161200537Y-104134494D01*
X161259502Y-104024180D01*
X161295812Y-103904482D01*
X161308072Y-103780000D01*
X161308072Y-102280000D01*
X161295812Y-102155518D01*
X161259502Y-102035820D01*
X161200537Y-101925506D01*
X161121185Y-101828815D01*
X161024494Y-101749463D01*
X160914180Y-101690498D01*
X160879573Y-101680000D01*
X160914180Y-101669502D01*
X161024494Y-101610537D01*
X161121185Y-101531185D01*
X161200537Y-101434494D01*
X161259502Y-101324180D01*
X161295812Y-101204482D01*
X161308072Y-101080000D01*
X161308072Y-99580000D01*
X161295812Y-99455518D01*
X161259502Y-99335820D01*
X161200537Y-99225506D01*
X161121185Y-99128815D01*
X161024494Y-99049463D01*
X160914180Y-98990498D01*
X160794482Y-98954188D01*
X160769300Y-98951708D01*
X160769300Y-98461798D01*
X160772924Y-98425000D01*
X160769300Y-98388202D01*
X160769300Y-98388194D01*
X160758458Y-98278112D01*
X160715612Y-98136868D01*
X160646034Y-98006697D01*
X160597152Y-97947134D01*
X160575861Y-97921190D01*
X160575854Y-97921183D01*
X160552398Y-97892602D01*
X160523817Y-97869147D01*
X159940862Y-97286193D01*
X159917398Y-97257602D01*
X159803303Y-97163966D01*
X159673132Y-97094388D01*
X159531888Y-97051542D01*
X159421806Y-97040700D01*
X159421795Y-97040700D01*
X159385000Y-97037076D01*
X159348205Y-97040700D01*
X152512715Y-97040700D01*
X152407502Y-96912498D01*
X152219449Y-96758167D01*
X152004901Y-96643489D01*
X151772102Y-96572870D01*
X151590665Y-96555000D01*
X150669335Y-96555000D01*
X150487898Y-96572870D01*
X150255099Y-96643489D01*
X150040551Y-96758167D01*
X149852498Y-96912498D01*
X149808355Y-96966287D01*
X148092067Y-95250000D01*
X149489025Y-95250000D01*
X149512870Y-95492102D01*
X149583489Y-95724901D01*
X149698167Y-95939449D01*
X149852498Y-96127502D01*
X150040551Y-96281833D01*
X150255099Y-96396511D01*
X150487898Y-96467130D01*
X150669335Y-96485000D01*
X151590665Y-96485000D01*
X151772102Y-96467130D01*
X152004901Y-96396511D01*
X152219449Y-96281833D01*
X152407502Y-96127502D01*
X152561833Y-95939449D01*
X152676511Y-95724901D01*
X152747130Y-95492102D01*
X152770975Y-95250000D01*
X152747130Y-95007898D01*
X152676511Y-94775099D01*
X152561833Y-94560551D01*
X152407502Y-94372498D01*
X152219449Y-94218167D01*
X152004901Y-94103489D01*
X151772102Y-94032870D01*
X151590665Y-94015000D01*
X150669335Y-94015000D01*
X150487898Y-94032870D01*
X150255099Y-94103489D01*
X150040551Y-94218167D01*
X149852498Y-94372498D01*
X149698167Y-94560551D01*
X149583489Y-94775099D01*
X149512870Y-95007898D01*
X149489025Y-95250000D01*
X148092067Y-95250000D01*
X146459029Y-93616963D01*
X146434375Y-93586922D01*
X146314478Y-93488525D01*
X146314474Y-93488523D01*
X146177688Y-93415408D01*
X146029263Y-93370385D01*
X145874906Y-93355182D01*
X145836233Y-93358991D01*
X144956142Y-93358990D01*
X145062205Y-93200256D01*
X145140226Y-93011898D01*
X145180000Y-92811939D01*
X145180000Y-92734669D01*
X145204669Y-92710000D01*
X149489025Y-92710000D01*
X149512870Y-92952102D01*
X149583489Y-93184901D01*
X149698167Y-93399449D01*
X149852498Y-93587502D01*
X150040551Y-93741833D01*
X150255099Y-93856511D01*
X150487898Y-93927130D01*
X150669335Y-93945000D01*
X151590665Y-93945000D01*
X151772102Y-93927130D01*
X152004901Y-93856511D01*
X152219449Y-93741833D01*
X152407502Y-93587502D01*
X152561833Y-93399449D01*
X152676511Y-93184901D01*
X152747130Y-92952102D01*
X152770975Y-92710000D01*
X152747130Y-92467898D01*
X152676511Y-92235099D01*
X152561833Y-92020551D01*
X152407502Y-91832498D01*
X152219449Y-91678167D01*
X152004901Y-91563489D01*
X151772102Y-91492870D01*
X151590665Y-91475000D01*
X150669335Y-91475000D01*
X150487898Y-91492870D01*
X150255099Y-91563489D01*
X150040551Y-91678167D01*
X149852498Y-91832498D01*
X149698167Y-92020551D01*
X149583489Y-92235099D01*
X149512870Y-92467898D01*
X149489025Y-92710000D01*
X145204669Y-92710000D01*
X145683811Y-92230859D01*
X145712398Y-92207398D01*
X145735860Y-92178810D01*
X145806034Y-92093304D01*
X145875612Y-91963132D01*
X145885585Y-91930256D01*
X145918458Y-91821888D01*
X145929300Y-91711806D01*
X145929300Y-91711797D01*
X145932924Y-91675001D01*
X145929300Y-91638205D01*
X145929300Y-90729391D01*
X145969502Y-90654180D01*
X146005812Y-90534482D01*
X146018072Y-90410000D01*
X146018072Y-90170000D01*
X149489025Y-90170000D01*
X149512870Y-90412102D01*
X149583489Y-90644901D01*
X149698167Y-90859449D01*
X149852498Y-91047502D01*
X150040551Y-91201833D01*
X150255099Y-91316511D01*
X150487898Y-91387130D01*
X150669335Y-91405000D01*
X151590665Y-91405000D01*
X151772102Y-91387130D01*
X152004901Y-91316511D01*
X152219449Y-91201833D01*
X152407502Y-91047502D01*
X152561833Y-90859449D01*
X152676511Y-90644901D01*
X152747130Y-90412102D01*
X152770975Y-90170000D01*
X152747130Y-89927898D01*
X152676511Y-89695099D01*
X152561833Y-89480551D01*
X152407502Y-89292498D01*
X152219449Y-89138167D01*
X152004901Y-89023489D01*
X151772102Y-88952870D01*
X151590665Y-88935000D01*
X150669335Y-88935000D01*
X150487898Y-88952870D01*
X150255099Y-89023489D01*
X150040551Y-89138167D01*
X149852498Y-89292498D01*
X149698167Y-89480551D01*
X149583489Y-89695099D01*
X149512870Y-89927898D01*
X149489025Y-90170000D01*
X146018072Y-90170000D01*
X146018072Y-89310000D01*
X146005812Y-89185518D01*
X145969502Y-89065820D01*
X145910537Y-88955506D01*
X145831185Y-88858815D01*
X145734494Y-88779463D01*
X145624180Y-88720498D01*
X145504482Y-88684188D01*
X145380000Y-88671928D01*
X144980000Y-88671928D01*
X144855518Y-88684188D01*
X144855000Y-88684345D01*
X144854482Y-88684188D01*
X144730000Y-88671928D01*
X144629300Y-88671928D01*
X144629300Y-88019859D01*
X144709634Y-87986583D01*
X144879152Y-87873315D01*
X145023315Y-87729152D01*
X145089566Y-87630000D01*
X149489025Y-87630000D01*
X149512870Y-87872102D01*
X149583489Y-88104901D01*
X149698167Y-88319449D01*
X149852498Y-88507502D01*
X150040551Y-88661833D01*
X150255099Y-88776511D01*
X150487898Y-88847130D01*
X150669335Y-88865000D01*
X151590665Y-88865000D01*
X151772102Y-88847130D01*
X152004901Y-88776511D01*
X152219449Y-88661833D01*
X152407502Y-88507502D01*
X152561833Y-88319449D01*
X152676511Y-88104901D01*
X152747130Y-87872102D01*
X152770975Y-87630000D01*
X152747130Y-87387898D01*
X152676511Y-87155099D01*
X152561833Y-86940551D01*
X152407502Y-86752498D01*
X152219449Y-86598167D01*
X152004901Y-86483489D01*
X151772102Y-86412870D01*
X151590665Y-86395000D01*
X150669335Y-86395000D01*
X150487898Y-86412870D01*
X150255099Y-86483489D01*
X150040551Y-86598167D01*
X149852498Y-86752498D01*
X149698167Y-86940551D01*
X149583489Y-87155099D01*
X149512870Y-87387898D01*
X149489025Y-87630000D01*
X145089566Y-87630000D01*
X145136583Y-87559634D01*
X145214604Y-87371276D01*
X145254378Y-87171317D01*
X145254378Y-86967439D01*
X145214604Y-86767480D01*
X145136583Y-86579122D01*
X145023315Y-86409604D01*
X144968783Y-86355072D01*
X145062205Y-86215256D01*
X145140226Y-86026898D01*
X145180000Y-85826939D01*
X145180000Y-85623061D01*
X145140226Y-85423102D01*
X145062205Y-85234744D01*
X144948937Y-85065226D01*
X144804774Y-84921063D01*
X144635256Y-84807795D01*
X144550047Y-84772500D01*
X144635256Y-84737205D01*
X144804774Y-84623937D01*
X144948937Y-84479774D01*
X145062205Y-84310256D01*
X145140226Y-84121898D01*
X145180000Y-83921939D01*
X145180000Y-83718061D01*
X145140226Y-83518102D01*
X145062205Y-83329744D01*
X144948937Y-83160226D01*
X144836712Y-83048001D01*
X148763015Y-83048001D01*
X149893699Y-84178685D01*
%TA.AperFunction,Conductor*%
D24*
G36*
X149893699Y-84178685D02*
G01*
X149852498Y-84212498D01*
X149698167Y-84400551D01*
X149583489Y-84615099D01*
X149512870Y-84847898D01*
X149489025Y-85090000D01*
X149512870Y-85332102D01*
X149583489Y-85564901D01*
X149698167Y-85779449D01*
X149852498Y-85967502D01*
X150040551Y-86121833D01*
X150255099Y-86236511D01*
X150487898Y-86307130D01*
X150669335Y-86325000D01*
X151590665Y-86325000D01*
X151772102Y-86307130D01*
X152004901Y-86236511D01*
X152219449Y-86121833D01*
X152407502Y-85967502D01*
X152514730Y-85836844D01*
X163122600Y-96444716D01*
X163122601Y-107399050D01*
X161308072Y-105584522D01*
X161308072Y-104660000D01*
X161295812Y-104535518D01*
X161259502Y-104415820D01*
X161200537Y-104305506D01*
X161130364Y-104220000D01*
X161200537Y-104134494D01*
X161259502Y-104024180D01*
X161295812Y-103904482D01*
X161308072Y-103780000D01*
X161308072Y-102280000D01*
X161295812Y-102155518D01*
X161259502Y-102035820D01*
X161200537Y-101925506D01*
X161121185Y-101828815D01*
X161024494Y-101749463D01*
X160914180Y-101690498D01*
X160879573Y-101680000D01*
X160914180Y-101669502D01*
X161024494Y-101610537D01*
X161121185Y-101531185D01*
X161200537Y-101434494D01*
X161259502Y-101324180D01*
X161295812Y-101204482D01*
X161308072Y-101080000D01*
X161308072Y-99580000D01*
X161295812Y-99455518D01*
X161259502Y-99335820D01*
X161200537Y-99225506D01*
X161121185Y-99128815D01*
X161024494Y-99049463D01*
X160914180Y-98990498D01*
X160794482Y-98954188D01*
X160769300Y-98951708D01*
X160769300Y-98461798D01*
X160772924Y-98425000D01*
X160769300Y-98388202D01*
X160769300Y-98388194D01*
X160758458Y-98278112D01*
X160715612Y-98136868D01*
X160646034Y-98006697D01*
X160597152Y-97947134D01*
X160575861Y-97921190D01*
X160575854Y-97921183D01*
X160552398Y-97892602D01*
X160523817Y-97869147D01*
X159940862Y-97286193D01*
X159917398Y-97257602D01*
X159803303Y-97163966D01*
X159673132Y-97094388D01*
X159531888Y-97051542D01*
X159421806Y-97040700D01*
X159421795Y-97040700D01*
X159385000Y-97037076D01*
X159348205Y-97040700D01*
X152512715Y-97040700D01*
X152407502Y-96912498D01*
X152219449Y-96758167D01*
X152004901Y-96643489D01*
X151772102Y-96572870D01*
X151590665Y-96555000D01*
X150669335Y-96555000D01*
X150487898Y-96572870D01*
X150255099Y-96643489D01*
X150040551Y-96758167D01*
X149852498Y-96912498D01*
X149808355Y-96966287D01*
X148092067Y-95250000D01*
X149489025Y-95250000D01*
X149512870Y-95492102D01*
X149583489Y-95724901D01*
X149698167Y-95939449D01*
X149852498Y-96127502D01*
X150040551Y-96281833D01*
X150255099Y-96396511D01*
X150487898Y-96467130D01*
X150669335Y-96485000D01*
X151590665Y-96485000D01*
X151772102Y-96467130D01*
X152004901Y-96396511D01*
X152219449Y-96281833D01*
X152407502Y-96127502D01*
X152561833Y-95939449D01*
X152676511Y-95724901D01*
X152747130Y-95492102D01*
X152770975Y-95250000D01*
X152747130Y-95007898D01*
X152676511Y-94775099D01*
X152561833Y-94560551D01*
X152407502Y-94372498D01*
X152219449Y-94218167D01*
X152004901Y-94103489D01*
X151772102Y-94032870D01*
X151590665Y-94015000D01*
X150669335Y-94015000D01*
X150487898Y-94032870D01*
X150255099Y-94103489D01*
X150040551Y-94218167D01*
X149852498Y-94372498D01*
X149698167Y-94560551D01*
X149583489Y-94775099D01*
X149512870Y-95007898D01*
X149489025Y-95250000D01*
X148092067Y-95250000D01*
X146459029Y-93616963D01*
X146434375Y-93586922D01*
X146314478Y-93488525D01*
X146314474Y-93488523D01*
X146177688Y-93415408D01*
X146029263Y-93370385D01*
X145874906Y-93355182D01*
X145836233Y-93358991D01*
X144956142Y-93358990D01*
X145062205Y-93200256D01*
X145140226Y-93011898D01*
X145180000Y-92811939D01*
X145180000Y-92734669D01*
X145204669Y-92710000D01*
X149489025Y-92710000D01*
X149512870Y-92952102D01*
X149583489Y-93184901D01*
X149698167Y-93399449D01*
X149852498Y-93587502D01*
X150040551Y-93741833D01*
X150255099Y-93856511D01*
X150487898Y-93927130D01*
X150669335Y-93945000D01*
X151590665Y-93945000D01*
X151772102Y-93927130D01*
X152004901Y-93856511D01*
X152219449Y-93741833D01*
X152407502Y-93587502D01*
X152561833Y-93399449D01*
X152676511Y-93184901D01*
X152747130Y-92952102D01*
X152770975Y-92710000D01*
X152747130Y-92467898D01*
X152676511Y-92235099D01*
X152561833Y-92020551D01*
X152407502Y-91832498D01*
X152219449Y-91678167D01*
X152004901Y-91563489D01*
X151772102Y-91492870D01*
X151590665Y-91475000D01*
X150669335Y-91475000D01*
X150487898Y-91492870D01*
X150255099Y-91563489D01*
X150040551Y-91678167D01*
X149852498Y-91832498D01*
X149698167Y-92020551D01*
X149583489Y-92235099D01*
X149512870Y-92467898D01*
X149489025Y-92710000D01*
X145204669Y-92710000D01*
X145683811Y-92230859D01*
X145712398Y-92207398D01*
X145735860Y-92178810D01*
X145806034Y-92093304D01*
X145875612Y-91963132D01*
X145885585Y-91930256D01*
X145918458Y-91821888D01*
X145929300Y-91711806D01*
X145929300Y-91711797D01*
X145932924Y-91675001D01*
X145929300Y-91638205D01*
X145929300Y-90729391D01*
X145969502Y-90654180D01*
X146005812Y-90534482D01*
X146018072Y-90410000D01*
X146018072Y-90170000D01*
X149489025Y-90170000D01*
X149512870Y-90412102D01*
X149583489Y-90644901D01*
X149698167Y-90859449D01*
X149852498Y-91047502D01*
X150040551Y-91201833D01*
X150255099Y-91316511D01*
X150487898Y-91387130D01*
X150669335Y-91405000D01*
X151590665Y-91405000D01*
X151772102Y-91387130D01*
X152004901Y-91316511D01*
X152219449Y-91201833D01*
X152407502Y-91047502D01*
X152561833Y-90859449D01*
X152676511Y-90644901D01*
X152747130Y-90412102D01*
X152770975Y-90170000D01*
X152747130Y-89927898D01*
X152676511Y-89695099D01*
X152561833Y-89480551D01*
X152407502Y-89292498D01*
X152219449Y-89138167D01*
X152004901Y-89023489D01*
X151772102Y-88952870D01*
X151590665Y-88935000D01*
X150669335Y-88935000D01*
X150487898Y-88952870D01*
X150255099Y-89023489D01*
X150040551Y-89138167D01*
X149852498Y-89292498D01*
X149698167Y-89480551D01*
X149583489Y-89695099D01*
X149512870Y-89927898D01*
X149489025Y-90170000D01*
X146018072Y-90170000D01*
X146018072Y-89310000D01*
X146005812Y-89185518D01*
X145969502Y-89065820D01*
X145910537Y-88955506D01*
X145831185Y-88858815D01*
X145734494Y-88779463D01*
X145624180Y-88720498D01*
X145504482Y-88684188D01*
X145380000Y-88671928D01*
X144980000Y-88671928D01*
X144855518Y-88684188D01*
X144855000Y-88684345D01*
X144854482Y-88684188D01*
X144730000Y-88671928D01*
X144629300Y-88671928D01*
X144629300Y-88019859D01*
X144709634Y-87986583D01*
X144879152Y-87873315D01*
X145023315Y-87729152D01*
X145089566Y-87630000D01*
X149489025Y-87630000D01*
X149512870Y-87872102D01*
X149583489Y-88104901D01*
X149698167Y-88319449D01*
X149852498Y-88507502D01*
X150040551Y-88661833D01*
X150255099Y-88776511D01*
X150487898Y-88847130D01*
X150669335Y-88865000D01*
X151590665Y-88865000D01*
X151772102Y-88847130D01*
X152004901Y-88776511D01*
X152219449Y-88661833D01*
X152407502Y-88507502D01*
X152561833Y-88319449D01*
X152676511Y-88104901D01*
X152747130Y-87872102D01*
X152770975Y-87630000D01*
X152747130Y-87387898D01*
X152676511Y-87155099D01*
X152561833Y-86940551D01*
X152407502Y-86752498D01*
X152219449Y-86598167D01*
X152004901Y-86483489D01*
X151772102Y-86412870D01*
X151590665Y-86395000D01*
X150669335Y-86395000D01*
X150487898Y-86412870D01*
X150255099Y-86483489D01*
X150040551Y-86598167D01*
X149852498Y-86752498D01*
X149698167Y-86940551D01*
X149583489Y-87155099D01*
X149512870Y-87387898D01*
X149489025Y-87630000D01*
X145089566Y-87630000D01*
X145136583Y-87559634D01*
X145214604Y-87371276D01*
X145254378Y-87171317D01*
X145254378Y-86967439D01*
X145214604Y-86767480D01*
X145136583Y-86579122D01*
X145023315Y-86409604D01*
X144968783Y-86355072D01*
X145062205Y-86215256D01*
X145140226Y-86026898D01*
X145180000Y-85826939D01*
X145180000Y-85623061D01*
X145140226Y-85423102D01*
X145062205Y-85234744D01*
X144948937Y-85065226D01*
X144804774Y-84921063D01*
X144635256Y-84807795D01*
X144550047Y-84772500D01*
X144635256Y-84737205D01*
X144804774Y-84623937D01*
X144948937Y-84479774D01*
X145062205Y-84310256D01*
X145140226Y-84121898D01*
X145180000Y-83921939D01*
X145180000Y-83718061D01*
X145140226Y-83518102D01*
X145062205Y-83329744D01*
X144948937Y-83160226D01*
X144836712Y-83048001D01*
X148763015Y-83048001D01*
X149893699Y-84178685D01*
G37*
%TD.AperFunction*%
D23*
X159270700Y-98735370D02*
X159270700Y-98951708D01*
X159245518Y-98954188D01*
X159125820Y-98990498D01*
X159015506Y-99049463D01*
X158918815Y-99128815D01*
X158839463Y-99225506D01*
X158780498Y-99335820D01*
X158744188Y-99455518D01*
X158731928Y-99580000D01*
X158731928Y-101080000D01*
X158744188Y-101204482D01*
X158780498Y-101324180D01*
X158839463Y-101434494D01*
X158918815Y-101531185D01*
X159015506Y-101610537D01*
X159125820Y-101669502D01*
X159160427Y-101680000D01*
X159125820Y-101690498D01*
X159015506Y-101749463D01*
X158918815Y-101828815D01*
X158839463Y-101925506D01*
X158780498Y-102035820D01*
X158766307Y-102082600D01*
X158156311Y-102082600D01*
X158139774Y-102066063D01*
X157970256Y-101952795D01*
X157781898Y-101874774D01*
X157581939Y-101835000D01*
X157378061Y-101835000D01*
X157178102Y-101874774D01*
X156989744Y-101952795D01*
X156820226Y-102066063D01*
X156676063Y-102210226D01*
X156562795Y-102379744D01*
X156484774Y-102568102D01*
X156445000Y-102768061D01*
X156445000Y-102971939D01*
X156484774Y-103171898D01*
X156562795Y-103360256D01*
X156578639Y-103383968D01*
X154179638Y-100984968D01*
X154154979Y-100954921D01*
X154035082Y-100856524D01*
X153898293Y-100783408D01*
X153749867Y-100738384D01*
X153634183Y-100726990D01*
X153634173Y-100726990D01*
X153595510Y-100723182D01*
X153556847Y-100726990D01*
X152702525Y-100726990D01*
X152719591Y-100685282D01*
X152723462Y-100647609D01*
X152598731Y-100457000D01*
X151257000Y-100457000D01*
X151257000Y-100477000D01*
X151003000Y-100477000D01*
X151003000Y-100457000D01*
X150983000Y-100457000D01*
X150983000Y-100203000D01*
X151003000Y-100203000D01*
X151003000Y-99095000D01*
X151257000Y-99095000D01*
X151257000Y-100203000D01*
X152598731Y-100203000D01*
X152723462Y-100012391D01*
X152719591Y-99974718D01*
X152627421Y-99749467D01*
X152493078Y-99546526D01*
X152321725Y-99373693D01*
X152119946Y-99237610D01*
X151895496Y-99143507D01*
X151657000Y-99095000D01*
X151257000Y-99095000D01*
X151003000Y-99095000D01*
X150603000Y-99095000D01*
X150561790Y-99103382D01*
X150561790Y-99014408D01*
X150669335Y-99025000D01*
X151590665Y-99025000D01*
X151772102Y-99007130D01*
X152004901Y-98936511D01*
X152219449Y-98821833D01*
X152407502Y-98667502D01*
X152512715Y-98539300D01*
X159074630Y-98539300D01*
X159270700Y-98735370D01*
%TA.AperFunction,Conductor*%
D24*
G36*
X159270700Y-98735370D02*
G01*
X159270700Y-98951708D01*
X159245518Y-98954188D01*
X159125820Y-98990498D01*
X159015506Y-99049463D01*
X158918815Y-99128815D01*
X158839463Y-99225506D01*
X158780498Y-99335820D01*
X158744188Y-99455518D01*
X158731928Y-99580000D01*
X158731928Y-101080000D01*
X158744188Y-101204482D01*
X158780498Y-101324180D01*
X158839463Y-101434494D01*
X158918815Y-101531185D01*
X159015506Y-101610537D01*
X159125820Y-101669502D01*
X159160427Y-101680000D01*
X159125820Y-101690498D01*
X159015506Y-101749463D01*
X158918815Y-101828815D01*
X158839463Y-101925506D01*
X158780498Y-102035820D01*
X158766307Y-102082600D01*
X158156311Y-102082600D01*
X158139774Y-102066063D01*
X157970256Y-101952795D01*
X157781898Y-101874774D01*
X157581939Y-101835000D01*
X157378061Y-101835000D01*
X157178102Y-101874774D01*
X156989744Y-101952795D01*
X156820226Y-102066063D01*
X156676063Y-102210226D01*
X156562795Y-102379744D01*
X156484774Y-102568102D01*
X156445000Y-102768061D01*
X156445000Y-102971939D01*
X156484774Y-103171898D01*
X156562795Y-103360256D01*
X156578639Y-103383968D01*
X154179638Y-100984968D01*
X154154979Y-100954921D01*
X154035082Y-100856524D01*
X153898293Y-100783408D01*
X153749867Y-100738384D01*
X153634183Y-100726990D01*
X153634173Y-100726990D01*
X153595510Y-100723182D01*
X153556847Y-100726990D01*
X152702525Y-100726990D01*
X152719591Y-100685282D01*
X152723462Y-100647609D01*
X152598731Y-100457000D01*
X151257000Y-100457000D01*
X151257000Y-100477000D01*
X151003000Y-100477000D01*
X151003000Y-100457000D01*
X150983000Y-100457000D01*
X150983000Y-100203000D01*
X151003000Y-100203000D01*
X151003000Y-99095000D01*
X151257000Y-99095000D01*
X151257000Y-100203000D01*
X152598731Y-100203000D01*
X152723462Y-100012391D01*
X152719591Y-99974718D01*
X152627421Y-99749467D01*
X152493078Y-99546526D01*
X152321725Y-99373693D01*
X152119946Y-99237610D01*
X151895496Y-99143507D01*
X151657000Y-99095000D01*
X151257000Y-99095000D01*
X151003000Y-99095000D01*
X150603000Y-99095000D01*
X150561790Y-99103382D01*
X150561790Y-99014408D01*
X150669335Y-99025000D01*
X151590665Y-99025000D01*
X151772102Y-99007130D01*
X152004901Y-98936511D01*
X152219449Y-98821833D01*
X152407502Y-98667502D01*
X152512715Y-98539300D01*
X159074630Y-98539300D01*
X159270700Y-98735370D01*
G37*
%TD.AperFunction*%
D23*
X141605518Y-96735812D02*
X141730000Y-96748072D01*
X141830701Y-96748072D01*
X141830701Y-97176074D01*
X141824482Y-97174188D01*
X141700000Y-97161928D01*
X141235750Y-97165000D01*
X141077000Y-97323750D01*
X141077000Y-98298000D01*
X141097000Y-98298000D01*
X141097000Y-98552000D01*
X141077000Y-98552000D01*
X141077000Y-98572000D01*
X140823000Y-98572000D01*
X140823000Y-98552000D01*
X140803000Y-98552000D01*
X140803000Y-98298000D01*
X140823000Y-98298000D01*
X140823000Y-97323750D01*
X140664250Y-97165000D01*
X140449300Y-97163578D01*
X140449300Y-96748072D01*
X140830000Y-96748072D01*
X140954482Y-96735812D01*
X140955000Y-96735655D01*
X140955518Y-96735812D01*
X141080000Y-96748072D01*
X141480000Y-96748072D01*
X141604482Y-96735812D01*
X141605000Y-96735655D01*
X141605518Y-96735812D01*
%TA.AperFunction,Conductor*%
D24*
G36*
X141605518Y-96735812D02*
G01*
X141730000Y-96748072D01*
X141830701Y-96748072D01*
X141830701Y-97176074D01*
X141824482Y-97174188D01*
X141700000Y-97161928D01*
X141235750Y-97165000D01*
X141077000Y-97323750D01*
X141077000Y-98298000D01*
X141097000Y-98298000D01*
X141097000Y-98552000D01*
X141077000Y-98552000D01*
X141077000Y-98572000D01*
X140823000Y-98572000D01*
X140823000Y-98552000D01*
X140803000Y-98552000D01*
X140803000Y-98298000D01*
X140823000Y-98298000D01*
X140823000Y-97323750D01*
X140664250Y-97165000D01*
X140449300Y-97163578D01*
X140449300Y-96748072D01*
X140830000Y-96748072D01*
X140954482Y-96735812D01*
X140955000Y-96735655D01*
X140955518Y-96735812D01*
X141080000Y-96748072D01*
X141480000Y-96748072D01*
X141604482Y-96735812D01*
X141605000Y-96735655D01*
X141605518Y-96735812D01*
G37*
%TD.AperFunction*%
%TD*%
M02*
