M48
; DRILL file {KiCad (5.1.9)-1} date 06/08/21 22:15:33
; FORMAT={-:-/ absolute / metric / decimal}
; #@! TF.CreationDate,2021-06-08T22:15:33-04:00
; #@! TF.GenerationSoftware,Kicad,Pcbnew,(5.1.9)-1
FMAT,2
METRIC
T1C0.400
T2C0.800
T3C1.000
T4C3.200
%
G90
G05
T1
X135.89Y-95.885
X136.525Y-113.665
X138.43Y-102.87
X140.97Y-104.775
X143.51Y-91.44
X143.51Y-110.49
X144.145Y-83.82
X144.145Y-85.725
X144.145Y-92.71
X144.145Y-100.33
X144.219Y-87.069
X145.415Y-110.49
X147.32Y-93.98
X147.32Y-113.665
X151.13Y-118.11
X157.48Y-102.87
T2
X151.13Y-69.85
X151.13Y-72.39
X151.13Y-74.93
X151.13Y-77.47
X151.13Y-80.01
X151.13Y-82.55
X151.13Y-85.09
X151.13Y-87.63
X151.13Y-90.17
X151.13Y-92.71
X151.13Y-95.25
X151.13Y-97.79
X151.13Y-100.33
X151.13Y-102.87
X151.13Y-105.41
X151.13Y-107.95
X151.13Y-110.49
X151.13Y-113.03
X151.13Y-115.57
X173.99Y-69.85
X173.99Y-72.39
X173.99Y-74.93
X173.99Y-77.47
X173.99Y-80.01
X173.99Y-82.55
X173.99Y-85.09
X173.99Y-87.63
X173.99Y-90.17
X173.99Y-92.71
X173.99Y-95.25
X173.99Y-97.79
X173.99Y-100.33
X173.99Y-102.87
X173.99Y-105.41
X173.99Y-107.95
X173.99Y-110.49
X173.99Y-113.03
X173.99Y-115.57
T3
X129.54Y-72.39
X129.54Y-74.93
X129.54Y-77.47
X129.54Y-80.01
X129.54Y-82.55
X129.54Y-85.09
X129.54Y-87.63
X129.54Y-90.17
X129.54Y-92.71
X129.54Y-100.33
X129.54Y-102.87
X129.54Y-105.41
X129.54Y-107.95
X129.54Y-110.49
X129.54Y-113.03
X129.54Y-115.57
X129.54Y-118.11
X129.54Y-120.65
X142.875Y-70.485
X145.415Y-70.485
T4
X135.255Y-71.12
X135.255Y-120.65
X168.275Y-71.12
X168.275Y-120.65
T0
M30
