%TF.GenerationSoftware,KiCad,Pcbnew,(5.1.9)-1*%
%TF.CreationDate,2021-06-08T22:15:24-04:00*%
%TF.ProjectId,AtariWiiWifi,41746172-6957-4696-9957-6966692e6b69,rev?*%
%TF.SameCoordinates,Original*%
%TF.FileFunction,Soldermask,Bot*%
%TF.FilePolarity,Negative*%
%FSLAX46Y46*%
G04 Gerber Fmt 4.6, Leading zero omitted, Abs format (unit mm)*
G04 Created by KiCad (PCBNEW (5.1.9)-1) date 2021-06-08 22:15:24*
%MOMM*%
%LPD*%
G01*
G04 APERTURE LIST*
%ADD10R,1.700000X1.700000*%
%ADD11O,1.700000X1.700000*%
%ADD12C,3.200000*%
%ADD13O,2.000000X1.200000*%
%ADD14R,2.000000X1.200000*%
G04 APERTURE END LIST*
D10*
%TO.C,J2A1*%
X129540000Y-92710000D03*
D11*
X129540000Y-90170000D03*
X129540000Y-87630000D03*
X129540000Y-85090000D03*
X129540000Y-82550000D03*
X129540000Y-80010000D03*
X129540000Y-77470000D03*
X129540000Y-74930000D03*
X129540000Y-72390000D03*
%TD*%
D12*
%TO.C,REF\u002A\u002A*%
X135255000Y-71120000D03*
%TD*%
%TO.C,REF\u002A\u002A*%
X168275000Y-71120000D03*
%TD*%
%TO.C,REF\u002A\u002A*%
X135255000Y-120650000D03*
%TD*%
%TO.C,REF\u002A\u002A*%
X168275000Y-120650000D03*
%TD*%
D11*
%TO.C,J1A1*%
X129540000Y-100330000D03*
X129540000Y-102870000D03*
X129540000Y-105410000D03*
X129540000Y-107950000D03*
X129540000Y-110490000D03*
X129540000Y-113030000D03*
X129540000Y-115570000D03*
X129540000Y-118110000D03*
D10*
X129540000Y-120650000D03*
%TD*%
D13*
%TO.C,U4*%
X151130000Y-115570000D03*
D14*
X173990000Y-115570000D03*
D13*
X151130000Y-113030000D03*
X173990000Y-113030000D03*
X151130000Y-110490000D03*
X173990000Y-110490000D03*
X151130000Y-107950000D03*
X173990000Y-107950000D03*
X151130000Y-105410000D03*
X173990000Y-105410000D03*
X151130000Y-102870000D03*
X173990000Y-102870000D03*
X151130000Y-100330000D03*
X173990000Y-100330000D03*
X151130000Y-97790000D03*
X173990000Y-97790000D03*
X151130000Y-95250000D03*
X173990000Y-95250000D03*
X151130000Y-92710000D03*
X173990000Y-92710000D03*
X151130000Y-90170000D03*
X173990000Y-90170000D03*
X151130000Y-87630000D03*
X173990000Y-87630000D03*
X151130000Y-85090000D03*
X173990000Y-85090000D03*
X151130000Y-82550000D03*
X173990000Y-82550000D03*
X151130000Y-80010000D03*
X173990000Y-80010000D03*
X151130000Y-77470000D03*
X173990000Y-77470000D03*
X151130000Y-74930000D03*
X173990000Y-74930000D03*
X151130000Y-72390000D03*
X173990000Y-72390000D03*
X151130000Y-69850000D03*
X173990000Y-69850000D03*
%TD*%
D11*
%TO.C,J3*%
X142875000Y-70485000D03*
D10*
X145415000Y-70485000D03*
%TD*%
M02*
